<?xml version="1.0" encoding="UTF-8"?>
<svg width="297mm" height="210mm" version="1.1" viewBox="0 0 1052.3622 744.09448" xmlns="http://www.w3.org/2000/svg">
 <defs>
  <linearGradient id="a" x1="199.9" x2="599.18" y1="520.21" y2="520.21" gradientUnits="userSpaceOnUse">
   <stop stop-color="#ec3d30" offset="0"/>
  </linearGradient>
 </defs>
 <g transform="translate(0 -308.27)">
  <g transform="matrix(1.0334 0 0 1.0334 -1716 -57.788)">
   <g stroke="#000">
    <path d="m215.04 623.56c-16.376-0.87778-36.384 8.0816-52.913 18.586l14.448 12.391c-13.334 1.6024-23.404 10.658-31.062 25.223l14.53 5.0615c-6.0479 17.037-11.87 34.146-8.3647 54.252 15.301 11.28 29.634 8.6766 43.753 3.0218l-0.81972 17.272c17.461-4.8155 27.853-15.361 30.136-32.482 7.442 3.0776 8.1227 12.639 10.546 20.529 23.251-12.802 31.798-39.556 30.247-66.806z" fill="#f9ab35" fill-rule="evenodd" stroke-width="3"/>
    <path d="m218.85 643.86c-12.611 2.4826-25.141 10.223-34.528 20.582l12.663 2.0182c-12.702 12.058-11.722 26.385-13.419 40.269 14.663 2.2228 26.326-0.50423 35.682-7.0352l4.1587 14.04c9.7787-10.807 20.087-23.988 23.567-40.614z" fill="#ed4335" fill-rule="evenodd" stroke-width="2.5"/>
    <g transform="matrix(.70711 .70711 -.70711 .70711 495.28 -149.72)">
     <path d="m399.54 371.42a197.14 197.14 0 0 0 -197.14 197.14 197.14 197.14 0 0 0 21.422 89.369 194.29 99.286 0 0 1 168.58 -50.082 194.29 99.286 0 0 1 177.62 59.357 197.14 197.14 0 0 0 26.664 -98.645 197.14 197.14 0 0 0 -197.14 -197.14z" fill="url(#a)" stroke-width="5"/>
     <path d="m397.63 569.16a194.29 99.286 0 0 0 -182.99 66.277 197.14 197.14 0 0 0 9.3613 22.191 194.29 99.286 0 0 1 168.58 -50.082 194.29 99.286 0 0 1 177.62 59.357 197.14 197.14 0 0 0 12.992 -27.543 194.29 99.286 0 0 0 -185.56 -70.201z" fill="#f0ca28" stroke-width="5"/>
     <path d="m227.9 636.84c85.24-82.623 279.24-47.822 347.06 11.901" fill="none" stroke-dasharray="4.91768635, 14.75305902" stroke-width="4.9177"/>
     <path d="m453.03 347.25a94.286 94.286 0 0 1 -60.633 22.207 94.286 94.286 0 0 1 -60.758 -22.189 99.286 194.29 0 0 0 -38.529 153.53 99.286 194.29 0 0 0 99.287 194.29 99.286 194.29 0 0 0 99.285 -194.29 99.286 194.29 0 0 0 -38.652 -153.55z" fill="#ec3d30" stroke-width="5"/>
     <path d="m391.31 285.65c-16.781 12.913-41.727 35.085-59.083 60.775 17.11 13.949 37.984 21.204 60.116 21.226 21.922-0.0614 43.097-7.6221 60.108-21.363-17.369-25.834-43.585-49.839-61.141-60.638z" fill="#b3b3b3" stroke-width="5.0147"/>
     <path d="m329.77 361.92c37.753 32.204 105.02 27.055 129.8-2.5254" fill="none" stroke-dasharray="5.3, 15.9" stroke-width="5.3"/>
     <g transform="translate(-250.52 186.7)">
      <ellipse transform="matrix(.92559 .37852 -.37852 .92559 0 0)" cx="691.89" cy="-6.7394" rx="23.133" ry="19.381" fill="#f0ca28" stroke-width="2.7673"/>
      <circle cx="642.46" cy="255.35" r="11.112" fill="#fff" stroke-width="3"/>
     </g>
     <g transform="translate(-250.52 252.36)">
      <ellipse transform="matrix(.92559 .37852 -.37852 .92559 0 0)" cx="691.89" cy="-6.7394" rx="23.133" ry="19.381" fill="#f0ca28" stroke-width="2.7673"/>
      <circle cx="642.46" cy="255.35" r="11.112" fill="#fff" stroke-width="3"/>
     </g>
     <g transform="translate(-250.52 318.02)">
      <ellipse transform="matrix(.92559 .37852 -.37852 .92559 0 0)" cx="691.89" cy="-6.7394" rx="23.133" ry="19.381" fill="#f0ca28" stroke-width="2.7673"/>
      <circle cx="642.46" cy="255.35" r="11.112" fill="#fff" stroke-width="3"/>
     </g>
     <g transform="translate(-215.54 -149.12)">
      <path d="m563.37 822.81-28.492 68.91s11.716 7.6062 34.86 12.608c10.106 2.184 22.39 3.8714 36.829 4.2122 14.379 0.33941 26.723-0.95368 36.946-2.9222 23.554-4.5352 35.851-12.655 35.851-12.655l-26.697-69.385s-8.6109 2.0603-18.904 3.9319c-8.7214 1.5858-18.651 3.0362-25.573 2.9831-6.3-0.0483-15.033-1.365-23.118-2.8952-11.507-2.1778-21.702-4.7879-21.702-4.7879z" fill="#b3b3b3" stroke-width="4.4123"/>
      <path d="m585.38 827.1-22.223 75.761" fill="none" stroke-width="3"/>
      <path d="m606.09 830.63 0.50507 76.267" fill="none" stroke-width="3"/>
      <path d="m630.84 827.1 14.647 77.782" fill="none" stroke-width="3"/>
     </g>
     <path d="m391.43 287.72v-38.438" fill="none" stroke-width="5.6263"/>
    </g>
   </g>
  </g>
  <g transform="matrix(2.1175 0 0 2.1175 -197.99 -271.12)" stroke="#000" stroke-linejoin="round">
   <ellipse transform="matrix(.65552 -.75518 .72823 .68533 0 0)" cx="-85.199" cy="558.03" rx="145.52" ry="129.75" fill="#fc0" stroke-width="5.002"/>
   <ellipse cx="441.44" cy="410.92" rx="14.513" ry="15.524" fill="#d4aa00" stroke-width="2.5"/>
   <ellipse cx="393.45" cy="407.38" rx="9.3465" ry="10.357" fill="#d4aa00" stroke-width="1.3"/>
   <ellipse cx="347.49" cy="445.13" rx="8.4692" ry="8.5954" fill="#d4aa00" stroke-width="1.6"/>
   <ellipse cx="294.46" cy="507.76" rx="8.4692" ry="8.5954" fill="#d4aa00" stroke-width="3"/>
   <ellipse cx="347.74" cy="551.45" rx="8.4692" ry="8.5954" fill="#d4aa00" stroke-width="1.8"/>
   <ellipse transform="matrix(.78478 .61977 -.65741 .75354 0 0)" cx="478.43" cy="53.886" rx="11.477" ry="12.203" fill="#d4aa00" stroke-width="1.9711"/>
   <ellipse transform="matrix(.99039 .13832 -.20082 .97963 0 0)" cx="342.56" cy="345.13" rx="8.6073" ry="8.7839" fill="#d4aa00" stroke-width="3.003"/>
   <ellipse cx="401.03" cy="486.17" rx="20.203" ry="19.698" fill="#d4aa00" stroke-width="3"/>
   <path d="m482.22 292.36a84.474 221.2 50.095 0 0 -77.92 19.588 129.25 145.96 32.414 0 1 31.598 16.746 62.225 174.86 51.588 0 1 23.432 -3.0156 62.225 174.86 51.588 0 1 25.367 8.3965 62.225 174.86 51.588 0 1 -90.529 154.61 62.225 174.86 51.588 0 1 -179.83 66.752 62.225 174.86 51.588 0 1 5.9609 -59.643 129.25 145.96 32.414 0 1 -3.8691 -34.133 84.474 221.2 50.095 0 0 -37.486 130.34 84.474 221.2 50.095 0 0 227.11 -83.023 84.474 221.2 50.095 0 0 108.99 -204.39 84.474 221.2 50.095 0 0 -32.82 -12.225z" fill="#e62925" stroke-width="5"/>
  </g>
 </g>
</svg>
