<?xml version="1.0" encoding="UTF-8"?>
<svg version="1.0" viewBox="0 0 551.59 165.59" xmlns="http://www.w3.org/2000/svg">
 <g transform="translate(-76.599 -77.92)">
  <g>
   <path d="m106.23 191.43 219.38-50.602-25.578 56.1-223.43 46.587 29.632-52.085z" fill="#06f"/>
   <path d="m260.09 183.3 22.934-19.393 43.032 7.8033 55.684 44.503-60.971 4.5964-60.678-37.51z" fill="#333"/>
   <path d="m284.77 107.65 13.462-3.6243 1.5533 2.2436 11.304-1.9848 10.83-0.6472 1.4454-5.156 12.459-2.9232 8.1278 4.4064 0.95732-4.01 52.686 34.238-0.14899 5.7284 6.0524 3.2957-2.4103 10.018-100.79-35.2-20.193 5.6954 4.6599-12.081z" fill="#e6e6e6"/>
   <path d="m280.81 118.05 11.871-8.2337-20.977 65.956-12.023 7.8389 21.129-65.561z" fill="#fd5"/>
   <path d="m292.58 109.79 17.652-3.9585-20.89 66.79-17.683 3.1988 20.921-66.03z" fill="#d4aa00"/>
   <path d="m310.19 105.78 22.249-0.46012-19.653 66.777-23.503 0.49052 20.908-66.807z" fill="#a80"/>
   <path d="m332.28 105.39 68.759 43.725-19.322 67.336-69.113-44.317 19.676-66.745z" fill="#806600"/>
   <path d="m408.81 128.52 219.38-50.602-26.273 55.405-222.74 47.282 29.632-52.085z" fill="#06f"/>
  </g>
 </g>
</svg>
