<?xml version='1.0' encoding='utf-8'?>
<svg xmlns="http://www.w3.org/2000/svg" width="597" height="324" viewBox="0 0 597 324"><title>Satelite spacex</title><g style="isolation:isolate"><g id="194892db-bc52-489f-bf9d-ce86e886d231" data-name="lineas"><path d="M248.52927,129.54827a9.898,9.898,0,0,1-1.39981-10.14181" fill="none" stroke="#000" stroke-linecap="round" stroke-linejoin="round" stroke-width="5.66929"/><path d="M247.06444,118.39178A738.02129,738.02129,0,0,1,288.905,44.49727" fill="none" stroke="#000" stroke-linecap="round" stroke-linejoin="round" stroke-width="5.66929"/><path d="M289.64172,43.49542l7.53853-2.51284" fill="none" stroke="#000" stroke-linecap="round" stroke-linejoin="round" stroke-width="5.66929"/><path d="M289.13706,44.7066c2.23595,4.23043,7.02627,6.34248,11.518,7.99192a209.142,209.142,0,0,0,66.83187,12.728" fill="none" stroke="#000" stroke-linecap="round" stroke-linejoin="round" stroke-width="5.66929"/><path d="M297.40632,40.94476A101.31149,101.31149,0,0,0,363.345,56.00253" fill="none" stroke="#000" stroke-linecap="round" stroke-linejoin="round" stroke-width="5.66929"/><path d="M298.29747,38.74819,301.16464,33.4c3.18309,4.27715,8.30437,6.60276,13.294,8.48149a149.224,149.224,0,0,0,48.96052,9.508c-1.80855-4.79995-7.03551-7.25971-11.8571-9.00976a162.49642,162.49642,0,0,0-48.77131-9.59841" fill="none" stroke="#000" stroke-linecap="round" stroke-linejoin="round" stroke-width="5.66929"/><path d="M310.25627,37.31l6.158-6.68667" fill="none" stroke="#000" stroke-linecap="round" stroke-linejoin="round" stroke-width="5.66929"/><path d="M320.07505,33.444l2.792-3.07125" fill="none" stroke="#000" stroke-linecap="round" stroke-linejoin="round" stroke-width="5.66929"/><path d="M344.92428,39.30735l1.396-3.90887" fill="none" stroke="#000" stroke-linecap="round" stroke-linejoin="round" stroke-width="5.66929"/><path d="M357.78187,48.84521,356.31,40.15542" fill="none" stroke="#000" stroke-linecap="round" stroke-linejoin="round" stroke-width="5.66929"/><path d="M363.631,58.29328l3.07125,3.90887" fill="none" stroke="#000" stroke-linecap="round" stroke-linejoin="round" stroke-width="5.66929"/><path d="M368.50231,65.86175l3.45932,82.33739" fill="none" stroke="#000" stroke-linecap="round" stroke-linejoin="round" stroke-width="5.66929"/><path d="M372.32413,149.32031a11.91133,11.91133,0,0,1-9.196,9.48806" fill="none" stroke="#000" stroke-linecap="round" stroke-linejoin="round" stroke-width="5.66929"/><path d="M334.12137,158.99154a177.84754,177.84754,0,0,0,28.38424-.01112" fill="none" stroke="#000" stroke-linecap="round" stroke-linejoin="round" stroke-width="5.66929"/><path d="M249.65129,130.4268a181.53653,181.53653,0,0,0,68.27659,26.54743" fill="none" stroke="#000" stroke-linecap="round" stroke-linejoin="round" stroke-width="5.66929"/><path d="M337.95788,152.034c12.26179,1.50229,25.134.7039,36.48316-4.52407" fill="none" stroke="#000" stroke-linecap="round" stroke-linejoin="round" stroke-width="5.66929"/><path d="M249.1203,120.85934a333.02576,333.02576,0,0,0,72.52416,28.02943" fill="none" stroke="#000" stroke-linecap="round" stroke-linejoin="round" stroke-width="5.66929"/><path d="M324.98233,140.15537a23.45432,23.45432,0,0,1-6.66678,19.66979l.84344-1.08017" fill="none" stroke="#000" stroke-linecap="round" stroke-linejoin="round" stroke-width="5.66929"/><path d="M337.4582,138.724a28.736,28.736,0,0,1-5.52352,21.62608c-2.00933,2.6197-4.70819,4.99541-7.9838,5.40843s-7.00184-1.90682-7.07166-5.20763" fill="none" stroke="#000" stroke-linecap="round" stroke-linejoin="round" stroke-width="5.66929"/><path d="M337.50851,137.48659a21.10351,21.10351,0,0,0-5.07109-3.23276,7.122,7.122,0,0,0-5.85017.03111,4.35653,4.35653,0,0,0-2.25451,5.0507" fill="none" stroke="#000" stroke-linecap="round" stroke-linejoin="round" stroke-width="5.66929"/><path d="M296.279,126.10885l-3.68392,7.51192" fill="none" stroke="#000" stroke-linecap="round" stroke-linejoin="round" stroke-width="5.66929"/><path d="M311.8922,110.41254A6.77725,6.77725,0,0,0,304.325,112.461a8.38912,8.38912,0,0,0-1.27453,7.93494,11.07984,11.07984,0,0,0,5.4883,6.08191,7.947,7.947,0,0,0,6.30257.72436,8.51042,8.51042,0,0,0,4.37113-4.628c1.20755-2.60419,1.71617-5.715.5295-8.32881s-4.45182-4.35813-7.072-3.18575" fill="none" stroke="#000" stroke-linecap="round" stroke-linejoin="round" stroke-width="5.66929"/><path d="M297.02339,125.52484l4.3918-19.16515c.37206-1.62363.85285-3.4089,2.2507-4.31479,1.61687-1.04783,3.74622-.481,5.57739.11825l16.19754,5.3003c2.555.83608,5.41862,1.954,6.37544,4.46635.9996,2.62462-.56653,5.46631-2.074,7.836l-3.79945,5.97253a19.32167,19.32167,0,0,1-2.00655,2.77645c-3.12005,3.38774-8.34934,4.11186-12.815,2.98529s-8.36048-3.79553-12.14862-6.415" fill="none" stroke="#000" stroke-linecap="round" stroke-linejoin="round" stroke-width="5.66929"/><path d="M300.28674,103.53742l9.88052-26.46781,17.24252,3.60714c2.74511.57428,5.76792,1.3284,7.32976,3.65779,1.49742,2.23331,1.15054,5.17744.74511,7.83556l-2.84736,18.6682" fill="none" stroke="#000" stroke-linecap="round" stroke-linejoin="round" stroke-width="2.83465"/><path d="M296.48961,53.72257a134.74866,134.74866,0,0,0-20.98956,38.38874" fill="none" stroke="#000" stroke-linecap="round" stroke-linejoin="round" stroke-width="2.83465"/><path d="M265.75605,89.21728a109.63724,109.63724,0,0,0,30.05168,15.35247" fill="none" stroke="#000" stroke-linecap="round" stroke-linejoin="round" stroke-width="2.83465"/><path d="M336.03593,114.80632a70.445,70.445,0,0,0,30.71646,1.5749" fill="none" stroke="#000" stroke-linecap="round" stroke-linejoin="round" stroke-width="2.83465"/><path d="M249.18479,132.10366q-14.20749,42.142-25.68419,85.1398" fill="none" stroke="#000" stroke-linecap="round" stroke-linejoin="round" stroke-width="5.66929"/><path d="M222.97474,218.15759C227,230,255.49607,239.29027,275,246c10.87874,3.7425,28.49589,7.90767,40,8s26-3,29-12" fill="none" stroke="#000" stroke-linecap="round" stroke-linejoin="round" stroke-width="5.66929"/><path d="M363,159c-5.72227,27.859-11,54-18.6792,81.59926" fill="none" stroke="#000" stroke-linecap="round" stroke-linejoin="round" stroke-width="5.66929"/><path d="M224.588,206.478l17.83319-67.91547" fill="none" stroke="#000" stroke-linecap="round" stroke-linejoin="round" stroke-width="5.66929"/><path d="M242.00538,136.86624,33.24544,86.00941" fill="none" stroke="#000" stroke-linecap="round" stroke-linejoin="round" stroke-width="5.66929"/><path d="M32.3411,86.057,17.06821,155.37971" fill="none" stroke="#000" stroke-linecap="round" stroke-linejoin="round" stroke-width="5.66929"/><path d="M16.45775,155.69748l205.96853,54.61034,1.41349-3.03925" fill="none" stroke="#000" stroke-linecap="round" stroke-linejoin="round" stroke-width="5.66929"/><path d="M87.57384,100.55379,71.76349,167.93215" fill="none" stroke="#000" stroke-linecap="round" stroke-linejoin="round" stroke-width="5.66929"/><path d="M145.20869,114.603l-17.179,69.62338" fill="none" stroke="#000" stroke-linecap="round" stroke-linejoin="round" stroke-width="5.66929"/><path d="M203.22349,129.03854l-18.12461,70.5732" fill="none" stroke="#000" stroke-linecap="round" stroke-linejoin="round" stroke-width="5.66929"/><path d="M74.069,140.69553a10.80158,10.80158,0,0,0,7.84171,1.90031" fill="none" stroke="#000" stroke-linecap="round" stroke-linejoin="round" stroke-width="5.66929"/><path d="M75.15358,135.31062l8.67313,2.16231" fill="none" stroke="#000" stroke-linecap="round" stroke-linejoin="round" stroke-width="5.66929"/><path d="M132.97732,142.20394l10.89059,2.22582" fill="none" stroke="#000" stroke-linecap="round" stroke-linejoin="round" stroke-width="5.66929"/><path d="M131.4,146.585l11.465,3.57305" fill="none" stroke="#000" stroke-linecap="round" stroke-linejoin="round" stroke-width="5.66929"/><path d="M189.49522,156.47178a55.25766,55.25766,0,0,1,11.25542,2.82647l.10411.62649" fill="none" stroke="#000" stroke-linecap="round" stroke-linejoin="round" stroke-width="5.66929"/><path d="M189.17362,161.9942l9.19766,2.57046" fill="none" stroke="#000" stroke-linecap="round" stroke-linejoin="round" stroke-width="5.66929"/><path d="M366.34278,168.27878l-18.5229,70.129" fill="none" stroke="#000" stroke-linecap="round" stroke-linejoin="round" stroke-width="5.66929"/><path d="M347.61634,238.14917Q449.8834,261.35948,550.6987,290.44111" fill="none" stroke="#000" stroke-linecap="round" stroke-linejoin="round" stroke-width="5.66929"/><path d="M365.71232,168.35352l211.85511,52.73207" fill="none" stroke="#000" stroke-linecap="round" stroke-linejoin="round" stroke-width="5.66929"/><path d="M577.22661,221.56073a441.10146,441.10146,0,0,1-23.19673,69.30208" fill="none" stroke="#000" stroke-linecap="round" stroke-linejoin="round" stroke-width="5.66929"/><path d="M404.61828,180.48865l-18.97256,65.97647" fill="none" stroke="#000" stroke-linecap="round" stroke-linejoin="round" stroke-width="5.66929"/><path d="M463.4638,193.75445l-19.73711,66.03047" fill="none" stroke="#000" stroke-linecap="round" stroke-linejoin="round" stroke-width="5.66929"/><path d="M521.5586,206.88935l-22.83665,68.3313" fill="none" stroke="#000" stroke-linecap="round" stroke-linejoin="round" stroke-width="5.66929"/><path d="M385.42975,218.82788a14.03427,14.03427,0,0,0,13.42436,3.22443" fill="none" stroke="#000" stroke-linecap="round" stroke-linejoin="round" stroke-width="5.66929"/><path d="M388.14017,213.08011l-.67168-.40552a41.67517,41.67517,0,0,0,14.96626,3.1039" fill="none" stroke="#000" stroke-linecap="round" stroke-linejoin="round" stroke-width="5.66929"/><path d="M443.30433,231.32876a15.67573,15.67573,0,0,0,13.89043,3.26036" fill="none" stroke="#000" stroke-linecap="round" stroke-linejoin="round" stroke-width="5.66929"/><path d="M445.96274,225.6015a24.28117,24.28117,0,0,0,13.45268,2.62813" fill="none" stroke="#000" stroke-linecap="round" stroke-linejoin="round" stroke-width="5.66929"/><path d="M504.6191,239.79043a15.09947,15.09947,0,0,0,13.14451,2.25755" fill="none" stroke="#000" stroke-linecap="round" stroke-linejoin="round" stroke-width="5.66929"/><path d="M506.54844,233.40378A14.02325,14.02325,0,0,0,518.2928,235.524" fill="none" stroke="#000" stroke-linecap="round" stroke-linejoin="round" stroke-width="5.66929"/><path d="M355.80285,182.28689l-8.30631,2.92613L334.9907,234.3a10.83175,10.83175,0,0,0,11.65758-5.10472" fill="none" stroke="#000" stroke-linecap="round" stroke-linejoin="round" stroke-width="2.83465"/><path d="M357.12384,173.0564l-11.13739,4.53-5.84964-4.93825a33.06066,33.06066,0,0,1,17.82423-5.3773" fill="none" stroke="#000" stroke-linecap="round" stroke-linejoin="round" stroke-width="2.83465"/><path d="M340.52412,172.67837,319.376,251.81625" fill="none" stroke="#000" stroke-linecap="round" stroke-linejoin="round" stroke-width="2.83465"/><path d="M293.18936,192.50551,289.37851,205.569l9.09322,2.40982,2.828-13.82615-6.69266-1.85328" fill="none" stroke="#000" stroke-linecap="round" stroke-linejoin="round" stroke-width="2.83465"/><path d="M291.951,197.49289l7.02595,1.24588" fill="none" stroke="#000" stroke-linecap="round" stroke-linejoin="round" stroke-width="2.83465"/><path d="M257.61961,236.50959l9.00059-28.36573a12.53262,12.53262,0,0,1,2.24634-4.68564,6.26131,6.26131,0,0,1,5.61378-1.98652,6.08864,6.08864,0,0,1,4.59334,3.76549c.93908,2.48915.11,5.2585-.72038,7.786l-9.57581,29.14619" fill="none" stroke="#000" stroke-linecap="round" stroke-linejoin="round" stroke-width="2.83465"/><path d="M273.59482,243.20153l2.32668-4.74089a106.45653,106.45653,0,0,0,45.39017,10.13325" fill="none" stroke="#000" stroke-linecap="round" stroke-linejoin="round" stroke-width="2.83465"/><path d="M281.6453,150.5171c.88077,1.37272-1.58337,2.97019-1.10635,4.52986.21471.702.95033,1.08482,1.61711,1.392l7.73694,3.5638,1.227-7.36334" fill="none" stroke="#000" stroke-linecap="round" stroke-linejoin="round" stroke-width="2.83465"/></g><g id="0d301756-504b-4b97-ab7a-32b2e03369c7" data-name="Color"><path d="M37.61661,91.099l-11.7462,43.13627c-1.20845,4.43787-2.3653,9.40185-.16873,13.4429,2.36485,4.35065,7.689,5.973,12.4861,7.20121l182.5762,46.7453,16.38909-60.04791L39.145,93.84458" fill="none" stroke="#325372" stroke-linecap="round" stroke-linejoin="round" stroke-width="11.33858"/><path d="M41.057,106.142q90.24615,24.10718,182.05815,41.73881l-.77459,8.09875A910.51313,910.51313,0,0,1,39.04231,108.98241c-2.92818,1.21628-3.207,5.6078-1.29421,8.13658s5.12173,3.63982,8.14173,4.60583a1178.19023,1178.19023,0,0,0,174.54981,41.48427l-.98814,10.43658L43.03575,130.93736c-2.68088-.649-5.45786-1.3017-8.17114-.80528s-5.36056,2.46751-5.73017,5.201,2.52485,5.62754,5.079,4.586C96.31733,152.23965,157.89609,170.67942,220,183c-1.16992,3.11807-1.83008,5.88193-3,9-49.17409-9.85946-98.33277-25.48388-147.50685-35.34333-12.64533-2.5354-25.4699-5.1316-36.97418-10.96117l-.21361-3.83629" fill="none" stroke="#325372" stroke-linecap="round" stroke-linejoin="round" stroke-width="14.17323"/><path d="M369.47667,176.23,354.62528,231.8359q99.67225,24.97115,198.22684,54.15039l17.9619-59.95763c-65.95192-17.61136-131.95-35.23368-198.8253-48.92723" fill="none" stroke="#325372" stroke-linecap="round" stroke-linejoin="round" stroke-width="14.17323"/><path d="M371.10019,188.29713l181.02244,45.73633c2.34378.59217,5.12648,1.6366,5.51565,4.02251.33174,2.03375-1.48069,3.91679-3.47867,4.421s-4.096-.00253-6.09367-.5081L370.891,197.12969l-2.53672,9.56538,184.23318,45.55229-2.69675,9.88167L366.68175,217.71475l-2.45687,5.01624L547.7402,270.33168" fill="none" stroke="#325372" stroke-linecap="round" stroke-linejoin="round" stroke-width="14.17323"/><path d="M299.10512,48.09671c-18.99946,15.71584-31.357,38.25218-38.96986,61.7045-2.24328,6.91071-4.11207,13.93633-5.97966,20.9579q-11.48616,43.18444-22.97233,86.36888" fill="none" stroke="#fff" stroke-linecap="round" stroke-linejoin="round" stroke-width="8.50394"/><path d="M299.0722,47.56957A135.64123,135.64123,0,0,0,358.09335,61.206l.52919-7.6214a151.79692,151.79692,0,0,1-54.3373-12.41476,55.79632,55.79632,0,0,1,46.71792,7.89679l-34.88959-8.16176" fill="none" stroke="#fff" stroke-linecap="round" stroke-linejoin="round" stroke-width="8.50394"/><path d="M360.1224,62.39022c3.96222,11.03019,4.12154,23.00849,4.23664,34.72817q.2635,26.83185.527,53.66371l-5.54826,1.26081-16.65824,74.81052c-1.22747,5.51243-2.67267,11.40715-6.90184,15.14984-4.14823,3.67106-10.05919,4.44123-15.59089,4.73257a148.00784,148.00784,0,0,1-87.868-23.59671l1.47023-3.07052" fill="none" stroke="#fff" stroke-linecap="round" stroke-linejoin="round" stroke-width="8.50394"/><path d="M239.61339,222.03765c5.92192-28.019,11.86309-56.1097,20.92944-83.27467s21.37336-53.51347,39.01407-76.07316" fill="none" stroke="#fff" stroke-linecap="round" stroke-linejoin="round" stroke-width="8.50394"/><path d="M259.68786,103.406l-9.12137,19.50517" fill="none" stroke="#fff" stroke-linecap="round" stroke-linejoin="round" stroke-width="8.50394"/><path d="M299.72868,53.56174a367.78312,367.78312,0,0,0-40.20412,72.92044" fill="none" stroke="#fff" stroke-linecap="round" stroke-linejoin="round" stroke-width="8.50394"/><path d="M295.68728,58.27715l63.25016,13.45532" fill="none" stroke="#fff" stroke-linecap="round" stroke-linejoin="round" stroke-width="8.50394"/><path d="M356.51247,72.79633a242.45281,242.45281,0,0,0-.38348,73.84" fill="none" stroke="#fff" stroke-linecap="round" stroke-linejoin="round" stroke-width="8.50394"/><path d="M306.5472,66.19627l-11.515,3.81144,55.186,6.3601a226.6085,226.6085,0,0,0-58.93436,5.10429,274.84083,274.84083,0,0,1,66.24174.34225L283.23865,92.015a310.82949,310.82949,0,0,1,70.726-1.61961A292.01808,292.01808,0,0,0,276.38954,104.444a183.51648,183.51648,0,0,1,73.24773-3.216,349.5632,349.5632,0,0,0-76.99647,15.32937,214.27054,214.27054,0,0,1,79.93109-1.834,389.98528,389.98528,0,0,0-83.14707,13.26669,216.10524,216.10524,0,0,1,72.95813-3.76254,518.01535,518.01535,0,0,0-75.32531,15.73023" fill="none" stroke="#fff" stroke-linecap="round" stroke-linejoin="round" stroke-width="8.50394"/><path d="M342.43153,124.29343l-78.14734,38.59716" fill="none" stroke="#fff" stroke-linecap="round" stroke-linejoin="round" stroke-width="8.50394"/><path d="M265.83861,132.68292a135.15217,135.15217,0,0,0,95.25779,20.706" fill="none" stroke="#fff" stroke-linecap="round" stroke-linejoin="round" stroke-width="8.50394"/><path d="M351.36382,80.0261l-3.444,61.98439-7.92967-65.80356a196.35844,196.35844,0,0,1-5.10531,76.70948q.30588-39.76167.61176-79.52334a251.78352,251.78352,0,0,1-7.31371,73.01465L334.44,71.61629a402.83287,402.83287,0,0,1-16.3396,79.35446L324.33291,77.16" fill="none" stroke="#fff" stroke-linecap="round" stroke-linejoin="round" stroke-width="8.50394"/><path d="M333.285,75.49415c-5.069-4.08544-13.15736-1.01587-16.796,4.38286s-4.18222,12.21628-5.11966,18.65888a126.131,126.131,0,0,1-13.27739,40.691l.97727-7.309" fill="none" stroke="#fff" stroke-linecap="round" stroke-linejoin="round" stroke-width="8.50394"/><path d="M325.27723,70.448l-18.58382,58.134" fill="none" stroke="#fff" stroke-linecap="round" stroke-linejoin="round" stroke-width="8.50394"/><path d="M303.00576,69.57416l-23.53028,34.4424c-2.12049,3.10386-4.27327,6.27466-5.32843,9.88258s-.849,7.792,1.45563,10.76171,7.0224,4.11648,9.98446,1.802c8.95139-20.48879,18.00538-41.159,31.14-59.25312,4.491,5.66878,1.79179,13.92984-1.07857,20.568l-21.784,50.379c1.61979,3.69745,7.12127,4.20381,10.40372,1.85425s4.75215-6.471,5.6099-10.41547,1.33-8.08158,3.3442-11.57985" fill="none" stroke="#fff" stroke-linecap="round" stroke-linejoin="round" stroke-width="8.50394"/><path d="M307.66008,78.07062c-4.85774,4.20741-9.65371,8.6034-13.22316,13.94745a79.93858,79.93858,0,0,0-5.73178,10.83886L276.12544,129.912" fill="none" stroke="#fff" stroke-linecap="round" stroke-linejoin="round" stroke-width="8.50394"/><path d="M292.816,133.47179l20.609-69.05811" fill="none" stroke="#fff" stroke-linecap="round" stroke-linejoin="round" stroke-width="8.50394"/><path d="M283.03864,129.25839a138.035,138.035,0,0,0,35.89044,15.60815" fill="none" stroke="#fff" stroke-linecap="round" stroke-linejoin="round" stroke-width="8.50394"/><path d="M359.99777,76.64035l-2.24579,63.8569" fill="none" stroke="#fff" stroke-linecap="round" stroke-linejoin="round" stroke-width="8.50394"/><path d="M268.6607,140.514l-19.701,58.81584c-1.89195,5.64826-3.80952,11.57589-2.83976,17.45312s5.86188,11.57007,11.81023,11.25472a374.0049,374.0049,0,0,1,19.86345-71.187c1.49806-3.84914,4.14611-8.38266,8.25872-8,2.99426.27863,5.1039,3.34837,5.35817,6.3448s-.881,5.91674-1.99587,8.70964L268.16674,217.1339c-1.50262,3.76426-3.03218,7.82095-2.1283,11.772s5.40085,7.30394,9.01774,5.47482a398.05954,398.05954,0,0,1,24.74524-79.8143c3.69365-.81135,7.20414,2.7029,7.83907,6.43093s-.76,7.46984-2.1302,10.99461l-26.16137,67.301,12.2415.92932a323.758,323.758,0,0,1,19.23281-71.72516c1.23273-3.113,2.65266-6.38373,5.4164-8.27377s7.2709-1.5937,8.73008,1.41983l-33.33429,83.89015,8.72842,2.38009a530.99768,530.99768,0,0,1,27.48463-86.54127,12.29947,12.29947,0,0,0,11.16558,3.03409,317.6349,317.6349,0,0,0-31.48512,84.18213l10.58948.27974L340.247,162.83484l8.99678,1.91636-25.73756,83.0453c3.41211.19308,6.60516-1.99853,8.54888-4.80953s2.86891-6.182,3.76135-9.481l20.23389-74.79623" fill="none" stroke="#fff" stroke-linecap="round" stroke-linejoin="round" stroke-width="14.17323"/><path d="M277.58132,140.72a256.83061,256.83061,0,0,0-25.47167,75.57609" fill="none" stroke="#fff" stroke-linecap="round" stroke-linejoin="round" stroke-width="14.17323"/><path d="M235.55921,218.9556a210.58792,210.58792,0,0,1,17.30388-44.14431" fill="none" stroke="#fff" stroke-linecap="round" stroke-linejoin="round" stroke-width="14.17323"/></g><g id="dce4c2e0-ac01-4be8-9a1c-fccde1365081" data-name="Sombra" opacity="0.17" style="mix-blend-mode:multiply"><path d="M75.261,134.65552q-1.85175.23071-3.69226.53833a1.768,1.768,0,0,0-1.39661,1.59985,6.56009,6.56009,0,0,0,.14148,1.78418c-1.70483.84888-2.59448,2.65918-2.37854,4.99463a1.48281,1.48281,0,0,0,1.002,1.146c1.01685.22876,2.03516.44312,3.05347.65991-.90747,5.05859-3.20886,9.82043-5.74719,14.27637-7.31213-2.194-14.65076-4.30835-21.98938-6.41016-4.0918-1.17187-8.175-2.38281-12.27783-3.51636-1.06409-.29395-4.32654-.542-4.83252-1.31848-1.191-1.82776.32617-6.00427.80933-7.86023q6.13184-23.55981,12.10718-47.15881c.425-1.68005-2.1106-2.59412-2.5675-.89648q-3.79248,14.094-7.53235,28.20154-1.99072,7.52783-3.96,15.061c-.91345,3.48926-2.91064,7.73718-2.83765,11.36035a4.43064,4.43064,0,0,0,2.53564,4.167c3.50854,2.16675,8.69531,2.87732,12.62231,4.07642,9.38867,2.86646,18.77563,5.752,28.20447,8.4834a2.00912,2.00912,0,0,0,2.281-.75464c3.24231-5.85449,4.58069-11.81909,5.98914-18.29419a1.376,1.376,0,0,0-.82446-1.70923c-.678-.22705-1.36108-.43457-2.042-.64966q.498-.48926.99585-.97876a1.72055,1.72055,0,0,0,1.39612-2.82031q-.06244-.15417-.12488-.30847c.587-.09192,1.17627-.17053,1.76147-.274C78.171,137.6864,77.45935,134.35852,75.261,134.65552Z" fill="#42210b"/><path d="M123.022,174.77368q-11.88666-3.34607-23.76929-6.707c-3.72705-1.05212-8.95837-1.58032-12.3916-3.40381-4.47925-2.37891-2.48145-6.00513-1.52124-10.07007,3.7583-15.91,8.55261-31.85254,11.15625-47.99976a1.27877,1.27877,0,0,0-2.459-.57886c-3.15015,9.31714-5.24036,19.02759-7.64355,28.56055q-1.92957,7.654-3.9165,15.29248c-.94409,3.62744-2.54919,7.54541-2.84546,11.28516-.58118,7.33862,7.88843,8.04053,13.33936,9.63892,9.47632,2.77856,18.9873,5.44141,28.47925,8.16565C124.20313,179.74707,125.791,175.55322,123.022,174.77368Z" fill="#42210b"/><path d="M134.21069,139.65283c-2.73828-1.14258-4.90137,1.10571-5.52856,3.68408a1.24094,1.24094,0,0,0-.41821.07068c-2.18188.79187-2.866,3.19263-2.395,5.32166a4.318,4.318,0,0,0,.1438,1.53625c.84863,2.99866,4.41284,4.09851,7.01636,2.7373a2.11048,2.11048,0,0,0-.98975-3.92139,1.942,1.942,0,0,1-1.64478-.5437,1.10914,1.10914,0,0,1,.56592-.10144,2.06016,2.06016,0,0,0,1.821-3.05029c-.855-1.22754.25708-2.218,1.376-2.65991A1.61085,1.61085,0,0,0,134.21069,139.65283Z" fill="#42210b"/><path d="M189.31348,164.17993q-.52258-1.65143-1.04517-3.303a2.20653,2.20653,0,0,0-.97192-4.24158q.14063-.3783.281-.75647c2.59668,1.11572,4.41528-2.88086,1.813-3.999-6.2041-2.66577-9.09448,4.5813-5.78711,7.739a5.72114,5.72114,0,0,0,2.656,8.28735c-2.21558,7.41675-4.45654,14.82593-6.6272,22.2561-7.915-1.56616-15.76587-3.42175-23.5188-5.665-4.011-1.16064-8.0437-2.35132-11.96973-3.77979-2.04077-.74243-4.53394-1.458-5.42285-3.6687a96.94324,96.94324,0,0,0,6.50122-23.90967,1.41742,1.41742,0,0,0-.0354-.50977c2.87939-11.12415,5.44385-22.3291,7.92383-33.59473.47388-2.15271-2.72754-2.593-3.30957-.56543-.06812.2373-.13525.47485-.20337.71216a1.3073,1.3073,0,0,0-.53784.65137A78.08942,78.08942,0,0,0,144.197,137.839a1.4184,1.4184,0,0,0-.01025.29333q-1.66,5.82422-3.3252,11.647c-1.43677,5.05981-2.84644,10.12744-4.2666,15.19214-.95142,3.39319-2.74585,7.46509-2.55029,11.19458q-.80164,2.44244-1.60742,4.88159c-.85107,2.5542,2.77026,4.34387,3.89453,1.76563.13477-.30908.26343-.62512.39722-.93579,3.68335,3.41406,10.32813,4.57935,14.46631,5.86475a284.88524,284.88524,0,0,0,29.66772,7.45825,2.4102,2.4102,0,0,0,2.71045-1.91931c2.56226-8.86145,4.98633-17.76208,7.4812-26.64221A2.13292,2.13292,0,0,0,189.31348,164.17993Z" fill="#42210b"/><path d="M235.66089,138.5343c-.30859,1.25073-.62451,2.49695-.936,3.74573a1.58647,1.58647,0,0,0-1.11646,1.103c-2.94946,10.13867-6.00854,20.24707-9.07373,30.35352-4.92432,10.45374-12.18823,19.36047-23.71631,23.97729a1.82914,1.82914,0,0,0-.90527.79736,30.42982,30.42982,0,0,1-9.41748-2.82837c-2.38574-1.14648-3.94067,2.546-1.99048,3.989a23.95064,23.95064,0,0,0,17.59009,4.6637,34.64568,34.64568,0,0,0,12.293,2.52588,2.36056,2.36056,0,0,0,1.8689-.82471c.28442.15.57178.28564.854.4469a2.32274,2.32274,0,0,0,3.45117-1.1532c1.85718-6.91833,3.5437-13.88074,5.21484-20.84583a2.28343,2.28343,0,0,0-1.12183-2.42358,316.25271,316.25271,0,0,0,10.376-42.84912C239.34521,137.29822,236.12915,136.63684,235.66089,138.5343Z" fill="#42210b"/><path d="M321.55933,78.649c-2.73-.58069-5.46606-1.11462-8.21069-1.62085a1.77931,1.77931,0,0,0-2.10156,2.059,2.03653,2.03653,0,0,0-.8833,1.06519c-.18945.51013-.35132,1.02234-.501,1.53528q-1.24915,1.85907-2.33154,3.7981a1.63,1.63,0,0,0-.38818.68982,55.21145,55.21145,0,0,0-3.66968,8.431,1.49007,1.49007,0,0,0,.1377,1.28906c-.06592.00012-.13159-.00085-.19751-.00085a2.34633,2.34633,0,0,0-.60718.08252q1.9032-6.36035,3.64307-12.78076a1.74058,1.74058,0,0,0-.15088-1.28137q.35889-.69086.717-1.382.2981.06262.5957.125c2.24512.47119,3.34619-2.90527,1.06714-3.44873l-2.105-.50171a1.88212,1.88212,0,0,0-2.09985.78357c-5.77051,10.37976-12.80493,20.71887-16.69336,31.99353-1.925,5.58252-3.93066,10.20313-9.40771,13.06006a17.494,17.494,0,0,1-15.15259.459c-2.2937-.981-4.03247,2.82117-1.81934,3.98462,2.73438,1.4375,6.11255,3.20557,8.31543,5.66992a28.2563,28.2563,0,0,1-11.49487-5.1106Q256.437,126.05,254.69507,124.5a1.71015,1.71015,0,0,0-2.7627.541c-.36523-.28931-.73511-.57227-1.0979-.8645-1.3291-1.071-2.7627.89844-1.60107,2.04041a104.74525,104.74525,0,0,0,25.165,18.1759,1.67541,1.67541,0,0,0,2.39111-.79858,7.77366,7.77366,0,0,0,3.22095.37939,2.24489,2.24489,0,0,0,1.14087-.39136,4.62389,4.62389,0,0,1,.26074.71289,2.2033,2.2033,0,0,0,4.21289.15015q3.45813-8.43567,6.48267-17.021,5.36316-13.91931,9.71289-28.18481a2.36419,2.36419,0,0,0,.65552.69727,19.83483,19.83483,0,0,0,15.05273,3.11951,2.13676,2.13676,0,0,0,1.43481-2.64575,17.82521,17.82521,0,0,1,3.60327-18.49719A1.99432,1.99432,0,0,0,321.55933,78.649Zm-48.73755,51.13647q-.449-.50336-.93848-.98084.89612-.06757,1.78345-.20642A1.9833,1.9833,0,0,0,272.82178,129.78552Zm3.18481,5.96692a12.28459,12.28459,0,0,0-1.32812-3.42773,2.16922,2.16922,0,0,0,.37476-.08105c.478-.1499.94092-.32593,1.40576-.49854-.05078.31287-.10327.62549-.15381.93835a1.56524,1.56524,0,0,0,.17578,1.06226,2.33981,2.33981,0,0,0,.26123.72913l.19238.344A2.204,2.204,0,0,0,276.00659,135.75244Z" fill="#42210b"/><path d="M316.85889,116.74622l-.032.01428c.11279-.11743.22827-.23242.34082-.3501,1.21216-1.26538-.08838-3.66479-1.82056-2.70264-.51489.286-1.03735.55859-1.55835.8335a1.96234,1.96234,0,0,0-.55688-1.511c1.01611-1.33972-.31787-3.62744-2.04053-2.66919a8.20858,8.20858,0,0,0-1.04858.70142,1.60279,1.60279,0,0,0-1.74731-.179,6.344,6.344,0,0,0-3.218,4.99438c-.45825.55322-.9082,1.11328-1.36987,1.66431-.90356,1.079.1604,2.6012,1.36572,2.73389a1.91823,1.91823,0,0,0,1.08008,1.56812,9.45481,9.45481,0,0,0,3.82373,4.2981,2.22633,2.22633,0,0,0,1.61475.16113,1.55535,1.55535,0,0,0,2.59546-.14209,60.37843,60.37843,0,0,1,4.52148-7.22461C319.80176,117.69385,318.12476,116.16016,316.85889,116.74622Z" fill="#42210b"/><path d="M331.18823,137.6853a2.26665,2.26665,0,0,0-2.57861-2.0177c-.07153-.12463-.12622-.25476-.20117-.37817a1.49919,1.49919,0,0,0-2.73267,1.13757,34.11422,34.11422,0,0,1,.16943,12.49683,28.08938,28.08938,0,0,1-6.03418,10.7074c-1.88843,2.11536,1.0481,5.1571,3.11572,3.15515a26.88729,26.88729,0,0,0,7.82324-15.801A33.01057,33.01057,0,0,0,331.18823,137.6853Z" fill="#42210b"/><path d="M294.033,50.67114l-.02808.02625a1.63921,1.63921,0,0,0-2.62085-.52759c-10.136,9.13586-17.26343,21.35852-21.3689,34.30627-1.85376-1.02783-4.11914,1.88037-2.33862,3.27051q.44458.347.88916.69409A4.34474,4.34474,0,0,0,273.79712,91.26a4.777,4.777,0,0,0,1.15405-.43286l.00488.001a2.09916,2.09916,0,0,0,2.52515-1.44507,93.0286,93.0286,0,0,1,5.634-16.6283c3.62646-7.20813,8.437-13.87524,13.22388-20.29358C297.38013,51.06531,295.21558,49.6427,294.033,50.67114Z" fill="#42210b"/><path d="M333.39233,49.5a111.21653,111.21653,0,0,0-12.47974-3.49988,1.525,1.525,0,0,0-.77881-.48132,70.46754,70.46754,0,0,1-15.63867-6.22119c-1.37646-.75269-2.96191,1.02026-2.32471,2.34814a20.422,20.422,0,0,0,1.72314,2.91919,33.56141,33.56141,0,0,0-6.38867.07251,1.57344,1.57344,0,0,0-.728.27283c-2.29126-.69348-3.67944,2.70862-1.37817,3.672,4.676,1.95728,9.35181,3.91943,14.07349,5.76489,2.20435.86157,4.3501-2.41565,2.16406-3.74512-.08667-.05273-.17383-.10156-.26025-.15381a18.20769,18.20769,0,0,0,1.865.60083c.02466.01221.04932.02185.07373.03418l.00317-.01184c.16284.0426.313.10046.479.13928,1.7583.41113,2.44434-1.63013,1.68481-2.87561a2.09327,2.09327,0,0,0,.67651.31189c5.41309,1.40308,10.83887,3.24951,16.36377,4.13086A1.71867,1.71867,0,0,0,333.39233,49.5Z" fill="#42210b"/><path d="M343.18579,42.31079q-7.79333-2.15808-15.58643-4.31592a1.687,1.687,0,0,0-2.0354.81091c-2.12451-.52478-4.25952-1.00452-6.33984-1.54944-1.989-.52087-3.15332,2.6427-1.20679,3.43628a75.37431,75.37431,0,0,0,24.85449,5.55823C345.2373,46.37109,345.24316,42.88037,343.18579,42.31079Z" fill="#42210b"/><path d="M277.48169,202.24438l-1.80835.81982a2.052,2.052,0,0,0-1.04834,1.04407,1.62763,1.62763,0,0,0-.16113.15479,2.13126,2.13126,0,0,0-3.75879-.29565c-6.2688,10.24133-10.85693,21.34045-12.54224,33.28528-.28687,2.03345,2.6145,3.41736,3.59741,1.3197.042-.08936.08545-.1781.12744-.26746a1.58455,1.58455,0,0,0,.56543-.55042c.48926-.80664.9541-1.63489,1.40869-2.47192q-.66541,2.04181-1.3313,4.08362c-.62134,1.915,2.281,3.41992,3.52075,1.86035l.363-.45679a2.01269,2.01269,0,0,0,3.07861-1.22693,282.08425,282.08425,0,0,1,10.33057-34.47253C280.33545,203.7052,279.25659,201.4397,277.48169,202.24438Z" fill="#42210b"/><path d="M340.74438,177.33179c-2.97241,9.40967-5.783,18.86182-8.54614,28.33105q3.475-12.74048,6.5332-25.56006.68921-2.83923,1.3501-5.69458a2.12336,2.12336,0,0,0,.05518-.41492q.20874-.6394.41675-1.27917c.78589-2.40308-3.08057-3.15088-3.86279-.76685q-6.53943,19.92957-13.1311,39.84167c-1.81274,5.48474-3.491,11.046-5.40576,16.50354-3.16089,5.74268-7.2981,10.7749-13.43335,13.3645a2.13479,2.13479,0,0,0-.27075,3.8877c4.74243,3.05054,11.31348,6.44092,16.75488,2.92017,5.353-3.46387,6.30664-11.79224,7.90771-17.36768,5.07568-17.677,10.24365-35.32324,14.88184-53.12036C344.53979,175.88269,341.37378,175.33911,340.74438,177.33179ZM321.3396,242.01416q.33875-1.04022.67529-2.0813a34.32524,34.32524,0,0,0,1.905-5.9906q.62988-2.00885,1.251-4.02112-.87488,3.0271-1.75,6.0542A29.69278,29.69278,0,0,1,321.3396,242.01416Z" fill="#42210b"/><path d="M354.41309,187.52637c.16528-.533.31982-1.0686.48975-1.60059a3.60363,3.60363,0,0,0-3.83325-3.03369q-.55408.43469-1.1084.86938a2.02991,2.02991,0,0,0-.34155,2.81409c-.18359.68335-.36377,1.36877-.54687,2.05261a1.60622,1.60622,0,0,0-2.87427.61426c-2.02051,9.3772-3.7478,18.81909-5.39209,28.27515q-.66394,2.84546-1.231,5.71338a1.80269,1.80269,0,0,0-2.365,1.48413c-.09375,1.60864-.19165,3.217-.28125,4.82568a31.18555,31.18555,0,0,1-5.22778,13.22485q-1.11658,1.47729-2.228,2.95776c-1.60083,2.12183,1.38818,4.82288,3.13989,2.75073.26-.30762.50537-.61987.752-.93164a2.2885,2.2885,0,0,0,2.543-.33813,23.26671,23.26671,0,0,0,3.14185-3.4082,2.16715,2.16715,0,0,0,1.81226-1.50049c.041-.1261.08032-.25269.12109-.37891a1.90209,1.90209,0,0,0,2.09839-1.626q.22266-1.173.4458-2.34595a2.449,2.449,0,0,0,1.26147-1.07617,26.77732,26.77732,0,0,0,3.02222-12.6709,1.74335,1.74335,0,0,0-.80786-1.52271q4.35059-16.52014,8.66309-33.04993A1.78329,1.78329,0,0,0,354.41309,187.52637Z" fill="#42210b"/><path d="M452.4353,228.98291a2.72348,2.72348,0,0,0-1.01685-1.656,9.74559,9.74559,0,0,0-12.74731.55139,2.17857,2.17857,0,0,0-.21729,2.87317,4.84864,4.84864,0,0,0,.78687,3.61365,4.70888,4.70888,0,0,0-.23706,2.8949,4.81337,4.81337,0,0,0,1.834,2.86719q-2.19727,5.31555-4.3999,10.62842-11.45032-3.1593-22.90063-6.31885-6.50537-1.795-13.01611-3.56885c-2.19849-.59717-4.6189-.94727-5.70972-2.88818,4.89893-18.29565,9.38428-36.69629,14.259-54.99512a1.70375,1.70375,0,0,0-3.08472-1.34094c-1.05151,1.56628-2.01782,3.18115-2.93921,4.82056a1.98213,1.98213,0,0,0-.37012.65125c-5.06641,9.23-8.19287,19.50317-10.22266,29.95984a6.22585,6.22585,0,0,0-3.68115-3.52185c-2.92334-1.05664-7.56885-1.21094-8.52563,2.554a3.25771,3.25771,0,0,0,.57983,3.04712,3.67642,3.67642,0,0,0-.34668.75928c-.80713,2.51721.38672,3.65845,2.14429,4.20166a3.79569,3.79569,0,0,0,3.07593,2.44043,41.61082,41.61082,0,0,0-3.28418,9.94946c-.26587,1.83887,2.42114,3.01843,3.459,1.36572,2.13721-3.40369,3.26318-7.56958,4.52881-11.47412.18384-.04395.35767-.09326.53076-.14307-.4231,3.02942-.78345,6.05334-1.08643,9.04932a10.24741,10.24741,0,0,0,.17041,3.39868c-.09106.46057-.1875.92029-.27734,1.3811a2.263,2.263,0,0,0,1.61816,2.65308q-1.97351-.3609-3.94727-.722a1.97329,1.97329,0,0,0-1.38281-2.53381q-12.46179-3.62512-24.94336-7.17566c2.87793-19.632,6.68408-39.11084,11.082-58.45667.35669-1.56934-1.979-2.32654-2.42187-.73791-.10425.37366-.19751.74988-.30054,1.1239a1.42128,1.42128,0,0,0-2.36084.42114c-4.84009,16.55725-8.80737,33.37463-12.95435,50.11621-1.15479,4.66077-3.56006,10.32459,1.21094,13.72388,2.26953,1.61707,5.31543,2.16138,7.93457,2.911,4.22949,1.21057,8.44922,2.46765,12.70093,3.5979a2.3181,2.3181,0,0,0,2.70142-3.16687q1.96362.5592,3.92676,1.11877a1.9906,1.9906,0,0,0,1.3479,3.0553q25.29236,4.66919,50.58569,9.33228-.1106.26678-.22095.53369c-1.00952,2.44165,2.97583,4.13074,4.23511,1.84094.29883-.54382.58936-1.09167.88623-1.63635.44824.078.89551.15955,1.34375.2373a2.212,2.212,0,0,0,2.69312-1.49c.73315-3.56506,1.5293-7.11389,2.3269-10.665a2.25544,2.25544,0,0,0-.78638-2.24658q.16992-.416.3396-.832a5.81535,5.81535,0,0,0,4.26587-2.93176,2.42388,2.42388,0,0,0-.85889-3.15112,2.04844,2.04844,0,0,0,.01221-2.31531,1.63278,1.63278,0,0,0,.29468-.207c.25293-.10791.50391-.22656.75171-.36C451.844,233.27466,453.70459,230.58057,452.4353,228.98291Zm-61.4812-6.75c-.00269-.0127-.00684-.0249-.00977-.03748a1.91009,1.91009,0,0,0,.731-.83459c-.06982.41919-.13037.83838-.19727,1.25757Q391.21582,222.42578,390.9541,222.23291Z" fill="#42210b"/><path d="M553.88135,284.2074q-11.73413-3.902-23.60156-7.30591-5.97-1.84882-11.936-3.70862a23.63789,23.63789,0,0,1-5.43384-2.05151c2.79639-4.86938,3.50317-11.91846,4.57373-16.53577,3.19507-13.77893,6.45581-27.53979,9.28149-41.40015a1.58707,1.58707,0,0,0-3.10352-.65662c-1.04834,3.832-2.05322,7.67407-3.043,11.51978a1.50828,1.50828,0,0,0-.86157.84387c-1.58545,3.6084-3.01953,7.30725-4.35767,11.059a18.3468,18.3468,0,0,0-10.59888-4.21509A2.11994,2.11994,0,0,0,502.675,234.731a2.01341,2.01341,0,0,0-1.0061,1.03052q-.293-.052-.58594-.10388a2.27392,2.27392,0,0,0-2.37891,2.121c-.00684.11157-.0166.22241-.02368.334a2.157,2.157,0,0,0-.25391,3.55615c-.01245.15771-.02222.31567-.03516.47339a2.30414,2.30414,0,0,0-.251,2.76392q-.46912,4.99768-1.13184,9.97949c-.44629,3.34119-.3811,9.40894-5.16284,9.91455-2.5835.27319-6.43359-1.32935-8.91455-1.89722q-13.40332-3.06812-26.80835-6.12622c4.60034-18.62683,9.22974-37.32251,12.98511-56.13965a1.79315,1.79315,0,0,0-1.24658-2.07947c.10742-.4071.21875-.814.32544-1.22107.64331-2.45264-2.92676-3.66418-3.76343-1.23535A249.87374,249.87374,0,0,0,456.02,226.50781c-.1626.59351-.32812,1.18628-.49023,1.77991q-2.20093,8.05426-4.39258,16.11108c-.939,3.443-2.24951,7.201-1.80664,10.83179-.45508-.103-.90967-.20776-1.365-.31067-2.95142-.66736-4.48853,3.73242-1.488,4.53381q2.68213.71649,5.36719,1.42236c3.24707,3.74475,8.87646,5.1925,13.6084,6.11719q15.73462,3.07489,31.63892,5.15271a2.30467,2.30467,0,0,0,2.386-2.12756,72.79717,72.79717,0,0,1,6.915-21.97168,21.17229,21.17229,0,0,0,4.72168.19495q-1.36523,4.89917-2.78491,9.78345c-1.32861,2.46826-2.58618,4.97815-2.78,7.79785a10.42134,10.42134,0,0,0,.01709,1.66211q-.71594,2.3291-1.45288,4.637c-.24146.3877-.47144.77893-.7251,1.163a2.23489,2.23489,0,0,0,2.09106,3.22522,9.37377,9.37377,0,0,0,2.70068-.77295q13.06238,3.30212,25.99268,7.10107,9.37866,2.9328,18.75684,5.86462C555.76733,289.58936,556.64893,285.12769,553.88135,284.2074Z" fill="#42210b"/><path d="M564.74463,231.41455a1.62354,1.62354,0,0,0-.21924-1.736,1.72666,1.72666,0,0,0-1.7251-.80383,1.57373,1.57373,0,0,0-.876.3186,2.80883,2.80883,0,0,0-.45923.28748c-.20288.15857-.39575.33289-.59253.49878a1.96119,1.96119,0,0,0,2.4585,3.05627,6.28766,6.28766,0,0,0,1.19287-1.24,1.85627,1.85627,0,0,0,.13354-.23071C564.68506,231.51343,564.71973,231.46912,564.74463,231.41455Z" fill="#42210b"/><path d="M555.791,237.18567c-1.28638,0-1.04175,1.98645.23242,1.98645C557.30981,239.17212,557.06519,237.18567,555.791,237.18567Z" fill="#42210b"/><path d="M563.89648,240.66675a1.82614,1.82614,0,0,0-1.67456,2.15576l.02051.15479a1.7898,1.7898,0,0,0,1.87549,1.429,1.81192,1.81192,0,0,0,1.68457-1.64929q.01062-.07855.02075-.15735A1.81625,1.81625,0,0,0,563.89648,240.66675Z" fill="#42210b"/><path d="M553.14478,251.47852c-1.27417,0-1.48364,1.99121-.19336,1.99121C554.22559,253.46973,554.4353,251.47852,553.14478,251.47852Z" fill="#42210b"/><path d="M548.33545,254.16248c-1.50366,0-1.6167,2.34143-.10474,2.34143C549.73438,256.50391,549.84741,254.16248,548.33545,254.16248Z" fill="#42210b"/><path d="M503.70752,213.67847a1.83635,1.83635,0,0,0-.76758-.28589,1.49237,1.49237,0,1,0-.0415,2.8855,1.83667,1.83667,0,0,0,.761-.2688A1.36518,1.36518,0,0,0,503.70752,213.67847Z" fill="#42210b"/><path d="M499.74414,224.31494c-1.28271,0-1.418,1.99634-.12988,1.99634C500.897,226.31128,501.03223,224.31494,499.74414,224.31494Z" fill="#42210b"/><path d="M490.1062,217.572c-.79858.124-1.62476.49353-1.70532,1.416a1.59381,1.59381,0,0,0,1.39209,1.63623,1.55351,1.55351,0,0,0,1.88232-1.34912C491.759,218.45459,491.043,217.42651,490.1062,217.572Z" fill="#42210b"/><path d="M485.40747,212.40063a1.00062,1.00062,0,0,0-.04712,1.99951A1.00062,1.00062,0,0,0,485.40747,212.40063Z" fill="#42210b"/><path d="M484.42334,222.96777a1.33085,1.33085,0,0,0-1.98926.09424,5.01011,5.01011,0,0,0-.55225.81592,1.22454,1.22454,0,0,0,.36572,1.44019,1.27482,1.27482,0,0,0,1.47681.02319,3.30339,3.30339,0,0,0,.5415-.38843A1.33241,1.33241,0,0,0,484.42334,222.96777Z" fill="#42210b"/><path d="M493.20947,232.59106a2.87661,2.87661,0,0,0-.46045.07642,1.26,1.26,0,0,0-.11963,2.41431,5.1206,5.1206,0,0,0,.79175.13525,1.32695,1.32695,0,1,0-.21167-2.626Z" fill="#42210b"/><path d="M480.64648,241.46753a1.00087,1.00087,0,0,0-.05518,1.99976A1.00087,1.00087,0,0,0,480.64648,241.46753Z" fill="#42210b"/><path d="M474.44092,244.80322a1.00056,1.00056,0,0,0-.03345,1.99963A1.00056,1.00056,0,0,0,474.44092,244.80322Z" fill="#42210b"/><path d="M474.47827,231.59424c-1.72778,0-1.8396,2.686-.10815,2.686C476.0979,234.28027,476.21,231.59424,474.47827,231.59424Z" fill="#42210b"/><path d="M423.44238,197.23914a4.62528,4.62528,0,0,0-1.12842-1.81433,1.77347,1.77347,0,1,0-2.46851,2.547,4.60183,4.60183,0,0,0,1.8186,1.10217A1.48573,1.48573,0,0,0,423.44238,197.23914Z" fill="#42210b"/><path d="M435.79907,203.82349a.95612.95612,0,0,0-.87134,1.34326,1.91241,1.91241,0,0,0-1.07471.34912l-3.38086,2.32874a1.66811,1.66811,0,0,0-.20093,2.33362,1.68674,1.68674,0,0,0,2.33374.20093q1.645-1.2182,3.29028-2.43628a1.59531,1.59531,0,0,0,.23218-2.17529A1.00282,1.00282,0,0,0,435.79907,203.82349Z" fill="#42210b"/><path d="M429.08984,215.73828c-1.28955,0-1.15039,1.99561.13232,1.99561C430.51172,217.73389,430.37256,215.73828,429.08984,215.73828Z" fill="#42210b"/><path d="M423.95679,218.11938c-1.28345,0-1.37476,1.99829-.08472,1.99829C425.15552,220.11768,425.24707,218.11938,423.95679,218.11938Z" fill="#42210b"/><path d="M430.09351,213.35352a1.0006,1.0006,0,0,0,.031,1.99976A1.0006,1.0006,0,0,0,430.09351,213.35352Z" fill="#42210b"/><path d="M432.97705,212.40015a1.00089,1.00089,0,0,0-.01807,2.00049A1.00089,1.00089,0,0,0,432.97705,212.40015Z" fill="#42210b"/><path d="M427.55225,223.72a66.89317,66.89317,0,0,0-7.38062,4.16724,1.6091,1.6091,0,0,0,1.45947,2.81934,66.9081,66.9081,0,0,0,7.74341-3.46606A1.9908,1.9908,0,1,0,427.55225,223.72Z" fill="#42210b"/><path d="M418.08276,226.70215c-1.28491,0-1.04712,1.98706.22729,1.98706C419.59473,228.68921,419.35693,226.70215,418.08276,226.70215Z" fill="#42210b"/><path d="M414.28,224.3186c-1.28735,0-1.06812,1.989.20825,1.989C415.77588,226.30762,415.55664,224.3186,414.28,224.3186Z" fill="#42210b"/><path d="M426.62109,203.91455a1.1506,1.1506,0,0,0-.32935-.18652,1.11866,1.11866,0,0,0-1.07446-1.32617c-1.01245,0-1.05078,1.21875-.40479,1.74146q-.91772,1.118-1.83618,2.23608a1.276,1.276,0,0,0,.11157,1.76453,1.26249,1.26249,0,0,0,1.76465-.11169q.93823-1.2041,1.87671-2.40833A1.24011,1.24011,0,0,0,426.62109,203.91455Z" fill="#42210b"/><path d="M415.42188,208.11523a.985.985,0,0,0-.87524.50854.95005.95005,0,0,0-.17432-.0354,1.00067,1.00067,0,0,0,.02393,2,.8773.8773,0,0,0,.81763-.48779c.01465.00049.02368.00793.03882.00793C416.52881,210.10852,416.71289,208.11523,415.42188,208.11523Z" fill="#42210b"/><path d="M383.99292,191.43945c-1.27612,0-1.49658,1.98926-.21045,1.98926C385.05859,193.42871,385.27905,191.43945,383.99292,191.43945Z" fill="#42210b"/><path d="M382.99487,198.10693c-1.28418,0-1.40894,1.99658-.12036,1.99658C384.15869,200.10352,384.28369,198.10693,382.99487,198.10693Z" fill="#42210b"/><path d="M389.99561,198.04187a1.82377,1.82377,0,0,0-1.9729.14343q-.15564.10419-.31152.20825a1.52523,1.52523,0,0,0,.03564,2.40344l.31763.213a1.79144,1.79144,0,0,0,2.83154-1.43213A1.7508,1.7508,0,0,0,389.99561,198.04187Z" fill="#42210b"/><path d="M376.96631,206.55493a1.77335,1.77335,0,0,0-2.39844,1.11084q-.178.494-.35645.98791a1.64314,1.64314,0,0,0,2.98071,1.306l.5835-.88843A1.76508,1.76508,0,0,0,376.96631,206.55493Z" fill="#42210b"/><path d="M372.39624,221.93188c-1.28735,0-1.17554,1.99731.1106,1.99731C373.79443,223.9292,373.68237,221.93188,372.39624,221.93188Z" fill="#42210b"/><path d="M370.43628,209.58545a1.32108,1.32108,0,0,0-2.64062.00586q-.03113,1.19128-.0625,2.38257a1.38282,1.38282,0,1,0,2.76563-.006Q370.46765,210.77661,370.43628,209.58545Z" fill="#42210b"/><path d="M374.18384,188.93433a1.34619,1.34619,0,0,0-1.51831.01929,6.93876,6.93876,0,0,0-.917,1.04321,1.594,1.594,0,1,0,2.78467,1.32507,5.33761,5.33761,0,0,0,.25952-.99243A1.39139,1.39139,0,0,0,374.18384,188.93433Z" fill="#42210b"/><path d="M385.69092,190.96265c-1.28784,0-1.06934,1.98987.20581,1.98987C387.18433,192.95251,386.96582,190.96265,385.69092,190.96265Z" fill="#42210b"/><path d="M50.37268,106.6897a2.0298,2.0298,0,1,0-2.5304,3.1355,2.083,2.083,0,0,0,2.78491-.24927,2.06219,2.06219,0,0,0,.43457-1.176A2.6542,2.6542,0,0,0,50.37268,106.6897Z" fill="#42210b"/><path d="M65.67578,114.24414c-1.27441,0-1.48145,1.99133-.19092,1.99133C66.75928,116.23547,66.96619,114.24414,65.67578,114.24414Z" fill="#42210b"/><path d="M60.70593,120.63428a1.94075,1.94075,0,1,0-.17761,3.5813,2.012,2.012,0,0,0,1.43408-1.74023A1.89382,1.89382,0,0,0,60.70593,120.63428Z" fill="#42210b"/><path d="M48.35986,130.443c-1.28979,0-1.14868,1.99609.13232,1.99609C49.782,132.43909,49.64087,130.443,48.35986,130.443Z" fill="#42210b"/><path d="M60.89783,135.686c-1.27991,0-1.45471,1.99316-.16516,1.99316C62.01245,137.6792,62.18726,135.686,60.89783,135.686Z" fill="#42210b"/><path d="M51.30115,140.61377a1.96276,1.96276,0,0,0-3.23486.488,3.65589,3.65589,0,0,0-.29846,1.437,1.62647,1.62647,0,0,0,1.33618,1.45581,3.61717,3.61717,0,0,0,1.41187-.21533A1.96689,1.96689,0,0,0,51.30115,140.61377Z" fill="#42210b"/><path d="M40.35315,134.16736q-.23859.00787-.47693.01563a1.07113,1.07113,0,0,0-.05469,2.14026q.238.00769.47607.01563C41.70117,136.38489,41.7478,134.12158,40.35315,134.16736Z" fill="#42210b"/><path d="M49.50781,116.10046a1.03058,1.03058,0,0,0-.3125-.03589,2.05315,2.05315,0,1,0-.053,4.0752,1.03227,1.03227,0,0,0,.31348-.036,2.02149,2.02149,0,0,0,.052-4.0033Z" fill="#42210b"/><path d="M103.34692,123.77734c-1.27332,0-1.52979,1.98523-.24512,1.98523C104.37524,125.76257,104.63184,123.77734,103.34692,123.77734Z" fill="#42210b"/><path d="M116.87146,124.17236a2.21746,2.21746,0,0,0-2.80835,1.24585,2.19213,2.19213,0,0,0,.05261,1.687,2.24268,2.24268,0,0,0,1.76,1.25549,2.143,2.143,0,0,0,2.10693-1.13269A2.1736,2.1736,0,0,0,116.87146,124.17236Z" fill="#42210b"/><path d="M114.47632,139.35156a2.54031,2.54031,0,0,0-.86743-1.58716,2.62887,2.62887,0,0,0-2.31836-.55811,1.96841,1.96841,0,0,0-1.37146,2.4104,2.00216,2.00216,0,0,0,.70374,1.01257,1.77791,1.77791,0,0,0,1.64209,1.47791A2.33554,2.33554,0,0,0,114.47632,139.35156Z" fill="#42210b"/><path d="M101.31409,144.73608a1.00085,1.00085,0,0,0,.00867,2.00049A1.00085,1.00085,0,0,0,101.31409,144.73608Z" fill="#42210b"/><path d="M97.269,150.33545a4.89139,4.89139,0,0,0-2.02856-1.20581,1.83643,1.83643,0,1,0-1.11963,3.498,4.81232,4.81232,0,0,0,2.30542.24536A1.5634,1.5634,0,0,0,97.269,150.33545Z" fill="#42210b"/><path d="M111.69922,153.31836c-1.2843,0-1.074,1.99.20483,1.99C113.18823,155.30835,112.97778,153.31836,111.69922,153.31836Z" fill="#42210b"/><path d="M107.61609,138.79565c-1.56982,0-1.7854,2.44507-.20618,2.44507C108.97974,141.24072,109.19531,138.79565,107.61609,138.79565Z" fill="#42210b"/><path d="M104.55054,127.11072c-1.28528,0-1.07153,1.98962.20691,1.98962C106.04272,129.10034,105.82886,127.11072,104.55054,127.11072Z" fill="#42210b"/><path d="M111.91321,121.97632c-2.36755,0-2.59949,3.68127-.22327,3.68127C114.0575,125.65759,114.28943,121.97632,111.91321,121.97632Z" fill="#42210b"/><path d="M165.60059,140.63208a5.74935,5.74935,0,0,0-.55566-.62842,1.96643,1.96643,0,0,0-2.748.14014,1.9984,1.9984,0,0,0,.14014,2.74792,1.14808,1.14808,0,0,0,.24634.22937,1.95147,1.95147,0,0,0,2.54028.02356A1.9111,1.9111,0,0,0,165.60059,140.63208Z" fill="#42210b"/><path d="M180.44336,138.583a2.215,2.215,0,0,0-3.0625-.20508,5.15419,5.15419,0,0,0-1.91626,2.46045,1.68874,1.68874,0,0,0,1.46021,2.209,3.20862,3.20862,0,0,0,.71143-.06641,1.83626,1.83626,0,0,0,1.76343-.45239c.27612-.296.54468-.60474.83862-.88306A2.205,2.205,0,0,0,180.44336,138.583Z" fill="#42210b"/><path d="M168.98975,158.43018a1.94172,1.94172,0,0,0-2.13574.1405l-.13794.02087a1.46591,1.46591,0,0,0,.13306,2.87207,1.88064,1.88064,0,0,0,1.86646.28662,1.852,1.852,0,0,0,1.18115-1.67432A1.94859,1.94859,0,0,0,168.98975,158.43018Z" fill="#42210b"/><path d="M153.25391,161.89038a1.00085,1.00085,0,0,0,.00781,2.00049A1.00085,1.00085,0,0,0,153.25391,161.89038Z" fill="#42210b"/><path d="M149.03174,162.84546c-1.281,0-1.415,1.99609-.125,1.99609C150.1875,164.84155,150.32178,162.84546,149.03174,162.84546Z" fill="#42210b"/><path d="M169.51465,174.71216a2.26944,2.26944,0,1,0-.39722,3.34644A2.16363,2.16363,0,0,0,169.51465,174.71216Z" fill="#42210b"/><path d="M165.28149,156.17871c-1.27271,0-1.50928,1.98755-.22192,1.98755C166.33228,158.16626,166.56885,156.17871,165.28149,156.17871Z" fill="#42210b"/><path d="M222.26929,151.01733q-.635-1.68713-1.27-3.3739a2.03715,2.03715,0,1,0-3.76855,1.46057q.78625,1.62817,1.573,3.25635a1.878,1.878,0,0,0,3.46558-1.343Z" fill="#42210b"/><path d="M214.56079,162.9751q-2.7832,2.51257-5.56665,5.02515c-1.69116,1.52686-3.93311,2.96606-5.17041,4.86914-.87329,1.34314.51709,3.33032,2.08887,2.50952,2.01416-1.052,3.67188-3.1084,5.354-4.64819q2.76672-2.53271,5.5332-5.06555C218.45679,164.14819,216.239,161.46021,214.56079,162.9751Z" fill="#42210b"/><path d="M211.311,160.94092c-1.28906,0-1.11914,1.99341.16162,1.99341C212.76172,162.93433,212.59155,160.94092,211.311,160.94092Z" fill="#42210b"/><path d="M205.86719,159.41028q-.54272,2.85333-1.08545,5.70691c-.43994,2.314,3.34912,2.69165,3.68994.31189q.41016-2.86468.8208-5.72937C209.61084,157.47729,206.27271,157.277,205.86719,159.41028Z" fill="#42210b"/><path d="M218.61475,154.57422c-1.08887-3.16064-3.8894-5.73975-6.53906-7.6366-2.11792-1.51611-4.447,1.80591-2.3208,3.31531a20.0045,20.0045,0,0,1,2.91992,2.60107c-1.20386.07886-1.03027,1.97986.22437,1.97986a.825.825,0,0,0,.8689-.79309c.67651.75635,1.34814,1.52612,2.06519,2.28162A1.66464,1.66464,0,0,0,218.61475,154.57422Z" fill="#42210b"/><path d="M218.41748,156.65625c-1.28662,0-1.02783,1.98535.2439,1.98535C219.94824,158.6416,219.689,156.65625,218.41748,156.65625Z" fill="#42210b"/><path d="M221.81592,164.50281a1.18868,1.18868,0,0,0-1.66431-.12366q-.22815.25012-.45605.50024a1.18583,1.18583,0,0,0-.12036,1.62012,1.16251,1.16251,0,0,0,1.62012.12036l.49707-.45288A1.20307,1.20307,0,0,0,221.81592,164.50281Z" fill="#42210b"/><path d="M215.72559,173.80432c-1.28491,0-1.38086,1.99792-.09033,1.99792C216.92017,175.80225,217.01611,173.80432,215.72559,173.80432Z" fill="#42210b"/></g><g id="6afdb341-ca8c-4d1c-8b9c-6e5845603793" data-name="Capa 2 copia"><path d="M248.53125,132.38281a2.82943,2.82943,0,0,1-2.17969-1.02051A12.75673,12.75673,0,0,1,244.542,118.249a2.83485,2.83485,0,0,1,5.17578,2.31445,7.06889,7.06889,0,0,0,.98926,7.16992,2.835,2.835,0,0,1-2.17578,4.64941Z"/><path d="M247.0625,121.22656a2.835,2.835,0,0,1-2.541-4.08789,743.67668,743.67668,0,0,1,42.002-74.17773,2.83423,2.83423,0,1,1,4.76367,3.07227,738.08252,738.08252,0,0,0-41.67969,73.61133A2.83478,2.83478,0,0,1,247.0625,121.22656Z"/><path d="M289.6416,46.33008a2.83483,2.83483,0,0,1-.89551-5.52441l7.53809-2.5127a2.83493,2.83493,0,1,1,1.793,5.37891l-7.54,2.5127A2.836,2.836,0,0,1,289.6416,46.33008Z"/><path d="M367.48828,68.26172c-.02344,0-.04687-.001-.07031-.001a211.08309,211.08309,0,0,1-67.74023-12.90137c-5.23047-1.9209-10.43164-4.37988-13.04687-9.32715a2.83469,2.83469,0,1,1,5.01172-2.65039c1.80859,3.4209,6.10449,5.22852,9.98926,6.65527a205.43727,205.43727,0,0,0,65.9248,12.55566,2.8349,2.8349,0,0,1-.06836,5.66895Z"/><path d="M351.4834,59.54395a103.50329,103.50329,0,0,1-55.60254-16.21,2.835,2.835,0,0,1,3.05078-4.7793,99.13726,99.13726,0,0,0,64.07617,14.63379,2.83455,2.83455,0,1,1,.67383,5.62891A102.57179,102.57179,0,0,1,351.4834,59.54395Z"/><path d="M363.41895,54.22461c-.02246,0-.04395-.001-.06641-.001A151.35059,151.35059,0,0,1,313.46,44.53418c-4.12988-1.55469-8.3125-3.40527-11.66016-6.31934l-1.00391,1.87207a2.83422,2.83422,0,1,1-4.99609-2.67773l2.86719-5.34863a2.83615,2.83615,0,0,1,2.28906-1.4873c.02051-.001.041-.00293.06152-.00391a2.84628,2.84628,0,0,1,1.8877-.62012,164.77183,164.77183,0,0,1,49.624,9.7666c5.45313,1.97852,11.32715,4.79492,13.542,10.6748a2.83435,2.83435,0,0,1-2.65234,3.834Zm-55.10059-18.2832a43.59858,43.59858,0,0,0,7.13965,3.28711,145.59322,145.59322,0,0,0,41.86035,9.05273,29.111,29.111,0,0,0-6.72266-3.2373A159.14337,159.14337,0,0,0,308.31836,35.94141Z"/><path d="M310.25488,40.14453a2.835,2.835,0,0,1-2.084-4.75586l6.1582-6.68555A2.83428,2.83428,0,1,1,318.499,32.543l-6.1582,6.6875A2.828,2.828,0,0,1,310.25488,40.14453Z"/><path d="M320.07422,36.2793a2.835,2.835,0,0,1-2.09668-4.74121l2.792-3.07227a2.83508,2.83508,0,0,1,4.19531,3.81445l-2.792,3.07031A2.82694,2.82694,0,0,1,320.07422,36.2793Z"/><path d="M344.92383,42.14258a2.83589,2.83589,0,0,1-2.66895-3.78906l1.39648-3.90918a2.83436,2.83436,0,1,1,5.33789,1.9082l-1.39648,3.90918A2.83424,2.83424,0,0,1,344.92383,42.14258Z"/><path d="M357.7793,51.67969a2.83541,2.83541,0,0,1-2.792-2.36133l-1.47266-8.68945a2.83477,2.83477,0,0,1,5.58984-.94727l1.47266,8.68945a2.83583,2.83583,0,0,1-2.79785,3.30859Z"/><path d="M366.7041,65.03711a2.83156,2.83156,0,0,1-2.23145-1.084L361.40137,60.043a2.83428,2.83428,0,0,1,4.459-3.5l3.07129,3.9082a2.835,2.835,0,0,1-2.22754,4.58594Z"/><path d="M371.96,151.03418a2.83457,2.83457,0,0,1-2.83008-2.71582l-3.46-82.33789a2.83454,2.83454,0,0,1,5.66406-.23828l3.46,82.33789a2.83409,2.83409,0,0,1-2.71289,2.95117C372.04,151.0332,372,151.03418,371.96,151.03418Z"/><path d="M363.125,161.64355a2.83467,2.83467,0,0,1-.54785-5.61523,9.0499,9.0499,0,0,0,6.9502-7.17187,2.83508,2.83508,0,0,1,5.59375.92773,14.70234,14.70234,0,0,1-11.44238,11.80469A2.823,2.823,0,0,1,363.125,161.64355Z"/><path d="M348.2998,162.38672c-4.79492,0-9.60547-.19043-14.40234-.56934a2.835,2.835,0,0,1,.44727-5.65234,175.4677,175.4677,0,0,0,27.93164-.00977,2.8345,2.8345,0,0,1,.459,5.65039C357.96484,162.19238,353.13965,162.38672,348.2998,162.38672Z"/><path d="M317.93066,159.80957a2.76241,2.76241,0,0,1-.47852-.041,185.28537,185.28537,0,0,1-69.3457-26.96484,2.83491,2.83491,0,1,1,3.08984-4.75391,179.58615,179.58615,0,0,0,67.207,26.13086,2.83459,2.83459,0,0,1-.47266,5.62891Z"/><path d="M348.71,155.54883a91.33656,91.33656,0,0,1-11.09668-.70117,2.83452,2.83452,0,0,1,.68945-5.627c13.44336,1.64648,25.20508.20508,34.95215-4.28516a2.83451,2.83451,0,0,1,2.373,5.14844A63.786,63.786,0,0,1,348.71,155.54883Z"/><path d="M321.64648,151.72363a2.83965,2.83965,0,0,1-.69434-.08594,335.37673,335.37673,0,0,1-73.14453-28.26562,2.83484,2.83484,0,0,1,2.625-5.02539,329.64442,329.64442,0,0,0,71.9043,27.793,2.83493,2.83493,0,0,1-.69043,5.584Z"/><path d="M318.31543,162.66016a2.83511,2.83511,0,0,1-2.23437-4.5791l.84375-1.08008a2.81643,2.81643,0,0,1,.75684-.67578,20.64738,20.64738,0,0,0,4.49414-15.77441,2.83437,2.83437,0,1,1,5.61328-.791,26.35765,26.35765,0,0,1-7.48633,22.08594A2.82389,2.82389,0,0,1,318.31543,162.66016Z"/><path d="M323.17383,168.6416a9.81054,9.81054,0,0,1-6.33887-2.35645,7.69069,7.69069,0,0,1-2.79-5.67383,2.83463,2.83463,0,1,1,5.668-.12109,2.13584,2.13584,0,0,0,.82617,1.50293,4.106,4.106,0,0,0,3.05762.95313c2.53906-.32031,4.71191-2.52637,6.08887-4.32129a26.00809,26.00809,0,0,0,4.97168-19.46582,2.83444,2.83444,0,0,1,5.60156-.87109,31.78226,31.78226,0,0,1-6.0752,23.78809c-2.958,3.85645-6.28125,6.041-9.87793,6.49512A9.12412,9.12412,0,0,1,323.17383,168.6416Z"/><path d="M324.333,142.1709a2.8343,2.8343,0,0,1-2.666-1.87207,7.1673,7.1673,0,0,1,3.60156-8.52344,9.89925,9.89925,0,0,1,8.21094-.1582,23.60874,23.60874,0,0,1,5.77344,3.63477,2.83451,2.83451,0,1,1-3.48828,4.46875,19.0065,19.0065,0,0,0-4.36914-2.83008,4.35273,4.35273,0,0,0-3.49023-.0957,1.62465,1.62465,0,0,0-.90625,1.57813,2.83555,2.83555,0,0,1-2.666,3.79785Z"/><path d="M292.59277,136.45605a2.835,2.835,0,0,1-2.543-4.084l3.68457-7.51172a2.83447,2.83447,0,0,1,5.08984,2.49609l-3.68457,7.51367A2.83571,2.83571,0,0,1,292.59277,136.45605Z"/><path d="M312.68945,130.41211a11.97631,11.97631,0,0,1-5.44727-1.41406,13.92747,13.92747,0,0,1-6.874-7.68555,11.13992,11.13992,0,0,1,1.77246-10.6582,9.62255,9.62255,0,0,1,10.84082-2.85937,2.85829,2.85829,0,0,1,.291.14063c3.80176-.64258,7.56055,1.85742,9.05078,5.1377,1.40918,3.10547,1.21777,6.90234-.53809,10.69336a11.14489,11.14489,0,0,1-5.94824,6.08887A8.89667,8.89667,0,0,1,312.68945,130.41211Zm-3.06934-17.60742a4.15505,4.15505,0,0,0-3.11035,1.46191,5.59374,5.59374,0,0,0-.77734,5.21094,8.22293,8.22293,0,0,0,4.10254,4.47852,5.1775,5.1775,0,0,0,4.00879.59277c1.40039-.52637,2.35352-2.21,2.79785-3.167,1.03613-2.23535,1.22559-4.41016.51953-5.96484-.60937-1.34277-2.292-2.23437-3.334-1.76953a2.834,2.834,0,0,1-3.28223-.71094A3.19857,3.19857,0,0,0,309.62012,112.80469Z"/><path d="M315.123,134.84277a19.17841,19.17841,0,0,1-4.69531-.59473c-4.6084-1.16211-8.59277-3.75293-12.13574-6.18848a2.83492,2.83492,0,0,1-4.03125-3.168l4.3916-19.165c.38379-1.67383,1.02539-4.47461,3.47168-6.06055,2.8877-1.87012,6.3418-.74023,8.001-.19727l16.19727,5.30078c2.31543.75781,6.625,2.167,8.14258,6.15039,1.59668,4.19531-1.05664,8.36426-2.33105,10.36816l-3.7998,5.97168a21.7949,21.7949,0,0,1-2.3125,3.1748A14.63329,14.63329,0,0,1,315.123,134.84277Zm-14.55371-12.10059.01563.01074c3.543,2.4502,7.207,4.9834,11.22949,5.999,3.97266,1.002,7.9082.1543,10.03711-2.15723a17.025,17.025,0,0,0,1.69824-2.377l3.80078-5.97363c1.1875-1.86523,2.33105-3.9541,1.81641-5.30664-.48633-1.27734-2.502-2.09082-4.60742-2.7793l-16.19824-5.30078c-.62891-.20605-2.54-.833-3.1543-.43359-.5166.335-.86328,1.84375-1.0293,2.56934Z"/><path d="M332.63965,112.25586a1.4704,1.4704,0,0,1-.21582-.0166,1.41771,1.41771,0,0,1-1.1875-1.61523l2.84668-18.668c.39648-2.59961.65527-5.0791-.52051-6.83105-1.23242-1.83887-3.8584-2.52051-6.44238-3.06055l-16.05078-3.3584-9.4541,25.32715a1.41775,1.41775,0,1,1-2.65625-.99219l9.87988-26.4668a1.42916,1.42916,0,0,1,1.61816-.89258l17.24316,3.60742c3.15625.66113,6.3916,1.5332,8.2168,4.25684,1.74121,2.5957,1.43359,5.78906.96875,8.83789l-2.84668,18.668A1.41844,1.41844,0,0,1,332.63965,112.25586Z"/><path d="M275.5,93.5293a1.43341,1.43341,0,0,1-.46875-.08008,1.418,1.418,0,0,1-.86914-1.80664,135.59025,135.59025,0,0,1,21.21094-38.793,1.41709,1.41709,0,0,1,2.23242,1.74609,132.75206,132.75206,0,0,0-20.76758,37.98438A1.42027,1.42027,0,0,1,275.5,93.5293Z"/><path d="M295.80762,105.9873a1.42534,1.42534,0,0,1-.44238-.07129,110.64591,110.64591,0,0,1-30.44141-15.55176,1.41737,1.41737,0,1,1,1.66406-2.29492A107.8179,107.8179,0,0,0,296.25,103.22266a1.41778,1.41778,0,0,1-.44238,2.76465Z"/><path d="M354.94336,118.79688a71.91961,71.91961,0,0,1-19.28809-2.625,1.41736,1.41736,0,1,1,.76172-2.73047,69.20034,69.20034,0,0,0,30.0957,1.543,1.41683,1.41683,0,1,1,.47852,2.793A71.33631,71.33631,0,0,1,354.94336,118.79688Z"/><path d="M223.50293,220.07813a2.86862,2.86862,0,0,1-.73242-.0957,2.83609,2.83609,0,0,1-2.00879-3.46973c7.626-28.57617,16.28516-57.28027,25.73633-85.31445a2.83495,2.83495,0,1,1,5.373,1.81055c-9.41309,27.91992-18.03613,56.50684-25.63086,84.96484A2.83559,2.83559,0,0,1,223.50293,220.07813Z"/><path d="M315.53027,256.83691c-.18457,0-.36914-.001-.55273-.002-11.55957-.09375-29.3252-4.17285-40.89941-8.1543l-2.61914-.89941c-20.88281-7.16016-46.87207-16.07227-51.168-28.71191a2.83436,2.83436,0,0,1,5.36719-1.82422c3.40039,10.00391,30.02246,19.13281,47.63965,25.17383l2.624.90039c11.14063,3.832,28.14844,7.75781,39.10059,7.8457.16406.002.33105.002.49512.002,11.252,0,23.46777-3.08691,25.793-10.06348a2.83493,2.83493,0,1,1,5.37891,1.793C343.25879,253.18652,328.45215,256.83691,315.53027,256.83691Z"/><path d="M344.32324,243.43457a2.83669,2.83669,0,0,1-2.73242-3.59473c7.32813-26.3418,12.46875-51.38379,17.91113-77.89551l.72168-3.51465a2.83434,2.83434,0,1,1,5.55273,1.14063l-.7207,3.51367c-5.46289,26.61035-10.62207,51.74512-18.00391,78.27539A2.83531,2.83531,0,0,1,344.32324,243.43457Z"/><path d="M224.58984,209.3125a2.87531,2.87531,0,0,1-.72168-.09277,2.83439,2.83439,0,0,1-2.02148-3.46191l17.832-67.915a2.83507,2.83507,0,0,1,5.48438,1.43945l-17.834,67.915A2.83443,2.83443,0,0,1,224.58984,209.3125Z"/><path d="M242.00781,139.70117a2.854,2.854,0,0,1-.67285-.08105L32.57422,88.76367a2.83445,2.83445,0,1,1,1.3418-5.50781L242.67676,134.1123a2.83474,2.83474,0,0,1-.66895,5.58887Z"/><path d="M17.07129,158.21484a2.87507,2.87507,0,0,1-.61328-.06641,2.8355,2.8355,0,0,1-2.1582-3.37891L29.57227,85.44727A2.83483,2.83483,0,1,1,35.10938,86.666L19.83691,155.99023A2.83624,2.83624,0,0,1,17.07129,158.21484Z"/><path d="M222.42773,213.14258a2.86781,2.86781,0,0,1-.72754-.09473L15.73145,158.4375a2.83492,2.83492,0,1,1,1.45313-5.48047l203.67285,54.002.41309-.8877a2.8346,2.8346,0,0,1,5.13867,2.39453l-1.41211,3.03613A2.83475,2.83475,0,0,1,222.42773,213.14258Z"/><path d="M71.7666,170.76758a2.83573,2.83573,0,0,1-2.7627-3.48242L84.81445,99.90625a2.8347,2.8347,0,1,1,5.51953,1.29492L74.52344,168.58008A2.835,2.835,0,0,1,71.7666,170.76758Z"/><path d="M128.03125,187.06152a2.83645,2.83645,0,0,1-2.75391-3.51367l17.17969-69.624a2.83441,2.83441,0,1,1,5.50391,1.35742l-17.17969,69.624A2.83553,2.83553,0,0,1,128.03125,187.06152Z"/><path d="M185.10059,202.44629a2.80219,2.80219,0,0,1-.707-.08984,2.83305,2.83305,0,0,1-2.04-3.4502l18.125-70.57324a2.83422,2.83422,0,0,1,5.49023,1.41016l-18.125,70.57324A2.83439,2.83439,0,0,1,185.10059,202.44629Z"/><path d="M80.35156,145.54688a13.63493,13.63493,0,0,1-7.94141-2.55273,2.835,2.835,0,1,1,3.31836-4.59766A8.02286,8.02286,0,0,0,81.4873,139.793a2.8346,2.8346,0,1,1,.84766,5.60547A13.25488,13.25488,0,0,1,80.35156,145.54688Z"/><path d="M83.8291,140.30762a2.87834,2.87834,0,0,1-.6875-.084l-8.67383-2.16211a2.83511,2.83511,0,1,1,1.37109-5.502l8.67383,2.16211a2.835,2.835,0,0,1-.68359,5.58594Z"/><path d="M143.87109,147.26465a2.84664,2.84664,0,0,1-.57031-.05762l-10.89062-2.22559a2.83471,2.83471,0,1,1,1.13477-5.55469l10.89063,2.22559a2.83485,2.83485,0,0,1-.56445,5.6123Z"/><path d="M142.86621,152.99316a2.82661,2.82661,0,0,1-.84473-.12891L130.55664,149.291a2.83455,2.83455,0,1,1,1.6875-5.41211l11.46484,3.57324a2.8348,2.8348,0,0,1-.84277,5.541Z"/><path d="M200.85059,162.75977a2.83751,2.83751,0,0,1-2.34473-1.24707,52.554,52.554,0,0,0-9.4082-2.23437,2.83464,2.83464,0,1,1,.79492-5.61328,58.25147,58.25147,0,0,1,11.833,2.9707,2.83592,2.83592,0,0,1,1.82324,2.2041l.10352.627a2.83437,2.83437,0,0,1-2.80176,3.293Z"/><path d="M198.373,167.39941a2.83422,2.83422,0,0,1-.76465-.10449l-9.19727-2.57031a2.835,2.835,0,0,1,1.52539-5.46094l9.19727,2.57031a2.835,2.835,0,0,1-.76074,5.56543Z"/><path d="M347.82227,241.24316a2.83691,2.83691,0,0,1-2.74219-3.55859l18.52246-70.12988A2.83417,2.83417,0,1,1,369.083,169.002l-18.52246,70.12988A2.83451,2.83451,0,0,1,347.82227,241.24316Z"/><path d="M550.69922,293.27637a2.85829,2.85829,0,0,1-.78711-.11133c-66.82227-19.27734-135.0957-36.85742-202.92285-52.251a2.83485,2.83485,0,0,1,1.25391-5.5293c67.93359,15.418,136.31348,33.02539,203.24121,52.333a2.8349,2.8349,0,0,1-.78516,5.55859Z"/><path d="M577.56934,223.9209a2.86443,2.86443,0,0,1-.68652-.084L365.02734,171.10449a2.83487,2.83487,0,1,1,1.36914-5.502L578.252,218.335a2.83492,2.83492,0,0,1-.68262,5.58594Z"/><path d="M554.0293,293.69824a2.83518,2.83518,0,0,1-2.60352-3.9541,439.44182,439.44182,0,0,0,23.04785-68.85742,2.8342,2.8342,0,1,1,5.50586,1.34766,445.14786,445.14786,0,0,1-23.34473,69.748A2.83585,2.83585,0,0,1,554.0293,293.69824Z"/><path d="M385.64648,249.2998a2.835,2.835,0,0,1-2.72559-3.61816l18.97266-65.97656a2.83494,2.83494,0,0,1,5.44922,1.56641L388.37012,247.248A2.83559,2.83559,0,0,1,385.64648,249.2998Z"/><path d="M443.72754,262.62012a2.836,2.836,0,0,1-2.7168-3.64648l19.7373-66.03027a2.83448,2.83448,0,1,1,5.43164,1.623l-19.7373,66.03027A2.835,2.835,0,0,1,443.72754,262.62012Z"/><path d="M498.72168,278.05566a2.83554,2.83554,0,0,1-2.68848-3.7334l22.83691-68.33105a2.83462,2.83462,0,0,1,5.377,1.79688l-22.83691,68.33105A2.83563,2.83563,0,0,1,498.72168,278.05566Z"/><path d="M395.03125,225.4375a16.85969,16.85969,0,0,1-11.55762-4.55762,2.83476,2.83476,0,1,1,3.91211-4.10352,11.24027,11.24027,0,0,0,10.6582,2.56055,2.8342,2.8342,0,1,1,1.62109,5.43164A16.17593,16.17593,0,0,1,395.03125,225.4375Z"/><path d="M402.43555,218.61328c-.01855,0-.03711,0-.05566-.001a44.16781,44.16781,0,0,1-14.41016-2.70215,2.82012,2.82012,0,0,1-1.28711-.39941l-.67676-.4082a2.83437,2.83437,0,0,1,2.53906-5.0498,38.5732,38.5732,0,0,0,13.94434,2.8916,2.83474,2.83474,0,0,1-.05371,5.66895Z"/><path d="M453.46875,237.8877a18.502,18.502,0,0,1-12.01562-4.41309,2.834,2.834,0,0,1,3.70313-4.291,12.91686,12.91686,0,0,0,11.334,2.65918,2.83492,2.83492,0,1,1,1.4082,5.49219A17.83456,17.83456,0,0,1,453.46875,237.8877Z"/><path d="M457.18945,231.16992a27.30639,27.30639,0,0,1-12.53809-3.05566,2.83438,2.83438,0,1,1,2.623-5.02539,21.55122,21.55122,0,0,0,11.87109,2.31836,2.83511,2.83511,0,1,1,.53906,5.64453C458.85742,231.12988,458.02344,231.16992,457.18945,231.16992Z"/><path d="M513.543,245.499a17.9896,17.9896,0,0,1-10.60645-3.42773,2.83466,2.83466,0,0,1,3.36523-4.5625,12.23327,12.23327,0,0,0,10.63672,1.82715,2.83468,2.83468,0,0,1,1.65039,5.42383A17.334,17.334,0,0,1,513.543,245.499Z"/><path d="M514.68359,238.8418a16.7869,16.7869,0,0,1-9.79395-3.14062,2.83425,2.83425,0,0,1,3.31836-4.5957,11.23671,11.23671,0,0,0,9.334,1.68555,2.83468,2.83468,0,0,1,1.502,5.4668A16.47561,16.47561,0,0,1,514.68359,238.8418Z"/><path d="M337.2627,235.9834a11.11647,11.11647,0,0,1-2.60449-.30566,1.41688,1.41688,0,0,1-1.041-1.72754L346.123,184.86328a1.41525,1.41525,0,0,1,.90234-.9873l8.30664-2.92578a1.41736,1.41736,0,0,1,.94141,2.67383l-7.59082,2.67383L336.749,233.13672a9.4024,9.4024,0,0,0,8.66113-4.63184,1.41776,1.41776,0,0,1,2.47656,1.38086A12.36345,12.36345,0,0,1,337.2627,235.9834Z"/><path d="M345.98633,179.00293a1.41649,1.41649,0,0,1-.91406-.334l-5.84961-4.9375a1.41719,1.41719,0,0,1,.13672-2.26855,34.66511,34.66511,0,0,1,18.59375-5.60937h.00781a1.417,1.417,0,0,1,.00781,2.834,31.85674,31.85674,0,0,0-15.417,4.14453l3.69434,3.11816,10.34375-4.20605a1.417,1.417,0,0,1,1.06836,2.625l-11.1377,4.5293A1.4175,1.4175,0,0,1,345.98633,179.00293Z"/><path d="M319.377,253.23438a1.41966,1.41966,0,0,1-1.37012-1.78418l21.14844-79.1377a1.41727,1.41727,0,1,1,2.73828.73242l-21.14844,79.1377A1.41735,1.41735,0,0,1,319.377,253.23438Z"/><path d="M298.47168,209.39551a1.443,1.443,0,0,1-.36328-.04687l-9.09277-2.40918a1.41608,1.41608,0,0,1-.99707-1.7666l3.81055-13.06445a1.41755,1.41755,0,0,1,1.75781-.96289c.0459.01367.0918.0293.13574.04688a1.4173,1.4173,0,0,1,1.2627-.25879l6.69238,1.85254a1.41746,1.41746,0,0,1,1.01074,1.65039l-2.82812,13.82617a1.41774,1.41774,0,0,1-1.38867,1.13281Zm-7.3252-4.82422,6.2373,1.65234,2.26172-11.05859-5.3252-1.47461Z"/><path d="M298.97852,200.15625a1.43968,1.43968,0,0,1-.249-.02246l-7.02539-1.24512a1.41721,1.41721,0,1,1,.49414-2.791l7.02539,1.24512a1.41763,1.41763,0,0,1-.24512,2.81348Z"/><path d="M268.77734,243.58691a1.41883,1.41883,0,0,1-1.34668-1.86035l9.57617-29.14551c.8457-2.5752,1.48535-4.86816.74023-6.84375a4.69183,4.69183,0,0,0-3.50391-2.86816,4.82242,4.82242,0,0,0-4.31836,1.53125,11.42034,11.42034,0,0,0-1.9541,4.17188l-9.001,28.36621a1.417,1.417,0,1,1-2.70117-.85742l9.001-28.36621a13.71146,13.71146,0,0,1,2.53711-5.19824,7.73389,7.73389,0,0,1,6.91113-2.44238,7.51191,7.51191,0,0,1,5.68164,4.66309c1.07031,2.83594.28027,5.74707-.69922,8.72852L270.124,242.61133A1.419,1.419,0,0,1,268.77734,243.58691Z"/><path d="M321.16309,250.01074a108.16827,108.16827,0,0,1-44.58008-9.68066l-1.71582,3.49512a1.41724,1.41724,0,0,1-2.54492-1.248l2.32715-4.74121a1.41818,1.41818,0,0,1,1.877-.65723,105.2814,105.2814,0,0,0,44.63672,9.998,1.07056,1.07056,0,0,0,.14844,0,1.417,1.417,0,0,1,.002,2.834Z"/><path d="M289.89258,161.41992a1.41843,1.41843,0,0,1-.59375-.12988l-7.73535-3.56445a3.99432,3.99432,0,0,1-2.37988-2.26367,4.15,4.15,0,0,1,.77246-3.35547,5.22283,5.22283,0,0,0,.45508-.89258,1.41712,1.41712,0,0,1,2.42676-1.46191c.93164,1.4502.1084,2.85547-.43555,3.78613a3.54673,3.54673,0,0,0-.50781,1.0957c.03125.05664.18652.21.85352.5166l6.05176,2.78809.92188-5.53223a1.41778,1.41778,0,1,1,2.79688.4668l-1.22754,7.36328a1.41625,1.41625,0,0,1-1.39844,1.18359Zm-9.43945-10.13672h0Z"/></g></g></svg>