<?xml version='1.0' encoding='utf-8'?>
<svg xmlns="http://www.w3.org/2000/svg" width="686.38574" height="343.59806" viewBox="0 0 686.38574 343.59806"><title>Satélite5</title><g style="isolation:isolate"><g id="c64ccf1f-c464-4b8b-b7e8-ebeb5c86315c" data-name="lineas"><path d="M312.5412,146.09831c-46.03258,20.87926-104.43522,45.3563-150.4678,66.23556" fill="none" stroke="#000" stroke-linecap="round" stroke-linejoin="round" stroke-width="5.66929"/><path d="M367.17271,187.67268,220.06088,251.44327" fill="none" stroke="#000" stroke-linecap="round" stroke-linejoin="round" stroke-width="5.66929"/><path d="M154.10081,208.8023l65.73261,47.66489" fill="none" stroke="#000" stroke-linecap="round" stroke-linejoin="round" stroke-width="5.66929"/><path d="M153.31954,207.73138,19.80446,265.01063" fill="none" stroke="#000" stroke-linecap="round" stroke-linejoin="round" stroke-width="5.66929"/><path d="M18.98076,265.03851l71.18542,47.38326" fill="none" stroke="#000" stroke-linecap="round" stroke-linejoin="round" stroke-width="5.66929"/><path d="M89.75987,314.21582a828.57516,828.57516,0,0,0,131.68388-55.8281" fill="none" stroke="#000" stroke-linecap="round" stroke-linejoin="round" stroke-width="5.66929"/><path d="M88.663,238.49228l63.05157,48.84848" fill="none" stroke="#000" stroke-linecap="round" stroke-linejoin="round" stroke-width="2.83465"/><path d="M52.5615,287.93609l129.11663-56.17692" fill="none" stroke="#000" stroke-linecap="round" stroke-linejoin="round" stroke-width="2.83465"/><path d="M61.28,291.77643,192.32466,236.144" fill="none" stroke="#000" stroke-linecap="round" stroke-linejoin="round" stroke-width="2.83465"/><path d="M54.81939,252.00951c25.43964,8.93794,44.431,29.94165,62.27792,50.15427" fill="none" stroke="#000" stroke-linecap="round" stroke-linejoin="round" stroke-width="1.41732"/><path d="M123.67,222.69035a317.99443,317.99443,0,0,1,59.66869,49.91519" fill="none" stroke="#000" stroke-linecap="round" stroke-linejoin="round" stroke-width="1.41732"/><path d="M41.78095,275.02372a863.11224,863.11224,0,0,1,128.055-49.83648" fill="none" stroke="#000" stroke-linecap="round" stroke-linejoin="round" stroke-width="1.41732"/><path d="M75.93674,303.01052l121.072-51.01637-5.44579,2.84715,11.25649-5.962" fill="none" stroke="#000" stroke-linecap="round" stroke-linejoin="round" stroke-width="1.41732"/><path d="M172.801,216.46261l147.30616-58.08748" fill="none" stroke="#000" stroke-linecap="round" stroke-linejoin="round" stroke-width="1.41732"/><path d="M206.548,243.28673l151.50668-59.76829" fill="none" stroke="#000" stroke-linecap="round" stroke-linejoin="round" stroke-width="1.41732"/><path d="M192.31124,200.83924a414.8072,414.8072,0,0,1,51.03748,37.3714" fill="none" stroke="#000" stroke-linecap="round" stroke-linejoin="round" stroke-width="1.41732"/><path d="M223.1577,189.5227a292.63475,292.63475,0,0,0,50.84581,34.20754" fill="none" stroke="#000" stroke-linecap="round" stroke-linejoin="round" stroke-width="1.41732"/><path d="M255.93335,173.444l49.37919,37.63241" fill="none" stroke="#000" stroke-linecap="round" stroke-linejoin="round" stroke-width="1.41732"/><path d="M319.86812,183.80047,341.09725,198.359" fill="none" stroke="#000" stroke-linecap="round" stroke-linejoin="round" stroke-width="1.41732"/><path d="M283.14746,158.61817,310.688,177.5049" fill="none" stroke="#000" stroke-linecap="round" stroke-linejoin="round" stroke-width="1.41732"/><path d="M188.90791,230.27891,336.70937,168.1248" fill="none" stroke="#000" stroke-linecap="round" stroke-linejoin="round" stroke-width="2.83465"/><path d="M195.865,235.78832a1587.05707,1587.05707,0,0,1,151.2265-62.82482" fill="none" stroke="#000" stroke-linecap="round" stroke-linejoin="round" stroke-width="2.83465"/><path d="M314.3589,146.9143l55.332,39.81119" fill="none" stroke="#000" stroke-linecap="round" stroke-linejoin="round" stroke-width="5.66929"/><path d="M331.62716,171.40224a2.01027,2.01027,0,0,1,3.06457,1.03229" fill="none" stroke="#000" stroke-linecap="round" stroke-linejoin="round" stroke-width="5.66929"/><path d="M359.51806,192.12669l10.53611,3.68166" fill="none" stroke="#000" stroke-linecap="round" stroke-linejoin="round" stroke-width="5.66929"/><path d="M309.72115,145.51865A48.29312,48.29312,0,0,1,359.51086,95.2974" fill="none" stroke="#000" stroke-linecap="round" stroke-linejoin="round" stroke-width="5.66929"/><path d="M360.16229,96.51839l56.91777,35.53727" fill="none" stroke="#000" stroke-linecap="round" stroke-linejoin="round" stroke-width="5.66929"/><path d="M386.84835,230.79437,372.8846,204.60869" fill="none" stroke="#000" stroke-linecap="round" stroke-linejoin="round" stroke-width="5.66929"/><path d="M373.51473,203.50891c-.69476-28.496,17.52579-56.52906,43.84939-67.464" fill="none" stroke="#000" stroke-linecap="round" stroke-linejoin="round" stroke-width="5.66929"/><path d="M419.58508,134.53436l25.61535-1.04679" fill="none" stroke="#000" stroke-linecap="round" stroke-linejoin="round" stroke-width="5.66929"/><path d="M389.63665,232.30317a70.17957,70.17957,0,0,1,58.9001-97.49664" fill="none" stroke="#000" stroke-linecap="round" stroke-linejoin="round" stroke-width="5.66929"/><path d="M305.34514,142.3431c-13.8884,2.65737-29.08313-5.64936-34.34323-18.77493s-.00717-29.62674,11.87269-37.296" fill="none" stroke="#000" stroke-linecap="round" stroke-linejoin="round" stroke-width="5.66929"/><path d="M294.55877,77.12432c-4.07114-1.24584-8.5072,2.45352-8.96418,6.68642s2.24426,8.33052,5.81876,10.64336,7.88994,3.15052,12.11346,3.68729c5.3372.67831,10.962.91266,15.89025-1.24555s8.89748-7.334,8.05761-12.64822c-.75931-4.80445-5.1871-8.363-9.8882-9.6116s-9.67037-.64941-14.49637-.04193A23.38232,23.38232,0,0,0,296.416,76.11a7.89589,7.89589,0,0,0-4.57437,4.82343c-.92071,3.362,1.42,6.92732,4.49061,8.57717s6.68777,1.84116,10.17009,1.99687c2.71408.12136,5.53267.2252,8.03706-.82787s4.59366-3.62038,4.17307-6.30442c-.47318-3.01966-3.7118-4.76327-6.69654-5.42177a23.15177,23.15177,0,0,0-21.55573,6.75873" fill="none" stroke="#000" stroke-linecap="round" stroke-linejoin="round" stroke-width="5.66929"/><path d="M329.52941,88.50564l4.77647,7.88683" fill="none" stroke="#000" stroke-linecap="round" stroke-linejoin="round" stroke-width="5.66929"/><path d="M389.77683,234.14952l40.121,25.39886c15.63817,9.89985,31.28242,19.80372,46.46614,30.3874" fill="none" stroke="#000" stroke-linecap="round" stroke-linejoin="round" stroke-width="5.66929"/><path d="M450.585,133.79751q41.85356,25.85364,82.61773,53.41782" fill="none" stroke="#000" stroke-linecap="round" stroke-linejoin="round" stroke-width="5.66929"/><path d="M501.33454,164.70529A77.48748,77.48748,0,0,0,432.91573,262.393l.09745-3.42164" fill="none" stroke="#000" stroke-linecap="round" stroke-linejoin="round" stroke-width="5.66929"/><path d="M389.08442,206.43131a349.84726,349.84726,0,0,1,38.12843,18.25493l.34059-1.434" fill="none" stroke="#000" stroke-linecap="round" stroke-linejoin="round" stroke-width="5.66929"/><path d="M402.50422,167.15351l35.61444,23.66022" fill="none" stroke="#000" stroke-linecap="round" stroke-linejoin="round" stroke-width="5.66929"/><path d="M437.39578,141.96078a217.31253,217.31253,0,0,0,38.25319,24.998" fill="none" stroke="#000" stroke-linecap="round" stroke-linejoin="round" stroke-width="5.66929"/><path d="M536.09663,197.86845a74.93174,74.93174,0,0,0-54.63064,70.4473c-.17114,7.598,1.06762,15.76971,6.25672,21.32239,4.31684,4.6193,10.87623,6.72821,17.19639,6.5595s12.43121-2.41388,17.99517-5.41642a67.91244,67.91244,0,0,0,29.736-87.507" fill="none" stroke="#000" stroke-linecap="round" stroke-linejoin="round" stroke-width="5.66929"/><path d="M524.4454,234.77379a18.35016,18.35016,0,0,0-13.91131,14.37888,12.09179,12.09179,0,0,0,.51215,6.696,10.44184,10.44184,0,0,0,10.05319,6.01933,13.78116,13.78116,0,0,0,10.36828-6.142c2.76333-4.02652,3.52089-9.58945,1.16233-13.86567s-8.10679-6.60616-12.506-4.48571" fill="none" stroke="#000" stroke-linecap="round" stroke-linejoin="round" stroke-width="5.66929"/><path d="M515.35058,211.8827l17.1981,13.14815c2.40365,1.83762,5.44129,3.7747,8.23789,2.62,2.68115-1.10706,3.53991-4.41156,4.05357-7.26644l7.77915-43.23591" fill="none" stroke="#000" stroke-linecap="round" stroke-linejoin="round" stroke-width="5.66929"/><path d="M534.972,214.1162l4.46967-30.31708c.55009-3.73115,1.5388-8.06817,4.98929-9.59071a5.81716,5.81716,0,0,1,7.2736,2.61122" fill="none" stroke="#000" stroke-linecap="round" stroke-linejoin="round" stroke-width="5.66929"/><path d="M545.60714,172.15165a19.10212,19.10212,0,0,1,9.82595-25.4871c3.02688-1.302,6.71039-1.74089,9.49791.01609,3.632,2.28925,4.3513,7.54993,2.76278,11.5385s-4.896,6.99792-8.0972,9.85877l-.16361-12.35914-5.59171,1.71756a37.65242,37.65242,0,0,1-.93875,17.26651" fill="none" stroke="#000" stroke-linecap="round" stroke-linejoin="round" stroke-width="5.66929"/><path d="M546.34709,171.98413a37.51906,37.51906,0,0,0-15.49686-6.922" fill="none" stroke="#000" stroke-linecap="round" stroke-linejoin="round" stroke-width="5.66929"/><path d="M530.68189,165.47377a24.45073,24.45073,0,0,1,19.9599-31.19553" fill="none" stroke="#000" stroke-linecap="round" stroke-linejoin="round" stroke-width="5.66929"/><path d="M546.01184,138.38278a21.96967,21.96967,0,0,1,13.54671,6.21349" fill="none" stroke="#000" stroke-linecap="round" stroke-linejoin="round" stroke-width="5.66929"/><path d="M496.12466,296.81938l-1.43058,3.5487c-7.57868-.00692-14.5168-5.0984-18.32344-11.65172s-4.89374-14.35461-4.87-21.93326a84.99987,84.99987,0,0,1,36.42886-68.71622" fill="none" stroke="#000" stroke-linecap="round" stroke-linejoin="round" stroke-width="5.66929"/><path d="M495.25268,238.798c-3.23785.25616-5.552,4.01468-4.64884,7.13453a6.90516,6.90516,0,0,0,7.672,4.51031,8.68909,8.68909,0,0,0,6.59854-6.43472,7.668,7.668,0,0,0-1.48947-7.03842,5.30929,5.30929,0,0,0-6.78919-.9077" fill="none" stroke="#000" stroke-linecap="round" stroke-linejoin="round" stroke-width="5.66929"/><path d="M534.21547,240.89269l.09479-1.31373a6.28449,6.28449,0,0,0,7.17721-3.97089" fill="none" stroke="#000" stroke-linecap="round" stroke-linejoin="round" stroke-width="5.66929"/><path d="M534.67263,247.17265a11.84588,11.84588,0,0,0,10.07916-3.33238" fill="none" stroke="#000" stroke-linecap="round" stroke-linejoin="round" stroke-width="5.66929"/><path d="M559.09823,229.87064l-9.18833,1.93245" fill="none" stroke="#000" stroke-linecap="round" stroke-linejoin="round" stroke-width="5.66929"/><path d="M558.195,238.79826c-.428,2.74484-4.388,4.11918-6.42437,2.22961" fill="none" stroke="#000" stroke-linecap="round" stroke-linejoin="round" stroke-width="5.66929"/><path d="M496.85075,260.19468a22.18982,22.18982,0,0,0,1.283,12.09424,13.96371,13.96371,0,0,0,8.816,8.01328c3.96837,1.06044,8.63-.31556,10.94382-3.70949" fill="none" stroke="#000" stroke-linecap="round" stroke-linejoin="round" stroke-width="5.66929"/><path d="M508.23747,281.65619l-4.62917,12.59875" fill="none" stroke="#000" stroke-linecap="round" stroke-linejoin="round" stroke-width="5.66929"/><path d="M498.12868,258.92163l-14.28-.17245" fill="none" stroke="#000" stroke-linecap="round" stroke-linejoin="round" stroke-width="5.66929"/><path d="M440.71478,241.66221a45.98162,45.98162,0,0,1,16.70672,8.7546" fill="none" stroke="#000" stroke-linecap="round" stroke-linejoin="round" stroke-width="5.66929"/><path d="M457.88774,251.81411l.678,10.95764" fill="none" stroke="#000" stroke-linecap="round" stroke-linejoin="round" stroke-width="5.66929"/><path d="M439.48347,241.29078l-.96073,8.80815" fill="none" stroke="#000" stroke-linecap="round" stroke-linejoin="round" stroke-width="5.66929"/><path d="M440.22376,251.91853l12.09752,6.28482c1.75714.91286,3.805,2.38862,3.41052,4.329" fill="none" stroke="#000" stroke-linecap="round" stroke-linejoin="round" stroke-width="5.66929"/><path d="M390.73106,192.72448c2.68886-.69865,5.54369,2.33275,4.68513,4.97489" fill="none" stroke="#000" stroke-linecap="round" stroke-linejoin="round" stroke-width="5.66929"/><path d="M389.88687,223.51864l2.89122,2.57562" fill="none" stroke="#000" stroke-linecap="round" stroke-linejoin="round" stroke-width="5.66929"/><path d="M428.14965,143.22473l2.75628,2.2932a23.73545,23.73545,0,0,1,13.89768-5.92025" fill="none" stroke="#000" stroke-linecap="round" stroke-linejoin="round" stroke-width="5.66929"/><path d="M392.99309,114.195,508.696,64.08666" fill="none" stroke="#000" stroke-linecap="round" stroke-linejoin="round" stroke-width="5.66929"/><path d="M470.42255,143.49464l95.89882-44.2565" fill="none" stroke="#000" stroke-linecap="round" stroke-linejoin="round" stroke-width="5.66929"/><path d="M506.95063,62.03487a412.54927,412.54927,0,0,1,68.32068,38.83043" fill="none" stroke="#000" stroke-linecap="round" stroke-linejoin="round" stroke-width="5.66929"/><path d="M505.12752,61.61608,609.80711,18.97624" fill="none" stroke="#000" stroke-linecap="round" stroke-linejoin="round" stroke-width="5.66929"/><path d="M610.03062,19.53655,677.2975,58.39088" fill="none" stroke="#000" stroke-linecap="round" stroke-linejoin="round" stroke-width="5.66929"/><path d="M575.38859,102.76359,676.54381,58.76806" fill="none" stroke="#000" stroke-linecap="round" stroke-linejoin="round" stroke-width="5.66929"/><path d="M417.16448,131.9084a1011.68041,1011.68041,0,0,1,119.633-50.55173" fill="none" stroke="#000" stroke-linecap="round" stroke-linejoin="round" stroke-width="2.83465"/><path d="M542.40145,76.04433l94.71107-38.582" fill="none" stroke="#000" stroke-linecap="round" stroke-linejoin="round" stroke-width="2.83465"/><path d="M439.48446,129.83431,544.7409,85.03357" fill="none" stroke="#000" stroke-linecap="round" stroke-linejoin="round" stroke-width="2.83465"/><path d="M552.37174,83.10688l95.94941-38.20562" fill="none" stroke="#000" stroke-linecap="round" stroke-linejoin="round" stroke-width="2.83465"/><path d="M406.50468,109.30493l1.07213-.98567L426.882,125.56151" fill="none" stroke="#000" stroke-linecap="round" stroke-linejoin="round" stroke-width="1.41732"/><path d="M402.44208,122.53247,521.52639,70.49778" fill="none" stroke="#000" stroke-linecap="round" stroke-linejoin="round" stroke-width="1.41732"/><path d="M530.42168,70.5487,624.9576,29.13128" fill="none" stroke="#000" stroke-linecap="round" stroke-linejoin="round" stroke-width="1.41732"/><path d="M567.70108,93.21423l89.73379-40.16392" fill="none" stroke="#000" stroke-linecap="round" stroke-linejoin="round" stroke-width="1.41732"/><path d="M457.85017,134.74685,557.4163,92.34733" fill="none" stroke="#000" stroke-linecap="round" stroke-linejoin="round" stroke-width="1.41732"/><path d="M463.25493,88.82954l-.86444-1.79444,19.94823,11.574" fill="none" stroke="#000" stroke-linecap="round" stroke-linejoin="round" stroke-width="1.41732"/><path d="M490.72562,106.17163l23.19459,12.378" fill="none" stroke="#000" stroke-linecap="round" stroke-linejoin="round" stroke-width="1.41732"/><path d="M487.62223,77.91514l-.94321-1.578a130.49616,130.49616,0,0,1,22.67843,10.2745" fill="none" stroke="#000" stroke-linecap="round" stroke-linejoin="round" stroke-width="1.41732"/><path d="M519.695,96.27424a46.29206,46.29206,0,0,1,15.7426,7.77707" fill="none" stroke="#000" stroke-linecap="round" stroke-linejoin="round" stroke-width="1.41732"/><path d="M432.678,99.40616a108.64359,108.64359,0,0,1,24.67014,9.22811" fill="none" stroke="#000" stroke-linecap="round" stroke-linejoin="round" stroke-width="1.41732"/><path d="M466.73606,116.85148a67.46833,67.46833,0,0,0,23.79037,14.095" fill="none" stroke="#000" stroke-linecap="round" stroke-linejoin="round" stroke-width="1.41732"/><path d="M537.20586,50.466q14.50471,8.39919,28.53,17.59215" fill="none" stroke="#000" stroke-linecap="round" stroke-linejoin="round" stroke-width="1.41732"/><path d="M576.24255,75.01413A105.63758,105.63758,0,0,1,604.00031,87.9628" fill="none" stroke="#000" stroke-linecap="round" stroke-linejoin="round" stroke-width="1.41732"/><path d="M561.70691,42.739l28.55294,14.30465" fill="none" stroke="#000" stroke-linecap="round" stroke-linejoin="round" stroke-width="1.41732"/><path d="M602.55151,65.23924q10.696,5.489,21.02036,11.665" fill="none" stroke="#000" stroke-linecap="round" stroke-linejoin="round" stroke-width="1.41732"/><path d="M583.01216,29.47832a133.83963,133.83963,0,0,1,34.50938,15.33992" fill="none" stroke="#000" stroke-linecap="round" stroke-linejoin="round" stroke-width="1.41732"/><path d="M627.84125,52.86022l24.97668,13.5051" fill="none" stroke="#000" stroke-linecap="round" stroke-linejoin="round" stroke-width="1.41732"/><path d="M447.71567,118.66l-.42006.42006" fill="none" stroke="#000" stroke-linecap="round" stroke-linejoin="round" stroke-width="1.41732"/><path d="M436.5838,125.10187l16.389-7.49567a13.30983,13.30983,0,0,1,5.95342-1.66013c2.07879.08939,4.26091,1.48834,4.49351,3.556" fill="none" stroke="#000" stroke-linecap="round" stroke-linejoin="round" stroke-width="1.41732"/><path d="M487.6709,101.2058l-6.25274,3.65194,12.32537-3.41318-7.89646,3.81592,9.58714-2.61449-9.18015,4.20757,7.363-2.333-4.051,2.50273,3.51631-2.22535" fill="none" stroke="#000" stroke-linecap="round" stroke-linejoin="round" stroke-width="1.41732"/><path d="M594.51525,57.4249l-6.6614,4.54715,9.27417-2.96047-7.151,3.77459,10.16046-.83816-4.5599,2.52395" fill="none" stroke="#000" stroke-linecap="round" stroke-linejoin="round" stroke-width="1.41732"/><path d="M321.24088,148.87619a29.88949,29.88949,0,0,1,14.795-27.595" fill="none" stroke="#000" stroke-linecap="round" stroke-linejoin="round" stroke-width="1.41732"/><path d="M328.75257,114.29517l21.34053,12.2196" fill="none" stroke="#000" stroke-linecap="round" stroke-linejoin="round" stroke-width="1.41732"/><path d="M350.414,127.73291a29.51922,29.51922,0,0,1,12.87948-11.15" fill="none" stroke="#000" stroke-linecap="round" stroke-linejoin="round" stroke-width="1.41732"/><path d="M337.01359,101.8951l26.61806,13.12949" fill="none" stroke="#000" stroke-linecap="round" stroke-linejoin="round" stroke-width="1.41732"/><path d="M380.97916,127.66507a14.33893,14.33893,0,0,0-10.00846,11.96713" fill="none" stroke="#000" stroke-linecap="round" stroke-linejoin="round" stroke-width="1.41732"/><path d="M371.43206,139.83968a28.79087,28.79087,0,0,1,12.31521,6.63526" fill="none" stroke="#000" stroke-linecap="round" stroke-linejoin="round" stroke-width="1.41732"/><path d="M385.25261,147.36217l12.2991-11.25254" fill="none" stroke="#000" stroke-linecap="round" stroke-linejoin="round" stroke-width="1.41732"/><path d="M381.06745,127.76333a39.14794,39.14794,0,0,1,14.68192,7.33848l.42677.72034" fill="none" stroke="#000" stroke-linecap="round" stroke-linejoin="round" stroke-width="1.41732"/><path d="M338.5135,162.21046a6.79787,6.79787,0,1,1,12.2024,5.77475" fill="none" stroke="#000" stroke-linecap="round" stroke-linejoin="round" stroke-width="1.41732"/><path d="M338.56124,161.194c-.44266-3.92072,3.59367-7.40562,7.53095-7.14911s7.24674,3.48612,8.49789,7.22812.75584,7.86538-.39205,11.64034" fill="none" stroke="#000" stroke-linecap="round" stroke-linejoin="round" stroke-width="1.41732"/><path d="M392.60554,116.652a34.43089,34.43089,0,0,0-19.96587,13.98383" fill="none" stroke="#000" stroke-linecap="round" stroke-linejoin="round" stroke-width="1.41732"/><path d="M362.9937,121.46413a26.67935,26.67935,0,0,1,12.47644,6.852" fill="none" stroke="#000" stroke-linecap="round" stroke-linejoin="round" stroke-width="1.41732"/><path d="M365.14324,117.50113l11.75759,6.63284" fill="none" stroke="#000" stroke-linecap="round" stroke-linejoin="round" stroke-width="1.41732"/><path d="M380.5027,127.902l-1.45332.27313a19.69762,19.69762,0,0,1,15.29564-5.83471" fill="none" stroke="#000" stroke-linecap="round" stroke-linejoin="round" stroke-width="1.41732"/><path d="M542.458,194.59c-13.30688-13.33057-30.71771-22.04053-46.7887-31.51831-15.993-9.43188-32.38464-21.66333-50.52814-26.49512a48.68272,48.68272,0,0,0-23.95544-.31348c-10.81567-6.98706-21.26929-14.57544-31.91534-21.81641-9.571-6.50977-19.56555-14.7915-31.22943-17.01147-10.52063-2.0022-19.45978,1.10461-26.82214,6.86816,4.19922-6.074.66418-15.03845-3.69061-20.7854-11.64374-15.366-38.1004-12.18091-42.83051,7.62744a6.02782,6.02782,0,0,0-.13287,2.08447c-6.63446,6.09863-9.90631,15.53479-7.299,24.51636,3.189,10.98486,13.69354,17.34839,24.61981,17.239a3.94111,3.94111,0,0,0,1.55316,3.76807q6.10373,5.13483,12.19653,10.283a3.76392,3.76392,0,0,0,1.6886,4.00464q3.8335,2.76855,7.66711,5.53735c2.70813,3.37158,5.2851,6.83423,8.22455,9.9978,2.18457,2.35132,5.40375,3.49268,8.20306,5.02808q4.73355,2.59607,9.35345,5.39307c.86548.52393,1.71527,1.07043,2.57251,1.6062l.00165.00269a27.11338,27.11338,0,0,0,12.87311,10.26819,39.35571,39.35571,0,0,0,6.7356,2.60449,4.2607,4.2607,0,0,0,4.05017-1.00549c.30151-.019.60144-.02722.90436-.05676.14276-.01392.28583-.04114.42883-.06616a75.80464,75.80464,0,0,0,.25879,12.87317,4.50314,4.50314,0,0,0,1.776,3.32007c1.718,9.52515,7.18927,18.25732,14.6319,25.57886,6.27313,6.1709,13.51306,11.10864,20.822,15.95483,8.76422,5.811,17.40637,11.803,26.17914,17.60107,8.60229,5.68555,17.15454,11.457,25.82178,17.043,7.16412,4.61743,14.61456,8.968,22.92828,11.11194,17.25464,4.44959,33.41211-3.68054,45.94067-15.19324,12.00525-11.032,21.61108-25.89783,23.36072-42.41919C561.834,221.447,554.06386,206.21662,542.458,194.59ZM311.15688,133.28547c-.54724-.40955-1.08441-.83276-1.63654-1.23547a4.97255,4.97255,0,0,0-1.65979-.80066c4.07135-9.52612,10.71783-17.05725,18.99713-23.051C319.9468,115.16181,314.7101,124.4079,311.15688,133.28547Z" fill="#fff"/><path d="M521.91274,245.76545c-.65259-.10291.54749.36658,0,0Z" fill="#ccc"/><path d="M530.82772,242.39106A11.10209,11.10209,0,0,0,522.335,237.415a4.2416,4.2416,0,0,0-4.38324,3.9679c-.12415,2.4574,1.72644,4.01538,3.959,4.381-.01306-.00867-.01471-.01184-.02985-.02148l.03864.02368h.00006c.18835.1189.379.23279.56268.3584a4.08184,4.08184,0,0,0,.474.48682c.07208.1106.2511.364.31628.47144.04034.06665.24847.50085.29828.55969.07977.28748.12885.58374.20367.87146.09161.35254.22266.69495.30133,1.05176a1.38794,1.38794,0,0,0,.08325.30151,1.12738,1.12738,0,0,0-.04065.37012c-.15149,3.63525,4.91644,5.51782,6.92517,2.28491A8.95246,8.95246,0,0,0,530.82772,242.39106Z" fill="#ccc"/><circle cx="521.91564" cy="245.76536" r="0.00342" transform="translate(157.63077 693.083) rotate(-76.05677)" fill="#ccc"/><path d="M315.73476,80.20112a3.88885,3.88885,0,0,0-4.14948,1.877c-.13806.23779-.29651.45093-.44336.68225a1.04488,1.04488,0,0,0-.11127.18872c-.17737.235-.2984.39978-.37524.50854-.12457.129-.26764.26965-.28381.28784a2.61824,2.61824,0,0,0-.40314.525l-.14276.1958-.021.02283c-.21454.05664-.56268.18225-.61407.19348a3.17925,3.17925,0,0,0-2.21368,3.57263,3.24464,3.24464,0,0,0,3.2356,2.683,6.22145,6.22145,0,0,0,1.08307-.02661q.55811-.09082,1.116-.18335l-.07361.0105a7.47868,7.47868,0,0,0,3.03851-.97632,7.3867,7.3867,0,0,0,3.2713-6.02515A3.77555,3.77555,0,0,0,315.73476,80.20112Z" fill="#ccc"/><path d="M303.02639,101.2082c-6.125-1.00049-11.40613-2.1189-16.45319-5.97473-3.32086-2.537-6.56219,2.57361-3.60925,5.21692,5.46912,4.89551,12.95776,8.25183,20.40118,7.27356C307.28371,107.20893,306.515,101.7779,303.02639,101.2082Z" fill="#ccc"/><path d="M286.93428,115.10566c-.49866-2.23792-1.24042-4.12683-.68024-6.4397.89325-3.688-4.58569-5.35474-5.67969-1.68164-1.08289,3.636-.92639,7.77979,1.47644,10.84229C283.93673,120.23041,287.51357,117.70576,286.93428,115.10566Z" fill="#ccc"/><path d="M327.70174,125.37055a6.185,6.185,0,0,0-2.56989-3.00854,3.50962,3.50962,0,0,0-5.17737.77954,3.31534,3.31534,0,0,0-.48486,2.59082,3.54244,3.54244,0,0,0,1.88336,2.45435,6.03307,6.03307,0,0,0,3.719,1.18286A3.05506,3.05506,0,0,0,327.70174,125.37055Z" fill="#ccc"/><path d="M312.3547,121.49128a3.47515,3.47515,0,0,0-4.61725,1.255c-1.23914,1.76074-2.72107,3.47-3.32092,5.57275-.69122,2.42261,2.28229,4.92773,4.4834,3.38318,2.017-1.41541,3.28772-3.62073,4.70978-5.59363A3.39474,3.39474,0,0,0,312.3547,121.49128Z" fill="#ccc"/></g><g id="a39241d2-dc3d-4bbb-9f91-ad0d87b2a53d" data-name="Color"><path d="M152.00108,213.16983c-38.32281,19.65581-80.961,37.06658-121.40714,51.86868,15.37834,10.10168,32.55624,16.77153,45.3428,29.21643,5.21711,5.07771,13.58342,9.74422,20.84768,10.22585,4.40456.292,8.64406-1.52421,12.684-3.303l99.49765-43.80741-56.07323-37.92913C124.014,239.85074,86.37391,254.682,52.5615,265.03851c13.38976,9.16977,32.27334,19.28417,45.6631,28.45394,29.08569-12.80228,61.59762-24.223,90.68331-37.02526-7.63572-5.76885-18.69767-12.91928-26.33339-18.68812-2.77748-2.09841-5.81107-4.28963-9.29154-4.35346-4.07241-.07469-7.53617,2.751-10.74734,5.25664a112.22145,112.22145,0,0,1-43.21126,20.69551c-3.53435.83015-21.309,5.84783-23.38764,8.82439-3.00432,4.30207,13.80187,6.56732,18.47283,8.95809,6.64143,3.39933,14.642.85851,21.64217-1.72251l34.88313-12.86166c2.66211-.98154,14.5907-7.98105,15.75921-10.56655,1.89819-4.2-10.9749-2.83044-14.47932-5.82412-16.27455,9.4751-66.26631,24.23834-48.82365,28.42531l48.16549-17.92277" fill="none" stroke="#375696" stroke-linecap="round" stroke-linejoin="round" stroke-width="14.17323"/><path d="M313.62266,152.59236,170.75831,214.32825c3.26443,6.0799,10.91038,8.7052,17.78432,8.09637s13.20883-3.81131,19.38725-6.8852a892.29008,892.29008,0,0,1,120.35049-49.28649,16.67527,16.67527,0,0,0-15.96979-8.94224c-4.069.35652-7.83222,2.21779-11.48451,4.04658L184.146,219.78192q68.92914-25.47682,135.12841-57.65446" fill="none" stroke="#375696" stroke-linecap="round" stroke-linejoin="round" stroke-width="14.17323"/><path d="M192.3257,229.98786c7.9013,1.79524,11.65738,12.20417,19.63039,13.648,3.70558.671,7.42478-.81414,10.89822-2.26906L358.218,184.66734l-10.11781-7.1715-47.42479,19.811c-5.02036,2.09718-10.25594,4.23388-15.68883,3.94087s-11.10551-3.7886-12.01622-9.15263" fill="none" stroke="#375696" stroke-linecap="round" stroke-linejoin="round" stroke-width="14.17323"/><path d="M274.41827,198.06275l-76.52941,33.42618" fill="none" stroke="#375696" stroke-linecap="round" stroke-linejoin="round" stroke-width="14.17323"/><path d="M209.5637,235.07519l74.33724-29.85867" fill="none" stroke="#375696" stroke-linecap="round" stroke-linejoin="round" stroke-width="14.17323"/><path d="M400.08859,114.54441c4.46583,3.84905,9.38327,7.698,15.22684,8.48,6.0363.80778,11.94756-1.795,17.49664-4.30435,53.1016-24.01355,107.48339-45.06618,161.83223-66.105l33.60733-13.00966C623.22532,34.119,617.52053,28.27509,610.122,27.48473c-5.02265-.53655-9.9446,1.393-14.62759,3.28627l-75.7708,30.63334,3.13049,3.728-118.04894,50.437" fill="none" stroke="#375696" stroke-linecap="round" stroke-linejoin="round" stroke-width="14.17323"/><path d="M519.45629,72.43591l89.68257-35.80925" fill="none" stroke="#375696" stroke-linecap="round" stroke-linejoin="round" stroke-width="14.17323"/><path d="M459.57074,111.69855a7.10166,7.10166,0,0,1,10.2055,7.85014" fill="none" stroke="#375696" stroke-linecap="round" stroke-linejoin="round" stroke-width="14.17323"/><path d="M452.2941,129.88124A1101.10918,1101.10918,0,0,1,646.73581,50.44911" fill="none" stroke="#375696" stroke-linecap="round" stroke-linejoin="round" stroke-width="14.17323"/><path d="M633.63854,38.71813l33.95154,19.257-1.44417.19618" fill="none" stroke="#375696" stroke-linecap="round" stroke-linejoin="round" stroke-width="14.17323"/><path d="M667.05364,58.76342,575.413,93.60753" fill="none" stroke="#375696" stroke-linecap="round" stroke-linejoin="round" stroke-width="14.17323"/><path d="M576.18387,94.86251l-17.06665-8.27659" fill="none" stroke="#375696" stroke-linecap="round" stroke-linejoin="round" stroke-width="14.17323"/><path d="M653.44625,56.19587l-81.65167,27.653" fill="none" stroke="#375696" stroke-linecap="round" stroke-linejoin="round" stroke-width="14.17323"/><path d="M631.61139,47.07124l-46.455,23.85825" fill="none" stroke="#375696" stroke-linecap="round" stroke-linejoin="round" stroke-width="14.17323"/><path d="M519.12624,92.61615l-10.08149,4.62068" fill="none" stroke="#375696" stroke-linecap="round" stroke-linejoin="round" stroke-width="14.17323"/><path d="M477.11829,111.09942l-1.12644.526a226.29392,226.29392,0,0,1,35.67773-18.332" fill="none" stroke="#375696" stroke-linecap="round" stroke-linejoin="round" stroke-width="14.17323"/><path d="M457.81057,134.54946l4.619.84944" fill="none" stroke="#375696" stroke-linecap="round" stroke-linejoin="round" stroke-width="14.17323"/><path d="M465.99589,137.54734l99.176-46.11792" fill="none" stroke="#375696" stroke-linecap="round" stroke-linejoin="round" stroke-width="14.17323"/><path d="M545.16253,140.91239a23.80069,23.80069,0,0,0-9.71424,22.77069" fill="none" stroke="#375696" stroke-linecap="round" stroke-linejoin="round" stroke-width="8.50394"/><path d="M550.97,143.33868a29.64753,29.64753,0,0,0-11.66087,14.3945,9.75873,9.75873,0,0,0-.79433,4.76266,4.25105,4.25105,0,0,0,2.87282,3.596" fill="none" stroke="#375696" stroke-linecap="round" stroke-linejoin="round" stroke-width="8.50394"/><path d="M551.01829,143.4735c1.7343,1.88764,4.0801,3.06948,6.295,4.36s4.43389,2.82131,5.62223,5.09262.98246,5.45923-1.08834,6.97012c1.33412-2.40579.00338-5.72993-2.45124-6.97192a7.35626,7.35626,0,0,0-7.7229,1.13,12.08782,12.08782,0,0,0-3.92641,7.07236,35.96572,35.96572,0,0,0-.39055,8.22422" fill="none" stroke="#375696" stroke-linecap="round" stroke-linejoin="round" stroke-width="8.50394"/><path d="M547.29217,179.1552a220.5581,220.5581,0,0,0-8.10921,43.32854l-17.63662-9.48129,10.33093-8.35225-2.45251,11.72747" fill="none" stroke="#375696" stroke-linecap="round" stroke-linejoin="round" stroke-width="8.50394"/><path d="M550.207,148.06a16.49314,16.49314,0,0,0-5.45188,13.446" fill="none" stroke="#375696" stroke-linecap="round" stroke-linejoin="round" stroke-width="8.50394"/><path d="M513.62317,215.114a12.78593,12.78593,0,0,0-9.02884,14.34575c1.51067-6.82661,9.93067-11.13866,16.35289-8.37465a13.54409,13.54409,0,0,0-12.69013,10.96653,15.34076,15.34076,0,0,1,17.87619-5.92555,22.35,22.35,0,0,0-17.30173,12.566,19.8829,19.8829,0,0,1,18.8481-5.23222c-6.06718,1.02675-12.19483,2.91682-16.86694,6.92135s-7.59218,10.49326-6.00633,16.43884,8.556,10.30626,14.23653,7.9407a7.37249,7.37249,0,0,1-14.14209-4.0673,9.84419,9.84419,0,0,0,10.3986,15.29446,15.01054,15.01054,0,0,1-19.46827-14.93265l-1.7647.87507,2.81128.26868" fill="none" stroke="#375696" stroke-linecap="round" stroke-linejoin="round" stroke-width="8.50394"/><path d="M489.30183,253.5l28.98429,7.14106" fill="none" stroke="#375696" stroke-linecap="round" stroke-linejoin="round" stroke-width="8.50394"/><path d="M523.8278,269.48637a50.21449,50.21449,0,0,1-15.124,23.53784c21.1721-4.999,38.77242-22.80007,43.531-44.0275l-14.694,5.32149,1.37829-.54258a67.693,67.693,0,0,1-23.60019,28.79375L548.34229,251.6a147.17617,147.17617,0,0,1-38.334,38.74265,68.114,68.114,0,0,0,34.84321-34.99654" fill="none" stroke="#375696" stroke-linecap="round" stroke-linejoin="round" stroke-width="8.50394"/><path d="M495.36277,233.89426l9.10314-7.724" fill="none" stroke="#375696" stroke-linecap="round" stroke-linejoin="round" stroke-width="8.50394"/><path d="M285.14714,91.02569A25.54552,25.54552,0,0,0,299.37072,136.3" fill="none" stroke="#375696" stroke-linecap="round" stroke-linejoin="round" stroke-width="8.50394"/><path d="M275.6897,101.26336A19.59906,19.59906,0,0,1,295.28432,132.437l.36837-.75426" fill="none" stroke="#375696" stroke-linecap="round" stroke-linejoin="round" stroke-width="2.83465"/><path d="M328.41821,101.8413c-4.53475-.0552-8.38986,4.89692-7.22392,9.27958" fill="none" stroke="#375696" stroke-linecap="round" stroke-linejoin="round" stroke-width="2.83465"/><path d="M313.81372,119.97807c.52578-.904-.49478-2.07553-1.54043-2.09188a4.27917,4.27917,0,0,0-2.7316,1.38312c-2.03645,1.81462-3.96736,3.95339-4.61381,6.60331s.40876,5.88013,2.93526,6.90812" fill="none" stroke="#375696" stroke-linecap="round" stroke-linejoin="round" stroke-width="2.83465"/><path d="M339.77056,157.736c2.20129-3.0671,7.27624-2.61555,9.96335.03628s3.49805,6.64845,3.76822,10.41406l.11963-2.05947" fill="none" stroke="#375696" stroke-linecap="round" stroke-linejoin="round" stroke-width="2.83465"/><path d="M374.71649,132.75457l12.07217,10.19027L373.29,133.11747a32.45434,32.45434,0,0,1,13.54228,9.20671l-.44587-2.24195" fill="none" stroke="#375696" stroke-linecap="round" stroke-linejoin="round" stroke-width="2.83465"/><path d="M353.70661,119.63184l.80943-.522-14.633-8.23017" fill="none" stroke="#375696" stroke-linecap="round" stroke-linejoin="round" stroke-width="2.83465"/><path d="M346.379,107.4542a18.04987,18.04987,0,0,0-9.90336,8.72428" fill="none" stroke="#375696" stroke-linecap="round" stroke-linejoin="round" stroke-width="2.83465"/><path d="M344.20149,105.83258l-8.8964,7.05627,6.89575-7.38553a17.35032,17.35032,0,0,0-9.38888,8.03121l7.08635-8.45253-10.24485,7.78432,6.29288-7.08515a11.57026,11.57026,0,0,0-9.0882,6.43638" fill="none" stroke="#375696" stroke-linecap="round" stroke-linejoin="round" stroke-width="2.83465"/><path d="M314.556,139.24305l5.50005,4.242-7.689-4.70785,6.8818,2.56723-6.22534-7.51514,8.21892,6.7055-7.10619-8.46753,9.03708,4.5974-8.07533-6.72273,7.61077,5.61424-6.79788-7.16,8.38435,4.99837-7.282-6.42109,7.33913,4.98982-1.81515-1.96159" fill="none" stroke="#375696" stroke-linecap="round" stroke-linejoin="round" stroke-width="2.83465"/><path d="M332.60549,122.46336l-9.52956-5.46185a22.68834,22.68834,0,0,1,10.87715,4.5687l-8.50887-8.29644,9.96839,5.99178-8.52623-5.14261a6.99324,6.99324,0,0,1,8.47286,4.31732" fill="none" stroke="#375696" stroke-linecap="round" stroke-linejoin="round" stroke-width="2.83465"/><path d="M322.146,137.16258a11.80924,11.80924,0,0,0-1.33478,10.52757,35.37213,35.37213,0,0,1,1.31739-13.78192l-3.41811,11.48624-.83584-12.94343-2.231,12.25591-1.19607-13.501-.52436,16.8518" fill="none" stroke="#375696" stroke-linecap="round" stroke-linejoin="round" stroke-width="2.83465"/><path d="M377.14522,197.2118l.05662-1.1534a20.14237,20.14237,0,0,0-.625,9.53331l1.77732-15.6225a64.6228,64.6228,0,0,0-.734,22.78274q.497-13.05606.99761-26.112l2.60485.42986c-1.46592,7.23306-2.81819,15.23222.90858,21.60224a66.60376,66.60376,0,0,1,.54637-22.89317l-1.94979,30.72567,1.87278-.51438" fill="none" stroke="#375696" stroke-linecap="round" stroke-linejoin="round" stroke-width="2.83465"/><path d="M478.03627,241.46858a3.7674,3.7674,0,0,1,5.11677,2.33156" fill="none" stroke="#375696" stroke-linecap="round" stroke-linejoin="round" stroke-width="2.83465"/><path d="M475.86737,245.55027a8.43825,8.43825,0,0,1,7.15658,1.62026" fill="none" stroke="#375696" stroke-linecap="round" stroke-linejoin="round" stroke-width="2.83465"/><path d="M476.2799,250.55953l5.46081.42006" fill="none" stroke="#375696" stroke-linecap="round" stroke-linejoin="round" stroke-width="2.83465"/><path d="M499.38389,209.53879a5.20209,5.20209,0,0,1,4.72381,3.17327" fill="none" stroke="#375696" stroke-linecap="round" stroke-linejoin="round" stroke-width="2.83465"/><path d="M509.70474,194.98051,498.76,190.2059c2.4658-2.734,5.38367-5.68151,9.06533-5.70228,2.61983-.01478,4.97612,1.48832,7.159,2.937l13.102,8.695" fill="none" stroke="#375696" stroke-linecap="round" stroke-linejoin="round" stroke-width="2.83465"/><path d="M528.43119,195.62a118.33755,118.33755,0,0,0-25.50884,16.565,147.39547,147.39547,0,0,1,23.931-18.8022l-27.77349,16.68017,17.74622-13.26532-15.10745,10.77687,19.09893-13.30107a35.9165,35.9165,0,0,1-17.66775-4.74423l11.775,6.94285a23.437,23.437,0,0,1-13.25928-5.47769l15.68762,4.3543L504.534,185.88526l13.60053,6.19814" fill="none" stroke="#375696" stroke-linecap="round" stroke-linejoin="round" stroke-width="2.83465"/><path d="M474.63757,179.16408a4.04038,4.04038,0,0,1-3.40029,2.47781" fill="none" stroke="#375696" stroke-linecap="round" stroke-linejoin="round" stroke-width="2.83465"/><path d="M483.38135,174.0425l4.19541-2.529" fill="none" stroke="#375696" stroke-linecap="round" stroke-linejoin="round" stroke-width="2.83465"/><path d="M498.55466,173.44974l4.61.22169" fill="none" stroke="#375696" stroke-linecap="round" stroke-linejoin="round" stroke-width="2.83465"/><path d="M49.49636,263.1673c-2.57562,0-2.68549,3.99915-.10779,3.99915C51.96419,267.16645,52.07406,263.1673,49.49636,263.1673Z" fill="#fff"/><path d="M45.97316,257.54291c-5.45459,1.91248-10.80713,4.031-16.17706,6.1687-3.37585,1.344-1.47369,6.74927,1.856,5.32666,5.33093-2.27783,10.63586-4.55786,15.86859-7.0542C50.18551,260.71284,48.89876,256.517,45.97316,257.54291Z" fill="#fff"/><path d="M149.85756,209.09785c-11.36676,4.05-22.18018,10.25049-32.96552,15.62915-11.21185,5.59131-22.25775,11.48608-33.45032,17.11548-2.43494,1.22473-.3739,5.53711,2.1217,4.35815,11.32776-5.35156,22.77417-10.42407,34.08392-15.81421,10.87787-5.1842,22.428-9.88525,32.61664-16.3457C154.89064,212.37519,152.82155,208.04194,149.85756,209.09785Z" fill="#fff"/><path d="M251.7549,178.57111c-12.40771,5.51794-24.64124,11.48474-37.004,17.11365-12.38147,5.6377-25.08124,10.50879-37.79749,15.33984-3.11572,1.18384-.67163,5.85791,2.43933,4.61365,25.05359-10.02,50.66-20.32581,74.429-33.15808C256.35225,181.11408,254.33461,177.42389,251.7549,178.57111Z" fill="#fff"/><path d="M276.75173,192.62494c-14.45422,5.08447-28.3349,12.25562-42.30859,18.52612-14.40247,6.46289-28.832,12.85693-43.10455,19.60254-2.76855,1.30847-.715,6.21716,2.1485,5.00977,14.18958-5.98315,28.23145-12.291,42.30066-18.55151,14.33685-6.37952,29.33734-12.06226,43.09412-19.61987C281.53463,196.13447,279.68428,191.59321,276.75173,192.62494Z" fill="#fff"/><path d="M177.31026,236.18317c-10.04193,2.45154-19.88666,7.84509-29.41931,11.82874-10.06543,4.20654-20.09015,8.51123-30.12866,12.78149q-14.60349,6.2124-29.19379,12.45508c-9.49414,4.07214-19.93646,7.47534-28.7406,12.91113-2.77905,1.71582-.2796,5.44092,2.475,4.75232,10.07544-2.51843,19.88843-7.71008,29.47382-11.67737q15.11481-6.25562,30.20349-12.57373c9.75995-4.07373,19.53125-8.12109,29.2652-12.25671,9.50092-4.03662,20.11981-7.3302,28.88318-12.80945C183.2903,239.61786,180.44655,235.41743,177.31026,236.18317Z" fill="#fff"/><path d="M489.68862,77.6413c-15.12152,4.269-29.69885,11.49756-44.19476,17.50427-14.64673,6.06921-29.187,12.3678-43.88171,18.32837-2.99445,1.21472-1.23584,5.903,1.78656,4.70422,14.73291-5.8429,29.58789-11.33472,44.36121-17.06592,14.631-5.6759,30.163-10.53125,44.04816-17.89014A2.98685,2.98685,0,0,0,489.68862,77.6413Z" fill="#fff"/><path d="M610.66176,24.65778c-16.48389,2.95264-32.64594,8.75317-48.4632,14.13367-15.78009,5.3678-32.24469,10.63379-46.991,18.48071-2.73358,1.45459-.51721,5.50146,2.24658,4.71509,15.89-4.52148,31.27734-11.21118,46.91455-16.56787,15.65887-5.364,31.87366-9.51538,47.2876-15.53967C614.30971,28.84272,613.82314,24.0915,610.66176,24.65778Z" fill="#fff"/><path d="M511.59243,99.55817c-20.55707,8.50549-40.575,18.463-60.73175,27.86987-3.00085,1.40051-.61426,5.90173,2.37372,4.54358,20.24689-9.20312,40.82422-17.94006,60.6449-28.03613C516.75716,102.46967,514.47982,98.36347,511.59243,99.55817Z" fill="#fff"/><path d="M619.40389,52.28364c-21.40863,8.28357-42.02222,19.28271-62.75433,29.11365-3.11688,1.478-1.4823,6.64148,1.72577,5.17285,21.08508-9.65283,42.97876-18.46448,63.30865-29.64392C624.25966,55.50983,622.13259,51.22785,619.40389,52.28364Z" fill="#fff"/><path d="M552.09566,141.95551c-1.43768-1.967-2.75562-3.29932-5.22095-3.89685a12.53249,12.53249,0,0,0-6.08777.21558c-1.83771.46033-2.80316,2.7804-2.38763,4.46875a3.823,3.823,0,0,0,4.09863,2.97766c.2287-.042,1.37457-.17224,1.18109-.17676a8.075,8.075,0,0,1,.86951.11121q.71576.1701.28369.04663a16.66508,16.66508,0,0,1,3.32275,1.05017C550.992,148.35248,553.87679,144.39277,552.09566,141.95551Z" fill="#fff"/><path d="M564.78017,145.7945a4.08862,4.08862,0,0,0-4.0434,4.03479c.0213,1.19141-.01074,2.40015.06415,3.58984a27.0819,27.0819,0,0,0,.83734,3.90015c.6521,3.14063,5.61957,3.15576,6.27332.00684a25.33327,25.33327,0,0,0,.83911-3.89844c.06415-1.19263.04285-2.39575.06415-3.58972A4.09668,4.09668,0,0,0,564.78017,145.7945Z" fill="#fff"/><path d="M536.18422,186.45124c-1.101,6.22961-2.334,12.44226-3.03577,18.73206-.42462,3.806,4.963,5.17236,5.92133,1.30066,1.51862-6.13489,2.50928-12.38416,3.631-18.60132C543.46261,183.65986,536.933,182.21418,536.18422,186.45124Z" fill="#fff"/><path d="M278.1957,93.74409a22.321,22.321,0,0,0-5.859,19.8158,2.51784,2.51784,0,0,0,4.9682-.802,21.85983,21.85983,0,0,1,4.66962-16.21252C283.92916,94.154,280.20705,91.57978,278.1957,93.74409Z" fill="#fff"/><path d="M295.26967,132.22053c-4.65924,0-4.30212,7.2262.34564,7.2262C300.27456,139.44672,299.91738,132.22053,295.26967,132.22053Z" fill="#fff"/><path d="M456.24758,223.37214c-1.88141-.86865-3.70331-1.82593-5.58722-2.52771a11.78331,11.78331,0,0,0-3.08478-2.22607c-1.06665-.493-2.17041-.89185-3.26752-1.31128a3.52274,3.52274,0,0,0-4.57947,1.60181,3.47472,3.47472,0,0,0,1.60181,4.57947c.443.20667.87659.40588,1.30792.599a2.1239,2.1239,0,0,0,.21747.24841c3.08258,2.98682,7.16028,3.406,11.13043,4.25464C456.94069,229.22187,459.38527,224.82075,456.24758,223.37214Z" fill="#fff"/><path d="M461.19527,226.51533c-2.57318,0-2.048,3.97.49445,3.97C464.2629,230.4853,463.73775,226.51533,461.19527,226.51533Z" fill="#fff"/></g><g id="0e6c8ec8-7c81-4e89-95b7-448a88ee6f06" data-name="Sombra" opacity="0.17" style="mix-blend-mode:multiply"><path d="M546.76564,253.65351c-5.5827,7.87744-10.61505,15.95361-18.32092,21.99658-7.17645,5.62769-14.91937,8.01489-23.19354,10.79907a3.42087,3.42087,0,0,0-.7124-6.1084,10.67358,10.67358,0,0,1-6.46454-5.28259,69.18555,69.18555,0,0,1-.93658-11.46375c-.00439-5.22729-6.75763-6.48523-9.08545-3.2157a3.53592,3.53592,0,0,0-2.416.76038c-4.92548,3.998-5.64331,11.28345-3.85883,17.05652a18.66179,18.66179,0,0,0,1.33917,3.23035c-.34442-.1875-.68945-.3728-1.03412-.55981-1.9566-5.96924-1.69727-12.94128-.08044-19.01636,3.4624-13.00977,10.76727-25.36963,17.14966-37.12622,1.58582-2.92126-1.851-6.40625-4.58148-3.96631a78.0771,78.0771,0,0,0-12.28473,14.012,4.88057,4.88057,0,0,0-1.56293-1.93665c.32776-.3783.65424-.75269.97675-1.11841,2.21356-2.51025,1.52515-7.4032-2.30444-7.99268A41.57024,41.57024,0,0,1,464.103,218.207a5.03818,5.03818,0,0,0-2.63794-.78467,134.29944,134.29944,0,0,0-17.636-8.51318c-3.56177-1.39722-7.95154,1.77734-7.49384,5.053-.104-.0249-.20654-.05371-.31073-.07812-5.07629-1.19214-7.21588,4.49475-4.67926,7.73755a4.71788,4.71788,0,0,0,1.3089,6.88672q1.26471.88,2.54626,1.77368a38.61927,38.61927,0,0,0-6.21863-.64478c-4.72644-.09045-6.5213,6.98633-2.22247,9.07446q2.79245,1.35626,5.5578,2.7356c-3.571-.84839-6.586,3.36426-5.56421,6.54248q-4.37521-2.83374-8.7262-5.70557c-8.27649-5.47534-16.3775-12.15759-25.43158-16.2832-3.39032-1.54492-7.29614,3.12732-4.60223,6.01233,6.7915,7.27332,15.811,12.66541,23.99048,18.24q12.80218,8.725,25.9538,16.92871c11.87152,7.44177,24.00714,15.318,36.52466,22.13586a26.15992,26.15992,0,0,0,15.43988,12.44458,4.54107,4.54107,0,0,0,5.95862-4.70093c1.99493-1.4375,3.0744-4.25366,1.92444-6.41309a6.08824,6.08824,0,0,0,2.57111-2.95044,9.305,9.305,0,0,0,1.75873-.14636,3.783,3.783,0,0,0,1.35992,7.28918c10.71527.26831,22.05475-5.93005,30.26038-12.30933,8.59656-6.68323,16.589-15.68506,18.60638-26.63855A3.04687,3.04687,0,0,0,546.76564,253.65351ZM462.98049,242.341c-.08673.18042-.16968.36157-.25391.54248-.30658-.3584-.62054-.70728-.93152-1.06006Q462.38768,242.08271,462.98049,242.341Zm-10.76764,21.52893c3.78424,1.70667,7.61456,3.33765,11.439,5.00085a26.65884,26.65884,0,0,0,1.70148,2.13989,4.14227,4.14227,0,0,0,4.33887,1.21069c.023.63745.05731,1.27563.11163,1.91309Q460.942,269.11756,452.21285,263.86994Zm19.08453-4.8739c-.04126-.21118-.07855-.42432-.11694-.63684a28.42335,28.42335,0,0,1,6.48615-15.954A72.34391,72.34391,0,0,0,471.29738,258.996Z"/><path d="M533.96389,218.98884c-2.08636-2.65833-4.86414-4.31421-7.56537-6.27466-2.72693-1.97913-5.3418-4.0968-7.87555-6.317-3.53625-3.09875-8.03894,2.21533-4.75061,5.45752,4.65253,4.58716,10.2887,10.65625,16.81354,12.29016C533.31588,224.82856,535.72518,221.2331,533.96389,218.98884Z"/><path d="M549.73049,183.36811c-.31042-3.71436-5.41168-3.81641-6.77051-.79932-2.57422,5.71558-2.81354,13.03528-3.74615,19.1991-1.02612,6.78174-1.96283,13.57825-2.9425,20.36682-.62518,4.332,5.83893,4.97815,6.67242.78772,1.34167-6.74573,2.72638-13.4845,4.022-20.23938C548.15212,196.49824,550.25759,189.676,549.73049,183.36811Z"/><path d="M542.90963,159.725c-1.08746-2.16675-3.39752-2.99487-5.64233-3.3833a39.02284,39.02284,0,0,0-5.81427-.78979c-4.00232-.08313-5.79083,5.90161-2.05981,7.75513a39.13411,39.13411,0,0,0,5.52539,2.04077c2.09033.672,4.598,1.12463,6.51508-.24121A4.07122,4.07122,0,0,0,542.90963,159.725Z"/><path d="M419.53286,123.62263c-.46442-3.20813-3.31848-4.73547-5.81689-6.31067-1.55273-.97888-3.09961-1.94629-4.67267-2.87476-.04163-.0376-.08221-.07568-.1239-.11328a3.308,3.308,0,0,0-1.31122-.71387c-.41229-.23242-.82294-.4668-1.24139-.69116-4.79864-2.573-8.45184,3.679-4.40393,6.99634,2.22247,1.82129,4.542,3.46826,6.88562,5.12964a15.10914,15.10914,0,0,0,5.20782,2.832,2.24311,2.24311,0,0,0-.082.417,2.13094,2.13094,0,0,0,1.63965,2.313l.65057.06848a2.62017,2.62017,0,0,0,1.68774-.27551,2.14857,2.14857,0,0,0,1.02771-1.68652,2.33722,2.33722,0,0,0-.54944-1.68982A3.79416,3.79416,0,0,0,419.53286,123.62263Z"/><path d="M390.84383,162.413c.82068-1.46313,1.64667-2.93188,2.46716-4.42651,1.45544-2.65112-2.4483-4.97168-4.51678-3.29395-6.49109,5.265-10.91,12.61816-13.55847,20.73047a4.6566,4.6566,0,0,0-5.374-5.39258,5.43363,5.43363,0,0,0-2.36816,1.04077c-.14331.12048-.27588.25671-.4129.38416a5.2668,5.2668,0,0,0-1.74268,3.28845,3.88722,3.88722,0,0,0-.03094.51172c-1.36523-1.07275-2.73553-2.10388-3.96051-3.1477-4.81738-4.105-9.57825-8.29736-14.53369-12.23547-9.14685-7.269-18.78094-13.932-29.517-18.64661a3.67764,3.67764,0,0,0-.83191-.24756,13.72894,13.72894,0,0,0,1.02856-3.47473c.44855-2.07959.87573-4.16394,1.3136-6.246a2.8697,2.8697,0,0,0-5.52258-1.54932c-.666,2.01794-1.34253,4.03271-1.99811,6.054-.72638,2.2395-1.3689,3.87415-.373,6.12671a2.53988,2.53988,0,0,0,1.6947,1.30359,2.90991,2.90991,0,0,0,.069,2.53723q-.47278-.31274-.94543-.62549c-3.50055-2.31592-6.984,2.21362-4.84589,5.11768a4.16939,4.16939,0,0,0-1.6507,2.27832,244.93559,244.93559,0,0,0-25.46649,9.1344c-6.78424,2.92712-14.40637,5.99121-20.86877,10.16345a3.66586,3.66586,0,0,0-3.69879,2.62427c-.56128.44116-1.11285.89063-1.64429,1.35608a2.73942,2.73942,0,0,0,2.71606,4.67737q.87-.28015,1.73419-.59253a46.20481,46.20481,0,0,1,7.38959,4.116c2.40826,1.66125,4.62183,4.3689,7.45471,5.171a3.70739,3.70739,0,0,0,4.00916-1.20569,7.55283,7.55283,0,0,0-.90582,1.79785,2.49166,2.49166,0,0,0,1.12787,2.80188c3.93939,1.71448,6.76526-.10022,10.53925-1.71838q7.29126-3.12634,14.51355-6.42432c9.61877-4.38806,19.07922-9.03613,28.60144-13.62012a2.84825,2.84825,0,0,0,1.1283-3.87878,3.26155,3.26155,0,0,0,2.78125-5.29907c-2.60248-3.67187-7.09357-6.02966-10.79236-8.47961q-3.56268-2.35986-7.128-4.7157c9.35431,5.02576,17.519,11.64807,25.60651,18.54382q5.3465,4.55859,10.72906,9.07629a36.76256,36.76256,0,0,0-8.57971-2.83728,3.4321,3.4321,0,0,0-4.00922,2.57275A423.624,423.624,0,0,0,288.511,193.95576c-2.53015,1.10205-2.47345,5.283-.09021,6.49023a70.5393,70.5393,0,0,1,6.7663,4.02551q-5.9848,2.51678-11.941,5.11035c-24.24066,10.611-49.08026,21.41248-71.65021,35.29114-2.36322,1.45313-.41626,5.45068,2.19519,4.37781.30939-.12708.61542-.26257.92456-.39026-.12109.06421-.238.13208-.3595.196a2.14457,2.14457,0,0,0-1.17444,2.12207,3.78622,3.78622,0,0,0-.909.24988q-60.49521,25.55365-120.68274,51.754c-.03729.01636-.0639.03906-.1001.05615-3.25452-2.35681-6.90973-4.28882-10.26886-6.39038-5.31256-3.324-10.60858-6.676-15.952-9.95Q54.10766,280.05958,43.003,273.133a2.11209,2.11209,0,0,0,.23627.02356c2.54926,0,2.98242-3.97937.40637-3.97937a2.18563,2.18563,0,0,0-1.89618,3.17578q-3.80548-2.36884-7.61145-4.73682c-3.64728-2.27734-7.55206,3.161-3.88043,5.48621q15.45831,9.78955,30.84271,19.68958c4.98657,3.21753,10.01965,6.36353,15.03613,9.53418,4.85046,3.06567,9.79572,7.074,15.204,9.03076a3.57577,3.57577,0,0,0,4.30164-2.09521q8.19012-3.48193,16.36407-6.99438-3.47369,2.00226-6.91962,4.04663c-3.00677,1.78748-.96289,6.37354,2.3515,4.97192,36.87537-15.59277,72.2915-35.17554,107.69293-53.81372a3.1972,3.1972,0,0,0,1.7182-3.75891c6.08893-2.54419,12.20715-4.60657,18.212-7.43933q8.99744-4.24438,17.99481-8.48865c12.2851-5.79529,24.7074-11.27014,37.05078-16.94031,24.06653-11.05554,48.434-21.92749,71.86914-34.26477a3.2236,3.2236,0,0,0,1.46985-1.48633,13.9753,13.9753,0,0,0,5.68878,2.6908,3.4014,3.4014,0,0,0,3.69635-2.01929,68.81676,68.81676,0,0,0-.50507,14.80017,7.27,7.27,0,0,0-.76752,1.65906,13.07226,13.07226,0,0,0-.53821,5.51221,4.55972,4.55972,0,0,0,3.70721,3.8114,3.34958,3.34958,0,0,0,2.41736.765,6.42061,6.42061,0,0,0,2.07855,4.20776,3.39749,3.39749,0,0,0,4.74792-.59253c1.54272-2.32861,1.08728-4.35693.64673-6.96387q-.58521-3.46326-1.17041-6.92664a3.68022,3.68022,0,0,0-.752-1.72913c.36725-12.113,4.75958-23.01562,10.37775-34.03625A2.71085,2.71085,0,0,0,390.84383,162.413ZM269.20461,176.81586c-.57959-.3728-1.161-.74268-1.7547-1.09277q.8736-.43616,1.74451-.88184a2.12682,2.12682,0,0,0,.887,1.12744A2.76131,2.76131,0,0,0,269.20461,176.81586Zm37.03345-2.66406c1.03394-.52869,2.06647-1.05249,3.09955-1.57935a3.84986,3.84986,0,0,0,.30573.2356C308.50942,173.25922,307.371,173.69745,306.23806,174.1518Zm36.897,11.3136a2.79167,2.79167,0,0,0-.67108-3.25061c.19659-.08423.39624-.16675.59259-.25122a2.94728,2.94728,0,0,0,.93066-.63281,26.984,26.984,0,0,1,4.58582,2.07593Q345.85231,184.43244,343.13509,185.4654Zm29.84314-.63916a2.7938,2.7938,0,0,0-.1568-.81458,13.073,13.073,0,0,0-2.437-4.1001,3.61526,3.61526,0,0,0,1.69714-.37988,4.76536,4.76536,0,0,0,1.93243-1.59229,4.82923,4.82923,0,0,0,.77173-1.07764A62.082,62.082,0,0,0,372.97823,184.82624Z"/><path d="M438.86007,188.2934c-10.62659-8.70142-24.68347-14.03943-36.888-20.165-4.82373-2.421-8.486,4.92529-3.75684,7.47,12.04346,6.48059,24.47473,14.87292,37.71667,18.58337C439.20418,195.09858,441.39687,190.37067,438.86007,188.2934Z"/><path d="M470.82149,163.96723c-4.48529-4.57043-11.467-6.97058-17.07507-9.95044-6.13385-3.25928-12.301-6.4552-18.40912-9.76294-4.04327-2.18958-7.91888,3.54028-3.934,6.07117,6.11371,3.88306,12.25928,7.694,18.57684,11.23743,5.5827,3.13135,11.57806,7.43286,17.97522,8.41528C471.08138,170.458,472.91146,166.09687,470.82149,163.96723Z"/><path d="M389.88967,133.47761q-.15921.01227-.319.02673A3.8208,3.8208,0,0,0,387.478,131.258a3.66938,3.66938,0,0,0-2.65607-2.14807,14.09325,14.09325,0,0,0-8.13116,1.14832c1.69873-1.1001,3.38336-2.22217,5.10028-3.293,2.19476-1.36877,4.65137-2.37891,6.72644-3.91895,2.55542-1.89661,1.4079-6.37219-2.053-6.07178-5.85468.5083-12.01855,4.73071-15.444,9.36511-2.05487,2.78015.76459,6.6626,3.921,5.01257a9.05028,9.05028,0,0,0-3.08246,4.3645,3.30855,3.30855,0,0,0,1.11725,3.56689c-.00232.04321-.00684.08643-.00769.12988-1.868-1.0813-3.679-2.27637-5.44257-3.50378-3.39374-2.36194-7.7608,2.70837-4.72815,5.63489a40.08292,40.08292,0,0,0,8.30341,6.21936c3.00775,1.68506,6.3017,3.68958,9.82733,3.09009a3.35014,3.35014,0,0,0,2.4577-1.86658,5.41736,5.41736,0,0,0,2.88257-1.29126c3.21429-2.66943,5.99933-6.00378,8.904-9.00757C398.51229,135.23554,393.42653,130.74592,389.88967,133.47761Z"/><path d="M352.20553,117.4704a53.37265,53.37265,0,0,0-13.70636-5.13721,4.05847,4.05847,0,0,0-.47339-.06445q-4.54376-2.72131-9.07269-5.4668c-.07727-.04712-.15283-.07825-.22949-.11914.4964-.29.989-.58545,1.50171-.85229,4.18652-2.17883,1.44849-8.781-2.96564-6.80566-1.13538.50806-2.24164,1.07446-3.33228,1.6687-6.94647-.26758-14.01642,7.01416-17.4953,12.27148a31.12073,31.12073,0,0,0-4.42889,10.47241c-3.98492-.543-7.76044-.92969-11.1051-3.89612-4.11047-3.64563-5.525-9.10852-4.704-14.39587.90027-5.7981-8.09088-6.9895-9.0318-1.19751a26.06611,26.06611,0,0,0-.29193,5.60193,3.09918,3.09918,0,0,0-.24939.36853c-.17737.31787-.32153.64331-.4726.96729a82.45088,82.45088,0,0,1,.01953-8.67322c.07678-2.10876-3.17273-2.87341-4.06-.96692-3.95,8.48792-.66315,19.93237,5.06146,26.835a29.96663,29.96663,0,0,0,4.13495,4.07983c.2218.22131.43958.448.66907.65869a25.53857,25.53857,0,0,0,20.30731,5.40735,2.69572,2.69572,0,0,0,.80487-.28369c.14478-.03284.2879-.0752.43231-.11047.082.05359.16345.1084.2486.15479a3.67006,3.67006,0,0,0,5.25378-.58521c2.184-2.443,2.0979-5.88184,2.96332-8.932a36.95039,36.95039,0,0,1,11.57574-18.12219,3.88073,3.88073,0,0,0,1.08411,2.795,33.51679,33.51679,0,0,0,12.28247,7.7572l.20587.12976c3.63055,2.288,7.1073,4.96692,11.21283,6.27063,2.51794.79956,4.105-1.21875,4.21826-3.35254A3.85012,3.85012,0,0,0,352.20553,117.4704Z"/><path d="M463.19155,193.88422c-.93512-2.063-3.30524-2.79712-5.2392-3.563a4.18626,4.18626,0,0,0-3.17554.38647,4.17966,4.17966,0,0,0,.933,7.6665,16.87716,16.87716,0,0,0,2.08624.60571,6.14762,6.14762,0,0,0,4.0943-.42334,3.43042,3.43042,0,0,0,1.61835-2.06665A3.85753,3.85753,0,0,0,463.19155,193.88422Z"/><path d="M480.05751,202.48652c-1.41882-2.97778-4.84985-3.408-7.71423-4.27466-1.96716-.595-4.3725-.09314-5.18915,2.0542a4.00243,4.00243,0,0,0,2.0542,5.18921q1.8.65662,3.6,1.31348c1.69238.61743,3.59625,1.24109,5.31458.34656C479.74892,206.26887,480.94228,204.34345,480.05751,202.48652Z"/><path d="M486.33687,208.4101a4.63182,4.63182,0,0,0-3.32306-2.94556,4.52253,4.52253,0,0,0-5.3598,4.6178,4.4398,4.4398,0,0,0,2.47223,3.74719,4.649,4.649,0,0,0,5.14124-.49231A4.3944,4.3944,0,0,0,486.33687,208.4101Z"/><path d="M420.6147,158.59247a8.65146,8.65146,0,0,0-2.82458-2.4502,4.23,4.23,0,0,0-2.77856-.78015,3.68984,3.68984,0,0,0-2.84161,1.87927c-1.08057,1.83911-.43085,4.69116,1.769,5.446a10.33266,10.33266,0,0,0,4.52454.942,3.17282,3.17282,0,0,0,2.54108-1.8927A3.30338,3.30338,0,0,0,420.6147,158.59247Z"/><path d="M426.62532,165.8393c-2.57483,0-2.26141,3.98865.301,3.98865C429.50118,169.82795,429.1877,165.8393,426.62532,165.8393Z"/><path d="M440.43813,176.92035a3.0403,3.0403,0,0,0-.74561-1.75732,4.14516,4.14516,0,0,0-.91272-1.78394,3.68889,3.68889,0,0,0-2.46948-1.15662,3.651,3.651,0,0,0-2.64331.9563,3.50575,3.50575,0,0,0-1.15674,2.4696,5.0053,5.0053,0,0,0,1.26172,3.38013,4.404,4.404,0,0,0,1.75909,1.15332,4.58551,4.58551,0,0,0,2.05829.06189l-.27539.02148a4.44311,4.44311,0,0,0,1.51935-.41736A3.02175,3.02175,0,0,0,440.43813,176.92035Z"/><path d="M424.83193,209.51826q-.28381-.10638-.56763-.21265a3.64945,3.64945,0,0,0-3.46906.27954,3.45633,3.45633,0,0,0-1.51025,2.74792,3.5238,3.5238,0,0,0,4.6554,3.49316l.58923-.22119a3.317,3.317,0,0,0,2.17145-2.94873A3.25144,3.25144,0,0,0,424.83193,209.51826Z"/><path d="M375.22994,160.51826c-.97736-2.35059-3.75189-2.82227-5.91992-3.49023a4.27091,4.27091,0,0,0-5.23553,2.886,4.32944,4.32944,0,0,0,2.88586,5.23547c2.17078.77893,4.47284,1.88391,6.69751.5575A3.95326,3.95326,0,0,0,375.22994,160.51826Z"/><path d="M349.04531,139.49824c-5.56427,0-6.14246,8.67065-.539,8.67065C354.07058,148.16889,354.64876,139.49824,349.04531,139.49824Z"/><path d="M335.00875,143.18061c-2.5434,0-3.03937,3.97266-.46588,3.97266C337.08626,147.15326,337.58223,143.18061,335.00875,143.18061Z"/><path d="M370.34456,107.20453c-5.0838,0-5.59845,7.9248-.47083,7.9248C374.95754,115.12934,375.47219,107.20453,370.34456,107.20453Z"/><path d="M621.48458,76.32245c-8.16351,1.9646-15.97406,5.17285-23.70844,8.40039-6.77545,2.82727-14.17841,5.30859-20.52777,9.11682a4.61519,4.61519,0,0,0-.70441-1.96094c-2.5661-3.96057-7.6546-6.20422-11.807-8.5531,3.84113-2.24707,7.50854-4.81348,11.25519-7.24023,4.72388-3.05957,9.39746-6.18579,14.05865-9.33447.08569-.02954.16956-.06348.25531-.093a3.88867,3.88867,0,0,0,1.90973-1.36841c.79846-.54175,1.60083-1.07593,2.39856-1.61926,4.38837-2.98865-.67487-8.91394-5.009-6.33765q-2.89883,1.72321-5.78314,3.46448a167.87041,167.87041,0,0,0-18.22443,6.952c-4.5097,2.038-10.03943,4.34607-14.72919,7.30432q-1.17343-.70148-2.34686-1.40308-14.80023-8.84784-29.60046-17.6958c-5.41534-3.23755-11.2146,4.7312-5.76794,7.998q15.208,9.12177,30.416,18.24341l.02563.01538a5.35086,5.35086,0,0,0,.0426,2.17407c-.426-.229-.85559-.45142-1.28174-.67993a2.79,2.79,0,0,0-3.436-2.46582c-.23761.06787-.473.1416-.71039.21008-1.68127-.93481-3.36249-1.86975-5.0307-2.82947q-6.356-3.65662-12.54565-7.57324c-4.33026-2.72937-8.59192-5.92407-13.52-7.44653-2.71228-.83777-5.37909,2.68726-3.6911,5.04443,5.14178,7.18042,14.45111,12.2439,22.26184,16.73779-8.42993,2.84521-16.74811,6.012-25.02985,9.29077-12.95575,5.12939-25.25952,11.31628-37.85956,17.21948-3.33673,1.56323-.76508,6.53821,2.56683,5.07642,12.43323-5.45508,25.22937-10.05444,37.821-15.15759,10.04492-4.07092,20.16278-7.95313,30.19922-12.04077q4.02484,2.20917,8.11975,4.28381c1.93268.98022,4.02155,2.182,6.18512,3.131-4.8465,2.12317-9.59259,4.73938-14.23352,6.861q-12.10172,5.53235-24.11438,11.239-11.56,5.51294-23.10077,11.06592c-7.37427,3.54443-15.83191,6.84766-22.21887,12.02222-1.83759,1.48877-.18524,4.41187,1.99207,4.02393,7.78961-1.38843,15.57581-5.48535,22.80267-8.62256q12.21359-5.30182,24.41357-10.63452,11.74374-5.14014,23.39166-10.47852c7.62817-3.48718,16.32556-6.36353,23.17682-11.21045,2.7229-1.92627,1.27228-5.97119-1.3717-7.075a3.32988,3.32988,0,0,0-.31677-.6311c-2.125-3.25952-5.65448-4.94226-9.11292-6.60376.55969-.21216,1.11389-.44849,1.6662-.69275q3.636,2.181,7.272,4.36169c4.64612,2.78687,9.68683,7.02368,15.21057,7.4668a4.48127,4.48127,0,0,0,.78668-.01062c.03741,2.36865,1.79,4.76477,4.48926,4.20435,8.154-1.69287,15.99731-5.62048,23.67017-8.79163,7.77283-3.21252,15.5589-6.54565,22.73834-10.9563C628.627,80.3891,625.18435,75.43207,621.48458,76.32245Z"/></g><g id="32862ca3-edb1-4e2c-bf55-a0ae259a0b05" data-name="Capa 2 copia"><path d="M162.07479,215.16889a2.83459,2.83459,0,0,1-1.17236-5.416c23.03711-10.44922,49.59375-21.98242,75.27539-33.13672,25.66162-11.14453,52.19678-22.66895,75.19238-33.09863a2.83423,2.83423,0,1,1,2.3418,5.16211c-23.03711,10.44922-49.59375,21.98242-75.27539,33.13672C212.775,192.96088,186.23983,204.4853,163.24422,214.915A2.81641,2.81641,0,0,1,162.07479,215.16889Z"/><path d="M220.06258,254.27826a2.83484,2.83484,0,0,1-1.12891-5.43555l147.11182-63.77051a2.83446,2.83446,0,0,1,2.25488,5.20117L221.18856,254.04389A2.82606,2.82606,0,0,1,220.06258,254.27826Z"/><path d="M219.83114,259.3017a2.82435,2.82435,0,0,1-1.66162-.54L152.4366,211.0976a2.83474,2.83474,0,1,1,3.32813-4.58984l65.73291,47.66406a2.83492,2.83492,0,0,1-1.6665,5.12988Z"/><path d="M19.80574,267.84565a2.83517,2.83517,0,0,1-1.11914-5.44043l133.51514-57.2793a2.83508,2.83508,0,0,1,2.23535,5.21094L20.922,267.61616A2.82608,2.82608,0,0,1,19.80574,267.84565Z"/><path d="M90.16365,315.25678a2.8151,2.8151,0,0,1-1.56836-.47559L17.40975,267.39741a2.83444,2.83444,0,1,1,3.1416-4.71875L91.7369,310.06244a2.83479,2.83479,0,0,1-1.57324,5.19434Z"/><path d="M89.75936,317.05073a2.83465,2.83465,0,0,1-.87646-5.53027,827.58645,827.58645,0,0,0,131.2334-55.6377,2.835,2.835,0,0,1,2.65527,5.00977A833.27329,833.27329,0,0,1,90.6368,316.91108,2.83443,2.83443,0,0,1,89.75936,317.05073Z"/><path d="M151.71346,288.75776a1.41091,1.41091,0,0,1-.86719-.29687L87.795,239.61225a1.41717,1.41717,0,1,1,1.73633-2.24023l63.05127,48.84863a1.41682,1.41682,0,0,1-.86914,2.53711Z"/><path d="M52.56209,289.35444a1.4178,1.4178,0,0,1-.56592-2.71777l129.1167-56.17773a1.41746,1.41746,0,0,1,1.13086,2.59961L53.127,289.23627A1.41339,1.41339,0,0,1,52.56209,289.35444Z"/><path d="M61.28035,293.19428a1.41775,1.41775,0,0,1-.5542-2.72266l131.04492-55.63184a1.41732,1.41732,0,1,1,1.10742,2.60938L61.83358,293.081A1.42166,1.42166,0,0,1,61.28035,293.19428Z"/><path d="M117.09774,302.873a.70611.70611,0,0,1-.53174-.24023c-16.90625-19.14746-36.06885-40.85059-61.98145-49.9541a.709.709,0,0,1,.46973-1.33789c26.26123,9.22656,45.55322,31.07617,62.57422,50.35449a.70877.70877,0,0,1-.53076,1.17773Z"/><path d="M183.33846,273.3144a.70762.70762,0,0,1-.51807-.22559,317.16582,317.16582,0,0,0-59.53516-49.80371.70834.70834,0,1,1,.76953-1.18945A318.54488,318.54488,0,0,1,183.85653,272.122a.709.709,0,0,1-.51807,1.19238Z"/><path d="M41.78133,275.73237a.70881.70881,0,0,1-.30908-1.34668,866.04392,866.04392,0,0,1,128.16016-49.877.7086.7086,0,0,1,.40723,1.35742,864.71216,864.71216,0,0,0-127.9502,49.79492A.709.709,0,0,1,41.78133,275.73237Z"/><path d="M75.93709,303.71967a.7091.7091,0,0,1-.27588-1.3623L196.3619,251.498l6.126-3.24512a.70836.70836,0,1,1,.66309,1.252l-5.63672,2.98633a.70118.70118,0,0,1-.17725.13086l-5.44531,2.84766a.70749.70749,0,0,1-.87793-.18066L76.212,303.664A.72013.72013,0,0,1,75.93709,303.71967Z"/><path d="M172.80086,217.17182a.70882.70882,0,0,1-.25977-1.36816l147.30615-58.08789a.70852.70852,0,1,1,.51953,1.31836L173.06063,217.122A.69341.69341,0,0,1,172.80086,217.17182Z"/><path d="M206.54793,243.996a.70892.70892,0,0,1-.26025-1.36816l151.50684-59.76855a.7087.7087,0,0,1,.52051,1.31836L206.80819,243.94623A.69771.69771,0,0,1,206.54793,243.996Z"/><path d="M243.34823,238.91987a.70624.70624,0,0,1-.46045-.1709,415.32017,415.32017,0,0,0-50.95068-37.30859.70836.70836,0,1,1,.748-1.20312,416.506,416.506,0,0,1,51.12451,37.43555.70894.70894,0,0,1-.46143,1.24707Z"/><path d="M274.003,224.4394a.69784.69784,0,0,1-.33105-.083,293.54257,293.54257,0,0,1-50.96924-34.291.70846.70846,0,1,1,.91016-1.08594,292.233,292.233,0,0,0,50.72217,34.125.70872.70872,0,0,1-.332,1.335Z"/><path d="M305.31209,211.7851a.70728.70728,0,0,1-.4292-.14551L255.5035,174.00776a.70862.70862,0,1,1,.85938-1.127l49.37939,37.63184a.70893.70893,0,0,1-.43018,1.27246Z"/><path d="M341.09676,199.0683a.70707.70707,0,0,1-.40039-.125l-21.229-14.55859a.70834.70834,0,1,1,.80176-1.168l21.229,14.55859a.70879.70879,0,0,1-.40137,1.293Z"/><path d="M310.68758,178.21381a.70707.70707,0,0,1-.40039-.125l-27.54053-18.88672a.70834.70834,0,1,1,.80176-1.168l27.54053,18.88672a.70879.70879,0,0,1-.40137,1.293Z"/><path d="M188.90828,231.69721a1.41773,1.41773,0,0,1-.5498-2.72461l147.80176-62.1543a1.41741,1.41741,0,1,1,1.09863,2.61328l-147.80176,62.1543A1.41736,1.41736,0,0,1,188.90828,231.69721Z"/><path d="M195.8658,237.206a1.4178,1.4178,0,0,1-.61133-2.69727A1594.43728,1594.43728,0,0,1,346.6158,171.62885a1.41715,1.41715,0,1,1,.95117,2.66992,1591.49171,1591.49171,0,0,0-151.0918,62.76855A1.41481,1.41481,0,0,1,195.8658,237.206Z"/><path d="M369.68856,189.56049a2.82363,2.82363,0,0,1-1.65332-.53418l-55.332-39.81152a2.83463,2.83463,0,0,1,3.31152-4.60156l55.332,39.81152a2.835,2.835,0,0,1-1.6582,5.13574Z"/><path d="M334.689,175.26948a17.36011,17.36011,0,0,0-5.25879-2.0752,2.83462,2.83462,0,0,1,.40527-3.98828,4.83717,4.83717,0,0,1,7.61182,2.56348,2.83537,2.83537,0,0,1-2.7583,3.5Z"/><path d="M370.05428,198.6435a2.82162,2.82162,0,0,1-.93506-.15918l-10.53564-3.68164a2.83429,2.83429,0,1,1,1.86914-5.35156l10.53662,3.68164a2.83474,2.83474,0,0,1-.93506,5.51074Z"/><path d="M309.71932,148.35346a2.83555,2.83555,0,0,1-2.83057-2.7207,51.126,51.126,0,0,1,52.7124-53.168,2.83445,2.83445,0,0,1-.18066,5.666,45.45837,45.45837,0,0,0-46.8667,47.27344,2.8351,2.8351,0,0,1-2.71777,2.94629C309.797,148.35248,309.75789,148.35346,309.71932,148.35346Z"/><path d="M417.07723,134.89057a2.8182,2.8182,0,0,1-1.49854-.43066l-56.918-35.53711a2.83461,2.83461,0,0,1,3.00293-4.80859l56.918,35.53711a2.835,2.835,0,0,1-1.50439,5.23926Z"/><path d="M386.85067,233.62885a2.83553,2.83553,0,0,1-2.50391-1.501l-13.96338-26.18555a2.8345,2.8345,0,0,1,5.002-2.668l13.96436,26.18555a2.83563,2.83563,0,0,1-2.499,4.16895Z"/><path d="M373.51326,206.34369a2.83528,2.83528,0,0,1-2.83252-2.76562c-.72754-29.84961,18.022-58.69727,45.59619-70.15137a2.835,2.835,0,0,1,2.1748,5.23633c-25.05762,10.4082-42.76465,37.65137-42.103,64.77637a2.83482,2.83482,0,0,1-2.76465,2.90332C373.56014,206.34272,373.5367,206.34369,373.51326,206.34369Z"/><path d="M419.58309,137.36909a2.83467,2.83467,0,0,1-.11377-5.667l25.61475-1.04687a2.83441,2.83441,0,0,1,.23242,5.66406l-25.61572,1.04688C419.66121,137.36811,419.62215,137.36909,419.58309,137.36909Z"/><path d="M389.63826,235.13862a2.83575,2.83575,0,0,1-2.60889-1.72266,73.01414,73.01414,0,0,1,61.2793-101.43457,2.83438,2.83438,0,1,1,.45605,5.65039,67.3453,67.3453,0,0,0-56.52051,93.55957,2.83481,2.83481,0,0,1-2.606,3.94727Z"/><path d="M300.0411,145.67573c-13.42383,0-26.625-8.46387-31.67041-21.05273-5.77734-14.417-.082-32.30859,12.96631-40.73242a2.835,2.835,0,0,1,3.0752,4.76367c-10.6665,6.88477-15.502,22.07422-10.77881,33.85938,4.72266,11.78613,18.709,19.43652,31.1792,17.04492a2.83469,2.83469,0,1,1,1.06543,5.56836A31.04146,31.04146,0,0,1,300.0411,145.67573Z"/><path d="M310.08748,101.457A55.13891,55.13891,0,0,1,303.17,100.954c-4.26465-.543-9.17871-1.45605-13.29639-4.12012-4.84717-3.13574-7.63281-8.36719-7.09717-13.32812a10.93838,10.93838,0,0,1,4.88428-7.81738,9.39457,9.39457,0,0,1,6.41064-1.5625,12.94245,12.94245,0,0,1,1.19043-.60449,25.8688,25.8688,0,0,1,7.47412-1.74023c4.81494-.60547,10.27344-1.2959,15.57813.11523,6.39111,1.69727,11.08545,6.37207,11.96045,11.90918,1.10938,7.01758-4.05029,13.20313-9.72021,15.68652A25.86928,25.86928,0,0,1,310.08748,101.457ZM289.39461,88.33979a11.11447,11.11447,0,0,0,3.55859,3.73438c3.15381,2.04,7.11768,2.77051,10.93115,3.25586,4.6167.585,9.93652.92188,14.39551-1.03125,3.58789-1.57129,7.04883-5.47266,6.395-9.6084-.59717-3.77734-4.356-6.39551-7.81641-7.31543q-.71045-.1875-1.436-.31543c3.40723,1.42578,5.62061,3.87793,6.09033,6.877.66455,4.24219-2.45215,7.918-5.87451,9.35645-3.14014,1.32031-6.5332,1.16895-9.26221,1.04688-3.4248-.1543-7.68652-.34473-11.38525-2.332a12.61174,12.61174,0,0,1-4.05762-3.501A2.84488,2.84488,0,0,1,289.39461,88.33979Zm6.06055-3.27051a6.8572,6.8572,0,0,0,2.21924,1.94434c2.56006,1.375,5.95752,1.52832,8.95508,1.66211,2.38379.10547,4.84717.2168,6.81152-.60937,1.542-.64844,2.65039-2.10742,2.47119-3.25293-.23535-1.5-2.43359-2.63477-4.50781-3.09277A20.24749,20.24749,0,0,0,295.45516,85.06928Zm-6.65479-2.32617a4.74251,4.74251,0,0,0-.314.92871c.11523-.123.231-.24414.34863-.36426C288.81746,83.12006,288.80574,82.93256,288.80037,82.74311Z"/><path d="M334.30867,99.22748a2.832,2.832,0,0,1-2.42773-1.36719l-4.77637-7.88574a2.83494,2.83494,0,0,1,4.84961-2.9375l4.77637,7.8877a2.8349,2.8349,0,0,1-2.42187,4.30273Z"/><path d="M476.36141,292.77045a2.81934,2.81934,0,0,1-1.61865-.50977c-15.1499-10.55957-31.0166-20.60352-46.36084-30.31641l-40.12109-25.40039a2.83456,2.83456,0,0,1,3.03223-4.79l40.12109,25.39941c15.39648,9.74707,31.31689,19.8252,46.5708,30.457a2.83469,2.83469,0,0,1-1.62354,5.16016Z"/><path d="M533.20028,190.05073a2.82179,2.82179,0,0,1-1.58545-.48633c-27.02295-18.27344-54.78662-36.22461-82.51953-53.35449a2.83507,2.83507,0,0,1,2.97949-4.82422c27.79883,17.17188,55.62842,35.166,82.71582,53.48145a2.83516,2.83516,0,0,1-1.59033,5.18359Z"/><path d="M432.91365,265.22846a2.8347,2.8347,0,0,1-2.73193-2.08691A80.32315,80.32315,0,0,1,501.1036,161.87983a2.83462,2.83462,0,1,1,.46191,5.65039,74.64364,74.64364,0,0,0-67.11816,88.99609,2.83335,2.83335,0,0,1,1.39941,2.52637l-.09766,3.42188a2.83789,2.83789,0,0,1-2.83545,2.75391Z"/><path d="M427.213,227.52143a2.8314,2.8314,0,0,1-1.37646-.35742,348.27128,348.27128,0,0,0-37.81934-18.10645,2.83462,2.83462,0,1,1,2.13477-5.252A353.98415,353.98415,0,0,1,426.08211,220.829a2.83428,2.83428,0,0,1,4.22949,3.07617l-.34033,1.43457a2.834,2.834,0,0,1-2.7583,2.18164Z"/><path d="M438.11629,193.64838a2.82185,2.82185,0,0,1-1.56592-.47363l-35.61475-23.66016a2.83472,2.83472,0,1,1,3.13672-4.72266l35.61475,23.66016a2.83491,2.83491,0,0,1-1.5708,5.19629Z"/><path d="M475.64657,169.79389a2.822,2.822,0,0,1-1.29-.3125,220.342,220.342,0,0,1-38.75293-25.32422,2.83459,2.83459,0,0,1,3.584-4.39258,214.694,214.694,0,0,0,37.75391,24.67188,2.8347,2.8347,0,0,1-1.29492,5.35742Z"/><path d="M504.18612,299.04194c-7.35742,0-14.07666-2.69824-18.53418-7.46777-4.88867-5.23145-7.25049-13.07812-7.02-23.32227a77.76555,77.76555,0,0,1,56.69775-73.1123,2.83429,2.83429,0,1,1,1.53418,5.457,72.09862,72.09862,0,0,0-52.564,67.78223c-.1958,8.71191,1.65234,15.21387,5.49414,19.32422,3.46094,3.7041,9.0874,5.81738,15.04932,5.66016,5.1792-.1377,10.6499-1.79785,16.72461-5.07617a65.07927,65.07927,0,0,0,28.49512-83.85449,2.8348,2.8348,0,0,1,5.1748-2.31641,70.74667,70.74667,0,0,1-30.97754,91.15918c-6.87549,3.71094-13.17725,5.59375-19.26611,5.75586Q504.58919,299.04145,504.18612,299.04194Z"/><path d="M520.58651,264.71479a13.16958,13.16958,0,0,1-12.16064-7.78613,14.90319,14.90319,0,0,1-.68262-8.27246,21.19267,21.19267,0,0,1,16.11426-16.65625,2.83577,2.83577,0,0,1,3.36084,2.18555c.00537.02441.01025.0498.01465.07422a13.23926,13.23926,0,0,1,7.87939,6.23145c2.77344,5.03027,2.26074,11.63965-1.30713,16.83789a16.50838,16.50838,0,0,1-12.56885,7.37012Q520.91048,264.71528,520.58651,264.71479ZM519.418,240.12006a15.507,15.507,0,0,0-6.09277,9.52832,9.30265,9.30265,0,0,0,.3418,5.12012,7.66759,7.66759,0,0,0,7.29492,4.26855,10.97152,10.97152,0,0,0,8.16846-4.915c2.32959-3.39453,2.73828-7.77246,1.01709-10.89258-1.71826-3.11719-5.90723-4.69238-8.79248-3.30078A2.81119,2.81119,0,0,1,519.418,240.12006Z"/><path d="M539.01131,230.83588c-3.53564,0-6.66553-2.39258-8.18359-3.55273L513.629,214.13471a2.83469,2.83469,0,1,1,3.44336-4.50391l17.19824,13.14844c1.63867,1.25293,3.98828,2.84668,5.43457,2.252,1.35791-.56152,1.9668-3.0459,2.34473-5.14844l7.7793-43.23633a2.83483,2.83483,0,1,1,5.58008,1.00391L547.63,220.88666c-.40771,2.26465-1.36182,7.56738-5.76123,9.38477A7.42532,7.42532,0,0,1,539.01131,230.83588Z"/><path d="M534.97567,216.95112a2.87714,2.87714,0,0,1-.417-.03027,2.83437,2.83437,0,0,1-2.39062-3.21777l4.46924-30.31738c.45215-3.06836,1.394-9.45117,6.64844-11.77051a8.64906,8.64906,0,0,1,10.95117,3.93066,2.8344,2.8344,0,1,1-5.06445,2.54688,3.00151,3.00151,0,0,0-3.59814-1.291c-2.10693.93066-2.86475,4.26855-3.32861,7.41113l-4.46924,30.31641A2.8348,2.8348,0,0,1,534.97567,216.95112Z"/><path d="M552.9034,177.538a2.83534,2.83534,0,0,1-2.71973-3.6377,34.824,34.824,0,0,0,.86816-15.96094,2.83426,2.83426,0,0,1,1.95752-3.21289l5.5918-1.71777a2.83437,2.83437,0,0,1,3.6665,2.67285l.07617,5.75977a15.40351,15.40351,0,0,0,2.7168-4.27148c1.08008-2.71289.76025-6.57812-1.64062-8.09082-1.63379-1.02832-4.19971-.958-6.86621.18945a16.26786,16.26786,0,0,0-8.36865,21.70508,2.83439,2.83439,0,1,1-5.15625,2.35547,21.93651,21.93651,0,0,1,11.28418-29.26855c4.44727-1.91406,8.86816-1.833,12.12939.22168,5.11572,3.22461,5.81982,10.127,3.88477,14.98535-1.86816,4.69141-5.73486,8.14746-8.84131,10.92383a2.835,2.835,0,0,1-4.53223-1.08887,40.179,40.179,0,0,1-1.33252,6.40332A2.83606,2.83606,0,0,1,552.9034,177.538Z"/><path d="M546.3453,174.81928a2.82336,2.82336,0,0,1-1.71191-.57715,34.7073,34.7073,0,0,0-14.32129-6.39648,2.83474,2.83474,0,0,1,1.07617-5.56641,40.40429,40.40429,0,0,1,16.67285,7.44727,2.83491,2.83491,0,0,1-1.71582,5.09277Z"/><path d="M530.68074,168.30854a2.836,2.836,0,0,1-2.71533-2.02441,27.28539,27.28539,0,0,1,22.27393-34.81152,2.83437,2.83437,0,1,1,.80469,5.61133,21.61695,21.61695,0,0,0-17.646,27.5791,2.83694,2.83694,0,0,1-2.71729,3.64551Z"/><path d="M559.55867,147.43159a2.82307,2.82307,0,0,1-1.99268-.81934,19.22653,19.22653,0,0,0-11.78223-5.4043,2.83438,2.83438,0,1,1,.45605-5.65039,24.97185,24.97185,0,0,1,15.31152,7.02344,2.835,2.835,0,0,1-1.99268,4.85059Z"/><path d="M494.69393,303.20307h-.00244c-8.01318-.00781-16.1665-5.13477-20.772-13.0625-3.56494-6.1377-5.2832-13.78027-5.25342-23.36621a87.48592,87.48592,0,0,1,37.665-71.04785,2.83434,2.83434,0,1,1,3.19629,4.68164A81.74569,81.74569,0,0,0,474.335,266.79194c-.02637,8.55176,1.44141,15.25781,4.48682,20.501,3.23926,5.57617,8.5874,9.38477,14.00977,10.11328l.66357-1.64648a2.83486,2.83486,0,0,1,5.25879,2.11914l-1.43115,3.5498A2.83522,2.83522,0,0,1,494.69393,303.20307Z"/><path d="M497.15438,253.374a9.694,9.694,0,0,1-9.27344-6.65332,8.6468,8.6468,0,0,1,1.28711-7.22852,8.13563,8.13563,0,0,1,4.5957-3.30566,2.83189,2.83189,0,0,1,1.14111-2.39941,8.154,8.154,0,0,1,10.561,1.25781,10.47751,10.47751,0,0,1,2.1543,9.666,11.496,11.496,0,0,1-8.8584,8.52539A9.41577,9.41577,0,0,1,497.15438,253.374Zm.91553-14.88965c.00293.0293.00586.05957.0083.08887a2.8349,2.8349,0,0,1-2.60156,3.05078,2.32589,2.32589,0,0,0-1.64551,1.09277,2.97776,2.97776,0,0,0-.50439,2.42773,4.09591,4.09591,0,0,0,4.46436,2.50586,5.83328,5.83328,0,0,0,4.33691-4.34473,4.85657,4.85657,0,0,0-.82422-4.41113,2.50713,2.50713,0,0,0-3.01709-.55664Q498.1805,238.41547,498.0699,238.48432Z"/><path d="M534.21834,243.72748c-.06885,0-.13818-.00293-.208-.00781a2.83441,2.83441,0,0,1-2.62207-3.03223l.09424-1.31055a2.836,2.836,0,0,1,3.49316-2.55371,3.46976,3.46976,0,0,0,3.82373-2.11426,2.83447,2.83447,0,1,1,5.376,1.79883,9.09954,9.09954,0,0,1-7.63965,6.01367A2.834,2.834,0,0,1,534.21834,243.72748Z"/><path d="M536.37166,250.13666a13.82757,13.82757,0,0,1-2.1333-.16309,2.83422,2.83422,0,1,1,.86816-5.60156,8.9529,8.9529,0,0,0,7.626-2.52246,2.83506,2.83506,0,0,1,4.03809,3.98047A14.75381,14.75381,0,0,1,536.37166,250.13666Z"/><path d="M549.90682,234.63764a2.835,2.835,0,0,1-.58008-5.60937l9.18848-1.93164a2.835,2.835,0,0,1,1.166,5.54883l-9.18848,1.93164A2.86692,2.86692,0,0,1,549.90682,234.63764Z"/><path d="M554.13778,244.73627a6.27206,6.27206,0,0,1-4.29541-1.62988,2.8349,2.8349,0,0,1,3.85645-4.15625,1.36525,1.36525,0,0,0,1.69531-.58887,2.83459,2.83459,0,0,1,5.60156.873,6.584,6.584,0,0,1-4.48047,5.09473A7.25348,7.25348,0,0,1,554.13778,244.73627Z"/><path d="M509.70223,283.497a13.50919,13.50919,0,0,1-3.48389-.45605,16.75276,16.75276,0,0,1-10.68018-9.61328,24.99722,24.99722,0,0,1-1.49219-13.64453,2.83466,2.83466,0,1,1,5.60938.82227,19.38393,19.38393,0,0,0,1.07422,10.54492,11.06089,11.06089,0,0,0,6.95215,6.41406,7.48445,7.48445,0,0,0,7.87012-2.56836,2.83433,2.83433,0,1,1,4.68359,3.19336A12.73236,12.73236,0,0,1,509.70223,283.497Z"/><path d="M503.608,297.08979a2.83452,2.83452,0,0,1-2.66016-3.8125l4.62891-12.59863a2.83454,2.83454,0,1,1,5.32129,1.95508l-4.62891,12.59863A2.83476,2.83476,0,0,1,503.608,297.08979Z"/><path d="M498.129,261.75678c-.01172,0-.02295,0-.03467-.001l-14.27979-.17285a2.83458,2.83458,0,0,1,.03369-5.66895c.01172,0,.02295,0,.03467.001l14.27979.17285a2.83458,2.83458,0,0,1-.03369,5.66895Z"/><path d="M457.42,253.2519a2.826,2.826,0,0,1-1.80322-.64844,43.30473,43.30473,0,0,0-15.67236-8.21387,2.83428,2.83428,0,1,1,1.541-5.45508,49.03711,49.03711,0,0,1,17.74072,9.2959A2.83519,2.83519,0,0,1,457.42,253.2519Z"/><path d="M458.56307,265.60639a2.83489,2.83489,0,0,1-2.82617-2.66016l-.67822-10.957a2.8345,2.8345,0,1,1,5.6582-.34961l.67822,10.957a2.83406,2.83406,0,0,1-2.65381,3.00391C458.68172,265.60444,458.62215,265.60639,458.56307,265.60639Z"/><path d="M438.526,252.93354a3.04622,3.04622,0,0,1-.311-.0166,2.83494,2.83494,0,0,1-2.51025-3.126l.96094-8.80762a2.83461,2.83461,0,1,1,5.63574.61523l-.96094,8.80762A2.83454,2.83454,0,0,1,438.526,252.93354Z"/><path d="M455.73494,265.36713a2.88751,2.88751,0,0,1-.56689-.05664,2.8359,2.8359,0,0,1-2.24072-3.19043,5.24069,5.24069,0,0,0-1.91309-1.40137l-12.09717-6.28418a2.83473,2.83473,0,1,1,2.61328-5.03125l12.09766,6.28418c4.77441,2.48145,5.29,5.39844,4.88184,7.40918A2.83508,2.83508,0,0,1,455.73494,265.36713Zm-2.76709-3.18066h0Z"/><path d="M395.41658,200.53412a2.83679,2.83679,0,0,1-2.69629-3.71191,1.39778,1.39778,0,0,0-1.27686-1.35352,2.83511,2.83511,0,0,1-1.4248-5.48828,6.92979,6.92979,0,0,1,8.09326,8.5957A2.83581,2.83581,0,0,1,395.41658,200.53412Z"/><path d="M392.77694,228.92963a2.82276,2.82276,0,0,1-1.88574-.71973l-2.88965-2.57422a2.8349,2.8349,0,0,1,3.77051-4.23437l2.89258,2.57813a2.83492,2.83492,0,0,1-1.8877,4.9502Z"/><path d="M430.90584,148.35248a2.8287,2.8287,0,0,1-1.8125-.65527l-2.75684-2.29395a2.83438,2.83438,0,1,1,3.626-4.35742l.96777.80469a26.53641,26.53641,0,0,1,13.6582-5.0791,2.83436,2.83436,0,1,1,.43066,5.65234,20.81572,20.81572,0,0,0-12.22412,5.207A2.8276,2.8276,0,0,1,430.90584,148.35248Z"/><path d="M392.99471,117.03022a2.835,2.835,0,0,1-1.12793-5.43652L507.56942,61.4853a2.835,2.835,0,0,1,2.25293,5.20313l-115.70264,50.1084A2.8353,2.8353,0,0,1,392.99471,117.03022Z"/><path d="M470.4244,146.33a2.8352,2.8352,0,0,1-1.18994-5.40918L565.13338,96.664a2.83512,2.83512,0,0,1,2.376,5.14844l-95.89893,44.25684A2.8353,2.8353,0,0,1,470.4244,146.33Z"/><path d="M575.26864,103.70014a2.81819,2.81819,0,0,1-1.627-.51562,410.29441,410.29441,0,0,0-67.8501-38.5625,2.83475,2.83475,0,0,1,2.31836-5.17383,416.00962,416.00962,0,0,1,68.79053,39.09766,2.83481,2.83481,0,0,1-1.63184,5.1543Z"/><path d="M505.1285,64.45112a2.83478,2.83478,0,0,1-1.07031-5.46L608.73787,16.35151a2.83445,2.83445,0,0,1,2.13867,5.25L506.19686,64.24116A2.82773,2.82773,0,0,1,505.1285,64.45112Z"/><path d="M677.295,61.22553a2.823,2.823,0,0,1-1.41553-.37988l-67.2666-38.85547a2.8343,2.8343,0,1,1,2.83594-4.9082l67.2666,38.85352a2.83517,2.83517,0,0,1-1.42041,5.29Z"/><path d="M575.39022,105.59858a2.83483,2.83483,0,0,1-1.13184-5.43457L675.41365,56.16889a2.83473,2.83473,0,1,1,2.26074,5.19922L576.51912,105.36323A2.82093,2.82093,0,0,1,575.39022,105.59858Z"/><path d="M417.16561,133.32612a1.41773,1.41773,0,0,1-.63525-2.68555A1016.38309,1016.38309,0,0,1,536.33065,80.0185a1.417,1.417,0,1,1,.93359,2.67578,1013.62678,1013.62678,0,0,0-119.46533,50.48145A1.41593,1.41593,0,0,1,417.16561,133.32612Z"/><path d="M542.40194,77.46186a1.41766,1.41766,0,0,1-.53516-2.73047l94.71094-38.58105a1.41722,1.41722,0,1,1,1.06934,2.625L542.93612,77.35639A1.41271,1.41271,0,0,1,542.40194,77.46186Z"/><path d="M439.48494,131.2519a1.41757,1.41757,0,0,1-.55566-2.72168L544.18563,83.72944a1.417,1.417,0,1,1,1.11035,2.60742L440.03963,131.13764A1.41426,1.41426,0,0,1,439.48494,131.2519Z"/><path d="M552.37215,84.52534a1.41752,1.41752,0,0,1-.5249-2.73437L647.797,43.58491a1.417,1.417,0,1,1,1.04883,2.63281L552.89608,84.42377A1.41729,1.41729,0,0,1,552.37215,84.52534Z"/><path d="M426.88143,126.27045a.70467.70467,0,0,1-.47168-.18066l-18.82617-16.81445-.6001.55176a.70881.70881,0,0,1-.958-1.04492l1.07178-.98535a.70982.70982,0,0,1,.95166-.00586l19.30518,17.24219a.70915.70915,0,0,1-.47266,1.2373Z"/><path d="M402.44246,123.24116a.70883.70883,0,0,1-.28418-1.3584L521.24276,69.84858a.70867.70867,0,1,1,.56738,1.29883L402.72567,123.18159A.71077.71077,0,0,1,402.44246,123.24116Z"/><path d="M530.422,71.25776a.70906.70906,0,0,1-.28467-1.3584l94.53613-41.418a.70887.70887,0,0,1,.56836,1.29883l-94.53613,41.418A.71307.71307,0,0,1,530.422,71.25776Z"/><path d="M567.70174,93.9228a.70871.70871,0,0,1-.29-1.35547l89.7334-40.16309a.70837.70837,0,1,1,.5791,1.293L567.9908,93.8603A.70911.70911,0,0,1,567.70174,93.9228Z"/><path d="M457.85067,135.456a.70917.70917,0,0,1-.27832-1.36133l99.56592-42.39941a.709.709,0,0,1,.55566,1.30469L458.128,135.39936A.71705.71705,0,0,1,457.85067,135.456Z"/><path d="M482.33846,99.3183a.70892.70892,0,0,1-.355-.0957L463.961,88.76557a.709.709,0,0,1-1.34473.37207l-.86426-1.79492a.70881.70881,0,0,1,.99414-.9209L482.69442,97.996a.7091.7091,0,0,1-.356,1.32227Z"/><path d="M513.91951,119.25873a.70516.70516,0,0,1-.333-.084l-23.19434-12.37793a.70841.70841,0,1,1,.667-1.25l23.19434,12.37793a.70874.70874,0,0,1-.334,1.334Z"/><path d="M509.357,87.32026a.69855.69855,0,0,1-.35205-.09473,130.08173,130.08173,0,0,0-20.72607-9.57617.70853.70853,0,0,1-1.26465.62988l-.94385-1.5791a.7088.7088,0,0,1,.83789-1.03418A131.45548,131.45548,0,0,1,509.71,85.997a.70863.70863,0,0,1-.353,1.32324Z"/><path d="M535.43709,104.76069a.71214.71214,0,0,1-.42871-.14453,45.85114,45.85114,0,0,0-15.501-7.6582.70884.70884,0,0,1,.375-1.36719,47.31194,47.31194,0,0,1,15.98438,7.89648.70935.70935,0,0,1-.42969,1.27344Z"/><path d="M457.34774,109.34369a.71386.71386,0,0,1-.32666-.08008,107.8587,107.8587,0,0,0-24.50928-9.168.70916.70916,0,0,1,.332-1.37891,109.36123,109.36123,0,0,1,24.83154,9.28906.709.709,0,0,1-.32764,1.33789Z"/><path d="M490.52645,131.65522a.716.716,0,0,1-.228-.03809,68.478,68.478,0,0,1-24.0415-14.24316.70881.70881,0,0,1,.958-1.04492,67.041,67.041,0,0,0,23.53955,13.94629.7088.7088,0,0,1-.228,1.37988Z"/><path d="M565.73543,68.76752a.71063.71063,0,0,1-.38818-.11621c-9.29053-6.09082-18.87842-12.00293-28.49658-17.57227a.70861.70861,0,1,1,.71-1.22656c9.64111,5.583,19.25146,11.50879,28.564,17.61328a.709.709,0,0,1-.38916,1.30176Z"/><path d="M603.99959,88.67182a.7057.7057,0,0,1-.38916-.11719,104.68416,104.68416,0,0,0-27.5708-12.86133.70845.70845,0,0,1,.40625-1.35742A106.07328,106.07328,0,0,1,604.38973,87.371a.70889.70889,0,0,1-.39014,1.30078Z"/><path d="M590.25936,57.75287a.709.709,0,0,1-.31689-.0752L561.38973,43.373a.70882.70882,0,1,1,.63477-1.26758L590.57723,56.4101a.70893.70893,0,0,1-.31787,1.34277Z"/><path d="M623.57137,77.61323a.70294.70294,0,0,1-.36328-.10059c-6.84131-4.09277-13.90039-8.00977-20.98047-11.64258a.70907.70907,0,0,1,.64746-1.26172c7.10693,3.64746,14.19287,7.58008,21.06055,11.6875a.70886.70886,0,0,1-.36426,1.31738Z"/><path d="M617.52108,45.52729a.70682.70682,0,0,1-.376-.1084A132.90234,132.90234,0,0,0,582.81893,30.1601a.70853.70853,0,1,1,.38672-1.36328A134.29893,134.29893,0,0,1,617.898,44.21772a.70884.70884,0,0,1-.377,1.30957Z"/><path d="M652.81746,67.07416a.6982.6982,0,0,1-.33643-.08594L627.50448,53.48334a.70831.70831,0,1,1,.67383-1.24609l24.97656,13.50488a.70864.70864,0,0,1-.3374,1.332Z"/><path d="M447.29549,119.789a.709.709,0,0,1-.5-1.21094l.42041-.41992a.70849.70849,0,1,1,1,1.00391l-.42041.41992A.70626.70626,0,0,1,447.29549,119.789Z"/><path d="M436.58407,125.81049a.70892.70892,0,0,1-.29541-1.35352l16.38916-7.49512c1.86816-.85352,3.978-1.834,6.2793-1.72363,2.31934.09961,4.88623,1.69141,5.1665,4.18457a.70853.70853,0,1,1-1.4082.1582c-.19287-1.71484-2.13281-2.85449-3.81934-2.92676-1.95752-.09082-3.90576.80957-5.62842,1.59668L436.8785,125.746A.70324.70324,0,0,1,436.58407,125.81049Z"/><path d="M489.56649,107.73237a.70867.70867,0,0,1-.65674-.97656l-2.44189.77344a.70893.70893,0,0,1-.50928-1.32031l1.31738-.60352-1.24219.33887a.70849.70849,0,0,1-.49512-1.32129l.82861-.40039L481.607,105.54a.70865.70865,0,0,1-.54639-1.29492l6.25293-3.65137a.709.709,0,0,1,.71484,1.22461l-1.54248.90039,7.06885-1.957a.70834.70834,0,0,1,.49756,1.32031l-.98047.47363,2.17578-.59277a.70883.70883,0,0,1,.48193,1.32813l-1.60449.73535a.69969.69969,0,0,1,.13623.19922.70738.70738,0,0,1-.27148.89746l-4.05127,2.50293A.70135.70135,0,0,1,489.56649,107.73237Z"/><path d="M595.57821,65.18061a.709.709,0,0,1-.34375-1.3291l1.67334-.92578-6.87256.56641a.70863.70863,0,0,1-.38867-1.333l.07568-.04-1.65283.52734a.70831.70831,0,0,1-.61475-1.25977l6.66113-4.54687a.70832.70832,0,1,1,.79883,1.16992l-2.65283,1.81152.01367-.00488,4.63721-1.47949a.70854.70854,0,0,1,.5459,1.30176l-4.08545,2.15625,6.70605-.55273a.70863.70863,0,0,1,.40137,1.32617L595.921,65.09174A.7026.7026,0,0,1,595.57821,65.18061Z"/><path d="M321.23983,149.58491a.70845.70845,0,0,1-.70557-.65723A30.43555,30.43555,0,0,1,335.68807,120.664a.70837.70837,0,1,1,.69531,1.23438,28.996,28.996,0,0,0-14.436,26.92578.70915.70915,0,0,1-.6543.75879C321.275,149.58393,321.2574,149.58491,321.23983,149.58491Z"/><path d="M350.09285,127.22358a.70561.70561,0,0,1-.35156-.09375L328.40047,114.9101a.70884.70884,0,0,1,.7041-1.23047l21.34082,12.21973a.709.709,0,0,1-.35254,1.32422Z"/><path d="M350.41365,128.44233a.70908.70908,0,0,1-.59912-1.08691,30.343,30.343,0,0,1,13.19092-11.41992.70866.70866,0,1,1,.57617,1.29492,28.90123,28.90123,0,0,0-12.56787,10.88086A.70853.70853,0,0,1,350.41365,128.44233Z"/><path d="M363.63094,115.73334a.70344.70344,0,0,1-.313-.07324l-26.61768-13.12891a.70883.70883,0,0,1,.627-1.27148l26.61768,13.12891a.70894.70894,0,0,1-.314,1.34473Z"/><path d="M370.97176,140.34076c-.0249,0-.0498-.002-.0752-.00391a.70863.70863,0,0,1-.63037-.7793,15.02714,15.02714,0,0,1,10.51514-12.57324.70881.70881,0,0,1,.39551,1.36133,13.5794,13.5794,0,0,0-9.50146,11.36035A.70844.70844,0,0,1,370.97176,140.34076Z"/><path d="M383.74715,147.18354a.70678.70678,0,0,1-.478-.18555,28.02327,28.02327,0,0,0-12.01074-6.4707.70914.70914,0,0,1,.34766-1.375,29.47265,29.47265,0,0,1,12.61914,6.79883.709.709,0,0,1-.478,1.23242Z"/><path d="M385.25252,148.07123a.70873.70873,0,0,1-.47852-1.23145l12.29932-11.25293a.70848.70848,0,1,1,.957,1.04492L385.731,147.88471A.70524.70524,0,0,1,385.25252,148.07123Z"/><path d="M396.17684,136.53119a.70759.70759,0,0,1-.60986-.34766l-.36084-.60937a38.59845,38.59845,0,0,0-14.31494-7.124.70879.70879,0,1,1,.35254-1.373,40.01539,40.01539,0,0,1,14.94873,7.47168.68659.68659,0,0,1,.167.19238l.42627.71973a.70895.70895,0,0,1-.60889,1.07031Z"/><path d="M350.71541,168.69428a.701.701,0,0,1-.37646-.10937.70819.70819,0,0,1-.22314-.97656,6.0708,6.0708,0,1,0-10.93066-5.17187.70873.70873,0,0,1-1.34375-.45117,7.48772,7.48772,0,1,1,13.47461,6.377A.7097.7097,0,0,1,350.71541,168.69428Z"/><path d="M354.19832,173.622a.68863.68863,0,0,1-.20654-.03125.7084.7084,0,0,1-.47217-.88379c1.311-4.30957,1.44482-8.08008.39844-11.209-1.25439-3.751-4.49121-6.52539-7.87158-6.74609a6.83876,6.83876,0,0,0-5.20361,2.1377,5.26684,5.26684,0,0,0-1.57764,4.22559.70853.70853,0,1,1-1.4082.1582,6.65455,6.65455,0,0,1,1.96-5.36133,8.16668,8.16668,0,0,1,6.32129-2.57422c3.94043.25684,7.69189,3.42773,9.12354,7.71094,1.14209,3.41309,1.01221,7.47363-.38574,12.07031A.70964.70964,0,0,1,354.19832,173.622Z"/><path d="M372.63924,131.34467a.70956.70956,0,0,1-.58691-1.10547,35.20534,35.20534,0,0,1,20.38135-14.27441.70866.70866,0,1,1,.34375,1.375,33.76877,33.76877,0,0,0-19.55029,13.69238A.7077.7077,0,0,1,372.63924,131.34467Z"/><path d="M375.4703,129.02534a.70574.70574,0,0,1-.49512-.20215,25.82183,25.82183,0,0,0-12.14355-6.66992.70826.70826,0,1,1,.32422-1.37891,27.22955,27.22955,0,0,1,12.80957,7.03516.709.709,0,0,1-.49512,1.21582Z"/><path d="M376.90047,124.84272a.70057.70057,0,0,1-.34766-.0918L364.795,118.11811a.70861.70861,0,1,1,.69629-1.23437l11.75781,6.63281a.7088.7088,0,0,1-.34863,1.32617Z"/><path d="M379.0494,128.88373a.70912.70912,0,0,1-.5083-1.20312,20.3377,20.3377,0,0,1,15.854-6.04687.70882.70882,0,0,1-.10059,1.41406,18.94583,18.94583,0,0,0-13.32861,4.31836.70859.70859,0,0,1-.333,1.23242l-1.45312.27246A.659.659,0,0,1,379.0494,128.88373Z"/></g></g></svg>