<?xml version="1.0" encoding="UTF-8"?>
<svg viewBox="0 0 8500 11000" xmlns="http://www.w3.org/2000/svg" xmlns:xlink="http://www.w3.org/1999/xlink">
 <defs>
  <linearGradient id="r" x1=".67364" x2=".39756" y1=".42483" y2="1.4428">
   <stop stop-color="#454585" offset="0"/>
   <stop stop-color="#fff" offset="1"/>
  </linearGradient>
  <linearGradient id="q" x1=".68098" x2=".16277" y1="-.19792" y2="1.0417">
   <stop stop-color="#51519c" offset="0"/>
   <stop stop-color="#f3f3f9" offset="1"/>
  </linearGradient>
  <linearGradient id="n" x1=".34129" x2=".55417" y1=".16884" y2=".76349">
   <stop offset="0"/>
   <stop stop-color="#fffbfb" offset=".24074"/>
   <stop offset="1"/>
  </linearGradient>
  <linearGradient id="l" x1=".37123" x2=".78958" y1=".78886" y2=".43383" xlink:href="#a"/>
  <linearGradient id="k" x1=".25125" x2=".55578" y1=".68958" y2=".21485" xlink:href="#a"/>
  <linearGradient id="m" x1=".91478" x2=".32005" y1="-.081959" y2=".62406">
   <stop offset="0"/>
   <stop stop-opacity="0" offset="1"/>
  </linearGradient>
  <linearGradient id="p" x1=".6772" x2=".18167" y1=".049264" y2=".74045">
   <stop stop-color="#454585" offset="0"/>
   <stop stop-color="#babafd" offset="1"/>
  </linearGradient>
  <linearGradient id="o" x1=".69245" x2=".47594" y1=".45874" y2="1.2105">
   <stop stop-color="#3a3a63" offset="0"/>
   <stop stop-color="#babafd" offset="1"/>
  </linearGradient>
  <linearGradient id="a">
   <stop offset="0"/>
   <stop stop-color="#a1a1a1" offset=".5"/>
   <stop offset="1"/>
  </linearGradient>
  <radialGradient id="s" cx="3977.6" cy="2415.4" r="119.15" fx="3964.4" fy="2461.7" gradientTransform="matrix(-1.2731 .40587 -.37071 -1.1628 10558 3000.4)" gradientUnits="userSpaceOnUse">
   <stop stop-color="#fff" offset="0"/>
   <stop stop-color="#040000" offset="1"/>
  </radialGradient>
 </defs>
 <path d="m2443.5 7040.9c434.56-278.76 342.36-1237-98.952-1624.9-345.3-306.12-791-379.84-1094.3-197.04l2526.8-1222.1c333.68-190.53 886.81-267.86 1274.4 118.29 252.61 251.65 392.65 947.6-105.76 1299.3l-2502.2 1626.4z" fill="url(#n)" stroke-width="3"/>
 <g transform="matrix(6.7482 .61525 -1.0555 6.7337 -27328 -14618)">
  <path d="m4611.2 2509.8l276.59-163.34-402.92-220.93-263.09 111.97 389.42 272.29z" fill="#5e889d" stroke-width="2.787"/>
  <path d="m4647.5 2233.9l-160.44-89.435-91.381 41.127 155.45 101.35 96.37-53.045zm-381.63 9.0259l160.75 112.86 106.47-58.826-157.24-102.66-109.97 48.631zm284.4 65.153l-105.12 59.401 167.1 116.06 110.93-63.254-172.91-112.21zm189.59 101.59l109.49-63.289-184.35-102.86-96.869 53.854 171.73 112.29z" fill="url(#p)" stroke-linecap="round" stroke-linejoin="round" stroke-width=".5"/>
 </g>
 <g transform="matrix(4.458 1.8337 -4.0519 6.7475 -11618 -22400)">
  <path d="m4611.2 2509.8l276.59-163.34-375.19-219.66c-9.4062-4.3831-15.985-5.74-28.95-3.1528l-246.38 107.12c-6.3267 4.2358-6.2817 9.7292-2.2236 16.015l376.15 263.01z" fill="#3c687e" stroke-width="2.787"/>
  <path d="m4651.3 2231.8l-153.38-92.679-102.19 46.546 155.45 101.35 100.12-55.22zm-385.39 11.201l160.75 112.86 106.47-58.826-157.24-102.66-109.97 48.631zm284.4 65.153l-105.12 59.401 167.1 116.06 110.93-63.254-172.91-112.21zm189.59 101.59l109.49-63.289-180.6-105.04-100.62 56.029 171.73 112.29z" fill="url(#o)" stroke-linecap="round" stroke-linejoin="round" stroke-width=".5"/>
 </g>
 <path d="m2091.5 4671.7c-130.51-115.6-15.371-214.18 101.44-106.08l219.62 152.24c139.24 77.584-37.119 220.7-130.23 181.98l-208.87-214.09 18.05-14.05z" fill="url(#l)" stroke-linecap="round" stroke-linejoin="round" stroke-width=".5"/>
 <path d="m1186.2 5273.1c328.86-276.24 767.39-218.73 1148.6 119.22 475.77 430.08 619.74 1412 8.5327 1713.7-903.52 446.03-1919.1-1192.8-1157.1-1832.9z" fill="url(#s)" stroke-width="3.011"/>
 <path d="m2443.5 7040.9c434.56-278.76 342.36-1237-98.952-1624.9-345.3-306.12-791-379.84-1094.3-197.04l2526.8-1222.1c333.68-190.53 886.81-267.86 1274.4 118.29 252.61 251.65 392.65 947.6-105.76 1299.3l-2502.2 1626.4z" fill="url(#m)" fill-rule="evenodd" stroke-width="3"/>
 <g transform="matrix(7.7454 -.55145 .28226 10.61 -30508 -14477)">
  <path d="m4611.2 2509.8l276.59-163.34-402.92-220.93-263.09 111.97 389.42 272.29z" fill="#5e889d" stroke-width="2.787"/>
  <path d="m4654.3 2238.3l-167.25-93.789-91.381 41.127 158.85 103.12 99.777-50.454zm-388.44 4.6716l160.75 112.86 108.74-55.441-159.52-106.05-109.97 48.631zm287.81 66.916l-108.53 57.638 167.1 116.06 110.93-63.254-169.5-110.44zm186.19 99.828l109.49-63.289-174.14-97.572-102.54 52.85 167.18 108.01z" fill="url(#r)" stroke-linecap="round" stroke-linejoin="round" stroke-width=".5"/>
 </g>
 <g transform="matrix(8.6005 .022224 1.6174 11.687 -37793 -19821)">
  <path d="m5022.2 2610.9l261.5-184.41c4.419-6.1562-2.2837-10.718-9.0664-14.139l-379.54-61.909-276.14 164.35 381.38 99.471c8.0767 1.3025 15.31 0.008545 21.869-3.3621z" fill="#6f95a9" stroke-width="2.787"/>
  <path d="m5053.2 2392.4l-156.86-27.696-96.027 58.848 154.72 35.128 98.161-66.28zm-389.24 113.89l159.6 42.678 112.43-77.175-156.5-35.643-115.52 70.14zm289.13-30.678l-111.08 77.241 165.96 43.374 117.24-81.958-172.13-38.657zm189.82 25.458l108.58-75.595-179.57-29.681-99.914 66.21 170.91 39.066z" fill="url(#q)" stroke-linecap="round" stroke-linejoin="round" stroke-width=".5"/>
 </g>
 <path d="m3901.6 6286.4c183.98 155.39 312.91-5.1812 141.91-143.33l-251.79-269.9c-133.76-174.88-311.16 92.427-239.71 212l275.57 190.19 28.651-15.072 45.366 26.113z" fill="url(#k)" stroke-linecap="round" stroke-linejoin="round" stroke-width=".5"/>
</svg>
