<?xml version='1.0' encoding='utf-8'?>
<svg xmlns="http://www.w3.org/2000/svg" width="587.48404" height="335.24904" viewBox="0 0 587.48404 335.24904"><title>satelite 4</title><g style="isolation:isolate"><g id="b7aba9c8-b08f-4f8d-aa79-8da2f808231e" data-name="lineas"><path d="M165.06222,158.46364l3.45249-32.65266,37.98183-15.21987" fill="none" stroke="#000" stroke-linecap="round" stroke-linejoin="round" stroke-width="4.25197"/><path d="M208.28936,109.20733,242.90911,126.998" fill="none" stroke="#000" stroke-linecap="round" stroke-linejoin="round" stroke-width="4.25197"/><path d="M240.6943,175.5614l-3.79719,64.04669" fill="none" stroke="#000" stroke-linecap="round" stroke-linejoin="round" stroke-width="4.25197"/><path d="M243.54219,127.52638,241.3134,165.119" fill="none" stroke="#000" stroke-linecap="round" stroke-linejoin="round" stroke-width="4.25197"/><path d="M238.57925,238.34526l-30.89553-9.32867c-2.49276-.75267-5.16411-1.62805-6.69617-3.73355" fill="none" stroke="#000" stroke-linecap="round" stroke-linejoin="round" stroke-width="4.25197"/><path d="M156.59627,238.33211a218.2296,218.2296,0,0,0,42.81665-12.44187" fill="none" stroke="#000" stroke-linecap="round" stroke-linejoin="round" stroke-width="4.25197"/><path d="M161.69875,206.37468,158.45,234.73876" fill="none" stroke="#000" stroke-linecap="round" stroke-linejoin="round" stroke-width="4.25197"/><path d="M168.35314,238.0105l.07334,8.80163" fill="none" stroke="#000" stroke-linecap="round" stroke-linejoin="round" stroke-width="4.25197"/><path d="M194.82936,249.7335l.97859,6.68391a4.41091,4.41091,0,0,0,4.90519-7.12" fill="none" stroke="#000" stroke-linecap="round" stroke-linejoin="round" stroke-width="4.25197"/><path d="M197.292,231.31138a4.75478,4.75478,0,0,0,.28848,5.19875,3.43707,3.43707,0,0,0,4.88666.39613l-.22879-5.08977" fill="none" stroke="#000" stroke-linecap="round" stroke-linejoin="round" stroke-width="4.25197"/><path d="M225.711,239.64073l1.01577,6.80369a3.03056,3.03056,0,0,0,3.7367-1.5521,7.31039,7.31039,0,0,0,.458-4.37685,15.06146,15.06146,0,0,1-.24553-4.44816" fill="none" stroke="#000" stroke-linecap="round" stroke-linejoin="round" stroke-width="4.25197"/><path d="M170.41708,245.29039a3.87127,3.87127,0,1,1-5.16243-5.77" fill="none" stroke="#000" stroke-linecap="round" stroke-linejoin="round" stroke-width="4.25197"/><path d="M173.19634,242.96663a100.031,100.031,0,0,0,20.26978,5.9637" fill="none" stroke="#000" stroke-linecap="round" stroke-linejoin="round" stroke-width="4.25197"/><path d="M201.28752,248.50628l22.81438-9.79482" fill="none" stroke="#000" stroke-linecap="round" stroke-linejoin="round" stroke-width="4.25197"/><path d="M223.78776,169.94574a4.9022,4.9022,0,1,0,4.39663,8.75767" fill="none" stroke="#000" stroke-linecap="round" stroke-linejoin="round" stroke-width="4.25197"/><path d="M224.831,171.47673l49.45751-16.26589" fill="none" stroke="#000" stroke-linecap="round" stroke-linejoin="round" stroke-width="4.25197"/><path d="M229.01853,178.51021,274.596,164.92983" fill="none" stroke="#000" stroke-linecap="round" stroke-linejoin="round" stroke-width="4.25197"/><path d="M278.20857,163.90931c1.75822,4.318,2.75822,9.318,4.75822,13.318a21.62763,21.62763,0,0,1,7.29009-2.4757" fill="none" stroke="#000" stroke-linecap="round" stroke-linejoin="round" stroke-width="4.25197"/><path d="M279.83574,138.91424c-1.90483,1.19642-7.64881,3.78126-7.83542,5.72051-.25566,2.65679,2.3938,7.43194,3.21117,9.9696" fill="none" stroke="#000" stroke-linecap="round" stroke-linejoin="round" stroke-width="4.25197"/><path d="M209.24472,110.2076l-5.14628,113.14313" fill="none" stroke="#000" stroke-linecap="round" stroke-linejoin="round" stroke-width="4.25197"/><path d="M180.49111,145.9548a46.52125,46.52125,0,0,0-24.48248,42.87451c.32531,5.84809,2.00464,11.9868,6.38421,15.87593,5.766,5.12032,14.94293,4.86869,21.63522,1.03751s11.25748-10.5345,14.60963-17.47912c2.81649-5.83491,4.96812-12.11467,5.15328-18.59113s-1.77279-13.19283-6.26683-17.86-11.71668-6.88009-17.76954-4.56888" fill="none" stroke="#000" stroke-linecap="round" stroke-linejoin="round" stroke-width="4.25197"/><path d="M154.46755,191.24254l-15.78177,5.758a23.40192,23.40192,0,0,0-4.91937-12.29024,6.37212,6.37212,0,0,1-4.87946,2.45545" fill="none" stroke="#000" stroke-linecap="round" stroke-linejoin="round" stroke-width="4.25197"/><path d="M140.90785,216.621c.79758.45676,1.84921-.2933,2.04929-1.19037a4.46749,4.46749,0,0,0-.53072-2.65747l-3.59313-8.3963,18.08542-5.82713" fill="none" stroke="#000" stroke-linecap="round" stroke-linejoin="round" stroke-width="4.25197"/><path d="M6.184,218.7311l119.49237-39.58274" fill="none" stroke="#000" stroke-linecap="round" stroke-linejoin="round" stroke-width="4.25197"/><path d="M6.37271,218.96526l13.11548,37.41469,121.37508-30.47349" fill="none" stroke="#000" stroke-linecap="round" stroke-linejoin="round" stroke-width="4.25197"/><path d="M124.53932,179.4704l14.65848,45.09908" fill="none" stroke="#000" stroke-linecap="round" stroke-linejoin="round" stroke-width="4.25197"/><path d="M61.14563,201.14847l13.75855,41.055" fill="none" stroke="#000" stroke-linecap="round" stroke-linejoin="round" stroke-width="4.25197"/><path d="M31.94576,210.53521a190.75017,190.75017,0,0,1,12.00188,38.60763l.17624-2.32836" fill="none" stroke="#000" stroke-linecap="round" stroke-linejoin="round" stroke-width="1.41732"/><path d="M92.09156,192.78907l13.56016,40.79507" fill="none" stroke="#000" stroke-linecap="round" stroke-linejoin="round" stroke-width="1.41732"/><path d="M12.45541,224.82533l46.31428-14.6038" fill="none" stroke="#000" stroke-linecap="round" stroke-linejoin="round" stroke-width="1.41732"/><path d="M15.12563,232.19765l43.30262-12.90419" fill="none" stroke="#000" stroke-linecap="round" stroke-linejoin="round" stroke-width="1.41732"/><path d="M20.68252,239.09344l42.40957-12.6189" fill="none" stroke="#000" stroke-linecap="round" stroke-linejoin="round" stroke-width="1.41732"/><path d="M23.00585,247.72714,65.6137,235.95726" fill="none" stroke="#000" stroke-linecap="round" stroke-linejoin="round" stroke-width="1.41732"/><path d="M71.72084,207.29291l48.22646-13.77247" fill="none" stroke="#000" stroke-linecap="round" stroke-linejoin="round" stroke-width="1.41732"/><path d="M73.40651,215.9945l48.47211-16.28176" fill="none" stroke="#000" stroke-linecap="round" stroke-linejoin="round" stroke-width="1.41732"/><path d="M77.16827,225.67717l49.27031-15.183" fill="none" stroke="#000" stroke-linecap="round" stroke-linejoin="round" stroke-width="1.41732"/><path d="M78.75579,232.73079l52.019-14.84365" fill="none" stroke="#000" stroke-linecap="round" stroke-linejoin="round" stroke-width="1.41732"/><path d="M277.799,130.86683l14.45844,51.0588" fill="none" stroke="#000" stroke-linecap="round" stroke-linejoin="round" stroke-width="4.25197"/><path d="M278.29847,130.73286l279.40816-91.569" fill="none" stroke="#000" stroke-linecap="round" stroke-linejoin="round" stroke-width="4.25197"/><path d="M294.89958,183.84532l284.0298-76.23962" fill="none" stroke="#000" stroke-linecap="round" stroke-linejoin="round" stroke-width="4.25197"/><path d="M556.6275,39.13984l20.87769,67.90607" fill="none" stroke="#000" stroke-linecap="round" stroke-linejoin="round" stroke-width="4.25197"/><path d="M398.35358,90.272l17.8593,58.67833,1.93742-1.28977" fill="none" stroke="#000" stroke-linecap="round" stroke-linejoin="round" stroke-width="4.25197"/><path d="M332.70443,113.77345a271.92285,271.92285,0,0,1,17.49427,53.82945" fill="none" stroke="#000" stroke-linecap="round" stroke-linejoin="round" stroke-width="1.41732"/><path d="M473.10832,68.9829l15.51806,63.18575,1.46976-1.40727" fill="none" stroke="#000" stroke-linecap="round" stroke-linejoin="round" stroke-width="1.41732"/><path d="M289.059,140.66178c86.94215-26.88833,174.90779-51.2858,259.88835-80.978" fill="none" stroke="#000" stroke-linecap="round" stroke-linejoin="round" stroke-width="1.41732"/><path d="M296.42378,152.59631c7.543-1.93062,14.635-4.0317,22.543-6.369,81.74188-24.15979,157.52582-48.431,232.875-73.1344" fill="none" stroke="#000" stroke-linecap="round" stroke-linejoin="round" stroke-width="1.41732"/><path d="M299.00855,164.76669c86.81533-24.10491,170.8832-51.92207,257.67808-75.55175" fill="none" stroke="#000" stroke-linecap="round" stroke-linejoin="round" stroke-width="1.41732"/><path d="M303.94245,176.52516c86.02434-24.29783,172.02434-48.29783,256.79111-73.05808" fill="none" stroke="#000" stroke-linecap="round" stroke-linejoin="round" stroke-width="1.41732"/></g><g id="f93caf52-81da-42d8-b741-f2ff78e41f01" data-name="Color"><path d="M212.69471,113.77345c-3.30254,35.17688-5.57007,69.11782-6.57478,102.41168-.09034,2.99363-.11263,6.19845,1.52676,8.70492,2.43187,3.71809,7.5137,4.49056,11.95625,4.44732s10.4423,1.01488,14.16047,3.44662c.81944-17.03018,2.31425-36.60544,3.13369-53.63563-3.11747,1.66182-8.188,4.4273-11.68521,4.92683s-4.82733-2.79388-7.01849-5.565c-3.40486-4.306-1.76317-7.835,2.80062-10.88568a27.32636,27.32636,0,0,1,15.90308-4.28073c.77869-11.61336,1.1199-23.2788,1.89859-34.89216-6.82882-3.41105-17.82169-6.93792-24.65051-10.349" fill="none" stroke="#717986" stroke-linecap="round" stroke-linejoin="round" stroke-width="5.66929"/><path d="M215.83629,123.45775l-2.87718,44.38654a29.6173,29.6173,0,0,1,20.41218-10.32872l1.71023-17.32694c.22564-2.28606.43083-4.70153-.54258-6.78227-1.64317-3.51241-5.91154-4.77153-9.68851-5.64989-1.93247-.44941-4.2869-.7777-5.61295.69811-.90017,1.00183-.95841,2.47957-.96849,3.82637l-.19777,26.42886,11.88472-3.52158,1.46217-14.48834a9.10687,9.10687,0,0,0-.23093-4.1874c-1.18046-3.06795-5.057-3.88921-8.32291-4.26286a51.81184,51.81184,0,0,0-1.3619,21.18193l7.03423-1.16934a27.77763,27.77763,0,0,0-4.29863-16.6246l-.41914,13.96176" fill="none" stroke="#717986" stroke-linecap="round" stroke-linejoin="round" stroke-width="8.50394"/><path d="M213.369,173.64261l-2.66666,40.35385c-.16216,2.45395-.26118,5.138,1.19756,7.118,3.5166,4.77307,11.98058,1.14335,16.54451,4.92742l4.005-38.36685c.08976,3.61921-3.749,6.49483-7.3593,6.22563s-6.68052-2.9629-8.39823-6.14977-2.32106-6.83723-2.8991-10.41111L210.15251,218.198a84.26288,84.26288,0,0,1,8.58417-29.3736L213.6034,221.262l6.41579-29.93852-1.622,29.80068,6.38032-27.41931a99.73628,99.73628,0,0,1-2.4284,28.3373l7.9928-26.64236-3.08075,27.3361-.03712-1.487" fill="none" stroke="#717986" stroke-linecap="round" stroke-linejoin="round" stroke-width="8.50394"/><path d="M221.6188,189.4861l7.16221-2.8026" fill="none" stroke="#717986" stroke-linecap="round" stroke-linejoin="round" stroke-width="8.50394"/><path d="M172.50105,130.32793l-1.67177,15.87056c6.24482-3.23431,13.39809-5.44479,20.28989-4.04421s13.20262,7.28773,13.20765,14.32041a131.62458,131.62458,0,0,1,.851-39.22244A122.4777,122.4777,0,0,0,171.66154,131.903l28.743-8.66217L170.29447,136.128l34.39279-8.60693L171.75184,140.755a116.01113,116.01113,0,0,1,35.33347-6.0168L183.644,141.64875l21.86817-1.62784-12.88554,4.78822a10.97007,10.97007,0,0,1,13.12981,7.216" fill="none" stroke="#717986" stroke-linecap="round" stroke-linejoin="round" stroke-width="8.50394"/><path d="M171.44611,145.10759l-2.60788,5.69439" fill="none" stroke="#717986" stroke-linecap="round" stroke-linejoin="round" stroke-width="8.50394"/><path d="M165.217,210.69192l-2.33442,21.20975a171.0294,171.0294,0,0,0,25.12435-4.943c3.39836-.93769,7.03272-2.169,9.00595-5.09036,1.29032-1.91033,1.67035-4.27313,2.01855-6.552l4.995-32.69026c-1.61905,9.82575-5.816,19.62274-13.57737,25.862s-19.52095,8.03885-27.80055,2.50577" fill="none" stroke="#717986" stroke-linecap="round" stroke-linejoin="round" stroke-width="8.50394"/><path d="M168.78069,243.40656c-1.00386-.70149-.78706-2.37322.12137-3.19454a5.65835,5.65835,0,0,1,3.43206-1.10373,42.88338,42.88338,0,0,1,25.93213,6.36318l.5386,6.22253c-1.90963-1.90421-1.3401-5.31624.48157-7.30476s4.4995-2.91017,7.05967-3.75767l19.18841-6.352,2.07712,6.12473c1.28222-2.21742-.43033-5.20575-2.80276-6.17149s-5.0613-.48781-7.559.08a126.27733,126.27733,0,0,0-24.64529,8.3544l19.85073-8.87157-25.89652,7.76529a36.54342,36.54342,0,0,1,20.05684-9.22594l-31.70051,6.81543a33.36615,33.36615,0,0,1,20.54544-8.58861l-23.71338,7.0308" fill="none" stroke="#717986" stroke-linecap="round" stroke-linejoin="round" stroke-width="8.50394"/><path d="M168.26436,217.91923a8.5124,8.5124,0,0,1,1.60528,8.63309l7.15064-10.3815L172.16446,226.789,184.476,215.35822a30.77829,30.77829,0,0,0-7.76877,11.63065l14.67778-14.218-6.1957,12.5925,10.52334-11.87888a11.592,11.592,0,0,1-2.09664,8.40417" fill="none" stroke="#717986" stroke-linecap="round" stroke-linejoin="round" stroke-width="8.50394"/><path d="M197.62855,232.142l5.91757-12.45556" fill="none" stroke="#717986" stroke-linecap="round" stroke-linejoin="round" stroke-width="8.50394"/><path d="M201.38433,117.47592c2.1946-2.57573,5.93655-3.38139,9.283-2.87917s6.40993,2.11048,9.40041,3.694" fill="none" stroke="#717986" stroke-linecap="round" stroke-linejoin="round" stroke-width="8.50394"/><path d="M235.49488,163.71l-8.9689,5.09112" fill="none" stroke="#717986" stroke-linecap="round" stroke-linejoin="round" stroke-width="8.50394"/><path d="M283.27608,131.877v-.3114" fill="none" stroke="#695d85" stroke-linecap="round" stroke-linejoin="round" stroke-width="8.50394"/><path d="M283.38757,132.78393a471.32336,471.32336,0,0,1,73.05811-22.0658c-23.09883,12.84612-51.19286,13.85049-74.768,25.80005l71.23568-20.11878-66.37691,23.9723L354.037,124.0993l-67.90425,22.57646,62.20667-12.38451-58.61452,20.86,51.17484-10.19512c-17.99671,6.48842-32.64613,12.46476-50.64284,18.95317,16.68863-3.102,30.03-5.692,46.71861-8.794L294.9289,171.04012A82.97746,82.97746,0,0,1,328.79128,164.97l-31.17088,12.6879,11.23872-2.87665-8.92589,3.7398" fill="none" stroke="#695d85" stroke-linecap="round" stroke-linejoin="round" stroke-width="8.50394"/><path d="M406.11438,94.67513c21.46581-6.59006,62.516-21.56938,83.98176-28.15944-20.59287,7.52465-60.77009,23.43854-81.363,30.96319,18.63281-3.99665,51.78092-12.53045,70.41373-16.52709-21.67315,5.52887-57.86162,15.5949-79.53477,21.12377,24.74876-5.9931,51.60127-11.80788,77.04357-12.86061-26.54558,4.29347-54.25429,13.015-79.74995,21.56328a226.68369,226.68369,0,0,1,69.248-13.04862A429.57143,429.57143,0,0,0,393.773,116.96813a276.6802,276.6802,0,0,1,71.325-11.47995l-81.26189,23.23473c26.56223-10.91481,47.04766-6.20017,74.75837-13.73684-29.43073,6.3965-48.95137,12.17117-78.38211,18.56768,30.46017-5.0956,43.87454-5.9199,74.33471-11.0155l-79.63723,19.95533c28.32394-8.96965,45.759-11.47716,75.35565-14.0735l-73.98972,20.844,70.27638-15.04063c-32.21884,8.716-48.85813,14.09769-81.077,22.81372,33.09886-9.06684,42.09238-11.98829,75.95387-17.56876-35.71582,5.76857-46.40627,9.88684-80.80443,21.09679" fill="none" stroke="#695d85" stroke-linecap="round" stroke-linejoin="round" stroke-width="8.50394"/><path d="M567.99765,82.39942,559.182,84.97288l6.33267-.12L555.80394,87.143c4.60905-.22081,6.65335.30741,11.2624.0866L553.058,91.32074l13.3446-1.6537-19.04,5.21328c5.88935-.03043,13.81444-1.27509,19.70379-1.30553-9.34849,2.24241-20.73272,5.699-30.08121,7.94145,8.45542-.29887,24.63526-4.21717,33.09068-4.516-10.51845,1.85734-28.76132,7.33411-39.27976,9.19145l25.59646-.72269-29.93137,9.17742c4.80056-.27041,41.30532-10.84173,46.10587-11.11214-8.50511,2.92873-48.71441,16.15837-57.21952,19.0871,3.27866-.28923,7.97211-3.48957,11.25078-3.7788-4.27612.9718-16.39481,4.913-20.67094,5.88481" fill="none" stroke="#695d85" stroke-linecap="round" stroke-linejoin="round" stroke-width="8.50394"/><path d="M15.35478,239.52365l-5.21825-19.45951a289.676,289.676,0,0,0,44.11063-14.68882q-19.35885,16.15792-37.75681,33.42275" fill="none" stroke="#695d85" stroke-linecap="round" stroke-linejoin="round" stroke-width="5.66929"/><path d="M14.0866,223.11027l21.71105-7.53742a72.28563,72.28563,0,0,0-21.32411,10.56264l22.36933-9.7a125.42676,125.42676,0,0,0-22.06929,11.7038l15.20866-7.61651L15.236,232.28338l6.60766-4.74482a17.80649,17.80649,0,0,1-5.991,7.74472L36.439,215.95646" fill="none" stroke="#695d85" stroke-linecap="round" stroke-linejoin="round" stroke-width="5.66929"/><path d="M98.13629,189.7901q-14.96755,27.10762-32.36346,52.77645L135.239,223.51633q-6.52991-20.09-12.32577-40.40871L99.07794,190.402" fill="none" stroke="#695d85" stroke-linecap="round" stroke-linejoin="round" stroke-width="5.66929"/><path d="M122.73831,187.28446l-23.38318,7.75533,20.70875-3.29537-26.52175,9.49722a159.40552,159.40552,0,0,1,29.78315-4.79949l-29.446,9.40724c-4.6227,13.12141-13.35864,21.2887-20.47272,33.24405,10.71441-10.33009,24.87453-15.506,36.77519-24.44374q1.616-1.21369,3.24105-2.41537l.56853-.42205c7.3652-5.46764,4.29781-6.66185,11.68515-12.09955-13.39152,3.07888-16.35611,1.85959-29.75891,4.889a84.37456,84.37456,0,0,1,22.35214-2.43182L91.53187,208.7804a167.556,167.556,0,0,1,31.61009-4.36682l-29.47743,7.891,29.7476-4.31306-32.81367,9.1781a139.43532,139.43532,0,0,1,35.08772-5.97915A434.89765,434.89765,0,0,0,81.04959,223.6461a226.72756,226.72756,0,0,1,47.60545-9.96454,299.07021,299.07021,0,0,0-49.196,15.76675A179.68,179.68,0,0,1,126.3,218.74156a220.33293,220.33293,0,0,0-49.12572,14.35316" fill="none" stroke="#695d85" stroke-linecap="round" stroke-linejoin="round" stroke-width="5.66929"/><path d="M121.942,190.65956l8.152,29.46983L83.45466,234.21675" fill="none" stroke="#695d85" stroke-linecap="round" stroke-linejoin="round" stroke-width="5.66929"/><path d="M46.92778,210.25048l-14.52922,7.60282" fill="none" stroke="#695d85" stroke-linecap="round" stroke-linejoin="round" stroke-width="5.66929"/><path d="M61.9589,202.42013a464.535,464.535,0,0,1-43.426,40.16519c2.43355,1.29239.17792,5.84687,2.38441,7.49727.92073.68868,2.20371.49836,3.3318.276l26.70213-5.26272a16.23765,16.23765,0,0,0,5.74348-1.903,16.24986,16.24986,0,0,0,4.37657-4.93435L91.95948,192.0051,61.67157,203.46737" fill="none" stroke="#fff" stroke-linecap="round" stroke-linejoin="round" stroke-width="8.50394"/><path d="M80.06726,201.50853,62.65591,208.0926l15.85438-3.34344-22.2168,8.07856,18.7002-4.31416-26.6402,12.06818,21.6428-5.43589-29.0634,13.264,28.50325-7.73051L34.55867,234.36169l26.69823-7.472-32.34332,13.1102,20.88351-5.53938L23.1808,246.49913a106.59963,106.59963,0,0,0,19.56374-3.96905c3.996-1.20989,8.04491-2.72986,11.06527-5.61247a30.63728,30.63728,0,0,0,3.70556-4.581l21.257-30.03609" fill="none" stroke="#fff" stroke-linecap="round" stroke-linejoin="round" stroke-width="8.50394"/><path d="M363.82363,106.58279,329.19907,169.0127l15.02837-3.46835-27.73488,9.89006,37.45425-11.64718a19.66143,19.66143,0,0,0,4.65236-1.89625c2.57686-1.6093,4.25057-4.296,5.83362-6.88907L401.92368,93.591,364.478,105.67318" fill="none" stroke="#fff" stroke-linecap="round" stroke-linejoin="round" stroke-width="8.50394"/><path d="M391.999,102.45771l-31.6386,12.42167,29.31436-4.74561-31.47464,12.33147a79.855,79.855,0,0,1,23.79818-5.1867l-26.67523,9.59925,24.69046-4.87142-27.07487,10.82275,24.80184-5.27338-27.87777,10.81582L374.025,132.71,344.0621,145.32l25.35732-6.46062L343.052,148.69352l22.8686-5.16617-26.0961,10.54307a75.59367,75.59367,0,0,1,24.37342-6.40053l-25.48374,10.99945a92.03935,92.03935,0,0,1,22.71205-5.37737l-19.3377,8.18043a44.97538,44.97538,0,0,1,16.0301-3.4091l-19.86791,7.561" fill="none" stroke="#fff" stroke-linecap="round" stroke-linejoin="round" stroke-width="8.50394"/><path d="M496.26251,61.86977,446.34221,138.849c18.40656-13.435,43.96166-11.41583,64.54807-21.18827,9.70449-4.60675,17.98212-11.68787,26.13284-18.68537l20.9864-18.01709a15.41134,15.41134,0,0,0,3.35119-3.56211c2.26135-3.75839.95968-8.57046-.53106-12.69561q-3.04712-8.432-6.82326-16.57619l-56.416,15.02221" fill="none" stroke="#fff" stroke-linecap="round" stroke-linejoin="round" stroke-width="8.50394"/><path d="M487.50052,72.08582a67.69155,67.69155,0,0,1-17.49174,6.17565" fill="none" stroke="#fff" stroke-linecap="round" stroke-linejoin="round" stroke-width="8.50394"/><path d="M502.50219,64.07025l43.5747-7.83269C530.934,60.992,510.37458,67.33138,495.23166,72.08582c16.12647-4.45166,38.037-9.15582,54.67542-10.90037C531.33,65.15277,507.6515,72.10165,490.09614,79.35817a328.229,328.229,0,0,1,58.60263-13.63238Q516.8545,76.271,485.33416,87.76283l63.18512-17.19395L477.4359,95.40724c21.851-6.40478,56.08184-17.83393,77.93285-24.2387-24.83046,9.74927-62.04075,24.5229-86.87121,34.27217a535.07383,535.07383,0,0,1,70.69178-18.02038q-35.61982,11.54678-70.07081,26.353a393.51354,393.51354,0,0,1,62.93727-18.87382c-20.20969,8.13517-47.43738,16.57647-67.64707,24.71163,15.28975-6.62932,38.6574-11.11314,55.25317-12.63123-17.63217,4.02226-45.23351,13.07331-61.93507,20.01089,11.34215-1.71138,32.99525-6.95446,44.3374-8.66583l-31.62739,11.35548,28.71225-5.056c-14.18333,5.25-34.99856,8.97455-49.18188,14.2245" fill="none" stroke="#fff" stroke-linecap="round" stroke-linejoin="round" stroke-width="8.50394"/><path d="M501.95868,117.77213a392.11471,392.11471,0,0,0,54.41639-42.14021L530.9286,88.25917l12.66717-3.42269" fill="none" stroke="#fff" stroke-linecap="round" stroke-linejoin="round" stroke-width="8.50394"/><path d="M557.58275,70.72887a93.65956,93.65956,0,0,0-4.80938-14.31l-1.52809-3.84766" fill="none" stroke="#fff" stroke-linecap="round" stroke-linejoin="round" stroke-width="8.50394"/><path d="M554.859,42.48236,527.9148,51.53212" fill="none" stroke="#fff" stroke-linecap="round" stroke-linejoin="round" stroke-width="8.50394"/><path d="M184.725,151.25309c-8.46475,2.90381-15.44564,9.34956-20.0442,17.02662a31.65429,31.65429,0,0,0-4.75806,13.73672,18.96056,18.96056,0,0,0,4.09887,13.69741c3.18419,3.71146,8.39856,5.78508,13.14974,4.62736a14.82,14.82,0,0,0,7.71413-5.14481,30.89972,30.89972,0,0,0,4.57735-8.20653,72.07166,72.07166,0,0,0,5.08655-23.61774,13.912,13.912,0,0,0-.30237-4.37077,5.34164,5.34164,0,0,0-2.56835-3.41478c-1.87245-.9384-4.13491-.29453-6.04623.5619a30.60347,30.60347,0,0,0-17.29709,22.11289,15.45916,15.45916,0,0,0,.38265,8.15532,7.9311,7.9311,0,0,0,5.90626,5.21491,8.04943,8.04943,0,0,0,5.25193-1.23763,18.19562,18.19562,0,0,0,4.093-3.649,35.18663,35.18663,0,0,0,8.25717-15.10989,22.05791,22.05791,0,0,0-2.4906-16.75455c-2.30889-.16818-4.1651,1.808-5.50171,3.69817a49.44522,49.44522,0,0,0-8.55237,21.56086,7.87936,7.87936,0,0,0,.04507,3.31845,2.99633,2.99633,0,0,0,2.26495,2.21037,25.78028,25.78028,0,0,0,13.11942-19.44866l-2.14676-1.222a33.21486,33.21486,0,0,0-11.43513,21.61809l1.48053.62111a9.5314,9.5314,0,0,0,4.58186-9.04791l-6.49518,5.19834" fill="none" stroke="#fff" stroke-linecap="round" stroke-linejoin="round" stroke-width="8.50394"/><path d="M185.943,149.985a13.45685,13.45685,0,0,1,11.0108,5.69191,20.59914,20.59914,0,0,1,3.62955,12.15767,45.081,45.081,0,0,1-2.16061,12.67417c-1.87234,6.42741-4.42505,12.86088-9.01965,17.72985s-11.6056,7.90654-18.09478,6.261a24.246,24.246,0,0,1-6.99462-3.32038,19.23026,19.23026,0,0,1-5.39251-4.65875,8.04228,8.04228,0,0,1-1.5032-6.76028" fill="none" stroke="#fff" stroke-linecap="round" stroke-linejoin="round" stroke-width="8.50394"/><path d="M164.3861,187.33195a10.11878,10.11878,0,0,0,8.0275,6.44593" fill="none" stroke="#fff" stroke-linecap="round" stroke-linejoin="round" stroke-width="8.50394"/><path d="M156.02513,194.94492l-18.10868,6.62267" fill="none" stroke="#fff" stroke-linecap="round" stroke-linejoin="round" stroke-width="8.50394"/><path d="M132.12847,189.87524l8.134,23.18953" fill="none" stroke="#fff" stroke-linecap="round" stroke-linejoin="round" stroke-width="8.50394"/><path d="M223.79873,175.33107c14.88114-5.49734,30.13718-9.90768,45.37738-14.31284l8.00112-2.31271" fill="none" stroke="#fff" stroke-linecap="round" stroke-linejoin="round" stroke-width="8.50394"/><path d="M277.43875,144.00549a109.85585,109.85585,0,0,0,7.95593,27.917" fill="none" stroke="#fff" stroke-linecap="round" stroke-linejoin="round" stroke-width="8.50394"/><path d="M169.90967,168.68534a1.79933,1.79933,0,0,0-2.17163,1.26648c-.04126.246-.087.49182-.1239.73853a2.32044,2.32044,0,0,0,.24945,1.4762,1.66125,1.66125,0,0,0,2.59094.29883,2.827,2.827,0,0,0,.72168-1.60852A1.80482,1.80482,0,0,0,169.90967,168.68534Z" fill="#ff0"/><path d="M178.17749,169.38187a1.868,1.868,0,0,0-1.90723-1.11816,3.37618,3.37618,0,0,0-2.30908,1.44446,2.373,2.373,0,1,0,4.049,2.40894A3.393,3.393,0,0,0,178.17749,169.38187Z" fill="#ff0"/><path d="M185.38684,167.114a3.391,3.391,0,0,0-1.27057.85718c-.20361.262-.36493.56885-.54419.84912q-.27686.4325-.55365.86523a2.7211,2.7211,0,0,0-.09229,2.09375,2.7824,2.7824,0,0,0,1.41522,1.54578,2.81276,2.81276,0,0,0,3.63953-1.32288l.47345-.80054a3.49866,3.49866,0,0,0,.43365-1.86865A2.62733,2.62733,0,0,0,185.38684,167.114Z" fill="#ff0"/><path d="M191.34692,168.6392a3.07644,3.07644,0,0,0-1.46826.72119c-.16132.15723-.308.33325-.46088.49854a3.17575,3.17575,0,0,0-.94959,1.91455,2.64116,2.64116,0,0,0,.93781,2.20923,2.609,2.609,0,0,0,1.98914.68164,2.83948,2.83948,0,0,0,2.1026-1.19043c.1438-.17383.29816-.34277.43317-.52332a3.09791,3.09791,0,0,0,.53961-1.57922A2.63569,2.63569,0,0,0,191.34692,168.6392Z" fill="#ff0"/><path d="M169.53741,177.27591a2.26888,2.26888,0,0,0-1.833.14917,2.48219,2.48219,0,0,0-1.25189,1.65356,3.00773,3.00773,0,0,0,.192,2.81812,2.22,2.22,0,0,0,2.52039.79419,3.00742,3.00742,0,0,0,1.78473-2.13306A2.4018,2.4018,0,0,0,169.53741,177.27591Z" fill="#ff0"/><path d="M176.27258,176.89249a2.44557,2.44557,0,0,0-1.92139-.10706,2.68187,2.68187,0,0,0-1.62109,1.62427c-.677,1.48389-.27936,3.52039,1.445,4.06494a2.40715,2.40715,0,0,0,2.57709-.76172,2.93029,2.93029,0,0,0,.5954-1.04236c.06824-.2.34235-.68176-.00226-.07654A2.58214,2.58214,0,0,0,176.27258,176.89249Z" fill="#ff0"/><path d="M185.21393,177.43094a2.03319,2.03319,0,0,0-2.36279,2.41357q.06537.24866.13068.49731a1.813,1.813,0,0,0,3.25244.59131l.31671-.416A2.03094,2.03094,0,0,0,185.21393,177.43094Z" fill="#ff0"/><path d="M193.668,179.40323a2.68439,2.68439,0,0,0-1.6994-1.80432,2.63864,2.63864,0,0,0-2.0965.06262,2.89729,2.89729,0,0,0-1.58862,1.88062c-.12756.35022-.28143.69959-.38519,1.05725a3.318,3.318,0,0,0,.3443,2.49841,2.53514,2.53514,0,0,0,2.86841,1.10291,3.45313,3.45313,0,0,0,1.93707-1.65894c.16357-.33081.272-.70532.405-1.0498A3.27444,3.27444,0,0,0,193.668,179.40323Z" fill="#ff0"/><path d="M169.32062,189.27421a2.55148,2.55148,0,0,0-4.69934-.153,4.43534,4.43534,0,0,0-.53467,1.49927,3.01273,3.01273,0,0,0,.95844,2.74475,2.38659,2.38659,0,0,0,2.91357.09009,2.93109,2.93109,0,0,0,.87659-1.04321,6.32389,6.32389,0,0,0,.24005-.78223c.05609-.093.16431-.3468.1806-.37451A2.56938,2.56938,0,0,0,169.32062,189.27421Z" fill="#ff0"/><path d="M175.67346,187.16837a2.716,2.716,0,0,0-3.517,1.41321,6.14327,6.14327,0,0,0-.62146,2.90833c.24713,1.75378,2.48712,3.04163,3.98779,1.73962a3.98433,3.98433,0,0,0,1.18427-1.58447q.18979-.47974.37952-.95972A2.71968,2.71968,0,0,0,175.67346,187.16837Z" fill="#ff0"/><path d="M189.42718,185.67777a2.33221,2.33221,0,0,0-2.51447,1.12036c-.13281.2334-.27594.46582-.41254.70154a2.62528,2.62528,0,0,0-1.30634-1.62512,2.819,2.819,0,0,0-3.78271,1.0979,6.45444,6.45444,0,0,0-.70422,2.42639,2.59,2.59,0,0,0,1.35156,2.25012,2.55544,2.55544,0,0,0,2.624-.06323,4.88763,4.88763,0,0,0,1.199-1.25854c.03339-.04993.06165-.10254.09369-.153a2.42465,2.42465,0,0,0,1.52783,1.663,2.58764,2.58764,0,0,0,3.44824-1.79761,20.46227,20.46227,0,0,0,.205-2.21216A2.26464,2.26464,0,0,0,189.42718,185.67777Z" fill="#ff0"/><path d="M177.85949,204.10245a2.291,2.291,0,0,0-1.37805-1.71167,3.15581,3.15581,0,0,0-1.72809-.19653,1.34839,1.34839,0,0,1-.14148.0199c-.143-.02112-.28259-.06018-.033.00415l-.01306.00146a1.90821,1.90821,0,0,0-2.10645,2.99695,5.21938,5.21938,0,0,0,1.67859,1.26477,2.8862,2.8862,0,0,0,2.91119-.30322A2.174,2.174,0,0,0,177.85949,204.10245Z" fill="#ff0"/><path d="M185.20788,200.65336a2.25835,2.25835,0,0,0-2.0058-.91235,4.18541,4.18541,0,0,0-3.15814,2.171,2.1273,2.1273,0,0,0,.19354,2.14551,2.20182,2.20182,0,0,0,1.96094.892,3.75609,3.75609,0,0,0,1.49158-.48486,3.34644,3.34644,0,0,0,1.71588-1.6167A2.18063,2.18063,0,0,0,185.20788,200.65336Z" fill="#ff0"/><path d="M189.541,193.981a3.5245,3.5245,0,0,0-2.29449,3.38672,2.07756,2.07756,0,0,0,2.24512,1.85413,3.546,3.546,0,0,0,2.95349-2.85071A2.20337,2.20337,0,0,0,189.541,193.981Z" fill="#ff0"/><path d="M197.58313,186.5828a1.72029,1.72029,0,0,0-1.75818-1.01184,2.90052,2.90052,0,0,0-1.36884.64807,2.0772,2.0772,0,1,0,3.32947,1.90881A3.03386,3.03386,0,0,0,197.58313,186.5828Z" fill="#ff0"/><path d="M200.93847,175.79764a1.7926,1.7926,0,0,0-2.13965.02942c.63757-.47827-.15765.08093-.27045.17859q-.09476.09778-.18939.19507c-.01154.00916-.02008.0155-.04163.03381a3.482,3.482,0,0,0-.36176.36829,2.03673,2.03673,0,0,1-.2464.17688,2.51957,2.51957,0,1,0,3.58337,3.48535,3.906,3.906,0,0,0,.74268-2.55041A2.75322,2.75322,0,0,0,200.93847,175.79764Z" fill="#ff0"/><path d="M204.13086,168.10257a2.443,2.443,0,0,0-3.79254-.40991,4.08722,4.08722,0,0,0-.92822,2.11768,6.75011,6.75011,0,0,0-.30157,1.65381,2.13362,2.13362,0,0,0,2.71436,1.9469C203.85913,172.937,205.34283,169.89945,204.13086,168.10257Z" fill="#ff0"/><path d="M202.10248,161.86332c-.07751-.40747-.149-.81665-.23267-1.22266a2.953,2.953,0,0,0-1.63312-2.24072,2.26633,2.26633,0,0,0-2.66614.68042,2.79,2.79,0,0,0-.52576,2.246c.066.37585.18268.75061.27295,1.12146a2.62979,2.62979,0,0,0,.90741,1.60608,2.41014,2.41014,0,0,0,3.87732-2.19055Z" fill="#ff0"/><path d="M198.0531,151.54313a3.35319,3.35319,0,0,0-1.5719-1.55676,2.73362,2.73362,0,0,0-2.4762.2019,2.83638,2.83638,0,0,0-.83295,4.18628,10.20073,10.20073,0,0,0,1.38342,1.38623c.16437.131.33545.26343.51013.38013a2.88568,2.88568,0,0,0,1.85327.45923,2.21519,2.21519,0,0,0,1.80157-1.39868A4.50736,4.50736,0,0,0,198.0531,151.54313Z" fill="#ff0"/><path d="M190.13232,148.90775A5.46372,5.46372,0,0,0,188.17,148.095a4.11194,4.11194,0,0,0-.66925-.05908,2.82523,2.82523,0,0,0-1.82117.58594c-1.46643.99829-.83911,3.24658.62134,3.84a2.54065,2.54065,0,0,0,1.31146.17908c.06592-.00977.1062-.01685.13287-.02258q.26706-.00641.53406-.01257-.44751.00916-.07581.02527c.15936.036.32532.048.4859.08435a2.10629,2.10629,0,0,0,2.18909-1.35132A2.139,2.139,0,0,0,190.13232,148.90775Z" fill="#ff0"/><path d="M181.57666,152.53007a2.30087,2.30087,0,0,0-1.75763-1.40991,2.40107,2.40107,0,0,0-2.14227.82532,3.49435,3.49435,0,0,0-.74438,1.02332,1.82187,1.82187,0,0,0,.91107,2.37854,3.55535,3.55535,0,0,0,1.25006.27844,2.38514,2.38514,0,0,0,2.14221-.82544A2.29927,2.29927,0,0,0,181.57666,152.53007Z" fill="#ff0"/><path d="M174.97656,156.30863a2.49279,2.49279,0,0,0-3.24713-1.19214,10.24888,10.24888,0,0,0-1.7489,1.01868,5.96886,5.96886,0,0,0-.57642.45679,3.25183,3.25183,0,0,0-1.0282,1.8822,2.4024,2.4024,0,0,0,2.76691,2.605,4.3239,4.3239,0,0,0,1.925-1.10205q.12936-.09979.26355-.193.08295-.05548.11658-.07849c.14246-.06763.2998-.13232.33636-.14978A2.47854,2.47854,0,0,0,174.97656,156.30863Z" fill="#ff0"/><path d="M166.871,163.366a2.39822,2.39822,0,0,0-3.39941,1.22705,4.3306,4.3306,0,0,0-.1748,3.11487,1.81369,1.81369,0,0,0,1.92206,1.071,4.16237,4.16237,0,0,0,2.44025-1.88623A2.4108,2.4108,0,0,0,166.871,163.366Z" fill="#ff0"/><path d="M162.55688,170.4578a2.70908,2.70908,0,0,0-3.375,1.57251l-1.2464,2.54272a2.66361,2.66361,0,0,0,1.58643,3.405,2.72761,2.72761,0,0,0,3.405-1.58643q.60123-1.27917,1.20239-2.55872A2.64316,2.64316,0,0,0,162.55688,170.4578Z" fill="#ff0"/><path d="M159.14087,179.59745a2.62419,2.62419,0,0,0-2.79639,2.33179,10.1621,10.1621,0,0,0-.05774,1.80688,2.49589,2.49589,0,0,0,2.23218,2.06165,2.56547,2.56547,0,0,0,2.56873-1.6355,10.66692,10.66692,0,0,0,.38507-1.76843A2.586,2.586,0,0,0,159.14087,179.59745Z" fill="#ff0"/><path d="M160.93054,189.71683q-.092-.67383-.184-1.34753a2.7817,2.7817,0,0,0-3.212-2.222,2.81768,2.81768,0,0,0-2.222,3.21191q.10025.67236.20062,1.3446c.02856.19153.05219.38538.09332.57483a3.08408,3.08408,0,0,0,1.24066,1.8468,2.63857,2.63857,0,0,0,3.63049-.66138A3.57451,3.57451,0,0,0,160.93054,189.71683Z" fill="#ff0"/><path d="M163.86822,196.39884a2.36136,2.36136,0,1,0-2.82941,3.73816,4.0771,4.0771,0,0,0,3.27124.93652,1.66036,1.66036,0,0,0,1.17847-1.57788C165.5805,198.25455,164.64856,197.23466,163.86822,196.39884Z" fill="#ff0"/><path d="M169.04162,201.01224a.72657.72657,0,0,0-.171-.05347,2.10479,2.10479,0,0,0-2.28308.21289,2.19807,2.19807,0,0,0-.57922,2.866,2.89571,2.89571,0,0,0,2.42267,1.408,2.26128,2.26128,0,0,0,.6106-4.43335Z" fill="#ff0"/><path d="M180.18457,162.05375a2.39472,2.39472,0,0,0-2.38959-2.01343,4.99617,4.99617,0,0,0-3.25653,1.24268,2.12488,2.12488,0,0,0,.49945,3.27759,4.92382,4.92382,0,0,0,3.499.14893A2.4052,2.4052,0,0,0,180.18457,162.05375Z" fill="#ff0"/><path d="M188.24737,158.85807a23.23654,23.23654,0,0,0-3.31732.80237,1.83312,1.83312,0,0,0-1.02887,1.73218,1.87388,1.87388,0,0,0,1.18195,1.64844,7.01179,7.01179,0,0,0,1.68494.47778c.2243.04248.4483.08716.673.12769.10675.01917.86218.19666.37329.04883a2.557,2.557,0,0,0,3.37677-2.12451C191.332,160.06864,189.84533,158.39652,188.24737,158.85807Z" fill="#ff0"/><path d="M171.5683,195.469a3.6225,3.6225,0,0,0-2.923.86011,2.00838,2.00838,0,0,0-.17078,2.37524c.51465.97339,1.7309,1.198,2.69586,1.47656a2.38221,2.38221,0,1,0,.39795-4.71191Z" fill="#ff0"/><path d="M178.912,194.85465q-.78159.09595-1.56317.19177a2.73726,2.73726,0,0,0-1.74274.72546,2.55914,2.55914,0,0,0-.74109,1.79919c.06378,1.22827,1.13422,2.65442,2.52466,2.48389l1.56323-.19189a2.737,2.737,0,0,0,1.74268-.72534,2.55943,2.55943,0,0,0,.74109-1.79932C181.37292,196.11014,180.30243,194.68412,178.912,194.85465Z" fill="#ff0"/><path d="M172.15682,140.352l-13.03139-4.09436" fill="none" stroke="#717986" stroke-linecap="round" stroke-linejoin="round" stroke-width="8.50394"/><path d="M180.58934,125.79136l-9.64678-8.53664" fill="none" stroke="#717986" stroke-linecap="round" stroke-linejoin="round" stroke-width="8.50394"/><path d="M193.32858,121.55765l-8.4852-7.99438" fill="none" stroke="#717986" stroke-linecap="round" stroke-linejoin="round" stroke-width="8.50394"/><path d="M189.04651,111.66666a19.62184,19.62184,0,0,0-1.4704-1.36621,1.7759,1.7759,0,1,0-2.17969,2.77136,24.09466,24.09466,0,0,0,2.21759,1.00391,1.45868,1.45868,0,0,0,1.64276-.65088A1.48218,1.48218,0,0,0,189.04651,111.66666Z" fill="#fff"/><path d="M176.48462,118.10843a12.15618,12.15618,0,0,0-1.09363-1.12183.36416.36416,0,0,0-.25824-.22913,21.38508,21.38508,0,0,0-4.114-2.69592c-.49286-.25977-.96411.46753-.621.8562.20673.23413.42224.45508.63361.68213-.01465-.00122-.02466-.0083-.0401-.0083-.6413,0-.69409.99878-.049.99878a.50138.50138,0,0,0,.50153-.54651,15.62617,15.62617,0,0,0,4.20691,3.21423C176.3247,119.59427,176.934,118.64091,176.48462,118.10843Z" fill="#fff"/><path d="M163.78662,134.075a16.51044,16.51044,0,0,0-2.83588-.44287,28.07547,28.07547,0,0,0-3.05841.1698,1.03973,1.03973,0,0,0,.01257,2.078,27.991,27.991,0,0,0,3.06042.16992,16.7261,16.7261,0,0,0,2.83051-.44556A.79877.79877,0,0,0,163.78662,134.075Z" fill="#fff"/><path d="M237.31469,129.40421c-3.5542-2.23926-7.67487-3.6842-11.36218-5.75574-3.70111-2.07935-7.19781-4.501-10.92011-6.53528a.91425.91425,0,0,0-1.01257,1.49316,72.483,72.483,0,0,0,11.01184,6.894c3.72742,2.01843,7.61469,4.44983,11.6955,5.611C237.78985,131.41361,238.12549,129.91507,237.31469,129.40421Z" fill="#fff"/><path d="M239.58563,131.8704a1.02072,1.02072,0,0,0-2.01312-.01343c-1.7049,7.48218-1.18127,15.92163-.88306,23.5531.03851.98438,1.58911.95984,1.71118.01135C239.37518,147.84818,240.62762,139.48319,239.58563,131.8704Z" fill="#fff"/><path d="M208.99884,113.29752a1.05878,1.05878,0,0,0-1.58807-.87927c-2.76746,1.41711-5.532,2.84009-8.30695,4.24243a.83108.83108,0,0,0-.32465,1.24683,21.57629,21.57629,0,0,1-2.28723.28333,1.028,1.028,0,0,0,.03149,2.05444c3.99231.39624,7.04523-1.68982,9.33331-4.74841.29956-.14575.59851-.29272.89807-.43848-1.089,12.54541-1.73474,25.52454-.0719,38.00171a1.06322,1.06322,0,0,0,2.12476-.03271C209.8363,139.89249,209.1914,126.46976,208.99884,113.29752Z" fill="#fff"/><path d="M240.035,176.06864c-.20654.772-.401,1.54431-.59766,2.31665.01764-.927.04663-1.85339.05853-2.78052a1.554,1.554,0,0,0-3.10339-.131q-.45209,11.738-1.05347,23.5199-1.19824,8.3-1.709,16.686c-.69348,5.22656-1.37659,10.45581-1.6004,15.66992a1.2799,1.2799,0,0,0,1.75677,1.18408.756.756,0,0,0,.95868-.66431c.0979-.79736.18823-1.59326.28394-2.39014,1.87061-8.06519,2.38513-16.71191,3.08386-24.89355.52-6.08887.86945-12.18787,1.0993-18.29211q1.00827-4.925,2.22528-9.78772C241.66644,175.59269,240.28033,175.15177,240.035,176.06864Z" fill="#fff"/><path d="M321.274,118.49418c-9.88049,2.99023-21.4505,5.97192-30.30969,11.39172a.64364.64364,0,0,0,.45746,1.18567c10.28442-1.59338,20.97729-6.77283,30.50208-10.89294C322.86944,119.76957,322.26007,118.19571,321.274,118.49418Z" fill="#fff"/><path d="M356.10235,106.53959c-6.89813,1.67017-13.50391,4.49121-20.06763,7.15308a.9107.9107,0,0,0,.65369,1.69885c6.70917-1.93933,13.58368-3.75476,19.94617-6.66882C357.72418,108.22367,357.4256,106.219,356.10235,106.53959Z" fill="#fff"/><path d="M476.88867,67.37528c-11.64526,3.01025-22.99207,7.481-34.33289,11.46118q-8.30878,2.91577-16.60626,5.86426c-5.24658,1.85339-10.90033,3.35889-15.77832,6.06055a1.01088,1.01088,0,0,0,.61029,1.84314c5.19543-.86377,10.22491-3.01526,15.19684-4.72144q8.79062-3.01666,17.58069-6.03479c11.36432-3.92566,23.037-7.47217,34.03833-12.34534A1.122,1.122,0,0,0,476.88867,67.37528Z" fill="#fff"/><path d="M44.95245,207.46818c-5.76727,1.50037-11.33893,3.73352-16.931,5.77722-5.01575,1.833-10.35681,3.37573-15.0036,6.02368a1.01094,1.01094,0,0,0,.64941,1.82617c5.261-.94214,10.36743-3.178,15.38928-4.98022,5.60547-2.012,11.31232-3.86353,16.70459-6.40479A1.19252,1.19252,0,0,0,44.95245,207.46818Z" fill="#fff"/><path d="M123.141,187.91434c-.68774-1.94275-1.418-3.56421-3.54443-4.14575-2.73639-.74829-6.15381.89526-8.687,1.647q-7.04864,2.092-14.0954,4.19019c-1.71277.50916-1.2146,3.25293.5274,2.75513q4.70837-1.34509,9.41669-2.69043c2.74084-.783,6.55426-2.64722,9.408-2.7356,3.84192-.1189,4.27832,3.07373,5.15021,6.28357a72.49418,72.49418,0,0,0,2.75537,8.72449c.56958,1.38184,2.59979.58545,2.39838-.79248A71.72843,71.72843,0,0,0,123.141,187.91434Z" fill="#fff"/><path d="M201.71618,182.46915a.80838.80838,0,0,0-1.59485-.02295,88.71606,88.71606,0,0,0-.68585,11.193.56894.56894,0,0,0-.08453.41443l.07306.42944c-.0199,1.60291-.035,3.203-.07141,4.7926a127.09735,127.09735,0,0,0,.05627,15.22925,1.00849,1.00849,0,0,0,1.98975.02869,127.09977,127.09977,0,0,0,.54437-15.22083C201.99487,193.72635,202.32385,188.02933,201.71618,182.46915Z" fill="#fff"/></g><g id="db1ba58e-4087-4d66-bc1b-abc1dabfecde" data-name="Sombra" opacity="0.17" style="mix-blend-mode:multiply"><path d="M66.3692,237.295q-10.61911,2.9306-21.22681,5.89941c-.17169-4.89795-1.975-9.80176-3.57257-14.37427A81.83,81.83,0,0,0,34.15588,212.802c-.99658-1.61792-3.496.02393-2.80029,1.68384,2.10309,5.01782,4.34943,9.96094,6.13928,15.106,1.65173,4.7478,2.44324,9.8833,4.42157,14.49915q-1.31451.36676-2.62964.73084c-2.57672.53662-5.16357,1.036-7.76514,1.48267-4.14819.71216-7.39661,1.30518-9.58911-2.83032-.20624-.389-.3952-.79614-.57593-1.21167a32.59446,32.59446,0,0,0-1.95691-5.85815q-.17194-.47827-.34387-.9563c-.11218-.34106-.22583-.67871-.34406-1.00708-2.00916-5.58105-3.86859-11.261-6.18781-16.72119-.94128-2.21606-4.57788-.70312-3.89594,1.56763.17377.57861.35925,1.15454.541,1.7312a1.57067,1.57067,0,0,0-.415,1.84668c2.631,7.15991,5.13556,14.38281,7.904,21.49072,1.56787,4.02539,3.62579,7.62915,8.35455,8.11877,5.24139.5426,11.21741-1.69446,16.54425-3.43713.98828-.24219,1.95294-.4751,2.87659-.68152a205.58132,205.58132,0,0,0,23.07483-6.64758C70.23968,240.75284,69.236,236.50394,66.3692,237.295Z"/><path d="M131.52661,219.80057c-9.75952,2.35059-19.41772,5.32178-29.0556,8.27673-.75873-4.48743-3.54181-9.12988-5.05157-13.309-1.959-5.42261-3.68494-10.91834-5.24164-16.469-.66187-2.35986-4.18884-.91943-3.53723,1.42407,1.62579,5.84692,3.44031,11.63525,5.51306,17.34,1.40674,3.8717,2.58221,8.53955,4.99066,12.03088-3.0694.9375-6.13776,1.86768-9.2074,2.76636-1.86389.54565-3.7243,1.10474-5.59192,1.63721-2.84119.81006-3.88007.7041-5.52014-2.24475-1.69562-3.04871-2.5282-7.04822-3.70483-10.32776q-.7934-2.21155-1.584-4.42383-1.3819-4.0415-2.76392-8.08289a2.23259,2.23259,0,0,0-.35834-.6554q-1.67157-4.693-3.329-9.39111c-.92865-2.64111-4.934-.98657-4.02228,1.65344q3.50024,10.13489,7.0556,20.25061a2.16934,2.16934,0,0,0,.521.84424q.92624,2.59735,1.85388,5.19409c1.735,4.8656,2.83246,13.13843,9.6886,12.22095,3.77679-.50549,7.63074-2.14868,11.2688-3.20776q6.5278-1.90027,13.05573-3.80042c8.67688-2.52588,17.53253-4.74353,26.07538-7.6886C134.78521,223.07889,133.856,219.23966,131.52661,219.80057Z"/><path d="M192.86706,189.157c-5.54871,8.674-17.0462,14.41846-26.39752,7.6366a15.07788,15.07788,0,0,1-2.34894-2.10779c-2.61823-6.42688-.876-14.00049-.52716-20.96436a96.46775,96.46775,0,0,1,4.97308-9.73047,1.239,1.239,0,0,0-2.11133-1.29443,69.05959,69.05959,0,0,0-4.973,8.12048,1.69758,1.69758,0,0,0-1.18109,1.09485,38.0462,38.0462,0,0,0-1.32214,4.57227c-2.35773,6.498-2.94928,13.30908.66156,18.93018a18.16036,18.16036,0,0,0,8.8277,10.39893,15.68756,15.68756,0,0,0,10.85248,1.50293c-.54468.63745-1.05688,1.29907-1.54413,1.97925a2.538,2.538,0,0,0-1.95221-.63086q-1.54459.21185-3.08844.429a2.34881,2.34881,0,0,0-.68915-.00781q-1.45569.22559-2.91052.45654a1.92426,1.92426,0,0,0-2.49408.39136l-.12262.01929.00018-.00146h-.002c-.019-.15857-.03418-.31714-.05383-.47559-.28491-2.30127-3.42755-1.46521-3.68958.43042q-.33325,2.41095-.67194,4.82153c-2.52222,4.15662-1.88965,9.72791-2.04889,14.85828-.27826,2.04138-.56464,4.08191-.83386,6.12439-.30383,2.30481,3.31671,2.67944,3.942.56372a26.05229,26.05229,0,0,0,.70477-3.09277,2.42621,2.42621,0,0,0,2.34119-.12024,2.0653,2.0653,0,0,0,.46893-.03772q1.94806-.42444,3.89642-.84729c.02124.083.03516.16541.057.24841a2.253,2.253,0,0,0,4.41968-.51562q.04907-.8822.13373-1.74292a2.21157,2.21157,0,0,0,.08014-.68628c.96692-8.50073,4.381-15.58569,8.30725-23.27466a1.19309,1.19309,0,0,0,.12433-.54395c5.53217-2.94055,10.00427-8.65479,12.58826-14.40613l.00146-.00256h-.00031c.07-.15588.14331-.31177.21051-.46753C197.41986,188.64091,194.05255,187.30375,192.86706,189.157Zm-18.63153,26.447c.08759-.46069.16913-.92065.27734-1.38452.13831-.03174.2757-.06909.41217-.10962C174.68567,214.60294,174.45337,215.09965,174.23553,215.604Z"/><path d="M157.90619,195.72757a63.19119,63.19119,0,0,0-12.59094,1.78052c-2.94843.69238-6.65613,1.37817-9.11047,3.40588-1.04681-3.46716-1.82672-7.2887-3.73407-10.38709a1.366,1.366,0,0,0-2.51825.72827c.05865,3.6748,1.48474,7.35828,2.46576,10.8728.407,1.458.68909,3.177,1.147,4.80261.28235,3.599,3.07831,7.19531,6.14691,9.05652a1.43621,1.43621,0,0,0,1.92181-1.9707c-.98187-1.458-2.46143-2.74854-3.248-4.33447a9.88082,9.88082,0,0,0-.45587-3.741,5.00393,5.00393,0,0,1,2.80945-2.85132,1.76,1.76,0,0,0,1.95605.95642q3.49695-.51691,6.994-1.03357c1.98846-.29395,4.05365-.16614,5.443-1.76489a1.52,1.52,0,0,0,.36133-1.3396q1.212-.152,2.42987-.297C160.34289,199.32316,160.46411,195.65714,157.90619,195.72757Z"/><path d="M229.339,233.2869c-2.6142-1.02173-5.74652-.47632-8.68677.42383a36.57753,36.57753,0,0,0-9.56189-2.67969q-1.51126-.50391-3.0224-1.00781a2.06673,2.06673,0,0,0,1.04028-1.43872q3.09814-16.30884,4.83551-32.91357c4.42346-4.60449,8.76929-9.283,13.13306-13.94409,1.15436-1.23291-.75787-2.77173-1.94629-1.67932q-1.58359,1.45551-3.16846,2.90955c.19348-.26819.38226-.53564.57654-.80444a1.50974,1.50974,0,0,0-1.70135-2.3667c.38342-.56348.76959-1.12537,1.15155-1.68994a1.03943,1.03943,0,0,0,.18243-.6145c1.28955-1.25891-.63556-4.22729-2.45483-2.528a36.02664,36.02664,0,0,0-4.45935,5.10791,350.54918,350.54918,0,0,0-1.84515-65.73962,1.59083,1.59083,0,0,0-3.16919.25854c.04645.60376.08209,1.20715.12634,1.81091a2.17321,2.17321,0,0,0-4.09039,1.12976c-.78546,36.93591-1.13452,73.88428-1.66272,110.82471a2.13438,2.13438,0,0,0,.06714.549q-2.33038-.77655-4.66071-1.554a2.0183,2.0183,0,0,0-2.11621-.42,1.8376,1.8376,0,0,0-1.00189.541c-1.09863.62085-2.17389,1.26831-3.218,1.95227a1.81406,1.81406,0,0,0-2.7066-1.24084,72.676,72.676,0,0,0-7.20258,4.14954,1.645,1.645,0,0,0-2.5993-.75366q-2.40088,1.84882-4.8017,3.69751a1.49309,1.49309,0,0,0-2.02094-.03406q-1.01578.8075-2.03162,1.61523a1.81263,1.81263,0,0,0-.71094,1.55029q-.69809.82324-1.39429,1.649c-1.33655,1.59387.7251,4.25085,2.49738,2.86023l1.37677-1.08032a1.97725,1.97725,0,0,0,3.32776.77222c.18732-.18689.37732-.36572.56531-.55054a2.51434,2.51434,0,0,0,.97412.60828l11.82086,4.05469a1.84,1.84,0,0,0,2.03149-.54639c.10822.027.21613.05505.32434.08215.46936.11719.92908.23084,1.38428.33972-.63525,1.88977-.39014,4.02625,1.14117,6.44019.731,1.15247,2.843,1.50793,3.69867.25037a8.78486,8.78486,0,0,0,1.56232-6.16418,10.5429,10.5429,0,0,0,1.80676-.43811c3.86072-1.33594,7.33063-3.853,11.12354-5.41882,1.48633-.61365,2.99866-1.161,4.52161-1.67712.74237-.16919,1.38458-.30713,1.90088-.41284q4.936,1.62561,9.873,3.24756c1.304.4292,2.5047-.7168,2.84821-1.84668A5.92107,5.92107,0,0,0,229.339,233.2869Zm-19.0412-83.084c.01129.33093.0307.66077.04016.99194q.24756,8.67865-.27435,17.35547c-.00586.09692-.01611.19434-.02246.29126Q210.17853,159.52225,210.29785,150.20292Zm-.52,36.04a1.898,1.898,0,0,0,.45392.16516c-.13434,1.62708-.283,3.25354-.43518,4.87976-.0329.03931-.066.07837-.09882.11768Q209.73794,188.82413,209.77783,186.243ZM182.515,238.75882l-.76031-.19043c.84668-.73022,1.70465-1.44177,2.58563-2.12012C183.731,237.21781,183.11688,237.98343,182.515,238.75882Zm17.26746,2.18921c-.507.30957-.9986.627-1.45355.96045-.06909-.07312-.14191-.13843-.21228-.20874q1.16071-.765,2.3623-1.45337C200.24786,240.48148,200.01227,240.71171,199.78241,240.948Zm9.82025-4.12036q.42508-.44641.85126-.8916.52441.17249,1.04883.345C210.87561,236.45218,210.24066,236.63553,209.60266,236.82767Z"/><path d="M166.54724,138.04984a40.52277,40.52277,0,0,0-7.45074-2.28479c-1.52185-.33484-2.30969,2.068-1.02661,2.826a40.60245,40.60245,0,0,0,7.04022,3.3927C167.67535,142.888,169.0014,139.1182,166.54724,138.04984Z"/><path d="M175.74035,121.76224c-.41132-1.31091-1.60162-1.98755-2.65387-2.77686-.98132-.73633-1.94806-1.49084-2.98224-2.1521a1.67048,1.67048,0,0,0-2.14856.50012,1.714,1.714,0,0,0,.18457,2.198c.72412.86462,1.52234,1.6571,2.30786,2.4657.83728.86194,1.69794,2.00977,2.9314,2.23047A1.99856,1.99856,0,0,0,175.74035,121.76224Z"/><path d="M187.57745,115.76554a12.319,12.319,0,0,0-2.90338-2.51575,1.55553,1.55553,0,0,0-2.194,2.02246,12.42537,12.42537,0,0,0,2.09509,3.25085,2.0647,2.0647,0,0,0,2.87994.12231A2.08883,2.08883,0,0,0,187.57745,115.76554Z"/><path d="M191.20562,120.60172c-1.51447.18713-3.142.423-4.80139.73865a1.53321,1.53321,0,0,0-.819-.07251,31.47856,31.47856,0,0,0-7.99506,2.7771c-.10229.04858-.20508.09644-.30634.14624-1.45276.69238-2.88843,1.42517-4.29065,2.12195a1.49359,1.49359,0,0,0-2.28888,1.0387l-.00427.06665c-.19232.08911-.38531.17944-.57593.265-1.47992.66394-1.65912,3.40979.3302,3.507l.00385.00806c-.46356,7.04443-1.11493,14.01367-2.12781,21.03223-.34851,2.41492,3.43115,2.6853,3.78094.27783.24084-1.65771.50568-3.313.77612-4.96729.38025,1.61523,2.94641,2.30884,3.43945.3374.18945-.75757.36652-1.51831.5531-2.27661a1.83927,1.83927,0,0,0,2.665-.7887c.04443-.10291.08252-.20715.12634-.31006-.09827.95935-.19843,1.91882-.29376,2.87805a1.66178,1.66178,0,0,0,3.21387.6626c.97815-2.8938,1.78564-5.84241,2.622-8.78223a1.38828,1.38828,0,0,0,.13135-.084c-.54144,3.80237-1.16748,7.59033-1.672,11.45117-.2121,1.62292,2.2868,2.11267,2.7926.57568a41.92873,41.92873,0,0,0,1.22028-4.7,2.19853,2.19853,0,0,0,4.01691-1.32056,73.87489,73.87489,0,0,1,1.75494-22.17065A2.09927,2.09927,0,0,0,191.20562,120.60172Zm-15.0506,11.089c-.01959-.05969-.04285-.11694-.06366-.176-.01251-.67065-.0282-1.34119-.03662-2.012a2.16356,2.16356,0,0,0-.06085-.45728c.59943-.22,1.19269-.45642,1.78357-.70117q-.284,1.06714-.56964,2.13379Q176.68149,131.08451,176.155,131.69071Zm8.558-5.345a1.86259,1.86259,0,0,0-.18121-.35742c.34387-.08765.68848-.17236,1.03418-.25122q-.25534.85254-.512,1.70435C184.9461,127.07645,184.837,126.71158,184.71307,126.34574Z"/><path d="M287.23718,174.7349c-2.144-4.27-1.58478-10.446-5.812-13.5426-3.86945-2.83459-9.10455-.422-13.0896.92188q-10.15814,3.42572-20.30554,6.88293-5.53656,1.87958-11.07233,3.76147c-2.43378.82959-8.87152,1.87866-9.45795,4.44507a.91169.91169,0,0,0-1.2323-1.1062q-.29681.14044-.59357.281a1.24437,1.24437,0,0,0-.67963,1.32129q.05768.32593.1153.65161a1.54573,1.54573,0,0,0,1.78394,1.23389c10.75537-2.93591,21.27039-7.03394,31.822-10.62646,5.19629-1.76929,10.64331-4.4187,16.02826-5.4458,7.41156-1.41382,5.97168,8.67322,8.55573,13.0769C284.69433,178.96659,288.51245,177.27457,287.23718,174.7349Z"/><path d="M575.33569,100.42948q-5.616,1.99768-11.24194,3.91675a230.333,230.333,0,0,0-38.8584,11.30042,2.23658,2.23658,0,0,0-.95117.69446c-8.48389,2.09375-16.9928,3.968-25.45251,5.561a2.25911,2.25911,0,0,0-1.58838,1.12537q-8.47394,2.36371-16.97424,4.7179c-18.46912-.52295-36.65723,15.037-55.06427,5.5437-16.06915-8.28748-11.10339-30.5575-22.83179-42.10376-1.05933-1.04285-2.87347.41479-2.28632,1.69836,3.74469,8.18542,5.95935,16.39392,8.62189,24.97009q.5538,1.78381,1.21777,3.5127a1.245,1.245,0,0,0-1.36456,1.70239c.97992,2.31738,1.90234,4.61523,2.74329,6.927a1.76369,1.76369,0,0,0-.31073,1.04871,24.00509,24.00509,0,0,0,4.11462,13.25452,2.13595,2.13595,0,0,0,2.305.94031,1.82636,1.82636,0,0,0,.22626.2533c-.31744.08643-.634.17615-.9516.26221a1.82553,1.82553,0,0,0-1.35468,2.0907c-.06769.02478-.13562.049-.20331.07385a2.0855,2.0855,0,0,0-1.70929-.61963q-.10822-.33728-.21881-.67432a161.5986,161.5986,0,0,0-10.99994-34.653q-1.82584-7.64484-3.2356-15.38489c-.42017-2.31982-3.6004-1.58264-4.13361.209-.086.28906-.13763.57715-.20581.8656-.14783-.24084-.288-.48621-.4375-.726-1.16815-1.87354-3.722-.05066-2.80121,1.82593q1.68823,3.44055,3.27618,6.90625a55.19662,55.19662,0,0,0,4.293,11.34155c.681,2.7406,1.392,5.47437,2.16431,8.19373,2.146,7.55579,4.33112,15.56519,7.54962,22.8634a466.11112,466.11112,0,0,0-58.05243,13.71094c-.52026-2.0127-1.24713-3.99207-1.89178-5.95288-1.45453-4.42456-3.0257-8.81323-4.65979-13.17419-3.16449-8.44531-6.78278-16.70251-10.62518-24.85974a1.987,1.987,0,0,0-3.5437-.07788c-.139-.23218-.26794-.47058-.4093-.70142a1.51415,1.51415,0,0,0-2.67627,1.33582c3.15674,8.39685,6.9386,16.52515,9.9126,24.998,1.436,4.09094,2.78595,8.21057,4.01062,12.37.80377,2.72974,1.31592,5.68286,2.30182,8.39441-14.51428,4.61951-28.82312,9.83679-42.82532,15.51111-3.11407-16.48022-7.81329-32.82593-15.288-47.87891-.62323-1.25513-2.48706-.82227-2.90118.25806a2.08287,2.08287,0,0,0-1.27643,2.43945,223.66435,223.66435,0,0,0,7.02008,25.65308q3.2785,11.98022,6.55688,23.96021a2.18284,2.18284,0,0,0,2.6601,1.53723q14.15158-5.824,28.48779-10.757c28.39746-6.30249,56.06757-15.70459,84.32532-22.531.07227.3855.15265.76965.22223,1.1554.44049,2.44275,4.73547,1.68958,4.31665-.77966-.04449-.26221-.09546-.52393-.14105-.78613a2.03162,2.03162,0,0,0,.23022-.69873,1.79644,1.79644,0,0,0,1.1557-.873c9.08264-2.03638,18.11725-4.36169,27.11456-6.86768q29.19241-7.32935,57.61932-17.354c7.75934-1.35535,15.51471-2.92822,23.21283-4.7738a2.21006,2.21006,0,0,0,2.76709,2.73181c15.58105-4.86816,31.212-10.03687,46.4928-15.77808a1.9517,1.9517,0,0,0,1.31787-2.21167,2.37749,2.37749,0,0,0,.407-2.10669c.585-.272,1.17444-.53418,1.757-.81128C577.90014,102.37369,577.12195,99.79423,575.33569,100.42948ZM417.50207,135.88663q-.332-.71356-.66394-1.42725-.44412-1.37494-.96356-2.7218a24.395,24.395,0,0,0,6.82458,5.55579c.03113.017.06342.03113.0946.048a2.03262,2.03262,0,0,0-.18164.18091q-2.0809-.78424-4.16345-1.56372A1.69547,1.69547,0,0,0,417.50207,135.88663Zm3.34015,8.724a1.99121,1.99121,0,0,0,.1311-1.1709q-.21478-1.15576-.42767-2.31213c1.58069.61023,3.16254,1.21741,4.75024,1.809a1.70613,1.70613,0,0,0,2.04334-.55566q.316.12927.63434.25159Q424.41079,143.63224,420.84222,144.61063Zm11.48859-3.20459a1.66065,1.66065,0,0,0-.53577-1.0415q1.4317.245,2.88556.38013C433.89764,140.96622,433.11389,141.18485,432.33081,141.406Z"/><path d="M308.42877,142.17154a4.54883,4.54883,0,0,0-.86224-.21387,1.98641,1.98641,0,1,0,.061,3.94055,4.45952,4.45952,0,0,0,.83948-.22241A1.91969,1.91969,0,0,0,308.42877,142.17154Z"/><path d="M318.68591,144a.50036.50036,0,0,0,.0163,1A.50036.50036,0,0,0,318.68591,144Z"/><path d="M309.42547,154.7559a2.22673,2.22673,0,0,0-1.73889,1.02759,2.54106,2.54106,0,0,0,.38318,2.98486,2.09032,2.09032,0,0,0,2.92285.14392,3.42629,3.42629,0,0,0,.77527-1.22913A2.26684,2.26684,0,0,0,309.42547,154.7559Z"/><path d="M321.47992,150.03007a2.44569,2.44569,0,0,0-2.36218,2.79651l.02661.1853a2.42205,2.42205,0,0,0,4.79572-.109l.02679-.1864A2.44493,2.44493,0,0,0,321.47992,150.03007Z"/><path d="M427.82232,109.64457c-3.171,0-3.26386,4.93823-.07471,4.93823C430.91858,114.5828,431.01147,109.64457,427.82232,109.64457Z"/><path d="M446.49414,104.79716c-.64447,0-.55853.99658.08173.99658C447.22027,105.79374,447.1344,104.79716,446.49414,104.79716Z"/><path d="M444.56274,117.511a2.45734,2.45734,0,1,0-3.05493,3.6427,2.378,2.378,0,0,0,1.90771.08118A2.48528,2.48528,0,0,0,444.56274,117.511Z"/><path d="M438.47583,101.10795a3.02551,3.02551,0,0,0-1.91107-.70288q-.19-.01209-.37988-.02441a2.64867,2.64867,0,0,0-1.80994.83618,2.64514,2.64514,0,0,0,2.0556,4.448q.18887-.01209.37769-.02441a2.6207,2.6207,0,0,0,1.6676-4.53247Z"/><path d="M454.06793,84.75113a2.78538,2.78538,0,0,0-3.87274-.05676q-.22733.22742-.45453.45459a2.73869,2.73869,0,1,0,3.81592,3.92944q.22733-.22723.45459-.45459A2.77638,2.77638,0,0,0,454.06793,84.75113Z"/><path d="M435.45984,129.49344a2.87774,2.87774,0,0,0-2.49561-2.33008,2.812,2.812,0,0,0-2.591,1.12427,2.50728,2.50728,0,0,0,.293,3.28271,2.47129,2.47129,0,0,0,1.08679.614c.075.0376.13977.08911.21948.12012a2.576,2.576,0,0,0,1.36029.166A2.61911,2.61911,0,0,0,435.45984,129.49344Z"/><path d="M117.70233,204.65262c-3.01154,0-3.32739,4.69482-.28931,4.69482C120.42462,209.34745,120.74048,204.65262,117.70233,204.65262Z"/><path d="M51.38482,224.37455a2.27517,2.27517,0,0,0-2.4375-1.95923h-.37878a2.21821,2.21821,0,0,0-1.95917,2.4375,2.27517,2.27517,0,0,0,2.4375,1.95923h.37878A2.21825,2.21825,0,0,0,51.38482,224.37455Z"/><path d="M52.73456,232.86014l-.37531-.04968a2.03365,2.03365,0,1,0,.24182,4.02954q.18466-.02435.36938-.049a1.9779,1.9779,0,0,0,1.59052-2.06812A2.00449,2.00449,0,0,0,52.73456,232.86014Z"/><path d="M31.16577,239.62382c-2.6261,0-2.56256,4.07056.05658,4.07056C33.84851,243.69437,33.785,239.62382,31.16577,239.62382Z"/><path d="M55.6264,214.2056a2.1497,2.1497,0,0,0-1.46436-1.83533q-.08487-.032-.16974-.06409a2.17333,2.17333,0,0,0-2.78918,2.26685,2.13429,2.13429,0,0,0,.99756,1.65942,2.28789,2.28789,0,0,0,2.14722.0896l.15881-.05957A2.08861,2.08861,0,0,0,55.6264,214.2056Z"/><path d="M200.7727,124.84379c-2.61072,0-3.17175,4.08521-.52087,4.08521C202.86249,128.929,203.42352,124.84379,200.7727,124.84379Z"/><path d="M188.20721,220.59989a1.77475,1.77475,0,0,0-2.33026-.31177q-.24994.19354-.49982.38721a1.86871,1.86871,0,1,0,2.45209,2.78333q.19684-.254.39355-.50793A1.80618,1.80618,0,0,0,188.20721,220.59989Z"/><path d="M198.21307,209.95682a1.52267,1.52267,0,0,0-2.55133.57715q-.09357.21991-.01239.08911l-.145.27869a1.22591,1.22591,0,0,0,1.58582,1.72473q.13577-.07068.27161-.14111-.166.02692.06244-.03467A1.5279,1.5279,0,0,0,198.21307,209.95682Z"/><path d="M193.11462,211.04569a.50031.50031,0,0,0,.02252.99976A.50031.50031,0,0,0,193.11462,211.04569Z"/><path d="M226.618,211.04642c-.64368,0-.58136.99829.06128.99829C227.32293,212.04471,227.26062,211.04642,226.618,211.04642Z"/><path d="M234.641,189.79716a2.52447,2.52447,0,0,0-1.18994-1.42139,2.46663,2.46663,0,0,0-3.48206,1.60742,2.63711,2.63711,0,0,0,.355,2.18579,2.82122,2.82122,0,0,0,.15143.32092,1.4832,1.4832,0,0,0,1.34082.69983,3.734,3.734,0,0,0,.37793-.07532,2.55509,2.55509,0,0,0,1.929-.96277A2.48415,2.48415,0,0,0,234.641,189.79716Z"/><path d="M218.95,201.59147c-3.32574,0-2.66351,5.13538.62451,5.13538C222.90027,206.72684,222.238,201.59147,218.95,201.59147Z"/><path d="M227.74945,213.88761c-.6452,0-.56927.99768.071.99768C228.4657,214.88529,228.38977,213.88761,227.74945,213.88761Z"/><path d="M223.15405,223.3411a2.43151,2.43151,0,0,0-2.32355,2.49438,2.46162,2.46162,0,0,0,2.49451,2.32361,2.43162,2.43162,0,0,0,2.32355-2.49451A2.46151,2.46151,0,0,0,223.15405,223.3411Z"/><path d="M232.84674,138.14994c-.18854-.21582-.36951-.44116-.57776-.63818a2.51577,2.51577,0,0,0-4.12805,2.06958,2.49311,2.49311,0,0,0,4.35962,1.44824,1.157,1.157,0,0,0,.17267-.18066A2.24051,2.24051,0,0,0,232.84674,138.14994Z"/><path d="M220.80432,128.32914c-3.27484,0-2.92853,5.06909.325,5.06909C224.40411,133.39823,224.0578,128.32914,220.80432,128.32914Z"/><path d="M562.28442,92.87382a2.432,2.432,0,0,0-1.74622-.66211,3.47379,3.47379,0,0,0-2.222,1.08789,2.57528,2.57528,0,0,0,.08667,3.6239,2.60276,2.60276,0,0,0,3.62378-.08679,4.82419,4.82419,0,0,0,.65369-.85876,3.20967,3.20967,0,0,0,.34753-1.452A2.37835,2.37835,0,0,0,562.28442,92.87382Z"/><path d="M551.269,76.79105c-3.033,0-3.44434,4.73621-.3772,4.73621C553.9248,81.52726,554.33606,76.79105,551.269,76.79105Z"/><path d="M525.972,103.13675a2.39822,2.39822,0,0,0-2.29443-2.18188,2.5917,2.5917,0,0,0-2.078,2.51868,2.20991,2.20991,0,0,0,2.37646,2.30359,2.10194,2.10194,0,0,0,1.5144-.78027A2.31307,2.31307,0,0,0,525.972,103.13675Z"/><path d="M542.624,65.55326a2.44372,2.44372,0,0,0-3.67639.12195l-.08777.13489a2.42726,2.42726,0,0,0,3.30249,3.49329l.1333-.08655A2.45519,2.45519,0,0,0,542.624,65.55326Z"/><path d="M536.32287,56.61686c-.09656-.17712-.191-.34778-.28748-.52478a2.38957,2.38957,0,0,0-4.23474.18774,2.33723,2.33723,0,0,0,.25452,2.3634,2.44163,2.44163,0,0,0,2.45532.9126c-.83618.11951.30957-.04285.55261-.07727A1.98014,1.98014,0,0,0,536.32287,56.61686Z"/><path d="M471.06036,121.00553a5.66554,5.66554,0,0,0-.515-.62659,1.86048,1.86048,0,0,0-2.06256-.3158,1.88531,1.88531,0,0,0-1.11346,1.788,1.97494,1.97494,0,0,0,1.02618,1.60681,1.92583,1.92583,0,0,0,2.26062-.402,6.00515,6.00515,0,0,0,.46338-.62012A1.41483,1.41483,0,0,0,471.06036,121.00553Z"/></g><g id="6df8a869-2ef3-4363-b2cb-4f78e03fa88b" data-name="Capa 2 copia"><path d="M165.06445,160.58964a2.21232,2.21232,0,0,1-.22607-.01172,2.12574,2.12574,0,0,1-1.89062-2.33789l3.45264-32.65234a2.12708,2.12708,0,0,1,1.32324-1.75L205.70556,108.618a2.12625,2.12625,0,0,1,1.582,3.94727l-36.79346,14.74316-3.31787,31.37891A2.1264,2.1264,0,0,1,165.06445,160.58964Z"/><path d="M242.90722,129.12382a2.1126,2.1126,0,0,1-.96973-.23535l-34.61963-17.79a2.12571,2.12571,0,1,1,1.94336-3.78125l34.61963,17.79a2.12576,2.12576,0,0,1-.97363,4.0166Z"/><path d="M236.89892,241.73417c-.04248,0-.085-.001-.12793-.00391a2.12564,2.12564,0,0,1-1.99609-2.248l3.79736-64.04687a2.12581,2.12581,0,0,1,4.24414.252L239.019,239.73417A2.1259,2.1259,0,0,1,236.89892,241.73417Z"/><path d="M241.31543,167.24491c-.04248,0-.085-.001-.12793-.00391a2.12564,2.12564,0,0,1-1.99609-2.248l2.22852-37.59277a2.12581,2.12581,0,0,1,4.24414.252l-2.22852,37.59277A2.1259,2.1259,0,0,1,241.31543,167.24491Z"/><path d="M238.58008,240.47245a2.13575,2.13575,0,0,1-.61523-.0918l-30.89551-9.3291c-2.44141-.7373-5.78516-1.74707-7.80078-4.51758a2.1258,2.1258,0,1,1,3.4375-2.502c1.0874,1.49316,3.17578,2.21973,5.59229,2.94922l30.895,9.3291a2.12651,2.12651,0,0,1-.61328,4.16211Z"/><path d="M156.59375,240.4578a2.12615,2.12615,0,0,1-.37891-4.21777,216.37375,216.37375,0,0,0,42.39941-12.31934,2.12555,2.12555,0,1,1,1.59766,3.93945,220.60121,220.60121,0,0,1-43.23437,12.56348A2.14384,2.14384,0,0,1,156.59375,240.4578Z"/><path d="M158.45263,236.865a2.06314,2.06314,0,0,1-.24414-.01367,2.12669,2.12669,0,0,1-1.87061-2.35449l3.24854-28.36426a2.12614,2.12614,0,0,1,4.22461.48438l-3.24854,28.36426A2.12638,2.12638,0,0,1,158.45263,236.865Z"/><path d="M168.42578,248.93827a2.12636,2.12636,0,0,1-2.12549-2.1084l-.07324-8.80176a2.12614,2.12614,0,0,1,2.1084-2.14355h.01807a2.12636,2.12636,0,0,1,2.12549,2.1084l.07324,8.80176a2.12614,2.12614,0,0,1-2.1084,2.14355Z"/><path d="M197.47461,258.8787a6.3503,6.3503,0,0,1-2.501-.50586,2.12407,2.12407,0,0,1-1.269-1.64746l-.97852-6.68457a2.12589,2.12589,0,1,1,4.207-.61523l.7583,5.17969a2.25075,2.25075,0,0,0,1.49219-3.83105,2.12614,2.12614,0,1,1,3.05957-2.95312,6.52058,6.52058,0,0,1-4.76855,11.05762Z"/><path d="M200.33545,239.8787c-.07471,0-.1499-.002-.2251-.00488a5.75926,5.75926,0,0,1-4.16455-2.00391,6.82317,6.82317,0,0,1-.52-7.57715,2.12608,2.12608,0,1,1,3.73242,2.03711,2.66743,2.66743,0,0,0,.05762,2.82227,1.49528,1.49528,0,0,0,1.05713.47363h.00879l-.16748-3.71387a2.12618,2.12618,0,0,1,4.248-.19141l.229,5.08984a2.129,2.129,0,0,1-.59814,1.57617A5.01707,5.01707,0,0,1,200.33545,239.8787Z"/><path d="M227.71142,248.80057a4.33974,4.33974,0,0,1-1.91455-.44434,2.12646,2.12646,0,0,1-1.17285-1.59863l-1.01562-6.80273a2.12592,2.12592,0,0,1,4.20508-.62891l.69971,4.68652a1.06865,1.06865,0,0,0,.07422-.12109,5.61892,5.61892,0,0,0,.2251-3.10547l-.10107-.73633a13.80293,13.80293,0,0,1-.13086-4.34277,2.126,2.126,0,1,1,4.19043.7207,10.31182,10.31182,0,0,0,.15039,3.02539c.0376.26465.07471.52832.10889.792a9.34363,9.34363,0,0,1-.69092,5.64746A5.47794,5.47794,0,0,1,227.71142,248.80057Z"/><path d="M167.83642,248.3621c-.10937,0-.21826-.00293-.32812-.00781a5.99734,5.99734,0,0,1-3.65918-10.42871,2.12587,2.12587,0,1,1,2.81152,3.18945,1.688,1.688,0,0,0,1.06787,2.99219,1.79817,1.79817,0,0,0,1.25928-.38965,2.12549,2.12549,0,1,1,2.8584,3.14648A5.97492,5.97492,0,0,1,167.83642,248.3621Z"/><path d="M193.46875,251.05643a2.13849,2.13849,0,0,1-.3833-.03418,102.242,102.242,0,0,1-20.70166-6.09082,2.12621,2.12621,0,1,1,1.625-3.92969,97.94929,97.94929,0,0,0,19.83838,5.83691,2.12607,2.12607,0,0,1-.37842,4.21777Z"/><path d="M201.28857,250.63358a2.12639,2.12639,0,0,1-.83984-4.08008l22.81445-9.79492a2.12565,2.12565,0,1,1,1.67773,3.90625l-22.81445,9.79492A2.10788,2.10788,0,0,1,201.28857,250.63358Z"/><path d="M225.98388,181.366a7.42067,7.42067,0,0,1-2.22021-.34277,7.0248,7.0248,0,0,1-.86768-13.00684,2.12571,2.12571,0,1,1,1.7832,3.85938,2.775,2.775,0,0,0,2.4917,4.959,2.12632,2.12632,0,0,1,2.02734,3.73828A6.74592,6.74592,0,0,1,225.98388,181.366Z"/><path d="M224.83056,173.60331a2.12655,2.12655,0,0,1-.66357-4.14648l49.45752-16.26562a2.12591,2.12591,0,1,1,1.32813,4.03906l-49.45752,16.26563A2.13045,2.13045,0,0,1,224.83056,173.60331Z"/><path d="M229.01758,180.63749a2.12631,2.12631,0,0,1-.606-4.16406l45.57764-13.58105a2.1256,2.1256,0,1,1,1.21387,4.07422l-45.57764,13.58105A2.11748,2.11748,0,0,1,229.01758,180.63749Z"/><path d="M282.96826,179.35331a2.12629,2.12629,0,0,1-1.90283-1.1748,53.00127,53.00127,0,0,1-2.91943-7.88672c-.58643-1.88184-1.19287-3.82812-1.90674-5.58105a2.1262,2.1262,0,0,1,3.93848-1.60352c.78174,1.91992,1.415,3.95313,2.02783,5.91992.58447,1.877,1.146,3.67871,1.81055,5.33789a21.73455,21.73455,0,0,1,5.93652-1.71777,2.12636,2.12636,0,0,1,.6084,4.209,19.67921,19.67921,0,0,0-6.64355,2.27246A2.11964,2.11964,0,0,1,282.96826,179.35331Z"/><path d="M275.21094,156.73124a2.127,2.127,0,0,1-2.02295-1.47461c-.21875-.67969-.62451-1.62891-1.0542-2.63379-1.16211-2.7207-2.47949-5.80371-2.24951-8.19238.23389-2.43262,3.10889-4.17578,7.14453-6.37207.67578-.36816,1.26953-.68945,1.67578-.94434a2.12585,2.12585,0,1,1,2.2627,3.59961c-.49072.30859-1.14648.665-1.90527,1.0791-1.30957.71289-4.313,2.34766-4.9541,3.22559-.00977,1.37891,1.1543,4.10352,1.936,5.93359.46924,1.09766.91211,2.13477,1.19092,3a2.1291,2.1291,0,0,1-2.02393,2.7793Z"/><path d="M204.1001,225.47635c-.03271,0-.06494-.001-.09814-.002a2.1268,2.1268,0,0,1-2.02734-2.2207l5.146-113.14258a2.12622,2.12622,0,0,1,4.248.19336l-5.146,113.14258A2.12674,2.12674,0,0,1,204.1001,225.47635Z"/><path d="M173.43652,210.739a18.631,18.631,0,0,1-12.45508-4.44434c-5.33008-4.73242-6.80078-12.0459-7.09521-17.34766-1.00684-18.0957,9.53174-36.55078,25.62793-44.87988a2.12764,2.12764,0,0,1,2.478.38086,19.76478,19.76478,0,0,1,17.063,5.88965c4.57666,4.75293,7.07715,11.82227,6.86084,19.39551-.17041,5.9668-1.9248,12.33008-5.36377,19.4541-4.28418,8.876-9.34424,14.89453-15.46826,18.40039A23.56192,23.56192,0,0,1,173.43652,210.739Zm5.56738-61.50586c-13.25586,8.11523-21.73682,23.94238-20.87256,39.47754.25,4.49512,1.437,10.64355,5.67334,14.4043,5.28369,4.69336,13.6416,3.94531,19.167.7832,5.35449-3.06543,9.85254-8.48145,13.75146-16.55859,3.17285-6.57422,4.78955-12.373,4.94287-17.72754.18408-6.43945-1.88379-12.38965-5.67334-16.3252-4.13232-4.291-10.49561-5.958-15.48-4.05664A2.12458,2.12458,0,0,1,179.0039,149.23319Z"/><path d="M138.68554,199.12674a2.12721,2.12721,0,0,1-2.11719-1.93066,21.38346,21.38346,0,0,0-3.1543-9.2998,8.46151,8.46151,0,0,1-4.49316,1.39551,2.12625,2.12625,0,0,1-.06836-4.252,4.24139,4.24139,0,0,0,3.22754-1.623,2.12392,2.12392,0,0,1,1.67041-.832h.01611a2.12567,2.12567,0,0,1,1.667.80664,25.70412,25.70412,0,0,1,4.96924,10.71973l13.33643-4.86523a2.1258,2.1258,0,1,1,1.457,3.99414l-15.78174,5.75781A2.13652,2.13652,0,0,1,138.68554,199.12674Z"/><path d="M141.42969,218.88456a3.15874,3.15874,0,0,1-1.57861-.41895,2.1261,2.1261,0,0,1,.96143-3.96875,9.30554,9.30554,0,0,0-.34033-.88672l-3.59326-8.39746a2.1262,2.1262,0,0,1,1.30273-2.85937l18.08545-5.82715a2.12584,2.12584,0,1,1,1.30371,4.04688l-15.86523,5.1123,2.67529,6.251a6.35834,6.35834,0,0,1,.65088,3.957,3.93629,3.93629,0,0,1-2.22266,2.69434A3.41539,3.41539,0,0,1,141.42969,218.88456Z"/><path d="M6.18359,220.85819a2.12678,2.12678,0,0,1-.668-4.14551l119.49219-39.583a2.12636,2.12636,0,0,1,1.33691,4.03711L6.85254,220.74979A2.13051,2.13051,0,0,1,6.18359,220.85819Z"/><path d="M19.4873,258.50565a2.1261,2.1261,0,0,1-2.00537-1.42285L4.36621,219.66874a2.126,2.126,0,0,1,4.0127-1.40625l12.47363,35.583,119.49316-30.001a2.1255,2.1255,0,1,1,1.03516,4.123L20.00586,258.4412A2.10659,2.10659,0,0,1,19.4873,258.50565Z"/><path d="M139.19726,226.69608a2.12724,2.12724,0,0,1-2.02148-1.46973l-14.6582-45.09863a2.1261,2.1261,0,0,1,4.04395-1.31445l14.6582,45.09863a2.12971,2.12971,0,0,1-2.02246,2.78418Z"/><path d="M74.90381,244.33085a2.12729,2.12729,0,0,1-2.01514-1.45117L59.12988,201.824a2.12589,2.12589,0,1,1,4.03125-1.35156l13.75879,41.05566a2.12876,2.12876,0,0,1-2.01611,2.80273Z"/><path d="M43.94726,249.85135a.70951.70951,0,0,1-.69482-.57129,190.26366,190.26366,0,0,0-11.957-38.46387.7086.7086,0,0,1,1.30078-.5625,191.70166,191.70166,0,0,1,11.45117,35.85547.96343.96343,0,0,1,.13037-.002.70911.70911,0,0,1,.65283.76074l-.17627,2.32813a.70719.70719,0,0,1-.66406.65332C43.97558,249.85038,43.96142,249.85135,43.94726,249.85135Z"/><path d="M105.65185,234.29276a.70933.70933,0,0,1-.67236-.48535L91.41943,193.01249a.70858.70858,0,1,1,1.34473-.44727l13.56006,40.79492a.70849.70849,0,0,1-.67236.93262Z"/><path d="M12.45556,225.534a.7088.7088,0,0,1-.21289-1.38477l46.314-14.60352a.70852.70852,0,1,1,.42578,1.35156l-46.314,14.60352A.70369.70369,0,0,1,12.45556,225.534Z"/><path d="M15.125,232.907a.70866.70866,0,0,1-.20215-1.3877L58.22607,218.615a.70818.70818,0,1,1,.4043,1.35742l-43.30225,12.9043A.69925.69925,0,0,1,15.125,232.907Z"/><path d="M20.68213,239.80253a.70912.70912,0,0,1-.20166-1.38867l42.40967-12.61914a.70911.70911,0,0,1,.4043,1.35938L20.88476,239.77323A.729.729,0,0,1,20.68213,239.80253Z"/><path d="M23.00537,248.43632a.70857.70857,0,0,1-.188-1.3916l42.60791-11.77051a.70816.70816,0,1,1,.377,1.36523L23.19433,248.40995A.70287.70287,0,0,1,23.00537,248.43632Z"/><path d="M71.72021,208.00174a.709.709,0,0,1-.19434-1.39062l48.22656-13.77246a.70894.70894,0,0,1,.38965,1.36328L71.91552,207.9744A.71408.71408,0,0,1,71.72021,208.00174Z"/><path d="M73.40674,216.70389a.70889.70889,0,0,1-.22559-1.38086l48.47168-16.28223a.70873.70873,0,1,1,.45117,1.34375L73.63232,216.66678A.7.7,0,0,1,73.40674,216.70389Z"/><path d="M77.16845,226.38651a.70854.70854,0,0,1-.2085-1.38574l49.27-15.18359a.70815.70815,0,1,1,.417,1.35352l-49.27,15.18359A.70507.70507,0,0,1,77.16845,226.38651Z"/><path d="M78.75537,233.44022a.70891.70891,0,0,1-.19385-1.39062l52.019-14.84375a.7088.7088,0,0,1,.38867,1.36328l-52.019,14.84375A.70808.70808,0,0,1,78.75537,233.44022Z"/><path d="M292.25635,184.05253a2.12682,2.12682,0,0,1-2.04443-1.54785l-14.4585-51.05859a2.12581,2.12581,0,1,1,4.09082-1.1582l14.4585,51.05859a2.128,2.128,0,0,1-2.04639,2.70605Z"/><path d="M278.29785,132.86014a2.12676,2.12676,0,0,1-.66162-4.14746L557.04492,37.14335a2.12623,2.12623,0,1,1,1.32422,4.041L278.96045,132.7537A2.117,2.117,0,0,1,278.29785,132.86014Z"/><path d="M294.89795,185.97245a2.12682,2.12682,0,0,1-.5498-4.18066L578.3789,105.55155a2.12629,2.12629,0,0,1,1.10156,4.10742L295.45068,185.89921A2.161,2.161,0,0,1,294.89795,185.97245Z"/><path d="M577.5039,109.17264a2.127,2.127,0,0,1-2.03125-1.502l-20.877-67.90625a2.12616,2.12616,0,0,1,4.06445-1.25l20.877,67.90625a2.1285,2.1285,0,0,1-2.0332,2.752Z"/><path d="M416.21289,151.076a2.12743,2.12743,0,0,1-2.03369-1.50684L396.31982,90.89139a2.12585,2.12585,0,1,1,4.06738-1.23828L417.43359,145.659a2.12633,2.12633,0,0,1,1.894,3.77246l-1.9375,1.28906A2.1294,2.1294,0,0,1,416.21289,151.076Z"/><path d="M350.19824,168.31229a.70888.70888,0,0,1-.69238-.56152,271.53357,271.53357,0,0,0-17.44873-53.68945.70866.70866,0,1,1,1.29492-.57617,272.91285,272.91285,0,0,1,17.53955,53.9707.70891.70891,0,0,1-.54541.84082A.69922.69922,0,0,1,350.19824,168.31229Z"/><path d="M488.626,132.87772a.72575.72575,0,0,1-.19824-.02832.70958.70958,0,0,1-.49023-.51172L472.41992,69.15214a.7089.7089,0,1,1,1.377-.33789l15.22461,61.99414.52539-.502.54883.45508.49023.51172-1.4707,1.40723A.7067.7067,0,0,1,488.626,132.87772Z"/><path d="M289.05859,141.37089a.70871.70871,0,0,1-.209-1.38574c27.07129-8.373,54.68359-16.63574,81.38721-24.627C429.21728,97.7078,490.20508,79.45682,548.71386,59.01444a.70849.70849,0,0,1,.4668,1.33789c-58.53809,20.45313-119.542,38.709-178.5376,56.36426-26.7002,7.99023-54.30957,16.252-81.37451,24.62207A.7146.7146,0,0,1,289.05859,141.37089Z"/><path d="M296.42334,153.30546a.70885.70885,0,0,1-.17529-1.39551c7.38672-1.89062,14.18945-3.90137,22.06641-6.22852l.45166-.13379c87.73633-25.93164,166.94482-51.51953,232.855-73.12891a.70905.70905,0,0,1,.44141,1.34766c-65.91992,21.6123-145.14062,47.20313-232.895,73.14063l-.45117.13281c-7.89062,2.332-14.70508,4.3457-22.1167,6.24316A.73313.73313,0,0,1,296.42334,153.30546Z"/><path d="M299.0083,165.47538a.70875.70875,0,0,1-.189-1.3916c41.27148-11.459,82.58936-23.96,122.54736-36.04883C465.416,114.7078,510.96582,100.92753,556.5,88.531a.70858.70858,0,0,1,.373,1.36719c-45.51562,12.3916-91.05566,26.16992-135.09619,39.49316-39.96533,12.0918-81.2915,24.59473-122.57861,36.05762A.7099.7099,0,0,1,299.0083,165.47538Z"/><path d="M303.94189,177.23417a.70862.70862,0,0,1-.19189-1.39062q26.83374-7.5791,53.65332-15.12988c66.85938-18.83789,135.99512-38.31641,203.13184-57.92773a.70895.70895,0,0,1,.39648,1.36133c-67.1416,19.6123-136.28125,39.0918-203.144,57.93066q-26.814,7.5542-53.65234,15.12891A.69784.69784,0,0,1,303.94189,177.23417Z"/></g></g></svg>