<?xml version="1.0" encoding="UTF-8"?>
<!DOCTYPE svg PUBLIC "-//W3C//DTD SVG 1.1//EN" "http://www.w3.org/Graphics/SVG/1.1/DTD/svg11.dtd">
<!-- Creator: CorelDRAW SE -->
<svg xmlns="http://www.w3.org/2000/svg" xml:space="preserve" width="611.625mm" height="348.815mm" version="1.1" style="shape-rendering:geometricPrecision; text-rendering:geometricPrecision; image-rendering:optimizeQuality; fill-rule:evenodd; clip-rule:evenodd"
viewBox="0 0 204334 116533"
 xmlns:xlink="http://www.w3.org/1999/xlink">
 <defs>
  <style type="text/css">
   <![CDATA[
    .str6 {stroke:#1B4577;stroke-width:25.4572}
    .str2 {stroke:#64BAB1;stroke-width:25.4572}
    .str7 {stroke:#A87BB2;stroke-width:25.4572}
    .str4 {stroke:#B3B3B3;stroke-width:25.4572}
    .str3 {stroke:#C2322F;stroke-width:25.4572}
    .str8 {stroke:#D36F6F;stroke-width:25.4572}
    .str1 {stroke:#DBBF82;stroke-width:25.4572}
    .str0 {stroke:#F0BB53;stroke-width:25.4572}
    .str5 {stroke:white;stroke-width:25.4572}
    .fil7 {fill:#156274}
    .fil2 {fill:#1C1C1C}
    .fil3 {fill:#64BAB1}
    .fil8 {fill:#9B7AAF}
    .fil5 {fill:#B3B3B3}
    .fil4 {fill:#B7372B}
    .fil1 {fill:#D2BD84}
    .fil9 {fill:#D36F6F}
    .fil0 {fill:#F0BB53}
    .fil6 {fill:white}
   ]]>
  </style>
 </defs>
 <g id="Vrstva_x0020_1">
  <metadata id="CorelCorpID_0Corel-Layer"/>
  <g id="_102821320">
   <path class="fil0 str0" d="M45867 39631c928,-23 2261,-68 3229,-413 379,-136 411,-223 871,-303 514,-89 517,-76 939,-302 568,-303 969,-920 1531,-898 504,19 398,104 819,-235 992,-796 2025,-1251 3330,-2832 690,-835 1424,-2303 1283,-3829 -185,-2020 -2692,-4661 -4222,-5717 -761,-526 -2902,-1058 -3967,-986 216,1029 174,925 1035,1383 1160,618 3247,2039 3378,3446 120,1296 -1014,2303 -1873,2663 -670,281 -1091,252 -1812,487 -402,131 -334,205 -854,338 -2227,572 -2757,516 -4705,893 -2454,475 -5450,1233 -7756,1358 -894,48 -3494,198 -4017,495 -832,-715 -3968,-220 -4959,-138 -1820,150 -3788,-124 -5572,99 -2379,298 -8644,100 -10586,-494 -3375,-1032 -1350,-300 -3966,-1647 -2875,-1481 -5636,-2376 -4324,-6039 688,-1920 2402,-1573 3641,-1970l318 -1392c-1607,-39 -1245,-263 -2694,353 -1464,621 -2669,1686 -3547,3029 -1259,1924 -924,3749 67,5596 798,1488 840,1852 1828,1932 319,837 1597,1180 2498,1519 1256,473 1640,838 2698,1322 1257,575 4545,1673 5892,2012 1078,272 2469,234 3628,397 1298,183 2066,559 3426,591l9108 103 268 -389c1092,476 10918,263 12066,-225 502,153 96,317 1045,222l1956 -429zm7080 -7149c288,-350 322,-547 875,-589 -60,638 -2576,3311 -3301,2941 349,-409 310,82 1710,-1460 279,-307 459,-581 716,-892zm-5066 3210c103,-354 1180,-1156 1753,-1221 -159,397 -1332,1201 -1753,1221zm2715 647c240,-435 1414,-826 1769,-1087 1047,-772 2632,-2644 3158,-3816 223,-495 82,-539 446,-830 545,171 351,400 118,869 -768,1549 -3350,4655 -5491,4864zm-48317 -6700c250,482 128,1686 -396,1941 -189,-331 12,-483 48,-1030 44,-658 -163,-710 348,-911zm1280 2840c2,766 57,967 -224,1507 -324,-470 -297,-1322 224,-1507zm-739 -1740c364,337 164,319 105,882 -38,370 93,946 -338,854 -400,-85 12,-1517 233,-1736zm33096 5997c723,-331 2407,-566 2344,589 -604,-21 -290,-133 -683,-309 -145,-65 -318,-111 -484,-97 -881,73 -146,-24 -467,191 141,196 16,95 217,255 408,324 530,128 737,682 -433,418 -1679,-464 -1664,-1311zm-2726 1308c-336,979 -948,-417 0,0zm-9530 806c172,-628 347,-125 1109,-73 358,25 4444,-600 5144,-511 74,696 -432,689 -1116,714 -715,26 -1245,-9 -1904,76 -1346,175 -2167,533 -3233,-206zm-1590 -134c-235,358 -150,328 -624,125 190,-486 336,-513 624,-125zm3061 -1606c-374,193 -1177,359 -1650,134 232,-504 1319,-342 1650,-134zm2032 396c-189,351 16,381 -1449,406 -1349,22 -1406,141 -1592,-267 300,-131 2610,-369 3041,-139zm-12765 273c653,-399 4548,534 4968,937 -408,197 -1847,-278 -2386,-398 -747,-167 -2095,-230 -2582,-539z"/>
   <path class="fil1 str1" d="M35796 30014c208,-137 1002,-334 1353,-329l-114 632 4735 -296c595,-109 809,-444 1145,-7 -549,654 -5037,899 -5765,602 -267,-110 -172,-73 -323,-200 -20,-17 -45,-50 -64,-67 -550,-510 -370,65 -967,-335zm1649 1875c402,-559 1525,-336 2463,-390 1402,-80 7375,-1267 7962,-897 -96,791 -1420,523 -2285,643 -1705,237 -7144,1102 -8140,644zm2997 1786c906,-131 1350,-383 2298,-526 873,-131 1503,-336 2385,-418 1645,-154 3182,-520 4495,-1025 15,-37 37,-81 45,-111 150,-595 31,-2544 28,-3187 -7,-1388 -57,-1701 -316,-2911 -301,-1410 -1133,-3582 -1678,-4859 -128,-300 -109,-428 -294,-666 -292,-378 -134,-9 -413,-381l-620 -992c-433,-620 -799,-1443 -1263,-1959 -194,-216 -234,-187 -380,-410 -178,-273 -58,-235 -289,-522 -299,-370 -533,-315 -857,-755 -361,-490 -1107,-1263 -1806,-1399 41,485 1050,2169 1345,3043l814 2432c139,413 216,327 255,818l-803 -1601c-538,-1304 -1044,-3573 -2362,-4883 -1112,-1105 -4423,-2952 -6653,-3074 97,344 69,258 -97,558l-2532 -406c-2894,-353 -3826,-240 -6567,-17 -886,72 -590,328 -1044,44 932,-881 6531,-491 7809,-466 -211,-175 181,15 -317,-222 -42,-20 -170,-61 -215,-74 -188,-54 -399,-63 -605,-79 -3412,-261 -4255,-725 -8156,-95l-3045 851c-391,104 -485,230 -834,373 -1355,559 -436,186 -1578,966 -818,559 -719,489 -1282,1238 -91,-239 -8,-159 -43,-288 -7,-26 -65,-104 -71,-163 -4,-45 -34,-56 -54,-82l-366 420c-151,160 -183,199 -310,368 -240,319 -372,470 -585,750 -398,524 -564,1316 -1170,1440 80,-363 261,-583 415,-876 212,-403 264,-607 388,-904l-226 111c-2187,1193 -4096,5468 -4930,7704 -295,791 -544,1625 -827,2382 -382,1025 41,684 -540,1861 -292,592 -577,2501 -763,3275 -175,729 -312,1947 -516,2529 1293,1042 4860,2522 6740,2893 793,157 775,-85 1349,-13 432,54 1057,147 1424,192 1762,214 10786,12 12673,-158 -495,-655 -3455,-789 -4520,-797 995,-559 5175,349 6019,634l114 -260c8,-24 7,-103 19,-145 974,10 1807,44 2671,107 4512,329 2723,449 7641,-265zm-13853 -21121c-503,158 -372,-93 -724,210 -651,559 -883,2520 -1734,2623 20,-436 304,-931 534,-1289 344,-534 383,-535 656,-1220 -133,-78 -34,-31 -237,-73 -20,-4 -65,3 -85,-2 -19,-5 -63,0 -81,-6 -288,-98 -155,-26 -278,-322 757,-280 1080,110 1220,-826 -457,-1 -563,96 -906,-110 334,-446 601,-268 1165,-531 689,-321 269,-63 1200,-123 577,-38 1658,-252 2293,-158 722,108 492,275 493,277 -167,139 288,126 -495,138 -183,3 -471,-27 -684,-27 -383,0 -803,-15 -1176,55l-709 194c-1,1 -324,-3 -608,362l-140 255c-8,-20 -26,63 -40,94 28,17 68,35 88,43l601 236 -353 200zm-14064 9617c-48,522 -1386,2290 -1786,3060 -271,520 -214,742 -670,1008 6,-733 2036,-3944 2456,-4068zm27575 -1727l-1551 -2989c-289,-465 -525,-594 -219,-1040 543,125 1563,2261 1863,2855 407,809 354,377 820,837 -341,296 -447,199 -913,337zm-27286 157c-571,936 -1699,2213 -2403,3359 -321,521 -380,982 -993,1204 69,-754 2393,-3189 2950,-4628 194,-502 38,-513 492,-701 93,158 187,-278 116,390 -26,236 -66,219 -162,376zm-1946 205l-868 1545c-586,1024 228,957 -898,1527 199,-1165 1043,-2493 1612,-3381 325,-509 623,-875 993,-1415 309,-450 681,-1280 1229,-951 -115,449 -1668,2006 -2068,2675zm15186 2452c-548,-55 -525,-718 -2011,125 112,561 236,606 731,886 428,242 614,208 881,524 -655,379 -2217,-536 -2209,-1205 10,-832 2663,-1749 2608,-330zm-15070 3801c-210,321 7,186 -423,303 149,-705 434,-873 962,-1356 -92,576 -76,222 -370,694 -282,455 192,-193 -169,359zm29645 -2964l-7 -447 458 25 0 317 -451 105zm804 -1819c-324,156 -34,275 -612,13 80,-159 -53,-328 294,-313 316,14 205,122 318,300zm-29804 5750c-100,486 -719,1440 -1012,1692 158,-754 565,-1292 1012,-1692zm9993 -12666c-219,410 -186,550 -461,824 -166,-454 449,-1372 653,-1723 341,-585 633,-1318 1300,-1406l-1492 2305z"/>
   <path class="fil1 str1" d="M40994 40859c-3593,526 -7550,-216 -10838,159 -2436,277 -616,139 -2429,80 -2012,-67 -6005,-55 -7997,-450 -731,-145 -1366,-396 -2314,-477 -4613,-392 -3341,-612 -7081,-1364 -1144,-229 -3190,-1457 -4017,-1543 413,858 601,1871 977,2853 779,2034 2333,4480 3936,5855 326,279 740,576 999,853 517,-162 170,9 536,-244 489,794 711,1079 1470,1608 1330,927 913,859 1652,1426 618,474 2969,1458 4036,2001 1584,806 4083,802 5170,991l2900 -86c1088,-42 3737,-796 4931,-1089 2523,-620 2426,-957 4224,-1941l1794 -1147c890,-493 2476,-2055 3268,-2771 669,-603 971,-842 1580,-1496l1019 -1227c35,-320 -37,-61 -146,-309 516,-362 1442,-1382 1546,-2242 -1350,4 -3805,353 -5216,560zm-3254 4543c-867,342 -1710,-406 -1787,-1197 422,-531 1113,-1281 1888,-535 -346,734 -1128,-248 -1187,664 -41,642 783,701 1086,1068zm-17767 -4285c797,60 425,31 504,277 -195,142 -244,172 -780,137l-3672 -630c-758,-127 -829,85 -1147,-435 738,-6 2243,282 2885,456 850,231 1644,153 2210,195zm-4843 5840c254,246 366,351 601,605 301,326 249,359 528,850 -704,-298 -192,-181 -1309,-1277 -422,-414 -766,-674 -1096,-1406l1276 1228zm6832 1876c1,0 1,-1 2,-1 84,144 32,54 -2,1zm-7 7c-28,-58 -14,-39 7,-7 -2,2 -5,4 -7,7zm3222 -1204c597,533 -721,1008 -1217,1942 602,237 1397,149 2154,118 -139,1056 -1136,219 -2697,251 312,297 209,217 674,309 299,59 457,89 819,125 1113,113 2107,434 3346,450 367,5 564,8 923,-64 501,-101 -70,-64 325,-87 366,-21 554,114 388,387 -55,91 -173,152 -308,184 -217,51 -937,22 -1200,13 -627,-21 -1264,-185 -1985,-275 -1098,-137 -3071,-689 -3899,-514 -18,-35 -109,-259 -111,-262 -126,-221 -10,-54 -164,-243l-262 -271 -66 -76 -67 -80c-440,295 -1533,1407 -2072,1421 18,-36 1999,-1953 2197,-2124 16,35 49,99 106,206l171 293c1235,191 976,264 1775,-405 1089,-912 759,-913 1170,-1298zm-9097 -5846c-2,26 -63,8 0,0zm1209 115l-691 -85c-327,-36 -465,-36 -518,-30 2,-17 -22,-55 -128,-128 410,-237 2285,-209 2614,267 -38,29 331,210 -560,99 -165,-20 -338,-79 -717,-123zm-1227 683c-502,-45 -876,-144 -1173,-391 49,-31 54,-246 648,2 358,149 334,140 525,389z"/>
   <g>
    <path class="fil2" d="M6318 37264c827,86 2873,1314 4017,1543 3740,752 2468,972 7081,1364 948,81 1583,332 2314,477 1992,395 5985,383 7997,450 1813,59 -7,197 2429,-80 3288,-375 7245,367 10838,-159 1411,-207 3866,-556 5216,-560 -104,860 -1030,1880 -1546,2242 109,248 181,-11 146,309l-1019 1227c-609,654 -911,893 -1580,1496 -792,716 -2378,2278 -3268,2771l-1794 1147c-1798,984 -1701,1321 -4224,1941 -1194,293 -3843,1047 -4931,1089l-2900 86c-1087,-189 -3586,-185 -5170,-991 -1067,-543 -3418,-1527 -4036,-2001 -739,-567 -322,-499 -1652,-1426 -759,-529 -981,-814 -1470,-1608 -366,253 -19,82 -536,244 -259,-277 -673,-574 -999,-853 -1603,-1375 -3157,-3821 -3936,-5855 -376,-982 -564,-1995 -977,-2853zm43797 -11494c502,106 825,412 1268,699 21,13 55,34 76,47 3821,2476 1586,4724 -1008,4891 13,-831 165,-798 242,-1411 68,-542 -200,-2302 -307,-2834l-271 -1392zm-44350 5344c-2632,-858 -2846,-5549 1240,-5433 -163,997 -500,1729 -621,2626l-450 2394c-11,36 -23,72 -35,106l-86 206c-10,25 -28,69 -48,101zm1545 -6124c-1239,397 -2953,50 -3641,1970 -1312,3663 1449,4558 4324,6039 2616,1347 591,615 3966,1647 1942,594 8207,792 10586,494 1784,-223 3752,51 5572,-99 991,-82 4127,-577 4959,138 523,-297 3123,-447 4017,-495 2306,-125 5302,-883 7756,-1358 1948,-377 2478,-321 4705,-893 520,-133 452,-207 854,-338 721,-235 1142,-206 1812,-487 859,-360 1993,-1367 1873,-2663 -131,-1407 -2218,-2828 -3378,-3446 -861,-458 -819,-354 -1035,-1383 1065,-72 3206,460 3967,986 1530,1056 4037,3697 4222,5717 141,1526 -593,2994 -1283,3829 -1305,1581 -2338,2036 -3330,2832 -421,339 -315,254 -819,235 -562,-22 -963,595 -1531,898 -422,226 -425,213 -939,302 -460,80 -492,167 -871,303 -968,345 -2301,390 -3229,413l-1956 429c-949,95 -543,-69 -1045,-222 -1148,488 -10974,701 -12066,225l-268 389 -9108 -103c-1360,-32 -2128,-408 -3426,-591 -1159,-163 -2550,-125 -3628,-397 -1347,-339 -4635,-1437 -5892,-2012 -1058,-484 -1442,-849 -2698,-1322 -901,-339 -2179,-682 -2498,-1519 -988,-80 -1030,-444 -1828,-1932 -991,-1847 -1326,-3672 -67,-5596 878,-1343 2083,-2408 3547,-3029 1449,-616 1087,-392 2694,-353l-318 1392zm6804 -11365c-124,297 -176,501 -388,904 -154,293 -335,513 -415,876 606,-124 772,-916 1170,-1440 213,-280 345,-431 585,-750 127,-169 159,-208 310,-368l366 -420c20,26 50,37 54,82 6,59 64,137 71,163 35,129 -48,49 43,288 563,-749 464,-679 1282,-1238 1142,-780 223,-407 1578,-966 349,-143 443,-269 834,-373l3045 -851c3901,-630 4744,-166 8156,95 206,16 417,25 605,79 45,13 173,54 215,74 498,237 106,47 317,222 -1278,-25 -6877,-415 -7809,466 454,284 158,28 1044,-44 2741,-223 3673,-336 6567,17l2532 406c166,-300 194,-214 97,-558 2230,122 5541,1969 6653,3074 1318,1310 1824,3579 2362,4883l803 1601c-39,-491 -116,-405 -255,-818l-814 -2432c-295,-874 -1304,-2558 -1345,-3043 699,136 1445,909 1806,1399 324,440 558,385 857,755 231,287 111,249 289,522 146,223 186,194 380,410 464,516 830,1339 1263,1959l620 992c279,372 121,3 413,381 185,238 166,366 294,666 545,1277 1377,3449 1678,4859 259,1210 309,1523 316,2911 3,643 122,2592 -28,3187 -8,30 -30,74 -45,111 -1313,505 -2850,871 -4495,1025 -882,82 -1512,287 -2385,418 -948,143 -1392,395 -2298,526 -4918,714 -3129,594 -7641,265 -864,-63 -1697,-97 -2671,-107 -12,42 -11,121 -19,145l-114 260c-844,-285 -5024,-1193 -6019,-634 1065,8 4025,142 4520,797 -1887,170 -10911,372 -12673,158 -367,-45 -992,-138 -1424,-192 -574,-72 -556,170 -1349,13 -1880,-371 -5447,-1851 -6740,-2893 204,-582 341,-1800 516,-2529 186,-774 471,-2683 763,-3275 581,-1177 158,-836 540,-1861 283,-757 532,-1591 827,-2382 834,-2236 2743,-6511 4930,-7704l226 -111zm-6320 9306c-2404,55 -3429,525 -5000,1707 -830,625 -2626,2525 -2749,3896 -235,2617 482,3610 1392,5278 1309,2400 3936,2417 3999,2825l641 1390c398,1129 523,2267 1136,3393 1138,2090 513,1606 2665,4027 386,435 734,715 1149,1126 438,434 804,553 1333,938 394,287 649,656 1122,1025 2171,1694 4701,3036 7329,3896 2968,972 9595,1019 12080,268 2006,-606 5215,-2787 6988,-4102 861,-639 1673,-1761 3002,-2622l2889 -2727c863,-1140 126,-734 1160,-2704l360 -367c623,-193 -315,65 216,-61 974,-232 2181,-415 3193,-794 3929,-1471 9560,-5544 7205,-10320 -434,-880 -1345,-2045 -1986,-2687 -1911,-1914 -2755,-2673 -6528,-2840 -176,-1022 -1548,-4303 -2308,-5194 -2511,-2945 -1767,-3791 -7575,-6863 -4349,-2300 -14159,-3421 -18792,-2041 -1038,309 -3859,1343 -4703,1839 -519,304 -1021,445 -1501,775 -608,419 -1583,1633 -2189,2223 -807,787 -1162,1485 -1770,2641 -280,533 -553,836 -838,1298 -596,970 -1293,3696 -1920,4777z"/>
    <path class="fil2" d="M22372 49694c86,-53 -203,-241 329,-79 210,63 138,145 182,213 -411,225 -277,150 -511,-134zm1588 -116c496,-934 1814,-1409 1217,-1942 -411,385 -81,386 -1170,1298 -799,669 -540,596 -1775,405l-171 -293c-300,-567 70,73 -97,-214 -130,104 -2188,2095 -2206,2132 539,-14 1632,-1126 2072,-1421 23,26 53,63 67,80 14,16 49,57 66,76l262 271c154,189 38,22 164,243 2,3 93,227 111,262 828,-175 2801,377 3899,514 721,90 1358,254 1985,275 263,9 983,38 1200,-13 135,-32 253,-93 308,-184 166,-273 -22,-408 -388,-387 -395,23 176,-14 -325,87 -359,72 -556,69 -923,64 -1239,-16 -2233,-337 -3346,-450 -362,-36 -520,-66 -819,-125 -465,-92 -362,-12 -674,-309 1561,-32 2558,805 2697,-251 -757,31 -1552,119 -2154,-118z"/>
    <path class="fil2" d="M37445 31889c996,458 6435,-407 8140,-644 865,-120 2189,148 2285,-643 -587,-370 -6560,817 -7962,897 -938,54 -2061,-169 -2463,390z"/>
    <path class="fil2" d="M24954 11539c343,206 449,109 906,110 -140,936 -463,546 -1220,826 123,296 -10,224 278,322 18,6 62,1 81,6 20,5 65,-2 85,2 203,42 104,-5 237,73 -273,685 -312,686 -656,1220 -230,358 -514,853 -534,1289 851,-103 1083,-2064 1734,-2623 352,-303 221,-52 724,-210l353 -200 -601 -236c-20,-8 -60,-26 -88,-43 14,-31 32,-114 40,-94l140 -255c284,-365 607,-361 608,-362l709 -194c373,-70 793,-55 1176,-55 213,0 501,30 684,27 783,-12 328,1 495,-138 -1,-2 229,-169 -493,-277 -635,-94 -1716,120 -2293,158 -931,60 -511,-198 -1200,123 -564,263 -831,85 -1165,531z"/>
    <path class="fil2" d="M23660 38850c1066,739 1887,381 3233,206 659,-85 1189,-50 1904,-76 684,-25 1190,-18 1116,-714 -700,-89 -4786,536 -5144,511 -762,-52 -937,-555 -1109,73z"/>
    <path class="fil2" d="M37149 29685c-351,-5 -1145,192 -1353,329 597,400 417,-175 967,335 19,17 44,50 64,67 151,127 56,90 323,200 728,297 5216,52 5765,-602 -336,-437 -550,-102 -1145,7l-4735 296 114 -632z"/>
    <path class="fil2" d="M50596 36339c2141,-209 4723,-3315 5491,-4864 233,-469 427,-698 -118,-869 -364,291 -223,335 -446,830 -526,1172 -2111,3044 -3158,3816 -355,261 -1529,652 -1769,1087z"/>
    <path class="fil2" d="M41013 20107c-466,-460 -413,-28 -820,-837 -300,-594 -1320,-2730 -1863,-2855 -306,446 -70,575 219,1040l1551 2989c466,-138 572,-41 913,-337z"/>
    <path class="fil2" d="M9102 23878c1126,-570 312,-503 898,-1527l868 -1545c400,-669 1953,-2226 2068,-2675 -548,-329 -920,501 -1229,951 -370,540 -668,906 -993,1415 -569,888 -1413,2216 -1612,3381z"/>
    <path class="fil2" d="M24043 23383c1486,-843 1463,-180 2011,-125 55,-1419 -2598,-502 -2608,330 -8,669 1554,1584 2209,1205 -267,-316 -453,-282 -881,-524 -495,-280 -619,-325 -731,-886z"/>
    <path class="fil2" d="M36626 37110c321,-215 -414,-118 467,-191 166,-14 339,32 484,97 393,176 79,288 683,309 63,-1155 -1621,-920 -2344,-589 -15,847 1231,1729 1664,1311 -207,-554 -329,-358 -737,-682 -201,-160 -76,-59 -217,-255z"/>
    <path class="fil2" d="M9418 25164c613,-222 672,-683 993,-1204 704,-1146 1832,-2423 2403,-3359 96,-157 136,-140 162,-376 71,-668 -23,-232 -116,-390 -454,188 -298,199 -492,701 -557,1439 -2881,3874 -2950,4628z"/>
    <path class="fil2" d="M37740 45402c-303,-367 -1127,-426 -1086,-1068 59,-912 841,70 1187,-664 -775,-746 -1466,4 -1888,535 77,791 920,1539 1787,1197z"/>
    <path class="fil2" d="M20477 41394c-79,-246 293,-217 -504,-277 -566,-42 -1360,36 -2210,-195 -642,-174 -2147,-462 -2885,-456 318,520 389,308 1147,435l3672 630c536,35 585,5 780,-137z"/>
    <path class="fil2" d="M14398 37779c487,309 1835,372 2582,539 539,120 1978,595 2386,398 -420,-403 -4315,-1336 -4968,-937z"/>
    <path class="fil2" d="M50521 34834c725,370 3241,-2303 3301,-2941 -553,42 -587,239 -875,589 -257,311 -437,585 -716,892 -1400,1542 -1361,1051 -1710,1460z"/>
    <path class="fil2" d="M10069 26239c456,-266 399,-488 670,-1008 400,-770 1738,-2538 1786,-3060 -420,124 -2450,3335 -2456,4068z"/>
    <path class="fil2" d="M24122 37645c186,408 243,289 1592,267 1465,-25 1260,-55 1449,-406 -431,-230 -2741,8 -3041,139z"/>
    <path class="fil2" d="M21161 16184c275,-274 242,-414 461,-824l1492 -2305c-667,88 -959,821 -1300,1406 -204,351 -819,1269 -653,1723z"/>
    <path class="fil2" d="M15952 41662c395,273 -342,47 646,158l691 85c379,44 552,103 717,123 891,111 522,-70 560,-99 -329,-476 -2204,-504 -2614,-267z"/>
    <path class="fil2" d="M13854 45729c330,732 674,992 1096,1406 1117,1096 605,979 1309,1277 -279,-491 -227,-524 -528,-850 -235,-254 -347,-359 -601,-605l-1276 -1228z"/>
    <path class="fil2" d="M1883 31580c524,-255 646,-1459 396,-1941 -511,201 -304,253 -348,911 -36,547 -237,699 -48,1030z"/>
    <path class="fil2" d="M2820 30739c-221,219 -633,1651 -233,1736 431,92 300,-484 338,-854 59,-563 259,-545 -105,-882z"/>
    <path class="fil2" d="M47881 35692c421,-20 1594,-824 1753,-1221 -573,65 -1650,867 -1753,1221z"/>
    <path class="fil2" d="M23481 37244c473,225 1276,59 1650,-134 -331,-208 -1418,-370 -1650,134z"/>
    <path class="fil2" d="M3335 33986c281,-540 226,-741 224,-1507 -521,185 -548,1037 -224,1507z"/>
    <path class="fil2" d="M10561 27362c430,-117 213,18 423,-303 361,-552 -113,96 169,-359 294,-472 278,-118 370,-694 -528,483 -813,651 -962,1356z"/>
    <path class="fil2" d="M10617 29718c293,-252 912,-1206 1012,-1692 -447,400 -854,938 -1012,1692z"/>
    <path class="fil2" d="M14889 42197c297,247 671,346 1173,391 -191,-249 -167,-240 -525,-389 -594,-248 -599,-33 -648,-2z"/>
    <path class="fil2" d="M21446 38841c474,203 389,233 624,-125 -288,-388 -434,-361 -624,125z"/>
    <path class="fil2" d="M41433 22276c-113,-178 -2,-286 -318,-300 -347,-15 -214,154 -294,313 578,262 288,143 612,-13z"/>
    <polygon class="fil2" points="41080,23990 41080,23673 40622,23648 40629,24095 "/>
    <path class="fil2" d="M33190 38044c-948,-417 -336,979 0,0z"/>
   </g>
  </g>
  <g id="_103656752">
   <path class="fil3 str2" d="M161482 15602c933,-161 1618,-1516 6745,-1353 2874,92 4373,1726 5754,2417 212,-179 778,-847 964,-1076 741,-910 2093,-2639 2299,-3800 -1524,56 -2945,-100 -4453,-262 -1191,-128 -1050,-11 -2050,97 -1311,141 -5287,-173 -7046,71 -1442,200 -2917,294 -4508,351 133,1083 1094,1659 1678,2695 221,392 397,574 617,860zm10260 -2445c185,-681 1314,-492 2411,-605l2567 -118c18,-31 64,34 94,54 -60,162 232,411 -1099,472 -483,22 -985,17 -1466,11 -578,-8 -2454,209 -2507,186zm1049 535c36,-292 1612,-384 1950,0 -353,182 -1597,187 -1950,0z"/>
   <path class="fil4 str3" d="M173841 17717c-2535,-3747 -10638,-3170 -11716,-1426 -236,382 171,50 -245,428 -471,428 -283,-166 -1002,1016l-969 1725c-418,978 -1588,4337 -1304,5310 143,493 91,-87 189,452 23,128 18,501 19,650 55,6691 -967,2964 947,9384 435,1460 571,2889 1675,3711 1942,1447 8128,1468 10705,-603 1079,-867 1688,-1973 2122,-3253 325,-957 482,-6105 458,-6963 -33,-1138 -359,-3380 152,-4466 134,92 214,255 221,262 89,83 131,134 149,163 6,-24 35,-56 129,-81 598,-1478 -412,-4655 -1530,-6309zm-10975 4964c-99,405 -16,971 -32,1399 -305,-119 -313,-300 -397,-684 -442,-2020 1540,-2192 1562,-1201 -672,11 -958,-227 -1133,486zm-674 11904c407,399 972,664 1185,1197 -581,253 -1388,-845 -1682,-1230 -322,-421 -580,-488 -658,-1153 382,154 520,563 1155,1186zm-926 994c583,569 1820,1512 1925,2261 -582,-115 -214,81 -592,-255 -80,-71 -239,-264 -312,-353l-664 -808c-205,-250 -178,-259 -340,-458 -271,-333 -792,-922 -690,-1227 466,391 -44,139 673,840zm5128 2211c60,-356 838,-264 1105,-108 -175,547 -780,362 -1105,108zm2646 134c392,-216 705,-179 1130,-457 2332,-1523 -534,2029 -1130,457zm369 -12723c-1138,-480 -2135,-378 -2530,-1206 751,39 1341,99 2014,155 359,30 629,71 958,96 1187,90 551,3 662,290 -359,246 -400,137 -1104,124l661 344c843,303 1443,376 1742,871 -487,371 -1138,195 -1911,201 245,316 -103,22 339,348 18,14 246,137 260,144 452,228 1419,461 1717,914 -358,276 -982,117 -1610,114 717,1170 603,-427 887,1142 -758,-203 -208,6 -656,-342 -819,-635 -1120,-524 -1080,-1285l998 -42 -1356 -635c-519,-217 -723,-344 -947,-735 370,-249 866,-156 1438,-170 -170,-166 -37,-91 -286,-240 -38,-23 -156,-71 -196,-88zm1178 -7729c-509,-236 -577,-56 -837,-433 592,-338 1563,329 1799,670 -396,200 -506,-25 -962,-237zm991 -581c-1830,-1146 -1537,-453 -1860,-526 -1,-2 -518,-286 43,-589 505,-273 4008,1486 3246,2540 -559,-405 -648,-936 -1429,-1425zm-12190 9725c589,968 -218,3041 224,3811l-463 -284c-30,-834 -14,-2938 239,-3527zm1887 5331c495,234 1531,1122 1574,1800 -365,-220 -1464,-1304 -1574,-1800zm11099 -227c-18,-31 -672,-1577 -70,-1878 267,388 157,551 201,1126 49,636 230,495 -131,752z"/>
   <path class="fil5 str4" d="M146886 18723c-476,2045 -425,3388 -404,5726 1157,50 2241,198 3451,322 1759,181 1870,-40 2640,-47 421,-4 176,104 783,79 16,-490 11,-1108 61,-1584 47,-447 206,-826 209,-1361 3,-510 -161,-856 -22,-1372 154,-570 317,-592 316,-1319 -4247,181 -4565,-358 -7034,-444zm4894 2323c-1328,-10 -1241,18 -1493,-399 1314,85 1737,-124 2361,141 -343,421 -300,24 -542,480 -234,443 -8,2009 -326,2715l0 -2937zm54 -928c-509,418 -1084,67 -1818,66 -748,-1 -1410,401 -755,-396 714,-50 2216,32 2573,330z"/>
   <path class="fil5 str4" d="M153332 25373c-2108,-46 -5276,-499 -6906,-418 -87,1170 -14,2299 -24,3464 -31,3476 -325,3490 1740,3348 793,-54 618,-49 1376,96 1066,205 1223,515 3038,299 93,-1269 75,-2479 166,-3744 82,-1123 686,-1830 610,-3045z"/>
   <path class="fil5 str4" d="M145794 31507l-132 -6602c-1509,-43 -5642,-291 -6970,76l-130 490c-12,74 -27,269 -36,361 -32,298 -62,466 -79,838 -27,614 13,1251 -26,1866 -61,959 -354,2551 8,3438 1163,481 5376,368 6553,374l-583 -223c-107,-15 -491,12 -641,11 74,-264 101,-244 159,-606l1877 -23zm-4670 -4394c-573,-75 -702,13 -856,-415 197,-215 1509,5 1779,114 -153,385 -449,363 -923,301zm-1719 -978c14,84 -44,-5 0,0zm2785 -342c-641,1201 -2017,-502 -2119,1280 -21,362 -190,3051 -229,3130 -262,-828 9,-2945 38,-3792l-359 -208c-63,-50 -98,-67 -116,-68 -4,-25 -15,-65 -36,-126 293,-277 292,-118 523,-352 133,-135 243,-428 278,-511l342 653c857,97 776,31 1678,-6z"/>
   <path class="fil5 str4" d="M138529 24362l7254 95 340 -5797c-1242,511 -5460,87 -7226,121 -99,1016 -232,1675 -258,2809l-110 2772zm6714 -3693l-547 -283c255,-714 1248,-602 275,2893l272 -2610z"/>
   <path class="fil5 str4" d="M137904 24358l319 -5702c-1588,-142 -4900,-311 -6557,-123 -718,81 -465,279 -419,1042 69,1135 -48,3854 278,4699 643,216 5462,221 6379,84zm-4488 -4600c206,371 169,1081 -139,1376l-81 -748c-71,-479 22,-457 220,-628zm-799 496c74,707 -395,1498 -51,2408 -809,955 -408,-1166 -355,-1881l32 -782c41,-241 33,-160 102,-288 98,101 102,17 190,221 86,201 55,63 82,322z"/>
   <path class="fil5 str4" d="M137847 24902l-6317 28c-37,1110 11,2236 -27,3358 -27,809 -497,2342 105,2993 578,-1850 -169,-2918 469,-3247 408,197 347,342 166,1518 -83,538 -105,1232 -70,1789l5396 598 278 -7037zm-4495 4775c-36,418 -122,730 -337,1004 -82,-175 -150,-425 -49,-745 74,-236 96,-233 386,-259z"/>
   <path class="fil5 str4" d="M200589 18922c52,-9 2,35 0,0zm-2644 -27c-887,1047 -691,4254 -659,6029 843,102 5805,595 5978,-162 56,-243 158,-370 26,-1692 -56,-558 -162,-964 -235,-1605 -139,-1229 -111,-2338 -171,-3625l-5589 -243c40,1885 1396,652 3151,1092l204 91c-49,82 -61,123 -61,142 -24,4 -71,19 -157,61 -321,154 -728,41 -1075,-10 -489,-73 -895,-102 -1412,-78zm1405 2220c-301,31 -569,33 -870,69 -406,48 -330,190 -589,-128 348,-310 1209,-360 1459,59zm489 -856c-173,21 -606,-23 -829,-10 -578,33 -812,321 -1153,-87 506,-280 1629,-182 2379,-189 -137,412 107,226 -397,286z"/>
   <path class="fil5 str4" d="M196623 24970l159 -5989c-543,2 -842,177 -1213,41 148,-387 79,-256 455,-381 299,-99 500,-73 755,-263l-25 -754 -9304 335 0 6868 9173 143zm-7016 -5191l-343 -62c92,-65 94,-561 343,62zm310 -799c-614,-30 -990,171 -993,-384 305,-27 3137,-235 2426,399 -274,244 -1047,3 -1433,-15z"/>
   <path class="fil5 str4" d="M186861 24820l-17 -6868c-1651,-64 -4710,-334 -5987,206l-121 1693c56,5932 -657,5092 2884,5026 1071,-20 2145,22 3241,-57zm-2302 -6032c330,211 613,735 2,535 -30,-10 -1549,-953 -1664,791 -51,780 101,724 281,1193 -1649,-384 -440,-3687 1381,-2519z"/>
   <path class="fil5 str4" d="M186753 25404c-2187,-66 -3914,144 -5991,-6 -247,1959 -297,4620 10,6407l6085 -12 -104 -6389z"/>
   <path class="fil5 str4" d="M187484 25321c-159,2211 71,4368 131,6477 745,50 1505,-27 2247,70 3107,406 2736,484 6505,339 22,-731 -13,-1469 18,-2189 31,-713 429,-1307 360,-3752 -28,-987 -240,-527 -3252,-886l-6009 -59zm1162 2920l693 178c-16,10 49,211 -471,90 -394,-92 -141,-10 -222,-268zm1314 1388c371,145 173,161 510,259 444,129 855,89 1163,271 -399,698 -946,10 -1568,648 1551,125 4548,-224 4142,297 -189,241 -1196,110 -1483,101 -528,-15 -1086,4 -1610,-26 -653,-37 -2400,19 -2767,-350 491,-431 600,-126 1121,-304 577,-198 125,-41 336,-233 -982,-70 -821,98 -1197,-401 808,-413 848,-459 1353,-262z"/>
   <path class="fil5 str4" d="M197267 28969c-149,1053 -274,2171 -137,3329 1065,38 2159,46 3225,45 538,-1 1074,-12 1613,-10 828,3 993,153 1096,-558 296,-2048 533,-3615 398,-5899l-6087 -309c-27,1162 41,2351 -108,3402zm2284 -397c329,616 23,597 0,638 -129,-100 -266,-47 -244,-386 31,-471 4,-151 244,-252zm-601 -339c-127,477 -108,654 -97,1216 -781,-250 -445,-1670 -105,-2026 545,175 344,280 202,810z"/>
   <path class="fil6 str5" d="M176105 23223c-173,326 -542,3434 -157,4058 176,286 3574,220 3760,177 806,-186 465,-2994 411,-3828 -1126,-36 -2240,74 -3164,-164l-646 -168c-25,-7 -85,6 -103,-36 -18,-42 -70,-21 -101,-39z"/>
   <path class="fil6 str5" d="M157971 27205l190 -3723c-823,595 -2882,165 -3993,127l-311 2869c59,667 3330,764 4114,727z"/>
   <path class="fil6 str5" d="M164215 45306c-547,29 -660,-347 -1391,205 -917,694 -887,2721 -574,3862 462,1678 3416,1363 4921,909 1875,-567 2356,-2514 2259,-4332 -846,-587 -1092,-773 -2532,-853 -3417,-191 -1888,166 -2683,209zm2135 2456c-449,-137 -551,-172 -631,-600 386,-491 1807,-148 2031,479 -437,253 -458,-158 -1266,-268l-134 389zm407 -1827c-1936,-148 -1958,500 -2281,641 -1514,-1353 5208,-1548 4150,570 -666,-247 -325,-1093 -1869,-1211zm-1035 2532c234,-467 750,-205 1499,-163 -237,400 -1118,297 -1499,163z"/>
   <g>
    <path class="fil2" d="M169430 45950c97,1818 -384,3765 -2259,4332 -1505,454 -4459,769 -4921,-909 -313,-1141 -343,-3168 574,-3862 731,-552 844,-176 1391,-205 795,-43 -734,-400 2683,-209 1440,80 1686,266 2532,853zm-25672 -13814c150,1 534,-26 641,-11l583 223c-1177,-6 -5390,107 -6553,-374 -362,-887 -69,-2479 -8,-3438 39,-615 -1,-1252 26,-1866 17,-372 47,-540 79,-838 9,-92 24,-287 36,-361l130 -490c1328,-367 5461,-119 6970,-76l132 6602 -1877 23c-58,362 -85,342 -159,606zm37004 -6738c2077,150 3804,-60 5991,6l104 6389 -6085 12c-307,-1787 -257,-4448 -10,-6407zm16368 6900c-137,-1158 -12,-2276 137,-3329 149,-1051 81,-2240 108,-3402l6087 309c135,2284 -102,3851 -398,5899 -103,711 -268,561 -1096,558 -539,-2 -1075,9 -1613,10 -1066,1 -2160,-7 -3225,-45zm-763 -91c-3769,145 -3398,67 -6505,-339 -742,-97 -1502,-20 -2247,-70 -60,-2109 -290,-4266 -131,-6477l6009 59c3012,359 3224,-101 3252,886 69,2445 -329,3039 -360,3752 -31,720 4,1458 -18,2189zm-20262 -8984c31,18 83,-3 101,39 18,42 78,29 103,36l646 168c924,238 2038,128 3164,164 54,834 395,3642 -411,3828 -186,43 -3584,109 -3760,-177 -385,-624 -16,-3732 157,-4058zm-23549 8939c-1815,216 -1972,-94 -3038,-299 -758,-145 -583,-150 -1376,-96 -2065,142 -1771,128 -1740,-3348 10,-1165 -63,-2294 24,-3464 1630,-81 4798,372 6906,418 76,1215 -528,1922 -610,3045 -91,1265 -73,2475 -166,3744zm-14987 -223l-5396 -598c-35,-557 -13,-1251 70,-1789 181,-1176 242,-1321 -166,-1518 -638,329 109,1397 -469,3247 -602,-651 -132,-2184 -105,-2993 38,-1122 -10,-2248 27,-3358l6317 -28 -278 7037zm43288 -13781c1277,-540 4336,-270 5987,-206l17 6868c-1096,79 -2170,37 -3241,57 -3541,66 -2828,906 -2884,-5026l121 -1693zm-22886 9047c-784,37 -4055,-60 -4114,-727l311 -2869c1111,38 3170,468 3993,-127l-190 3723zm17400 -3179c-304,80 71,243 -278,-82 -7,-7 -87,-170 -221,-262 -511,1086 -185,3328 -152,4466 24,858 -133,6006 -458,6963 -434,1280 -1043,2386 -2122,3253 -2577,2071 -8763,2050 -10705,603 -1104,-822 -1240,-2251 -1675,-3711 -1914,-6420 -892,-2693 -947,-9384 -1,-149 4,-522 -19,-650 -98,-539 -46,41 -189,-452 -284,-973 886,-4332 1304,-5310l969 -1725c719,-1182 531,-588 1002,-1016 416,-378 9,-46 245,-428 1078,-1744 9181,-2321 11716,1426 1118,1654 2128,4831 1530,6309zm-29588 431l-7254 -95 110 -2772c26,-1134 159,-1793 258,-2809 1766,-34 5984,390 7226,-121l-340 5797zm7573 346c-607,25 -362,-83 -783,-79 -770,7 -881,228 -2640,47 -1210,-124 -2294,-272 -3451,-322 -21,-2338 -72,-3681 404,-5726 2469,86 2787,625 7034,444 1,727 -162,749 -316,1319 -139,516 25,862 22,1372 -3,535 -162,914 -209,1361 -50,476 -45,1094 -61,1584zm-15133 -6147l-319 5702c-917,137 -5736,132 -6379,-84 -326,-845 -209,-3564 -278,-4699 -46,-763 -299,-961 419,-1042 1657,-188 4969,-19 6557,123zm57346 366c371,136 670,-39 1213,-41l-159 5989 -9173 -143 0 -6868 9304 -335 25 754c-255,190 -456,164 -755,263 -376,125 -307,-6 -455,381zm1726 -1425l5589 243c60,1287 32,2396 171,3625 73,641 179,1047 235,1605 132,1322 30,1449 -26,1692 -173,757 -5135,264 -5978,162 -32,-1775 -228,-4982 659,-6029 517,-24 923,5 1412,78 347,51 754,164 1075,10 363,-175 34,109 218,-203l-204 -91c-1755,-440 -3111,793 -3151,-1092zm-38108 -5550c1591,-57 3066,-151 4508,-351 1759,-244 5735,70 7046,-71 1000,-108 859,-225 2050,-97 1508,162 2929,318 4453,262 -206,1161 -1558,2890 -2299,3800 -186,229 -752,897 -964,1076 -1381,-691 -2880,-2325 -5754,-2417 -5127,-163 -5812,1192 -6745,1353 -220,-286 -396,-468 -617,-860 -584,-1036 -1545,-1612 -1678,-2695zm-872 -504c-42,83 -276,-40 75,599 130,238 223,409 340,614 414,721 2231,2944 2292,3346 88,577 -1391,2617 -1683,3285l-876 2757c-117,385 -158,742 -279,1065 -879,-48 -3337,9 -3909,-227 -320,-283 -138,-315 -49,-1028l232 -2783c3,-352 18,-27 55,-471l-339 -308c-1166,295 -542,359 -2152,274 -2429,-129 -4304,-504 -7092,-509 -1294,-2 -2589,-10 -3883,-7 -506,2 -1428,72 -1877,8 -2165,-309 -7587,-401 -8950,224 202,624 440,401 446,1467 4,673 -24,1340 -35,2012 -40,2438 330,4878 126,7364 -101,1237 -715,2217 383,2930l112 -327c5,-14 22,-54 37,-79l521 651c178,-109 57,7 191,-167l155 -241c12,-18 35,-58 55,-84 1412,5 3055,344 4426,488 783,83 836,1 1197,512 93,-36 390,-63 416,-68l2128 -203c2428,14 5020,-8 7360,148 1434,95 2811,236 4230,99 1263,-122 1295,506 1226,-1524 -24,-683 168,-3769 571,-4304 842,52 651,311 804,515l3240 185c-9,4003 -242,9317 3393,11831 1605,1110 2340,589 4199,1015l-158 3731c-388,66 -588,134 -990,217 -306,64 -881,66 -1181,162 -436,139 -1104,835 -1340,1111 -213,1863 -733,3890 749,4802 358,220 1964,509 2526,522 972,21 1854,-276 2667,-535 724,-231 1195,-905 1653,-1412 461,-509 590,-1727 621,-2574 36,-978 -452,-1389 -1285,-1767 -654,-297 -1822,-574 -2627,-584 15,-1089 270,-1625 275,-2602 1,-132 -16,-431 -3,-543 45,-367 -50,115 48,-238 276,-993 4668,765 7652,-3739 709,-1071 1130,-2690 1171,-4316 52,-2066 651,-2874 693,-4946 916,-99 546,288 1857,217 352,-19 721,-69 1067,-10 323,54 638,145 1149,132 16,5334 -651,4161 3139,4174 940,3 2485,-177 3208,-111 285,26 1156,299 1224,291 267,-29 346,-245 1459,-211 1229,37 1968,252 3077,296 1491,60 3032,36 4452,402l4654 141c1089,-24 1925,368 2755,-241 -163,-810 -373,-883 -148,-2086 225,-1199 373,-2604 352,-3939 -14,-948 -145,-805 217,-1472 -505,-1020 -371,-518 -406,-1879 -20,-817 -164,-1317 -272,-2120l-202 -3255c-37,-691 558,-945 -556,-895 -20,-28 -54,-105 -62,-83l-206 -308c-1480,0 -1881,315 -3748,143 -643,-60 -2641,-584 -3223,-187l-258 317 -7766 133c-1923,-312 -5326,214 -7303,30l-213 314c-177,558 -45,4360 -34,5312l-4115 -49c-185,-4077 -1320,-4260 -1572,-5640 1046,-1444 2403,-2804 3188,-4554 941,-2098 929,-1484 -1007,-1802 -2679,-439 -4593,-131 -7284,-159 -1440,-15 -2338,233 -3612,250 -1092,14 -6877,257 -7368,501z"/>
    <path class="fil2" d="M169891 25529c-572,14 -1068,-79 -1438,170 224,391 428,518 947,735l1356 635 -998 42c-40,761 261,650 1080,1285 448,348 -102,139 656,342 -284,-1569 -170,28 -887,-1142 628,3 1252,162 1610,-114 -298,-453 -1265,-686 -1717,-914 -14,-7 -242,-130 -260,-144 -442,-326 -94,-32 -339,-348 773,-6 1424,170 1911,-201 -299,-495 -899,-568 -1742,-871l-661 -344c704,13 745,122 1104,-124 -111,-287 525,-200 -662,-290 -329,-25 -599,-66 -958,-96 -673,-56 -1263,-116 -2014,-155 395,828 1392,726 2530,1206 40,17 158,65 196,88 249,149 116,74 286,240z"/>
    <path class="fil2" d="M190470 29888c-337,-98 -139,-114 -510,-259 -505,-197 -545,-151 -1353,262 376,499 215,331 1197,401 -211,192 241,35 -336,233 -521,178 -630,-127 -1121,304 367,369 2114,313 2767,350 524,30 1082,11 1610,26 287,9 1294,140 1483,-101 406,-521 -2591,-172 -4142,-297 622,-638 1169,50 1568,-648 -308,-182 -719,-142 -1163,-271z"/>
    <path class="fil2" d="M139369 26009c122,355 -113,-15 152,194l359 208c-29,847 -300,2964 -38,3792 39,-79 208,-2768 229,-3130 102,-1782 1478,-79 2119,-1280 -902,37 -821,103 -1678,6l-342 -653c-35,83 -145,376 -278,511 -231,234 -230,75 -523,352z"/>
    <path class="fil2" d="M164476 46576c323,-141 345,-789 2281,-641 1544,118 1203,964 1869,1211 1058,-2118 -5664,-1923 -4150,-570z"/>
    <path class="fil2" d="M171742 13157c53,23 1929,-194 2507,-186 481,6 983,11 1466,-11 1331,-61 1039,-310 1099,-472 -30,-20 -76,-85 -94,-54l-2567 118c-1097,113 -2226,-76 -2411,605z"/>
    <path class="fil2" d="M169718 16365c323,73 30,-620 1860,526 781,489 870,1020 1429,1425 762,-1054 -2741,-2813 -3246,-2540 -561,303 -44,587 -43,589z"/>
    <path class="fil2" d="M183178 21307c-180,-469 -332,-413 -281,-1193 115,-1744 1634,-801 1664,-791 611,200 328,-324 -2,-535 -1821,-1168 -3030,2135 -1381,2519z"/>
    <path class="fil2" d="M162834 24080c16,-428 -67,-994 32,-1399 175,-713 461,-475 1133,-486 -22,-991 -2004,-819 -1562,1201 84,384 92,565 397,684z"/>
    <path class="fil2" d="M150287 20647c252,417 165,389 1493,399l0 2937c318,-706 92,-2272 326,-2715 242,-456 199,-59 542,-480 -624,-265 -1047,-56 -2361,-141z"/>
    <path class="fil2" d="M163191 37840c-105,-749 -1342,-1692 -1925,-2261 -717,-701 -207,-449 -673,-840 -102,305 419,894 690,1227 162,199 135,208 340,458 228,276 412,502 664,808 73,89 232,282 312,353 378,336 10,140 592,255z"/>
    <path class="fil2" d="M159149 30143l463 284c-442,-770 365,-2843 -224,-3811 -253,589 -269,2693 -239,3527z"/>
    <path class="fil2" d="M163377 35782c-213,-533 -778,-798 -1185,-1197 -635,-623 -773,-1032 -1155,-1186 78,665 336,732 658,1153 294,385 1101,1483 1682,1230z"/>
    <path class="fil2" d="M132566 22662c-344,-910 125,-1701 51,-2408 -27,-259 4,-121 -82,-322 -88,-204 -92,-120 -190,-221 -69,128 -61,47 -102,288l-32 782c-53,715 -454,2836 355,1881z"/>
    <path class="fil2" d="M188924 18596c3,555 379,354 993,384 386,18 1159,259 1433,15 711,-634 -2121,-426 -2426,-399z"/>
    <path class="fil2" d="M151834 20118c-357,-298 -1859,-380 -2573,-330 -655,797 7,395 755,396 734,1 1309,352 1818,-66z"/>
    <path class="fil2" d="M169040 37924c596,1572 3462,-1980 1130,-457 -425,278 -738,241 -1130,457z"/>
    <path class="fil2" d="M165719 47162c80,428 182,463 631,600l134 -389c808,110 829,521 1266,268 -224,-627 -1645,-970 -2031,-479z"/>
    <path class="fil2" d="M198853 29449c-11,-562 -30,-739 97,-1216 142,-530 343,-635 -202,-810 -340,356 -676,1776 105,2026z"/>
    <path class="fil2" d="M140268 26698c154,428 283,340 856,415 474,62 770,84 923,-301 -270,-109 -1582,-329 -1779,-114z"/>
    <path class="fil2" d="M200236 19973c-750,7 -1873,-91 -2379,189 341,408 575,120 1153,87 223,-13 656,31 829,10 504,-60 260,126 397,-286z"/>
    <path class="fil2" d="M162849 33747c-43,-678 -1079,-1566 -1574,-1800 110,496 1209,1580 1574,1800z"/>
    <path class="fil2" d="M169750 17039c260,377 328,197 837,433 456,212 566,437 962,237 -236,-341 -1207,-1008 -1799,-670z"/>
    <path class="fil2" d="M172374 31720c361,-257 180,-116 131,-752 -44,-575 66,-738 -201,-1126 -602,301 52,1847 70,1878z"/>
    <path class="fil2" d="M144971 23279c973,-3495 -20,-3607 -275,-2893l547 283 -272 2610z"/>
    <path class="fil2" d="M172791 13692c353,187 1597,182 1950,0 -338,-384 -1914,-292 -1950,0z"/>
    <path class="fil2" d="M165722 48467c381,134 1262,237 1499,-163 -749,-42 -1265,-304 -1499,163z"/>
    <path class="fil2" d="M199350 21115c-250,-419 -1111,-369 -1459,-59 259,318 183,176 589,128 301,-36 569,-38 870,-69z"/>
    <path class="fil2" d="M166394 37790c325,254 930,439 1105,-108 -267,-156 -1045,-248 -1105,108z"/>
    <path class="fil2" d="M133196 20386l81 748c308,-295 345,-1005 139,-1376 -198,171 -291,149 -220,628z"/>
    <path class="fil2" d="M133015 30681c215,-274 301,-586 337,-1004 -290,26 -312,23 -386,259 -101,320 -33,570 49,745z"/>
    <path class="fil2" d="M199551 29210c23,-41 329,-22 0,-638 -240,101 -213,-219 -244,252 -22,339 115,286 244,386z"/>
    <path class="fil2" d="M188646 28241c81,258 -172,176 222,268 520,121 455,-80 471,-90l-693 -178z"/>
    <path class="fil2" d="M189264 19717l343 62c-249,-623 -251,-127 -343,-62z"/>
   </g>
  </g>
  <g id="_512129704">
   <path class="fil7 str6" d="M110805 45544c126,1518 -21,7759 99,8392 141,744 299,156 142,835 -113,485 -165,331 -176,1041 -15,993 -82,2673 214,3426l738 124c198,7 470,-4 676,-5l4284 161c1949,3 3739,-154 5647,-204 -86,-1615 -1001,-4669 -1504,-6138 -929,-2715 -976,-2783 -2449,-5064l-2260 -3366c-321,-444 -482,-655 -816,-1063 -885,-1078 -2765,-2720 -4838,-2790 -49,1810 112,3072 243,4651zm2569 10698c86,-547 -27,-366 321,-549 178,460 41,860 -70,1416 -100,507 -25,1020 -458,1199 -210,-331 89,-1317 207,-2066zm-933 -964c-58,1314 354,3464 -701,3831l-287 -1948 317 80 99 44c23,9 69,36 107,48 67,-1671 74,-5108 790,-6162 304,450 -296,3450 -325,4107zm7243 -979c-394,-190 -459,-572 -601,-1032 -166,-536 -404,-775 -374,-1269 927,-26 1136,1899 975,2301zm-5446 3725c-447,-312 -159,-544 232,-692 3,539 55,425 -232,692zm5643 -2993c605,86 645,467 622,1146 -142,-189 -189,-338 -333,-530 -381,-508 -271,71 -289,-616z"/>
   <path class="fil7 str6" d="M76820 50999c16,-3142 -3,-6273 -17,-9415 -1385,308 -3427,2056 -4386,3071 -1605,1698 -3574,4162 -4444,6556 -514,1416 -1373,4382 -1229,5864l-319 2380c-9,195 -14,163 18,357 49,293 21,162 125,320 131,117 8017,647 9934,2l318 -9135zm-2956 -6232c-651,432 -979,737 -1440,1370l-688 785 -55 79 -288 380c-80,91 -148,147 -249,272 185,577 449,252 144,549 -159,155 -540,137 -704,144 232,-1158 2079,-2816 3158,-3838 206,-195 420,-320 732,-609 578,-536 921,-1158 1404,-869 -317,521 170,179 -440,622l-1263 891 -77 56 -234 168zm1382 2381c-6,662 -446,1207 -886,1408 32,-436 140,-566 329,-836 229,-329 215,-430 557,-572zm-395 -1330c0,540 -1032,1768 -1555,1828 55,-538 374,-707 676,-1037 350,-382 412,-703 879,-791zm-162 13026c-557,-101 -624,-988 8,-1114l-8 1114zm591 116c-76,-143 143,-3589 268,-3806 490,132 435,229 370,923 -68,730 -208,2498 -638,2883z"/>
   <path class="fil3 str2" d="M90885 28700c431,363 1735,663 2362,717 2318,201 3148,-739 3523,-806 633,-115 56,496 1016,-67 652,-382 1142,-1045 1529,-1715 997,-1727 1151,-2804 573,-5100 -794,-3155 -1903,-3998 -4614,-4793 -688,-202 -2398,-127 -2747,18 -1339,558 -2392,1949 -3194,3120 -1022,1491 -1478,2642 -1235,5088 134,1344 831,2236 1833,2894 450,295 540,295 954,644zm728 -3652c239,385 129,1264 -268,1570 -153,-372 36,-1236 268,-1570zm-727 256c-10,628 122,871 -560,877 -38,-446 -57,-1523 104,-1948 228,-599 22,-270 380,-417 74,131 77,44 111,288l-35 1200zm3361 -7587c71,785 -94,513 -803,827 -806,358 -2046,1837 -1987,3034 2042,23 1633,-1266 2432,-1571 576,1300 -3235,3684 -2930,1013 72,-628 901,-1690 1239,-2102 407,-495 1194,-1155 2049,-1201z"/>
   <path class="fil8 str7" d="M91715 7823c1786,246 4130,409 6057,388l196 -257c573,-508 1906,3 3988,-822 -293,-834 -2522,-3308 -3193,-3856 -1275,-1041 -2162,-2345 -4230,-2743 -1940,-373 -3668,1648 -4527,2404 -1153,1015 -528,303 -1805,1676 -494,532 -1398,1145 -1585,1939 26,25 70,21 85,67 15,45 66,51 86,63l829 400c2046,1072 741,278 4099,741zm1257 -2344c-172,344 -136,528 -336,767l-424 241c4,-461 -99,-290 284,-658 253,-243 212,-196 476,-350zm-2717 -820c-580,614 -222,1122 -1138,1178 64,-1207 3362,-3614 4381,-4224 843,-504 801,-149 803,-148 -224,650 -634,447 -1420,996l-2626 2198zm9664 1738c-334,-215 -438,-213 -9,-471 202,317 203,96 9,471zm-762 289c-297,310 -202,358 -518,0 84,-449 385,-183 518,0zm-6697 -2740c-1234,790 -820,1566 -1607,1635 69,-548 1033,-2112 1607,-1635z"/>
   <path class="fil8 str7" d="M98808 45448l-11747 -122c-650,6 -1376,-117 -1856,-87l-5804 125c-72,1104 353,2155 366,2351 -1030,-147 -378,-1984 -1085,-2400 -31,-18 -1219,-494 -1297,449l14 8866c921,-1 2419,-191 3236,-102 512,56 464,195 803,267l8459 -105c191,-16 2700,170 4126,112 2905,-120 5709,258 8574,97 1035,-58 3001,-363 3870,-348 604,10 1217,104 2014,43 600,-47 1250,-188 1876,-251 78,-1329 199,-8522 -92,-9252 -183,-210 -1063,-83 -1917,-105 -3414,-90 -2655,58 -5756,234 -1114,63 -2724,107 -3784,228zm3745 7814l306 -353c375,296 272,354 298,478l-604 -125zm-2459 -3927c120,-353 647,-532 982,-693 -163,295 -678,584 -982,693zm-5591 4809c541,-309 5701,-1584 6033,-359 -445,226 -2264,-64 -3105,61 -552,82 -2465,368 -2928,298zm-8174 -4617c436,-214 530,-111 663,218 -225,137 -329,223 -668,50l5 -268zm15782 -1339c177,-395 1809,-1080 2397,-984 -419,186 -2001,1147 -2397,984zm4367 -668c886,82 1518,-1227 2276,-1540l196 200c-146,434 -425,593 -820,840l-2810 2064c48,-454 272,-528 578,-801 840,-753 506,-374 580,-763zm-2330 1388c22,-297 882,-870 1351,-1296 307,-279 438,-399 809,-659 451,-317 369,-369 633,-104 -462,498 -363,152 -463,671 -449,-8 -428,1 -775,301 -352,306 -1157,1097 -1555,1087zm3402 4305c-1261,70 -2823,795 -2906,-415 583,98 506,288 1245,190l2816 -420c640,-133 630,-368 963,38 -107,298 152,184 -376,392l-1742 215zm-18757 -5694c-121,404 -183,437 -1061,665 -1109,288 -897,385 -1208,4 453,-501 502,-72 1121,-351 235,-106 107,-81 242,-213 -1010,-452 -2046,-24 -2247,-865 759,-82 3980,-486 4347,-311l-14 267c-265,150 -1722,223 -2139,240 448,401 485,182 959,564z"/>
   <path class="fil5 str4" d="M100209 16435c-973,-1282 -1512,-1099 -2925,-1902 -996,-565 -2512,-1089 -3667,-1049 -4120,142 -11169,7996 -8198,13978 1024,2063 1081,1611 2137,2563 1234,1112 1594,1339 3140,1705 3157,748 -824,367 3748,917 761,92 2795,-314 3455,-789l311 -311 -1236 185c1500,-907 3230,-1071 4205,-2767 433,-752 518,-447 918,-1501 1162,-3053 640,-5055 -280,-7940 -361,-1130 -980,-2262 -1608,-3089zm-5380 -339c1107,-17 3198,1240 3582,1597 732,679 993,969 1451,2012 1311,2978 1366,5550 -396,8096 -574,829 -2232,1713 -3327,1874 -1027,150 -593,131 -1319,414 -2208,863 -3638,-520 -5035,-1373 -1507,-920 -2309,-2136 -2313,-4625 -3,-1541 18,-1796 561,-2922 548,-1134 1351,-2152 2175,-3035 362,-389 159,-201 389,-559 431,-668 1930,-1281 2763,-1528 475,-141 709,60 1469,49z"/>
   <path class="fil6 str5" d="M109165 28638c-339,-4177 -950,-9997 -2804,-13799 -1011,-2072 -299,-855 -697,-1978l-2024 -3607c-426,-550 -753,-1106 -1177,-1616 -1222,307 -2642,607 -3822,976 -1897,592 -3790,-38 -4215,-60 -846,-43 -1428,-110 -2277,-134 -952,-26 -1538,-255 -2271,-272 -1011,-24 -1304,107 -2091,-326 -574,-316 -1057,-747 -1850,-789 -684,1520 -725,1898 -1696,3127l-2381 4985c-230,485 -133,454 -253,993l-2555 8678c-1032,4253 -1419,8785 -1518,13331l-186 6709 1462 -135c-12,-1450 -835,-6190 -183,-7178 751,248 165,1021 368,3284 116,1286 216,2604 291,3883 474,-25 1011,-181 1496,-223 1165,-99 2578,42 3476,-27 672,-52 544,-254 1461,-239 1114,17 2157,-127 3351,-150 1155,-22 2320,55 3480,47l10443 1c1233,26 2016,-195 3281,-147l200 509c1232,10 2751,134 3693,-222 -24,-1024 -186,-1642 -178,-2630l-129 -8166c-125,-1741 -549,-3021 -695,-4825zm-5266 13692c525,-935 1781,-983 2607,-1456l582 219c-89,624 -605,580 -1169,886 -546,296 -537,537 -1065,185l166 -121 180 -92 989 -575c-1656,388 -1304,789 -2290,954zm1628 369c115,-81 57,-68 269,-149 1836,-704 2015,-1428 2281,-1195 13,11 525,28 -243,558l-1436 703c-1281,517 -496,269 -871,83zm-1108 -29684c153,397 479,995 314,1396 -310,-347 -1406,-2100 -1061,-2600 562,132 514,599 747,1204zm-1996 -3835l-442 -438c185,-262 636,-115 818,-3 -120,366 -70,175 -376,441zm972 15580c-546,3804 -1285,4486 -3558,6350 -1300,1065 -3401,2229 -5400,2042l-4323 -618c-1128,-469 -3541,-2242 -4366,-3249 -1583,-1932 -2137,-5112 -1174,-7694 1426,-3818 1884,-3573 3957,-5938 1240,-1416 2871,-2260 4742,-2726 1402,-350 2037,260 2922,444 432,90 659,54 1010,196l3059 2007c1772,1769 3488,6698 3131,9186zm-19445 -10436c-190,720 -259,1735 -984,1814 -36,-1218 1776,-4943 2476,-6264 183,-347 810,-1865 1221,-1463 179,176 -670,1574 -851,1857l-1862 4056zm21051 12463c686,412 -120,1483 -624,2315 -817,1352 -911,612 -855,2760 505,-240 1033,-931 1403,-1432 1048,-1420 475,-1539 1214,-1458 -40,1063 -2047,2845 -2579,3553l15 2009 -366 369 -192 -1633c-548,215 -438,279 -714,418l-309 107c73,-425 -154,-65 293,-502 821,-803 786,-540 687,-1832 -376,128 -243,95 -526,385 -104,106 -174,164 -268,268l-372 559 -100 167 -227 328c-237,214 -276,128 -428,99 -22,-4 -65,-33 -97,-49 -186,-706 270,-412 487,-526 252,-132 1078,-1434 1237,-1690 431,-687 -49,-542 120,-1213 1002,-44 323,614 1348,-1074 177,-291 318,-533 445,-894 211,-601 -26,-756 408,-1034zm-2583 -15995c-71,211 -213,131 -229,137 -19,-21 -48,-56 -52,-69 -181,-601 -7,-302 186,-403 205,292 277,-205 95,335zm-13988 26284c555,-321 298,-40 365,0l-145 90c-276,-24 -95,-4 -220,-90zm12232 -3580c74,771 61,2438 -347,3045 -239,-403 -117,-1395 -114,-1875 4,-544 -255,-1342 47,-1663 425,25 366,-18 414,493zm-12070 559c-251,558 764,596 716,1592 -1544,-642 -1970,-2727 432,-2144 497,121 327,116 403,360 -562,323 -718,-214 -1328,9 -79,29 -133,41 -170,44 -9,34 -26,80 -53,139zm13506 8242l572 -64c-32,312 97,388 -225,429 -417,54 -220,-155 -347,-365zm-2013 938c147,-515 447,-563 589,0 -329,182 -262,180 -589,0zm969 -33469c-325,224 -364,255 -682,93 106,-410 477,-673 682,-93zm-18890 32354c223,270 225,18 56,1114l-112 406c-306,-153 -273,368 -195,-1209 195,-165 205,-177 251,-311zm4411 -29770c-365,920 -39,690 -451,883 -325,-453 432,-1885 536,-1970 207,379 120,573 -85,1087zm-6248 27990c108,275 245,3092 174,3243 -565,-159 -468,-852 -468,-1552 1,-593 -157,-1421 294,-1691z"/>
   <path class="fil6 str5" d="M110276 55115c-4094,-82 -7899,596 -11969,539 -1170,-17 -1939,-169 -2941,-240 -1031,-73 -2074,21 -3086,-61 -2758,-222 -11751,-76 -14981,-76 -24,1547 -358,1808 -278,4834 2956,-5 5686,173 8569,23 2677,-139 5482,-411 8269,-67 2272,281 6083,132 8599,85l8034 -711c60,-946 -177,-1250 -213,-2019 -34,-732 23,-1550 -3,-2307zm-1538 2444c-277,223 -1117,431 -1543,268 249,-352 1127,-744 1543,-268zm-30468 1632c454,-236 783,-169 1015,-25l-259 138c-33,11 -287,79 -328,83 -485,44 -238,56 -428,-196zm15948 -1430c-377,333 -286,195 -514,6 362,-259 260,-500 783,-538 -30,255 -99,382 -269,532zm-15979 982c51,63 -139,-14 0,0zm-143 -113c547,-316 2339,-219 2668,0 -222,175 327,96 -508,131l-1503 17c-41,0 -351,-7 -377,-13 -64,-13 -108,-20 -137,-22 -17,-21 -58,-56 -143,-113zm2178 -2113c-451,-135 -1536,-223 -2096,-74 -27,507 207,420 846,422 788,2 845,123 1250,-348zm-416 792c1014,35 5569,35 5966,250 -279,451 -3288,128 -3843,102l-3690 -32c-309,-165 -79,-157 -214,-337 396,-250 650,-22 1781,17zm27413 1455c-546,-14 -610,-32 -933,-267l1744 -210c767,-74 1239,-421 1715,-185 -133,420 -259,440 -1465,608 -330,45 -729,63 -1061,54z"/>
   <g>
    <path class="fil2" d="M77021 60111c-80,-3026 254,-3287 278,-4834 3230,0 12223,-146 14981,76 1012,82 2055,-12 3086,61 1002,71 1771,223 2941,240 4070,57 7875,-621 11969,-539 26,757 -31,1575 3,2307 36,769 273,1073 213,2019l-8034 711c-2516,47 -6327,196 -8599,-85 -2787,-344 -5592,-72 -8269,67 -2883,150 -5613,-28 -8569,-23zm-519 23c-1917,645 -9803,115 -9934,-2 -104,-158 -76,-27 -125,-320 -32,-194 -27,-162 -18,-357l319 -2380c-144,-1482 715,-4448 1229,-5864 870,-2394 2839,-4858 4444,-6556 959,-1015 3001,-2763 4386,-3071 14,3142 33,6273 17,9415l-318 9135zm2899 -14770l5804 -125c480,-30 1206,93 1856,87l11747 122c1060,-121 2670,-165 3784,-228 3101,-176 2342,-324 5756,-234 854,22 1734,-105 1917,105 291,730 170,7923 92,9252 -626,63 -1276,204 -1876,251 -797,61 -1410,-33 -2014,-43 -869,-15 -2835,290 -3870,348 -2865,161 -5669,-217 -8574,-97 -1426,58 -3935,-128 -4126,-112l-8459 105c-339,-72 -291,-211 -803,-267 -817,-89 -2315,101 -3236,102l-14 -8866c78,-943 1266,-467 1297,-449 707,416 55,2253 1085,2400 -13,-196 -438,-1247 -366,-2351zm31161 -4471c2073,70 3953,1712 4838,2790 334,408 495,619 816,1063l2260 3366c1473,2281 1520,2349 2449,5064 503,1469 1418,4523 1504,6138 -1908,50 -3698,207 -5647,204l-4284 -161c-206,1 -478,12 -676,5l-738 -124c-296,-753 -229,-2433 -214,-3426 11,-710 63,-556 176,-1041 157,-679 -1,-91 -142,-835 -120,-633 27,-6874 -99,-8392 -131,-1579 -292,-2841 -243,-4651zm-33028 -2746c99,-4546 486,-9078 1518,-13331l2555 -8678c120,-539 23,-508 253,-993l2381 -4985c971,-1229 1012,-1607 1696,-3127 793,42 1276,473 1850,789 787,433 1080,302 2091,326 733,17 1319,246 2271,272 849,24 1431,91 2277,134 425,22 2318,652 4215,60 1180,-369 2600,-669 3822,-976 424,510 751,1066 1177,1616l2024 3607c398,1123 -314,-94 697,1978 1854,3802 2465,9622 2804,13799 146,1804 570,3084 695,4825l129 8166c-8,988 154,1606 178,2630 -942,356 -2461,232 -3693,222l-200 -509c-1265,-48 -2048,173 -3281,147l-10443 -1c-1160,8 -2325,-69 -3480,-47 -1194,23 -2237,167 -3351,150 -917,-15 -789,187 -1461,239 -898,69 -2311,-72 -3476,27 -485,42 -1022,198 -1496,223 -75,-1279 -175,-2597 -291,-3883 -203,-2263 383,-3036 -368,-3284 -652,988 171,5728 183,7178l-1462 135 186 -6709zm9082 -31595c187,-794 1091,-1407 1585,-1939 1277,-1373 652,-661 1805,-1676 859,-756 2587,-2777 4527,-2404 2068,398 2955,1702 4230,2743 671,548 2900,3022 3193,3856 -2082,825 -3415,314 -3988,822l-196 257c-1927,21 -4271,-142 -6057,-388 -3358,-463 -2053,331 -4099,-741l-829 -400c-20,-12 -71,-18 -86,-63 -15,-46 -59,-42 -85,-67zm9928 -6110c-1118,294 -1602,-676 -3170,-388 -1189,218 -3322,2275 -4518,3208 -423,330 -562,664 -899,970 -605,548 -22,-398 -964,912 -296,413 -529,587 -897,1106 -284,398 -594,704 -834,1041 -1391,1956 -1776,3325 -2689,5069 -451,861 -745,1739 -1179,2574 -2336,4485 -1418,4568 -1799,5693 -646,1909 -1020,4051 -1531,6084 -126,500 -111,1214 -236,1785 -671,3080 -689,9053 -947,12458 -827,251 -655,-179 -1391,350 -2252,1620 -5233,4643 -6597,7048 -460,811 -1044,1723 -1409,2594 -409,975 -593,1974 -905,2973 -448,1441 -724,3509 -771,5113l40 1450c123,492 333,266 577,254 277,-14 543,5 823,2 3013,-27 7510,440 10124,78 1812,-251 4037,8 5828,179 933,90 413,-189 1308,-262l2962 7c518,39 870,35 1153,339 495,-351 950,-341 1785,-353 711,-11 1556,-50 2249,47l10820 -91c1720,-272 9058,-832 10265,-603 657,124 1523,28 2237,43 614,13 1622,-108 1948,-83 664,51 4199,863 4409,-143 10,-50 45,-58 69,-86 1273,3 843,-93 605,-1517 -418,-2500 -404,-1602 -1039,-3517 -149,-449 -266,-1063 -391,-1492 -153,-523 -269,-914 -418,-1433 -315,-1087 -2081,-3932 -2633,-4745 -525,-773 -929,-1415 -1462,-2157 -1165,-1621 -1959,-2625 -3680,-3672l203 -145c380,-231 194,89 272,-139 12,-35 54,-20 79,-34 -374,-810 -747,86 -2545,-632l-695 -116c-13,-33 -34,-75 -41,-101 -6,-26 -28,-71 -35,-105l-46 -650c-26,-1920 -183,-7251 -530,-8699 -370,-1538 -400,-4776 -602,-6248 -73,-532 -171,-821 -206,-1527 -50,-977 -207,-660 -418,-1137 -128,-289 -412,-2254 -558,-2797 -465,-1743 -1164,-3525 -1729,-5106 -1186,-3316 -505,-1441 -1629,-3454 -210,-377 -332,-698 -549,-1059 -414,-690 -973,-1336 -1338,-2010 -331,-610 9,-78 -449,-480 -187,-166 -176,-229 -338,-472l-2294 -2650c-916,-991 -1290,-932 -1639,-1715 -403,-901 -673,-152 -1756,-1559z"/>
    <path class="fil2" d="M97899 31858c-660,475 -2694,881 -3455,789 -4572,-550 -591,-169 -3748,-917 -1546,-366 -1906,-593 -3140,-1705 -1056,-952 -1113,-500 -2137,-2563 -2971,-5982 4078,-13836 8198,-13978 1155,-40 2671,484 3667,1049 1413,803 1952,620 2925,1902 628,827 1247,1959 1608,3089 920,2885 1442,4887 280,7940 -400,1054 -485,749 -918,1501 -975,1696 -2705,1860 -4205,2767l1236 -185 -311 311zm5496 -7098c357,-2488 -1359,-7417 -3131,-9186l-3059 -2007c-351,-142 -578,-106 -1010,-196 -885,-184 -1520,-794 -2922,-444 -1871,466 -3502,1310 -4742,2726 -2073,2365 -2531,2120 -3957,5938 -963,2582 -409,5762 1174,7694 825,1007 3238,2780 4366,3249l4323 618c1999,187 4100,-977 5400,-2042 2273,-1864 3012,-2546 3558,-6350z"/>
    <path class="fil2" d="M92527 16954c349,-145 2059,-220 2747,-18 2711,795 3820,1638 4614,4793 578,2296 424,3373 -573,5100 -387,670 -877,1333 -1529,1715 -960,563 -383,-48 -1016,67 -375,67 -1205,1007 -3523,806 -627,-54 -1931,-354 -2362,-717 -414,-349 -504,-349 -954,-644 -1002,-658 -1699,-1550 -1833,-2894 -243,-2446 213,-3597 1235,-5088 802,-1171 1855,-2562 3194,-3120zm833 -907c-833,247 -2332,860 -2763,1528 -230,358 -27,170 -389,559 -824,883 -1627,1901 -2175,3035 -543,1126 -564,1381 -561,2922 4,2489 806,3705 2313,4625 1397,853 2827,2236 5035,1373 726,-283 292,-264 1319,-414 1095,-161 2753,-1045 3327,-1874 1762,-2546 1707,-5118 396,-8096 -458,-1043 -719,-1333 -1451,-2012 -384,-357 -2475,-1614 -3582,-1597 -760,11 -994,-190 -1469,-49z"/>
    <path class="fil2" d="M100956 33218c32,16 75,45 97,49 152,29 191,115 428,-99l227 -328c21,-34 79,-133 100,-167l372 -559c94,-104 164,-162 268,-268 283,-290 150,-257 526,-385 99,1292 134,1029 -687,1832 -447,437 -220,77 -293,502 6,-2 306,-105 309,-107 276,-139 166,-203 714,-418l192 1633 366 -369 -15 -2009c532,-708 2539,-2490 2579,-3553 -739,-81 -166,38 -1214,1458 -370,501 -898,1192 -1403,1432 -56,-2148 38,-1408 855,-2760 504,-832 1310,-1903 624,-2315 -434,278 -197,433 -408,1034 -127,361 -268,603 -445,894 -1025,1688 -346,1030 -1348,1074 -169,671 311,526 -120,1213 -159,256 -985,1558 -1237,1690 -217,114 -673,-180 -487,526z"/>
    <path class="fil2" d="M82966 16138c725,-79 794,-1094 984,-1814l1862 -4056c181,-283 1030,-1681 851,-1857 -411,-402 -1038,1116 -1221,1463 -700,1321 -2512,5046 -2476,6264z"/>
    <path class="fil2" d="M93889 20007c-799,305 -390,1594 -2432,1571 -59,-1197 1181,-2676 1987,-3034 709,-314 874,-42 803,-827 -855,46 -1642,706 -2049,1201 -338,412 -1167,1474 -1239,2102 -305,2671 3506,287 2930,-1013z"/>
    <path class="fil2" d="M111740 59109c1055,-367 643,-2517 701,-3831 29,-657 629,-3657 325,-4107 -716,1054 -723,4491 -790,6162 -38,-12 -84,-39 -107,-48 -21,-9 -76,-34 -99,-44l-317 -80 287 1948z"/>
    <path class="fil2" d="M85640 46759c201,841 1237,413 2247,865 -135,132 -7,107 -242,213 -619,279 -668,-150 -1121,351 311,381 99,284 1208,-4 878,-228 940,-261 1061,-665 -474,-382 -511,-163 -959,-564 417,-17 1874,-90 2139,-240l14 -267c-367,-175 -3588,229 -4347,311z"/>
    <path class="fil2" d="M89117 5837c916,-56 558,-564 1138,-1178l2626 -2198c786,-549 1196,-346 1420,-996 -2,-1 40,-356 -803,148 -1019,610 -4317,3017 -4381,4224z"/>
    <path class="fil2" d="M106478 47520c100,-519 1,-173 463,-671 -264,-265 -182,-213 -633,104 -371,260 -502,380 -809,659 -469,426 -1329,999 -1351,1296 398,10 1203,-781 1555,-1087 347,-300 326,-309 775,-301 -74,389 260,10 -580,763 -306,273 -530,347 -578,801l2810 -2064c395,-247 674,-406 820,-840l-196 -200c-758,313 -1390,1622 -2276,1540z"/>
    <path class="fil2" d="M79858 57309c-1131,-39 -1385,-267 -1781,-17 135,180 -95,172 214,337l3690 32c555,26 3564,349 3843,-102 -397,-215 -4952,-215 -5966,-250z"/>
    <path class="fil2" d="M94503 54144c463,70 2376,-216 2928,-298 841,-125 2660,165 3105,-61 -332,-1225 -5492,50 -6033,359z"/>
    <path class="fil2" d="M104644 52798c83,1210 1645,485 2906,415l1742 -215c528,-208 269,-94 376,-392 -333,-406 -323,-171 -963,-38l-2816 420c-739,98 -662,-92 -1245,-190z"/>
    <path class="fil2" d="M70584 48346c164,-7 545,11 704,-144 305,-297 41,28 -144,-549 101,-125 169,-181 249,-272l288 -380c17,-23 38,-56 55,-79l688 -785c461,-633 789,-938 1440,-1370l234 -168c23,-16 54,-40 77,-56l1263 -891c610,-443 123,-101 440,-622 -483,-289 -826,333 -1404,869 -312,289 -526,414 -732,609 -1079,1022 -2926,2680 -3158,3838z"/>
    <path class="fil2" d="M103899 42330c986,-165 634,-566 2290,-954l-989 575c-35,17 -155,79 -180,92l-166 121c528,352 519,111 1065,-185 564,-306 1080,-262 1169,-886l-582 -219c-826,473 -2082,521 -2607,1456z"/>
    <path class="fil2" d="M89308 35647c48,-996 -967,-1034 -716,-1592 230,-508 -293,6 223,-183 610,-223 766,314 1328,-9 -76,-244 94,-239 -403,-360 -2402,-583 -1976,1502 -432,2144z"/>
    <path class="fil2" d="M100315 36541c408,-607 421,-2274 347,-3045 -48,-511 11,-468 -414,-493 -302,321 -43,1119 -47,1663 -3,480 -125,1472 114,1875z"/>
    <path class="fil2" d="M75280 58960c430,-385 570,-2153 638,-2883 65,-694 120,-791 -370,-923 -125,217 -344,3663 -268,3806z"/>
    <path class="fil2" d="M106338 58497c323,235 387,253 933,267 332,9 731,-9 1061,-54 1206,-168 1332,-188 1465,-608 -476,-236 -948,111 -1715,185l-1744 210z"/>
    <path class="fil2" d="M80327 40340c-451,270 -293,1098 -294,1691 0,700 -97,1393 468,1552 71,-151 -66,-2968 -174,-3243z"/>
    <path class="fil2" d="M90326 26181c682,-6 550,-249 560,-877l35 -1200c-34,-244 -37,-157 -111,-288 -358,147 -152,-182 -380,417 -161,425 -142,1502 -104,1948z"/>
    <path class="fil2" d="M119684 54299c161,-402 -48,-2327 -975,-2301 -30,494 208,733 374,1269 142,460 207,842 601,1032z"/>
    <path class="fil2" d="M104419 13015c-233,-605 -185,-1072 -747,-1204 -345,500 751,2253 1061,2600 165,-401 -161,-999 -314,-1396z"/>
    <path class="fil2" d="M113167 58308c433,-179 358,-692 458,-1199 111,-556 248,-956 70,-1416 -348,183 -235,2 -321,549 -118,749 -417,1735 -207,2066z"/>
    <path class="fil2" d="M105527 42699c375,186 -410,434 871,-83l1436 -703c768,-530 256,-547 243,-558 -266,-233 -445,491 -2281,1195 -212,81 -154,68 -269,149z"/>
    <path class="fil2" d="M80274 56517c-451,-135 -1536,-223 -2096,-74 -27,507 207,420 846,422 788,2 845,123 1250,-348z"/>
    <path class="fil2" d="M73296 47646c523,-60 1555,-1288 1555,-1828 -467,88 -529,409 -879,791 -302,330 -621,499 -676,1037z"/>
    <path class="fil2" d="M78096 58630c406,272 -185,40 280,135 26,6 336,13 377,13l1503 -17c835,-35 286,44 508,-131 -329,-219 -2121,-316 -2668,0z"/>
    <path class="fil2" d="M90853 5581c787,-69 373,-845 1607,-1635 -574,-477 -1538,1087 -1607,1635z"/>
    <path class="fil2" d="M86124 13233c412,-193 86,37 451,-883 205,-514 292,-708 85,-1087 -104,85 -861,1517 -536,1970z"/>
    <path class="fil2" d="M102111 48188c396,163 1978,-798 2397,-984 -588,-96 -2220,589 -2397,984z"/>
    <path class="fil2" d="M107195 57827c426,163 1266,-45 1543,-268 -416,-476 -1294,-84 -1543,268z"/>
    <path class="fil2" d="M82220 43234c169,-1096 167,-844 -56,-1114 -46,134 -56,146 -251,311 -78,1577 -111,1056 195,1209l112 -406z"/>
    <path class="fil2" d="M74360 48556c440,-201 880,-746 886,-1408 -342,142 -328,243 -557,572 -189,270 -297,400 -329,836z"/>
    <path class="fil2" d="M91345 26618c397,-306 507,-1185 268,-1570 -232,334 -421,1198 -268,1570z"/>
    <path class="fil2" d="M74689 58844l8 -1114c-632,126 -565,1013 -8,1114z"/>
    <path class="fil2" d="M120503 56177c23,-679 -17,-1060 -622,-1146 18,687 -92,108 289,616 144,192 191,341 333,530z"/>
    <path class="fil2" d="M92212 6487l424 -241c200,-239 164,-423 336,-767 -264,154 -223,107 -476,350 -383,368 -280,197 -284,658z"/>
    <path class="fil2" d="M101981 8742l442 438c306,-266 256,-75 376,-441 -182,-112 -633,-259 -818,3z"/>
    <path class="fil2" d="M93704 57767c228,189 137,327 514,-6 170,-150 239,-277 269,-532 -523,38 -421,279 -783,538z"/>
    <path class="fil2" d="M79285 59166c-232,-144 -561,-211 -1015,25 190,252 -57,240 428,196 41,-4 295,-72 328,-83l259 -138z"/>
    <path class="fil2" d="M100372 9859c318,162 357,131 682,-93 -205,-580 -576,-317 -682,93z"/>
    <path class="fil2" d="M86329 49527l-5 268c339,173 443,87 668,-50 -133,-329 -227,-432 -663,-218z"/>
    <path class="fil2" d="M100674 43235c-142,-563 -442,-515 -589,0 327,180 260,182 589,0z"/>
    <path class="fil2" d="M114470 57332c-391,148 -679,380 -232,692 287,-267 235,-153 232,-692z"/>
    <path class="fil2" d="M102670 42233l-572 64c127,210 -70,419 347,365 322,-41 193,-117 225,-429z"/>
    <path class="fil2" d="M98639 6686c316,358 221,310 518,0 -133,-183 -434,-449 -518,0z"/>
    <path class="fil2" d="M100094 49335c304,-109 819,-398 982,-693 -335,161 -862,340 -982,693z"/>
    <path class="fil2" d="M102553 53262l604 125c-26,-124 77,-182 -298,-478l-306 353z"/>
    <path class="fil2" d="M102189 10929c16,-6 158,74 229,-137 182,-540 110,-43 -95,-335 -193,101 -367,-198 -186,403 4,13 33,48 52,69z"/>
    <path class="fil2" d="M99919 6397c194,-375 193,-154 -9,-471 -429,258 -325,256 9,471z"/>
    <path class="fil2" d="M88430 37076c125,86 -56,66 220,90l145 -90c-67,-40 190,-321 -365,0z"/>
   </g>
  </g>
  <g id="_512140144">
   <path class="fil4 str3" d="M169481 88468c-619,605 -1336,1031 -2438,1154 -1188,133 -1722,-517 -2379,-993 -619,-449 -1544,-976 -1424,-2135 151,-1469 2226,-2785 4011,-3037 1646,-233 1797,62 2850,558 927,435 1303,1206 817,2462 -256,660 -966,1531 -1437,1991zm7634 -9224c-1931,-375 -5698,14 -7392,760 -1838,810 -4027,1664 -5542,2899 -1386,1131 -1687,788 -3097,2535 -1272,1577 -695,181 -2483,3129 -1159,1910 -2849,6337 -2749,8642 1047,662 941,766 1671,984 1763,526 4784,1250 6617,1411 773,68 1529,308 2279,374 2463,217 5301,610 7630,424 2948,-236 7430,37 10007,-685 1157,-325 4100,-442 4792,-590 1277,-273 3468,-526 4484,-988 116,-1367 260,-2169 115,-3617 -3861,65 -4181,-2943 -3289,-4669 351,-678 1048,-871 1698,-1368 -190,-1015 -1300,-2141 -2085,-3258 -649,-923 -1872,-1724 -2895,-2476 -1497,-1099 -5089,-2799 -7119,-1815 -335,162 -390,373 -691,52 470,-619 1647,-618 2693,-609 -951,-996 -3636,-939 -4644,-1135zm-2011 15131c-1184,3317 -5229,1294 -4565,-858 856,-2775 5489,-1731 4565,858zm7307 617l1074 -485c-267,288 -600,489 -1074,485zm-9441 -13576c-88,397 67,136 -261,200 -62,-87 -350,-250 134,-474 138,208 202,-62 127,274zm1644 -696c119,-185 -28,-234 266,-223 570,21 137,-28 229,223 -68,77 263,349 -495,0zm-955 404c-311,27 -271,-89 -430,-270 444,-202 559,-55 663,0 -77,238 270,226 -233,270zm10518 1634c-280,257 -1580,319 -2043,104 47,-98 48,-230 214,-230 599,0 1381,-48 1829,126zm-340 9213c-517,333 -1212,872 -1724,530 242,-244 1432,-623 2085,-1220 321,-293 256,-362 560,-613l325 155c-233,459 -737,821 -1246,1148zm-5065 -2817c-161,-931 1514,-3688 3895,-2053 377,260 831,932 1028,1492 1033,2945 -4390,3632 -4923,561zm-18259 1908c125,369 -376,980 -582,1532 -178,478 -394,1497 -610,1861 -428,-362 -12,-1251 208,-1753 205,-468 594,-1447 984,-1640zm-740 -1019c-7,524 -265,545 -518,921l-946 2295c-127,639 350,836 -437,939 -34,-653 1046,-4170 1901,-4155zm22997 -7973c-628,67 -1245,345 -1573,-11 398,-331 1135,-232 1820,-247 1561,-34 1389,-241 1700,86 -513,249 -1254,98 -1947,172zm593 11428c41,-444 702,-873 1195,-928 -26,380 -259,384 -506,558 -313,219 -291,355 -689,370zm-22596 333c-209,755 -2,640 -375,799 -281,-472 200,-1353 636,-1565 -82,328 -166,422 -261,766z"/>
   <path class="fil4 str3" d="M169365 100891l-9909 -1486c-3080,-221 -2030,-669 -3482,-1088 -427,582 -469,3617 -463,4225 20,2271 1083,5084 2305,6721 995,1332 3460,3021 5031,3954 1097,652 446,43 1647,623l3439 986c583,212 1272,247 1888,405 2163,554 3608,649 5911,152 695,-150 1477,-36 2204,-95 1301,-105 2306,-603 3530,-899 2482,-601 4307,-1721 5922,-3057 1868,-1547 3008,-2267 3932,-5042 381,-1143 709,-2307 1169,-3398 690,-1639 624,-1895 761,-3505 -570,38 -2207,200 -2633,307 -1556,387 -1653,132 -2111,711 -1115,-74 -1134,-45 -2083,155 -982,207 -3605,-23 -4469,123 -745,126 -858,344 -1878,366l-4289 249c-2523,-227 -3879,-162 -6422,-407zm-10567 -241c-219,617 -688,901 -1089,1344 88,465 -25,151 236,548 -748,1033 -69,1180 -163,2346 -619,-117 -556,-694 -478,-1314 96,-755 -316,-815 -49,-1792 -520,97 -910,384 -1351,163 40,-203 1639,-2121 2155,-2168 -49,795 -809,733 -1076,1594 637,-205 1178,-643 1815,-721zm17577 5122c-313,-301 -553,-616 -238,-1140 220,-367 537,-634 1093,-578 1033,105 962,523 1022,820 -756,-175 -486,-386 -1278,-450l-494 528c79,1031 658,860 1194,1337 -523,-20 -812,-49 -1299,-517zm12880 -640c-287,-440 96,-854 267,-1462 157,-554 129,-1151 457,-1485 330,241 181,320 36,954 -103,452 -195,719 -165,1148 125,-86 131,-49 285,-265 537,-752 632,-2110 811,-2506 1163,94 -417,2247 -861,3704 -145,473 -209,808 -688,850 -13,-358 127,-520 283,-905 430,-1061 107,-794 -14,-950 -106,295 -341,708 -411,917zm1749 -4684c-203,1144 -5002,2423 -6098,1977 942,-305 2475,-263 3475,-660 2163,-858 2010,-1328 2623,-1317zm-27848 5397c2,-1436 2210,1308 -448,2894 -1695,1011 -3392,-1279 -3480,-1927 -198,-1465 1722,-3050 3228,-2194 -130,482 189,535 -429,236 -52,1095 -435,289 -1306,548 -591,177 -749,771 -769,1492 301,275 454,483 937,650 -13,43 -69,220 -65,250 78,580 1242,661 1789,325 970,-595 542,-1280 543,-2274zm5808 4328c2002,-3128 6170,-2826 5682,770 -131,961 -1531,1601 -2161,1946 -473,259 -434,207 -900,6 -888,-383 -2021,-699 -2336,-1671 -134,-411 -252,-653 -285,-1051zm13176 2142c17,-329 197,-338 534,-321l4 365 -538 -44zm-2128 -4745c-405,-1737 1174,-2429 2274,-2845 694,-263 1234,117 1920,389 1896,751 1689,1871 618,3123 -353,413 -785,1021 -1410,1133 -931,166 -1530,-240 -2187,-496 -722,-281 -1035,-534 -1215,-1304zm-1828 6084c150,-85 -205,-223 261,-196 409,24 48,-59 128,196 -23,17 -234,245 -301,56 -12,-35 -58,-38 -88,-56zm1891 -295c-336,88 -2,59 -237,-107 44,-357 397,-167 458,-134 -130,256 222,124 -221,241zm1036 -320c-296,74 -111,-14 -201,-55 124,-145 -116,-550 484,-134 -234,221 288,45 -283,189z"/>
   <path class="fil9 str8" d="M182741 105454c-4083,1664 -708,3467 275,3431 969,-36 1943,-1306 1942,-1929 -2,-890 -1237,-1902 -2217,-1502zm390 1391c-156,315 -664,632 -1009,755 151,-303 625,-695 1009,-755zm-182 872c219,-278 419,-331 549,-690 239,-663 -203,-616 457,-713 363,717 -366,1366 -1006,1403z"/>
   <path class="fil9 str8" d="M174079 111155c37,-3647 -3424,-2715 -4110,-1159 -295,670 31,1058 320,1519 318,507 593,548 1243,659 1608,275 1608,-252 2547,-1019z"/>
   <path class="fil9 str8" d="M192121 89134c-561,217 -2072,1442 -1541,2882 274,744 2433,1865 2761,1956 -3,-545 -240,-2060 -364,-2583 -83,-352 -200,-855 -305,-1173 -137,-418 -259,-769 -551,-1082zm-296 2916c-501,-239 -640,-1134 229,-1131l-229 1131z"/>
   <path class="fil9 str8" d="M183177 89288c348,-685 -563,-1850 -1364,-1902 -858,-55 -2027,781 -2228,1290 -535,1357 2226,3293 3592,612z"/>
   <path class="fil9 str8" d="M172285 95491c3125,1138 3127,-3967 17,-2899 -1441,495 -1446,2378 -17,2899zm551 -2114l-663 945c-373,-315 95,-961 663,-945z"/>
   <path class="fil9 str8" d="M165965 88944c1667,936 4669,-1055 4615,-3806 -2765,-2706 -7590,281 -6483,1915l304 507c159,445 -265,148 690,782 296,198 565,428 874,602zm1248 -2475c-792,756 -282,328 -662,1047 -370,-210 -234,39 -274,-633 -2087,-188 32,-1971 489,-1745 -295,499 -860,651 -897,1081 -56,650 -29,52 87,324 1105,392 544,-543 1733,-671l-476 597z"/>
   <g>
    <path class="fil2" d="M155974 98317c1452,419 402,867 3482,1088l9909 1486c2543,245 3899,180 6422,407l4289 -249c1020,-22 1133,-240 1878,-366 864,-146 3487,84 4469,-123 949,-200 968,-229 2083,-155 458,-579 555,-324 2111,-711 426,-107 2063,-269 2633,-307 -137,1610 -71,1866 -761,3505 -460,1091 -788,2255 -1169,3398 -924,2775 -2064,3495 -3932,5042 -1615,1336 -3440,2456 -5922,3057 -1224,296 -2229,794 -3530,899 -727,59 -1509,-55 -2204,95 -2303,497 -3748,402 -5911,-152 -616,-158 -1305,-193 -1888,-405l-3439 -986c-1201,-580 -550,29 -1647,-623 -1571,-933 -4036,-2622 -5031,-3954 -1222,-1637 -2285,-4450 -2305,-6721 -6,-608 36,-3643 463,-4225zm38209 -3477c-108,-851 -217,-1700 -262,-2544 2562,240 2429,3918 362,5268 -92,-891 16,-1807 -100,-2724zm-842 -868c-328,-91 -2487,-1212 -2761,-1956 -531,-1440 980,-2665 1541,-2882 292,313 414,664 551,1082 105,318 222,821 305,1173 124,523 361,2038 364,2583zm-38603 2307c-472,-633 -771,-766 -1066,-1760 -662,-2229 1101,-4546 3540,-4764 -124,463 -635,1801 -847,2201 -331,-499 78,-301 -352,-512 -3,583 -762,4196 -1275,4835zm1114 930c-100,-2305 1590,-6732 2749,-8642 1788,-2948 1211,-1552 2483,-3129 1410,-1747 1711,-1404 3097,-2535 1515,-1235 3704,-2089 5542,-2899 1694,-746 5461,-1135 7392,-760 1008,196 3693,139 4644,1135 -1046,-9 -2223,-10 -2693,609 301,321 356,110 691,-52 2030,-984 5622,716 7119,1815 1023,752 2246,1553 2895,2476 785,1117 1895,2243 2085,3258 -650,497 -1347,690 -1698,1368 -892,1726 -572,4734 3289,4669 145,1448 1,2250 -115,3617 -1016,462 -3207,715 -4484,988 -692,148 -3635,265 -4792,590 -2577,722 -7059,449 -10007,685 -2329,186 -5167,-207 -7630,-424 -750,-66 -1506,-306 -2279,-374 -1833,-161 -4854,-885 -6617,-1411 -730,-218 -624,-322 -1671,-984zm19479 -19363c-1814,-62 -4685,1112 -6368,1946 -638,316 -1234,617 -1886,921 -1041,486 -4419,2463 -5235,3199 -510,460 -847,946 -1369,1440 -1415,1338 -1593,1856 -2461,3157 -327,491 -364,286 -1009,484 -2332,717 -4837,2450 -4144,5419 246,1053 339,1250 926,1882 421,454 807,1046 1288,1385 203,3664 -732,5238 571,8683 1177,3111 1757,3746 3996,5491 462,360 1032,602 1467,947 1817,1444 2223,1695 4763,2324 1337,331 2938,964 3751,870 1515,-175 2422,233 4161,344 3877,250 4768,506 8071,-913 2512,-1079 6765,-3779 8429,-5885 1500,-1899 1482,-2352 2409,-4679 1178,-2954 1197,-2103 1315,-5669 598,-208 1580,-1010 1897,-1435 867,-1164 884,-2634 542,-4118 -172,-745 -909,-1588 -1493,-1826 -1321,-540 -1004,346 -1469,-1198 -82,-270 -155,-472 -225,-683 -169,-512 -326,-974 -530,-1401 -202,-423 -377,-966 -652,-1347 -1468,-2043 -2729,-3399 -4718,-4901 -1936,-1461 -2796,-1699 -5162,-2596 -1272,-483 -1461,-637 -3043,-848 -2437,-325 -543,-295 -3365,-376l-457 -617z"/>
    <path class="fil2" d="M170580 85138c54,2751 -2948,4742 -4615,3806 -309,-174 -578,-404 -874,-602 -955,-634 -531,-337 -690,-782l-304 -507c-1107,-1634 3718,-4621 6483,-1915zm338 1339c486,-1256 110,-2027 -817,-2462 -1053,-496 -1204,-791 -2850,-558 -1785,252 -3860,1568 -4011,3037 -120,1159 805,1686 1424,2135 657,476 1191,1126 2379,993 1102,-123 1819,-549 2438,-1154 471,-460 1181,-1331 1437,-1991z"/>
    <path class="fil2" d="M182741 105454c980,-400 2215,612 2217,1502 1,623 -973,1893 -1942,1929 -983,36 -4358,-1767 -275,-3431zm-455 -729c-1100,416 -2679,1108 -2274,2845 180,770 493,1023 1215,1304 657,256 1256,662 2187,496 625,-112 1057,-720 1410,-1133 1071,-1252 1278,-2372 -618,-3123 -686,-272 -1226,-652 -1920,-389z"/>
    <path class="fil2" d="M174079 111155c-939,767 -939,1294 -2547,1019 -650,-111 -925,-152 -1243,-659 -289,-461 -615,-849 -320,-1519 686,-1556 4147,-2488 4110,1159zm-5115 -982c33,398 151,640 285,1051 315,972 1448,1288 2336,1671 466,201 427,253 900,-6 630,-345 2030,-985 2161,-1946 488,-3596 -3680,-3898 -5682,-770z"/>
    <path class="fil2" d="M183177 89288c-1366,2681 -4127,745 -3592,-612 201,-509 1370,-1345 2228,-1290 801,52 1712,1217 1364,1902zm-4405 -134c533,3071 5956,2384 4923,-561 -197,-560 -651,-1232 -1028,-1492 -2381,-1635 -4056,1122 -3895,2053z"/>
    <path class="fil2" d="M160889 107544c-483,-167 -636,-375 -937,-650 20,-721 178,-1315 769,-1492 871,-259 1254,547 1306,-548 618,299 299,246 429,-236 -1506,-856 -3426,729 -3228,2194 88,648 1785,2938 3480,1927 2658,-1586 450,-4330 448,-2894 -1,994 427,1679 -543,2274 -547,336 -1711,255 -1789,-325 -4,-30 52,-207 65,-250z"/>
    <path class="fil2" d="M172302 92592c3110,-1068 3108,4037 -17,2899 -1429,-521 -1424,-2404 17,-2899zm2802 1783c924,-2589 -3709,-3633 -4565,-858 -664,2152 3381,4175 4565,858z"/>
    <path class="fil2" d="M155904 101945c441,221 831,-66 1351,-163 -267,977 145,1037 49,1792 -78,620 -141,1197 478,1314 94,-1166 -585,-1313 163,-2346 -261,-397 -148,-83 -236,-548 401,-443 870,-727 1089,-1344 -637,78 -1178,516 -1815,721 267,-861 1027,-799 1076,-1594 -516,47 -2115,1965 -2155,2168z"/>
    <path class="fil2" d="M189850 104287c-30,-429 62,-696 165,-1148 145,-634 294,-713 -36,-954 -328,334 -300,931 -457,1485 -171,608 -554,1022 -267,1462 70,-209 305,-622 411,-917 121,156 444,-111 14,950 -156,385 -296,547 -283,905 479,-42 543,-377 688,-850 444,-1457 2024,-3610 861,-3704 -179,396 -274,1754 -811,2506 -154,216 -160,179 -285,265z"/>
    <path class="fil2" d="M184906 102425c1096,446 5895,-833 6098,-1977 -613,-11 -460,459 -2623,1317 -1000,397 -2533,355 -3475,660z"/>
    <path class="fil2" d="M177674 106289c-536,-477 -1115,-306 -1194,-1337l494 -528c792,64 522,275 1278,450 -60,-297 11,-715 -1022,-820 -556,-56 -873,211 -1093,578 -315,524 -75,839 238,1140 487,468 776,497 1299,517z"/>
    <path class="fil2" d="M165956 86543c-116,-272 -143,326 -87,-324 37,-430 602,-582 897,-1081 -457,-226 -2576,1557 -489,1745 40,672 -96,423 274,633 380,-719 -130,-291 662,-1047l476 -597c-1189,128 -628,1063 -1733,671z"/>
    <path class="fil2" d="M157872 94198c787,-103 310,-300 437,-939l946 -2295c253,-376 511,-397 518,-921 -855,-15 -1935,3502 -1901,4155z"/>
    <path class="fil2" d="M182113 92501c512,342 1207,-197 1724,-530 509,-327 1013,-689 1246,-1148l-325 -155c-304,251 -239,320 -560,613 -653,597 -1843,976 -2085,1220z"/>
    <path class="fil2" d="M159321 94455c216,-364 432,-1383 610,-1861 206,-552 707,-1163 582,-1532 -390,193 -779,1172 -984,1640 -220,502 -636,1391 -208,1753z"/>
    <path class="fil2" d="M181197 82059c328,356 945,78 1573,11 693,-74 1434,77 1947,-172 -311,-327 -139,-120 -1700,-86 -685,15 -1422,-84 -1820,247z"/>
    <path class="fil2" d="M182949 107717c640,-37 1369,-686 1006,-1403 -660,97 -218,50 -457,713 -130,359 -330,412 -549,690z"/>
    <path class="fil2" d="M182134 82862c463,215 1763,153 2043,-104 -448,-174 -1230,-126 -1829,-126 -166,0 -167,132 -214,230z"/>
    <path class="fil2" d="M160392 94630c373,-159 166,-44 375,-799 95,-344 179,-438 261,-766 -436,212 -917,1093 -636,1565z"/>
    <path class="fil2" d="M191825 92050l229 -1131c-869,-3 -730,892 -229,1131z"/>
    <path class="fil2" d="M183363 93498c398,-15 376,-151 689,-370 247,-174 480,-178 506,-558 -493,55 -1154,484 -1195,928z"/>
    <path class="fil2" d="M172173 94322l663 -945c-568,-16 -1036,630 -663,945z"/>
    <path class="fil2" d="M182122 107600c345,-123 853,-440 1009,-755 -384,60 -858,452 -1009,755z"/>
    <path class="fil2" d="M173229 80854c159,181 119,297 430,270 503,-44 156,-32 233,-270 -104,-55 -219,-202 -663,0z"/>
    <path class="fil2" d="M182140 112315l538 44 -4 -365c-337,-17 -517,-8 -534,321z"/>
    <path class="fil2" d="M174880 80497c-294,-11 -147,38 -266,223 758,349 427,77 495,0 -92,-251 341,-202 -229,-223z"/>
    <path class="fil2" d="M172970 81416c75,-336 11,-66 -127,-274 -484,224 -196,387 -134,474 328,-64 173,197 261,-200z"/>
    <path class="fil2" d="M180910 112984c90,41 -95,129 201,55 571,-144 49,32 283,-189 -600,-416 -360,-11 -484,134z"/>
    <path class="fil2" d="M179838 113252c235,166 -99,195 237,107 443,-117 91,15 221,-241 -61,-33 -414,-223 -458,134z"/>
    <path class="fil2" d="M182411 94992c474,4 807,-197 1074,-485l-1074 485z"/>
    <path class="fil2" d="M178184 113654c30,18 76,21 88,56 67,189 278,-39 301,-56 -80,-255 281,-172 -128,-196 -466,-27 -111,111 -261,196z"/>
   </g>
  </g>
  <g id="_512014360">
   <path class="fil0 str0" d="M86729 108940c-328,5445 8809,5688 12881,2717 692,-505 1247,-855 1725,-1492 314,-418 969,-1638 754,-2200 -1809,-567 -5946,215 -7833,308 -2562,126 -4945,476 -7527,667zm3031 2235c-91,693 -85,375 -322,466 -217,-419 -161,-555 25,-878 280,93 344,55 297,412zm7388 -90c-410,591 -441,190 -478,166 -59,-241 670,-1465 1509,-1377l-400 483 -66 68 -467 478c-23,34 -75,149 -98,182zm358 674c101,-514 833,-1069 1163,-1450 374,-431 766,-1448 1179,-928 -135,516 -676,1045 -1015,1362 -406,380 -654,996 -1327,1016z"/>
   <path class="fil7 str6" d="M75655 108978l404 -153c-114,113 -13,139 -404,153zm32916 -5947c-2647,-203 -5258,85 -7888,159 -690,20 -1325,-13 -2010,-24 -955,-15 -915,259 -1731,287 -1403,48 -2564,-200 -4028,-104 -1215,80 -2336,272 -3746,278 -2218,9 -7522,470 -9361,801 -642,115 -821,425 -1735,392 373,-582 784,-303 1668,-572 676,-206 363,-160 546,-438l-4900 189c-690,92 -1355,200 -2149,235 -307,13 -823,82 -1074,167 -587,198 -409,228 -410,933 -362,-107 -174,35 -417,-323l-170 -270 -69 -91c-1725,313 -2365,1268 -2323,2920 581,446 424,589 1297,988 606,277 1083,739 1490,897 812,314 3143,-393 4094,-477 -544,537 -1112,251 -1814,991l11436 -1516c897,-189 1907,-207 2960,-269 933,-56 1952,-205 2835,-325 2016,-275 4112,-115 6104,-478 1769,-323 4352,27 6185,30 2088,3 4225,-312 6294,-157 2045,152 8392,588 10356,-637 224,-140 327,-161 350,-464 39,-509 -41,-343 -401,-509 27,-19 75,-73 86,-50 7,16 188,-56 314,-360 -3223,-1655 -5462,-2177 -9236,-2032 -873,34 -2677,615 -3354,154l801 -325zm-17877 2467c-157,216 -12,289 -373,134 92,-74 -143,-380 373,-134zm-3388 9l-668 669c-25,15 -55,38 -82,50l-209 68c-39,9 -95,9 -129,15l-299 5c159,-661 565,-890 681,-1319l-805 625 -83 49c-130,83 -116,63 -239,148 -477,327 -462,579 -1205,570 155,-502 708,-725 1070,-1107 351,-371 531,-717 1021,-1245 140,220 74,388 287,664 797,-815 839,-612 1118,-606 -191,595 -751,1205 -1245,1512 198,92 60,251 860,-425 410,-347 741,-977 1351,-970 -90,676 -392,564 -556,1382l1118 -224c-361,436 -895,530 -1721,469l229 -707 -435 300c-19,21 -40,55 -59,77zm-12996 521l-1308 832c-25,20 16,469 -140,111 -10,-22 -49,33 -74,48 66,-706 334,-500 887,-945 331,-266 452,-555 970,-637 51,401 7,340 -252,536 -23,18 -59,38 -83,55zm29595 -667c-520,108 -2160,142 -2517,4 213,-96 2403,-416 2907,-134l-390 130zm-2457 -1449c-642,-81 -1748,136 -2198,-154 341,-207 3859,-205 4196,0 -320,424 -1340,238 -1998,154zm12535 2340c144,-322 537,-490 636,-918 170,-732 -431,-579 -817,-773 174,-993 2514,646 181,1691zm-41062 -138l-595 36c271,-496 973,-1024 1498,-972 -101,356 -35,235 -219,417l-595 477c-27,13 -61,32 -89,42z"/>
   <path class="fil3 str2" d="M97285 83706c-3018,-743 -5526,-676 -8614,127 -3040,791 -3380,322 -7256,2797 -735,470 -1216,877 -1842,1370 -1123,883 -1620,1212 -2500,2466l-2111 2981c-416,811 -701,1457 -1154,2184 -1210,1943 -1812,5827 -1792,8277 953,-1 1573,-82 2407,-275 812,-187 1853,-121 2698,-107 1601,28 3593,-247 5100,-384 1773,-161 3698,110 5407,-99l10646 -446c1792,-20 3709,97 5493,-34l2539 -122c937,5 1873,-9 2812,-2l5502 144c-17,-799 -577,-4866 -859,-5727 -1578,-4833 -1507,-5533 -4994,-8815 -595,-561 -3608,-2286 -4506,-2516 124,655 359,700 536,1342 -367,-154 -268,-180 -490,-512 -1086,-1626 -2938,-2450 -5012,-2593 327,618 65,131 570,602 335,313 1466,1375 1575,1680 -1003,-137 -1394,-1658 -4155,-2338zm-11781 4194c-442,284 -306,479 -873,582 142,-413 1196,-1539 1801,-1191 -306,385 -501,334 -928,609zm-1946 216c-170,283 18,114 -279,244 -41,-70 -224,118 -69,-461 3,-10 216,-428 234,-454 164,-257 340,-402 565,-630 399,-406 899,-839 1439,-1092 431,-203 3008,-1462 3395,-774 351,622 -927,216 -1869,537 -1945,662 -2535,1166 -3416,2630zm15423 5027c-1353,-734 -1015,-2501 284,-2708 582,-92 579,198 582,203 -251,463 142,124 -486,286 -563,146 -656,196 -720,680 -150,1136 1205,1254 1495,1318 361,79 74,-22 304,151 -521,198 -882,382 -1459,70zm11341 2843c-40,-69 -217,186 -67,-325 55,-189 144,-141 195,-177 216,443 275,289 -128,502zm-10174 -552c-84,-129 -238,-687 261,-557 390,101 109,-13 104,156 -9,374 -364,401 -365,401zm364 2119c-527,132 -20,53 -248,-87 158,-78 -155,-404 479,-73 -53,46 -159,142 -231,160zm-364 2423c-424,-183 -236,-342 0,-629 76,135 123,-229 110,373 -10,474 -3,79 -110,256zm-19383 209c807,-195 1544,-504 1962,-42 -104,68 -2336,431 -2631,268l345 -154c251,-74 86,-15 324,-72zm-1845 1510c100,-761 555,-162 2354,-325 910,-83 1908,-281 2813,-378 1008,-109 2027,-116 2969,-217 930,-101 2619,-257 2300,481l-2462 22c-909,19 -1881,-11 -2745,112 -1220,174 -4029,507 -5229,305zm30752 -3494c-4,-18 32,7 0,0zm774 615c-883,245 -1098,951 -878,-656 58,26 89,37 104,41 2,11 20,38 80,101 19,20 60,288 112,155 10,-24 36,60 57,88 445,-268 1276,-1122 1821,-1159 -85,453 -260,645 -483,999l-265 560c607,-176 356,-348 990,-325 -236,1120 -512,686 -727,1523 268,-150 457,-294 756,-587 569,-555 985,-542 433,18l-2082 1938c-597,330 -277,43 -456,-30 380,-784 738,-985 1079,-1753 -482,140 -371,249 -823,659l-692 341c-42,-847 722,-1180 974,-1913z"/>
   <path class="fil4 str3" d="M76222 112976c4961,2968 8640,-886 8930,-2553 87,-503 165,-1351 -360,-1398l-1688 300c-561,91 -1146,45 -1752,142 -2216,352 -4505,980 -6666,1092 209,1416 515,1806 1536,2417zm5359 -168c151,-376 794,-530 1121,-1463 213,-605 -160,-386 443,-482 459,800 -832,1880 -1564,1945zm-1319 132c60,-496 334,-812 849,-873 -111,210 -215,359 -353,560 -293,427 -41,305 -496,313zm-4545 -1481c542,-39 917,860 1053,1327 -426,-189 -1131,-794 -1053,-1327z"/>
   <path class="fil4 str3" d="M103645 107922c-569,4888 5107,5213 6367,4508 758,-425 -56,-55 436,-511 65,-61 2102,-850 2655,-2747 321,-1100 -412,-672 -2785,-749 -598,-19 -999,-164 -1501,-213l-5172 -288zm5144 3256c125,-348 897,-1115 1443,-777 -314,88 -980,755 -1443,777zm1137 211c145,-317 653,-621 925,-952 808,-984 153,-920 814,-1175 328,792 -1011,2476 -1739,2127z"/>
   <g>
    <path class="fil2" d="M74686 110559c2161,-112 4450,-740 6666,-1092 606,-97 1191,-51 1752,-142l1688 -300c525,47 447,895 360,1398 -290,1667 -3969,5521 -8930,2553 -1021,-611 -1327,-1001 -1536,-2417zm34131 -2349c502,49 903,194 1501,213 2373,77 3106,-351 2785,749 -553,1897 -2590,2686 -2655,2747 -492,456 322,86 -436,511 -1260,705 -6936,380 -6367,-4508l5172 288zm-22088 730c2582,-191 4965,-541 7527,-667 1887,-93 6024,-875 7833,-308 215,562 -440,1782 -754,2200 -478,637 -1033,987 -1725,1492 -4072,2971 -13209,2728 -12881,-2717zm-8657 -4120c914,33 1093,-277 1735,-392 1839,-331 7143,-792 9361,-801 1410,-6 2531,-198 3746,-278 1464,-96 2625,152 4028,104 816,-28 776,-302 1731,-287 685,11 1320,44 2010,24 2630,-74 5241,-362 7888,-159l-801 325c677,461 2481,-120 3354,-154 3774,-145 6013,377 9236,2032 -126,304 -307,376 -314,360 -11,-23 -59,31 -86,50 360,166 440,0 401,509 -23,303 -126,324 -350,464 -1964,1225 -8311,789 -10356,637 -2069,-155 -4206,160 -6294,157 -1833,-3 -4416,-353 -6185,-30 -1992,363 -4088,203 -6104,478 -883,120 -1902,269 -2835,325 -1053,62 -2063,80 -2960,269l-11436 1516c702,-740 1270,-454 1814,-991 -951,84 -3282,791 -4094,477 -407,-158 -884,-620 -1490,-897 -873,-399 -716,-542 -1297,-988 -42,-1652 598,-2607 2323,-2920 24,29 55,69 69,91l170 270c243,358 55,216 417,323 1,-705 -177,-735 410,-933 251,-85 767,-154 1074,-167 794,-35 1459,-143 2149,-235l4900 -189c-183,278 130,232 -546,438 -884,269 -1295,-10 -1668,572zm-2417 4158c391,-14 290,-40 404,-153l-404 153zm-3639 -5070c-20,-2450 582,-6334 1792,-8277 453,-727 738,-1373 1154,-2184l2111 -2981c880,-1254 1377,-1583 2500,-2466 626,-493 1107,-900 1842,-1370 3876,-2475 4216,-2006 7256,-2797 3088,-803 5596,-870 8614,-127 2761,680 3152,2201 4155,2338 -109,-305 -1240,-1367 -1575,-1680 -505,-471 -243,16 -570,-602 2074,143 3926,967 5012,2593 222,332 123,358 490,512 -177,-642 -412,-687 -536,-1342 898,230 3911,1955 4506,2516 3487,3282 3416,3982 4994,8815 282,861 842,4928 859,5727l-5502 -144c-939,-7 -1875,7 -2812,2l-2539 122c-1784,131 -3701,14 -5493,34l-10646 446c-1709,209 -3634,-62 -5407,99 -1507,137 -3499,412 -5100,384 -845,-14 -1886,-80 -2698,107 -834,193 -1454,274 -2407,275zm13672 -29081c1540,-939 3502,1672 1812,2367 -816,336 -1933,48 -2293,-404 -524,-655 -3,-1669 481,-1963zm12388 -1663c27,-26 108,-104 135,-131 279,-282 613,-750 904,-867 2261,-912 2906,2859 -753,2696 -270,-444 -413,-842 -486,-1494l200 -204zm-536 2006c587,150 576,459 1645,323 1284,-164 1427,-228 1847,-971 831,-1471 468,-2207 -483,-3098 -1408,-134 -2570,151 -3026,1189 -337,769 50,1037 -337,1791l-2917 3521c-1336,1665 -916,2013 -1618,2617 -1184,-493 -1260,-984 -1964,-1728 -549,-579 -1265,-1176 -1672,-1831 159,-588 369,-1453 130,-2138 -242,-690 -570,-840 -1418,-961 -1750,-249 -2780,81 -3730,978 -138,1481 192,2436 1245,2794 1579,537 2196,-104 3460,-210 244,730 912,1862 1475,2411 456,444 1504,1054 1714,2095 -1383,21 -3252,438 -4552,844 -1169,365 -2545,1147 -3548,1805 -1490,977 -1525,591 -3335,2015 -2378,1872 -3490,2379 -5455,5244 -1313,1915 -1070,2038 -1780,3571 -165,357 -318,439 -438,879l-954 3057c-307,1237 -491,3361 -557,4705 -1136,155 -2027,767 -2584,1424 -352,416 -416,801 -525,1464 -115,699 45,813 461,1280 438,490 1785,1363 2359,1658 632,325 2270,733 3091,774 61,922 108,2207 926,2430 1249,340 256,163 1266,596 572,246 838,520 1460,672 1177,287 2510,523 3643,54 1113,-459 1947,-789 2759,-1519 1419,-1276 1062,-1249 1453,-2264 169,-440 117,-230 242,-388 637,197 347,138 742,1073 347,819 1943,1922 2783,2138 2463,633 4446,997 7078,200 480,-146 788,-196 1263,-340 1243,-374 3919,-2286 4685,-3583 235,-398 316,-695 572,-1023 37,504 336,1737 531,2163 163,356 920,1079 1224,1304 3701,2753 9017,189 9378,-3729 1369,-76 2974,-237 4265,-436 406,-63 1423,-406 1794,-605 559,-298 943,-417 979,-1244 38,-885 -206,-1308 -727,-1617 -176,-103 -1481,-709 -1544,-727 -1302,-367 -2434,-856 -3552,-1028 -161,-3112 -1182,-7456 -2352,-9973 -1148,-2469 -460,-1811 -2605,-4076 -480,-506 -855,-835 -1363,-1315 -586,-552 -1002,-658 -1709,-1098 -561,-349 -1116,-612 -1741,-927 -2467,-1244 -3131,-1610 -5880,-2264l-3382 -625c-2773,-215 -642,-195 -2220,-484 -448,-82 -802,-73 -1264,-92 285,-497 297,-28 1280,-1676 887,-1485 2845,-3687 3482,-5099z"/>
    <path class="fil2" d="M109921 98545c-21,-28 -47,-112 -57,-88 -52,133 -93,-135 -112,-155 -200,-211 71,-26 -184,-142 -220,1607 -5,901 878,656 -252,733 -1016,1066 -974,1913l692 -341c452,-410 341,-519 823,-659 -341,768 -699,969 -1079,1753 179,73 -141,360 456,30l2082 -1938c552,-560 136,-573 -433,-18 -299,293 -488,437 -756,587 215,-837 491,-403 727,-1523 -634,-23 -383,149 -990,325l265 -560c223,-354 398,-546 483,-999 -545,37 -1376,891 -1821,1159z"/>
    <path class="fil2" d="M84268 106387c743,9 728,-243 1205,-570 123,-85 109,-65 239,-148 24,-15 59,-34 83,-49l805 -625c-116,429 -522,658 -681,1319 13,0 294,-4 299,-5 34,-6 90,-6 129,-15l209 -68c27,-12 57,-35 82,-50l668 -669c19,-22 40,-56 59,-77l435 -300 -229 707c826,61 1360,-33 1721,-469l-1118 224c164,-818 466,-706 556,-1382 -610,-7 -941,623 -1351,970 -800,676 -662,517 -860,425 494,-307 1054,-917 1245,-1512 -279,-6 -321,-209 -1118,606 -213,-276 -147,-444 -287,-664 -490,528 -670,874 -1021,1245 -362,382 -915,605 -1070,1107z"/>
    <path class="fil2" d="M78920 101695c1200,202 4009,-131 5229,-305 864,-123 1836,-93 2745,-112l2462 -22c319,-738 -1370,-582 -2300,-481 -942,101 -1961,108 -2969,217 -905,97 -1903,295 -2813,378 -1799,163 -2254,-436 -2354,325z"/>
    <path class="fil2" d="M83279 88360c297,-130 109,39 279,-244 881,-1464 1471,-1968 3416,-2630 942,-321 2220,85 1869,-537 -387,-688 -2964,571 -3395,774 -540,253 -1040,686 -1439,1092 -225,228 -401,373 -565,630 -18,26 -231,444 -234,454 -155,579 28,391 69,461z"/>
    <path class="fil2" d="M100440 93073c-230,-173 57,-72 -304,-151 -290,-64 -1645,-182 -1495,-1318 64,-484 157,-534 720,-680 628,-162 235,177 486,-286 -3,-5 0,-295 -582,-203 -1299,207 -1637,1974 -284,2708 577,312 938,128 1459,-70z"/>
    <path class="fil2" d="M97506 111759c673,-20 921,-636 1327,-1016 339,-317 880,-846 1015,-1362 -413,-520 -805,497 -1179,928 -330,381 -1062,936 -1163,1450z"/>
    <path class="fil2" d="M99250 103758c450,290 1556,73 2198,154 658,84 1678,270 1998,-154 -337,-205 -3855,-207 -4196,0z"/>
    <path class="fil2" d="M109926 111389c728,349 2067,-1335 1739,-2127 -661,255 -6,191 -814,1175 -272,331 -780,635 -925,952z"/>
    <path class="fil2" d="M81581 112808c732,-65 2023,-1145 1564,-1945 -603,96 -230,-123 -443,482 -327,933 -970,1087 -1121,1463z"/>
    <path class="fil2" d="M113802 104561c386,194 987,41 817,773 -99,428 -492,596 -636,918 2333,-1045 -7,-2684 -181,-1691z"/>
    <path class="fil2" d="M72788 107019c25,-15 64,-70 74,-48 156,358 115,-91 140,-111l1308 -832c24,-17 60,-37 83,-55 259,-196 303,-135 252,-536 -518,82 -639,371 -970,637 -553,445 -821,239 -887,945z"/>
    <path class="fil2" d="M96670 111251c37,24 68,425 478,-166 23,-33 75,-148 98,-182l467 -478c19,-19 47,-49 66,-68l400 -483c-839,-88 -1568,1136 -1509,1377z"/>
    <path class="fil2" d="M80096 100411c295,163 2527,-200 2631,-268 -418,-462 -1155,-153 -1962,42 -238,57 -73,-2 -324,72l-345 154z"/>
    <path class="fil2" d="M101388 105365c357,138 1997,104 2517,-4l390 -130c-504,-282 -2694,38 -2907,134z"/>
    <path class="fil2" d="M72326 106150l595 -36c28,-10 62,-29 89,-42l595 -477c184,-182 118,-61 219,-417 -525,-52 -1227,476 -1498,972z"/>
    <path class="fil2" d="M84631 88482c567,-103 431,-298 873,-582 427,-275 622,-224 928,-609 -605,-348 -1659,778 -1801,1191z"/>
    <path class="fil2" d="M76770 112786c-136,-467 -511,-1366 -1053,-1327 -78,533 627,1138 1053,1327z"/>
    <path class="fil2" d="M86318 77066l552 -1558c-442,61 -555,191 -671,630 -133,504 -86,642 119,928z"/>
    <path class="fil2" d="M99534 74258c440,-54 495,-198 673,-554 229,-458 369,-530 75,-816 -245,213 -660,987 -748,1370z"/>
    <path class="fil2" d="M108789 111178c463,-22 1129,-689 1443,-777 -546,-338 -1318,429 -1443,777z"/>
    <path class="fil2" d="M80262 112940c455,-8 203,114 496,-313 138,-201 242,-350 353,-560 -515,61 -789,377 -849,873z"/>
    <path class="fil2" d="M89438 111641c237,-91 231,227 322,-466 47,-357 -17,-319 -297,-412 -186,323 -242,459 -25,878z"/>
    <path class="fil2" d="M100148 95434c1,0 356,-27 365,-401 5,-169 286,-55 -104,-156 -499,-130 -345,428 -261,557z"/>
    <path class="fil2" d="M100148 99976c107,-177 100,218 110,-256 13,-602 -34,-238 -110,-373 -236,287 -424,446 0,629z"/>
    <path class="fil2" d="M110322 95986c403,-213 344,-59 128,-502 -51,36 -140,-12 -195,177 -150,511 27,256 67,325z"/>
    <path class="fil2" d="M100264 97466c228,140 -279,219 248,87 72,-18 178,-114 231,-160 -634,-331 -321,-5 -479,73z"/>
    <path class="fil2" d="M90321 105632c361,155 216,82 373,-134 -516,-246 -281,60 -373,134z"/>
   </g>
  </g>
  <g id="_512020504">
   <path class="fil0 str0" d="M34718 99457c1914,-2560 2496,-2724 4325,-4773 1364,-1528 2151,-1920 3803,-3968 377,-468 878,-829 997,-1533 -3122,-146 -6932,-516 -10180,-298 -2076,140 -987,562 -2746,367 -143,-1044 -1548,-4179 -2507,-4802 -13,1265 187,2110 497,3189 -890,-406 -491,-4205 -2086,-6607 -384,-578 -636,-1663 -919,-1995 -1369,851 -3280,3840 -4199,5415 -385,658 -387,1068 -1269,1932 -339,331 -1372,2117 -1787,2484l233 712 -341 329c-2405,159 -4580,318 -6791,746 -1277,247 -5942,270 -7001,536 182,774 805,1537 1294,2049l3292 3410c1168,944 3181,3606 3991,4435 1957,2005 963,1042 773,3348 -96,1165 133,2069 182,3235l-231 -469c-45,-160 -76,-390 -107,-561 -24,-131 -62,-438 -97,-560 -209,-738 -62,-238 -282,-483 -133,698 -392,1346 -523,2067l-1248 6219c902,-210 740,-590 1482,-1037 1965,-1183 2067,-1058 3149,-1674 2947,-1677 4167,-2867 6535,-5084 1065,193 2503,1308 3479,1696 405,161 604,87 1023,328 636,366 1491,1206 2593,1480 139,-662 508,-1337 790,-1966 605,-1352 458,-615 79,-1891 -186,-623 -1221,-3688 -1003,-4040 396,414 1108,3640 1393,4425 247,-178 183,-80 373,-341 1252,-1727 -270,-2825 -249,-5183 1077,124 198,2312 1171,3319 220,-574 51,-584 525,-902 472,870 -1138,371 24,2868 470,1013 143,765 110,821 -312,-262 -570,-1068 -739,-1516 -378,210 -587,517 -789,1078 -309,857 221,63 -504,1244 -268,437 -306,706 -541,1212l-611 1042c137,103 461,317 754,467l4092 2188c1705,1040 1858,896 1587,-229l-482 -2494c-220,-1109 -577,-1642 -726,-3116 -51,-505 -942,-3158 -1073,-4947 -59,-817 -147,-971 -244,-1609 464,-303 312,-6 729,-563zm-1980 10461c156,-944 428,-2733 929,-3172 300,517 -156,1087 -303,1561 -174,559 -136,762 -474,1379 -122,222 -79,132 -152,232zm1545 -13836c-696,324 -1001,-126 -1344,-480 -7,-866 518,-1449 892,-1986 385,-552 897,-1196 1844,-834 -435,623 -307,49 -997,349 -292,127 -1480,1214 -1101,2428 1211,400 1030,-442 1806,-750 -190,473 -613,1046 -1100,1273zm-10320 -3015l-94 620c-525,-204 -546,-458 94,-620zm-3178 -3216c-130,505 -60,860 -701,858 0,-387 2177,-4078 2524,-4699 239,-430 345,-803 587,-1297 225,-458 409,-721 638,-1241 412,-934 819,-2063 1460,-1995 4,491 -291,750 -571,1174 -1249,1893 -841,1383 -1952,3541l-1985 3659zm-9660 3237c-59,440 -630,1874 -1881,506 -109,-1288 778,-2401 1499,-1606 -135,282 77,146 -367,262 -331,86 -214,-111 -519,162 -294,263 -402,776 4,1304 1295,33 578,-229 1264,-628zm12725 -6011c-85,388 -609,1264 -816,1653 -469,883 -6,492 -678,1572 -353,-568 1063,-2911 1494,-3225zm579 7053c118,179 194,144 0,405l-80 -145c-3,-14 1,-68 0,-81 -14,-192 2,-33 80,-179zm-1038 -3295c-164,586 81,310 -300,554 -161,-423 253,-1039 502,-1242 -61,241 -119,390 -202,688zm-11901 2540c-5,4 -7,-1 0,0zm151 -286l-64 348c-54,-51 -78,-61 -87,-62 7,-7 20,-36 12,-147 -1,-10 29,-37 29,-70 0,-37 31,-47 110,-69zm25239 1583c-92,-92 -303,82 0,-378 121,162 203,112 0,378zm-10556 10837c50,-66 -265,-163 444,-192 -261,812 -388,230 -444,192zm-8229 -1922c66,299 205,474 315,838 -470,-141 -447,-219 -315,-838zm6236 1372c151,-434 114,-226 437,-446 314,457 12,698 -437,446zm-7463 -2875c219,344 668,1271 466,1667 -328,-283 -512,-1052 -466,-1667zm-877 -200c526,-101 446,1733 398,1872 -295,-260 -512,-967 -511,-1462 1,-523 53,-298 113,-410z"/>
   <g>
    <path class="fil2" d="M28410 84450c959,623 2364,3758 2507,4802 1759,195 670,-227 2746,-367 3248,-218 7058,152 10180,298 -119,704 -620,1065 -997,1533 -1652,2048 -2439,2440 -3803,3968 -1829,2049 -2411,2213 -4325,4773 -417,557 -265,260 -729,563 97,638 185,792 244,1609 131,1789 1022,4442 1073,4947 149,1474 506,2007 726,3116l482 2494c271,1125 118,1269 -1587,229l-4092 -2188c-293,-150 -617,-364 -754,-467l611 -1042c235,-506 273,-775 541,-1212 725,-1181 195,-387 504,-1244 202,-561 411,-868 789,-1078 169,448 427,1254 739,1516 33,-56 360,192 -110,-821 -1162,-2497 448,-1998 -24,-2868 -474,318 -305,328 -525,902 -973,-1007 -94,-3195 -1171,-3319 -21,2358 1501,3456 249,5183 -190,261 -126,163 -373,341 -285,-785 -997,-4011 -1393,-4425 -218,352 817,3417 1003,4040 379,1276 526,539 -79,1891 -282,629 -651,1304 -790,1966 -1102,-274 -1957,-1114 -2593,-1480 -419,-241 -618,-167 -1023,-328 -976,-388 -2414,-1503 -3479,-1696 -2368,2217 -3588,3407 -6535,5084 -1082,616 -1184,491 -3149,1674 -742,447 -580,827 -1482,1037l1248 -6219c131,-721 390,-1369 523,-2067 220,245 73,-255 282,483 35,122 73,429 97,560 31,171 62,401 107,561l231 469c-49,-1166 -278,-2070 -182,-3235 190,-2306 1184,-1343 -773,-3348 -810,-829 -2823,-3491 -3991,-4435l-3292 -3410c-489,-512 -1112,-1275 -1294,-2049 1059,-266 5724,-289 7001,-536 2211,-428 4386,-587 6791,-746l341 -329 -233 -712c415,-367 1448,-2153 1787,-2484 882,-864 884,-1274 1269,-1932 919,-1575 2830,-4564 4199,-5415 283,332 535,1417 919,1995 1595,2402 1196,6201 2086,6607 -310,-1079 -510,-1924 -497,-3189zm-2508 -6483c-272,200 -586,743 -1088,1155l-5733 7249c-317,579 124,124 -101,700l-864 1413c-734,1037 -251,843 -2135,1074 -1333,164 -2881,16 -4099,221 -653,110 -1083,278 -1834,409 -2315,405 -3502,471 -5837,616 -261,491 -360,332 -485,1050l1770 2200c240,305 245,455 460,763 425,611 1946,1972 2571,2499 932,784 1757,1621 2623,2464 889,866 1700,1715 2603,2450l-1215 4874c-903,2972 -174,1816 -551,3230l-1007 4739c976,40 1714,-1251 3031,-2061 1415,-869 3181,-1474 5006,-2759 388,-274 923,-856 1309,-1216 491,-459 975,-661 1462,-1084 467,-406 782,-967 1437,-1149l6938 3811c595,364 986,676 1698,972l4461 2235c924,559 916,71 918,69 525,-602 -600,-4093 -894,-5058 -171,-564 -224,-1146 -290,-1720 -147,-1268 -520,-2173 -741,-3409l-412 -2671c-114,-409 -138,-218 -193,-745l3909 -4286c427,-452 901,-925 1256,-1418l2720 -2770c490,-537 841,-777 1381,-1298 1278,-1234 697,-712 1057,-1614 -1120,-546 -2078,-244 -3456,-393l-10268 -188c-923,-1339 -993,-3309 -2390,-5509 -539,-847 -2451,-4527 -3017,-4845z"/>
    <path class="fil2" d="M20084 90709c641,2 571,-353 701,-858l1985 -3659c1111,-2158 703,-1648 1952,-3541 280,-424 575,-683 571,-1174 -641,-68 -1048,1061 -1460,1995 -229,520 -413,783 -638,1241 -242,494 -348,867 -587,1297 -347,621 -2524,4312 -2524,4699z"/>
    <path class="fil2" d="M32939 95602c343,354 648,804 1344,480 487,-227 910,-800 1100,-1273 -776,308 -595,1150 -1806,750 -379,-1214 809,-2301 1101,-2428 690,-300 562,274 997,-349 -947,-362 -1459,282 -1844,834 -374,537 -899,1120 -892,1986z"/>
    <path class="fil2" d="M9244 93594c1251,1368 1822,-66 1881,-506 -686,399 31,661 -1264,628 -406,-528 -298,-1041 -4,-1304 305,-273 188,-76 519,-162 444,-116 232,20 367,-262 -721,-795 -1608,318 -1499,1606z"/>
    <path class="fil2" d="M33667 106746c-501,439 -773,2228 -929,3172 73,-100 30,-10 152,-232 338,-617 300,-820 474,-1379 147,-474 603,-1044 303,-1561z"/>
    <path class="fil2" d="M22356 90302c672,-1080 209,-689 678,-1572 207,-389 731,-1265 816,-1653 -431,314 -1847,2657 -1494,3225z"/>
    <path class="fil2" d="M15991 101884c-60,112 -112,-113 -113,410 -1,495 216,1202 511,1462 48,-139 128,-1973 -398,-1872z"/>
    <path class="fil2" d="M17334 103751c202,-396 -247,-1323 -466,-1667 -46,615 138,1384 466,1667z"/>
    <path class="fil2" d="M23091 91389c381,-244 136,32 300,-554 83,-298 141,-447 202,-688 -249,203 -663,819 -502,1242z"/>
    <path class="fil2" d="M24768 104513c-323,220 -286,12 -437,446 449,252 751,11 437,-446z"/>
    <path class="fil2" d="M23869 93687l94 -620c-640,162 -619,416 -94,620z"/>
    <path class="fil2" d="M18410 104425c-110,-364 -249,-539 -315,-838 -132,619 -155,697 315,838z"/>
    <path class="fil2" d="M26768 105317c-709,29 -394,126 -444,192 56,38 183,620 444,-192z"/>
    <path class="fil2" d="M36880 94672c203,-266 121,-216 0,-378 -303,460 -92,286 0,378z"/>
    <path class="fil2" d="M24429 94535c194,-261 118,-226 0,-405 -78,146 -94,-13 -80,179 1,13 -3,67 0,81l80 145z"/>
    <path class="fil2" d="M11577 93437l64 -348c-79,22 -110,32 -110,69 0,33 -30,60 -29,70 21,270 -89,56 75,209z"/>
   </g>
  </g>
 </g>
</svg>
